G04 #@! TF.GenerationSoftware,KiCad,Pcbnew,(5.1.4)-1*
G04 #@! TF.CreationDate,2020-11-09T21:53:22-05:00*
G04 #@! TF.ProjectId,ft221x,66743232-3178-42e6-9b69-6361645f7063,2020-02*
G04 #@! TF.SameCoordinates,Original*
G04 #@! TF.FileFunction,Paste,Top*
G04 #@! TF.FilePolarity,Positive*
%FSLAX46Y46*%
G04 Gerber Fmt 4.6, Leading zero omitted, Abs format (unit mm)*
G04 Created by KiCad (PCBNEW (5.1.4)-1) date 2020-11-09 21:53:22*
%MOMM*%
%LPD*%
G04 APERTURE LIST*
%ADD10C,0.100000*%
%ADD11C,0.585000*%
%ADD12R,0.720000X0.240000*%
%ADD13R,0.900000X1.140000*%
%ADD14R,0.240000X0.810000*%
G04 APERTURE END LIST*
D10*
G36*
X30641085Y-42585704D02*
G01*
X30655282Y-42587810D01*
X30669204Y-42591297D01*
X30682717Y-42596133D01*
X30695692Y-42602269D01*
X30708002Y-42609648D01*
X30719530Y-42618197D01*
X30730164Y-42627836D01*
X30739803Y-42638470D01*
X30748352Y-42649998D01*
X30755731Y-42662308D01*
X30761867Y-42675283D01*
X30766703Y-42688796D01*
X30770190Y-42702718D01*
X30772296Y-42716915D01*
X30773000Y-42731250D01*
X30773000Y-43023750D01*
X30772296Y-43038085D01*
X30770190Y-43052282D01*
X30766703Y-43066204D01*
X30761867Y-43079717D01*
X30755731Y-43092692D01*
X30748352Y-43105002D01*
X30739803Y-43116530D01*
X30730164Y-43127164D01*
X30719530Y-43136803D01*
X30708002Y-43145352D01*
X30695692Y-43152731D01*
X30682717Y-43158867D01*
X30669204Y-43163703D01*
X30655282Y-43167190D01*
X30641085Y-43169296D01*
X30626750Y-43170000D01*
X30079250Y-43170000D01*
X30064915Y-43169296D01*
X30050718Y-43167190D01*
X30036796Y-43163703D01*
X30023283Y-43158867D01*
X30010308Y-43152731D01*
X29997998Y-43145352D01*
X29986470Y-43136803D01*
X29975836Y-43127164D01*
X29966197Y-43116530D01*
X29957648Y-43105002D01*
X29950269Y-43092692D01*
X29944133Y-43079717D01*
X29939297Y-43066204D01*
X29935810Y-43052282D01*
X29933704Y-43038085D01*
X29933000Y-43023750D01*
X29933000Y-42731250D01*
X29933704Y-42716915D01*
X29935810Y-42702718D01*
X29939297Y-42688796D01*
X29944133Y-42675283D01*
X29950269Y-42662308D01*
X29957648Y-42649998D01*
X29966197Y-42638470D01*
X29975836Y-42627836D01*
X29986470Y-42618197D01*
X29997998Y-42609648D01*
X30010308Y-42602269D01*
X30023283Y-42596133D01*
X30036796Y-42591297D01*
X30050718Y-42587810D01*
X30064915Y-42585704D01*
X30079250Y-42585000D01*
X30626750Y-42585000D01*
X30641085Y-42585704D01*
X30641085Y-42585704D01*
G37*
D11*
X30353000Y-42877500D03*
D10*
G36*
X30641085Y-44460704D02*
G01*
X30655282Y-44462810D01*
X30669204Y-44466297D01*
X30682717Y-44471133D01*
X30695692Y-44477269D01*
X30708002Y-44484648D01*
X30719530Y-44493197D01*
X30730164Y-44502836D01*
X30739803Y-44513470D01*
X30748352Y-44524998D01*
X30755731Y-44537308D01*
X30761867Y-44550283D01*
X30766703Y-44563796D01*
X30770190Y-44577718D01*
X30772296Y-44591915D01*
X30773000Y-44606250D01*
X30773000Y-44898750D01*
X30772296Y-44913085D01*
X30770190Y-44927282D01*
X30766703Y-44941204D01*
X30761867Y-44954717D01*
X30755731Y-44967692D01*
X30748352Y-44980002D01*
X30739803Y-44991530D01*
X30730164Y-45002164D01*
X30719530Y-45011803D01*
X30708002Y-45020352D01*
X30695692Y-45027731D01*
X30682717Y-45033867D01*
X30669204Y-45038703D01*
X30655282Y-45042190D01*
X30641085Y-45044296D01*
X30626750Y-45045000D01*
X30079250Y-45045000D01*
X30064915Y-45044296D01*
X30050718Y-45042190D01*
X30036796Y-45038703D01*
X30023283Y-45033867D01*
X30010308Y-45027731D01*
X29997998Y-45020352D01*
X29986470Y-45011803D01*
X29975836Y-45002164D01*
X29966197Y-44991530D01*
X29957648Y-44980002D01*
X29950269Y-44967692D01*
X29944133Y-44954717D01*
X29939297Y-44941204D01*
X29935810Y-44927282D01*
X29933704Y-44913085D01*
X29933000Y-44898750D01*
X29933000Y-44606250D01*
X29933704Y-44591915D01*
X29935810Y-44577718D01*
X29939297Y-44563796D01*
X29944133Y-44550283D01*
X29950269Y-44537308D01*
X29957648Y-44524998D01*
X29966197Y-44513470D01*
X29975836Y-44502836D01*
X29986470Y-44493197D01*
X29997998Y-44484648D01*
X30010308Y-44477269D01*
X30023283Y-44471133D01*
X30036796Y-44466297D01*
X30050718Y-44462810D01*
X30064915Y-44460704D01*
X30079250Y-44460000D01*
X30626750Y-44460000D01*
X30641085Y-44460704D01*
X30641085Y-44460704D01*
G37*
D11*
X30353000Y-44752500D03*
D12*
X26610000Y-39687500D03*
X26610000Y-39052500D03*
X26610000Y-38417500D03*
X26610000Y-37782500D03*
X26610000Y-37147500D03*
X26610000Y-36512500D03*
X26610000Y-35877500D03*
X26610000Y-35242500D03*
X26610000Y-34607500D03*
X26610000Y-33972500D03*
X31810000Y-33972500D03*
X31810000Y-34607500D03*
X31810000Y-35242500D03*
X31810000Y-35877500D03*
X31810000Y-36512500D03*
X31810000Y-37147500D03*
X31810000Y-37782500D03*
X31810000Y-38417500D03*
X31810000Y-39052500D03*
X31810000Y-39687500D03*
D13*
X28210000Y-50767500D03*
D14*
X29210000Y-48067500D03*
X29860000Y-48067500D03*
X30510000Y-48067500D03*
X27910000Y-48067500D03*
X28560000Y-48067500D03*
D13*
X30210000Y-50767500D03*
D10*
G36*
X30308085Y-30695704D02*
G01*
X30322282Y-30697810D01*
X30336204Y-30701297D01*
X30349717Y-30706133D01*
X30362692Y-30712269D01*
X30375002Y-30719648D01*
X30386530Y-30728197D01*
X30397164Y-30737836D01*
X30406803Y-30748470D01*
X30415352Y-30759998D01*
X30422731Y-30772308D01*
X30428867Y-30785283D01*
X30433703Y-30798796D01*
X30437190Y-30812718D01*
X30439296Y-30826915D01*
X30440000Y-30841250D01*
X30440000Y-31388750D01*
X30439296Y-31403085D01*
X30437190Y-31417282D01*
X30433703Y-31431204D01*
X30428867Y-31444717D01*
X30422731Y-31457692D01*
X30415352Y-31470002D01*
X30406803Y-31481530D01*
X30397164Y-31492164D01*
X30386530Y-31501803D01*
X30375002Y-31510352D01*
X30362692Y-31517731D01*
X30349717Y-31523867D01*
X30336204Y-31528703D01*
X30322282Y-31532190D01*
X30308085Y-31534296D01*
X30293750Y-31535000D01*
X30001250Y-31535000D01*
X29986915Y-31534296D01*
X29972718Y-31532190D01*
X29958796Y-31528703D01*
X29945283Y-31523867D01*
X29932308Y-31517731D01*
X29919998Y-31510352D01*
X29908470Y-31501803D01*
X29897836Y-31492164D01*
X29888197Y-31481530D01*
X29879648Y-31470002D01*
X29872269Y-31457692D01*
X29866133Y-31444717D01*
X29861297Y-31431204D01*
X29857810Y-31417282D01*
X29855704Y-31403085D01*
X29855000Y-31388750D01*
X29855000Y-30841250D01*
X29855704Y-30826915D01*
X29857810Y-30812718D01*
X29861297Y-30798796D01*
X29866133Y-30785283D01*
X29872269Y-30772308D01*
X29879648Y-30759998D01*
X29888197Y-30748470D01*
X29897836Y-30737836D01*
X29908470Y-30728197D01*
X29919998Y-30719648D01*
X29932308Y-30712269D01*
X29945283Y-30706133D01*
X29958796Y-30701297D01*
X29972718Y-30697810D01*
X29986915Y-30695704D01*
X30001250Y-30695000D01*
X30293750Y-30695000D01*
X30308085Y-30695704D01*
X30308085Y-30695704D01*
G37*
D11*
X30147500Y-31115000D03*
D10*
G36*
X28433085Y-30695704D02*
G01*
X28447282Y-30697810D01*
X28461204Y-30701297D01*
X28474717Y-30706133D01*
X28487692Y-30712269D01*
X28500002Y-30719648D01*
X28511530Y-30728197D01*
X28522164Y-30737836D01*
X28531803Y-30748470D01*
X28540352Y-30759998D01*
X28547731Y-30772308D01*
X28553867Y-30785283D01*
X28558703Y-30798796D01*
X28562190Y-30812718D01*
X28564296Y-30826915D01*
X28565000Y-30841250D01*
X28565000Y-31388750D01*
X28564296Y-31403085D01*
X28562190Y-31417282D01*
X28558703Y-31431204D01*
X28553867Y-31444717D01*
X28547731Y-31457692D01*
X28540352Y-31470002D01*
X28531803Y-31481530D01*
X28522164Y-31492164D01*
X28511530Y-31501803D01*
X28500002Y-31510352D01*
X28487692Y-31517731D01*
X28474717Y-31523867D01*
X28461204Y-31528703D01*
X28447282Y-31532190D01*
X28433085Y-31534296D01*
X28418750Y-31535000D01*
X28126250Y-31535000D01*
X28111915Y-31534296D01*
X28097718Y-31532190D01*
X28083796Y-31528703D01*
X28070283Y-31523867D01*
X28057308Y-31517731D01*
X28044998Y-31510352D01*
X28033470Y-31501803D01*
X28022836Y-31492164D01*
X28013197Y-31481530D01*
X28004648Y-31470002D01*
X27997269Y-31457692D01*
X27991133Y-31444717D01*
X27986297Y-31431204D01*
X27982810Y-31417282D01*
X27980704Y-31403085D01*
X27980000Y-31388750D01*
X27980000Y-30841250D01*
X27980704Y-30826915D01*
X27982810Y-30812718D01*
X27986297Y-30798796D01*
X27991133Y-30785283D01*
X27997269Y-30772308D01*
X28004648Y-30759998D01*
X28013197Y-30748470D01*
X28022836Y-30737836D01*
X28033470Y-30728197D01*
X28044998Y-30719648D01*
X28057308Y-30712269D01*
X28070283Y-30706133D01*
X28083796Y-30701297D01*
X28097718Y-30697810D01*
X28111915Y-30695704D01*
X28126250Y-30695000D01*
X28418750Y-30695000D01*
X28433085Y-30695704D01*
X28433085Y-30695704D01*
G37*
D11*
X28272500Y-31115000D03*
D10*
G36*
X26958085Y-42585704D02*
G01*
X26972282Y-42587810D01*
X26986204Y-42591297D01*
X26999717Y-42596133D01*
X27012692Y-42602269D01*
X27025002Y-42609648D01*
X27036530Y-42618197D01*
X27047164Y-42627836D01*
X27056803Y-42638470D01*
X27065352Y-42649998D01*
X27072731Y-42662308D01*
X27078867Y-42675283D01*
X27083703Y-42688796D01*
X27087190Y-42702718D01*
X27089296Y-42716915D01*
X27090000Y-42731250D01*
X27090000Y-43023750D01*
X27089296Y-43038085D01*
X27087190Y-43052282D01*
X27083703Y-43066204D01*
X27078867Y-43079717D01*
X27072731Y-43092692D01*
X27065352Y-43105002D01*
X27056803Y-43116530D01*
X27047164Y-43127164D01*
X27036530Y-43136803D01*
X27025002Y-43145352D01*
X27012692Y-43152731D01*
X26999717Y-43158867D01*
X26986204Y-43163703D01*
X26972282Y-43167190D01*
X26958085Y-43169296D01*
X26943750Y-43170000D01*
X26396250Y-43170000D01*
X26381915Y-43169296D01*
X26367718Y-43167190D01*
X26353796Y-43163703D01*
X26340283Y-43158867D01*
X26327308Y-43152731D01*
X26314998Y-43145352D01*
X26303470Y-43136803D01*
X26292836Y-43127164D01*
X26283197Y-43116530D01*
X26274648Y-43105002D01*
X26267269Y-43092692D01*
X26261133Y-43079717D01*
X26256297Y-43066204D01*
X26252810Y-43052282D01*
X26250704Y-43038085D01*
X26250000Y-43023750D01*
X26250000Y-42731250D01*
X26250704Y-42716915D01*
X26252810Y-42702718D01*
X26256297Y-42688796D01*
X26261133Y-42675283D01*
X26267269Y-42662308D01*
X26274648Y-42649998D01*
X26283197Y-42638470D01*
X26292836Y-42627836D01*
X26303470Y-42618197D01*
X26314998Y-42609648D01*
X26327308Y-42602269D01*
X26340283Y-42596133D01*
X26353796Y-42591297D01*
X26367718Y-42587810D01*
X26381915Y-42585704D01*
X26396250Y-42585000D01*
X26943750Y-42585000D01*
X26958085Y-42585704D01*
X26958085Y-42585704D01*
G37*
D11*
X26670000Y-42877500D03*
D10*
G36*
X26958085Y-44460704D02*
G01*
X26972282Y-44462810D01*
X26986204Y-44466297D01*
X26999717Y-44471133D01*
X27012692Y-44477269D01*
X27025002Y-44484648D01*
X27036530Y-44493197D01*
X27047164Y-44502836D01*
X27056803Y-44513470D01*
X27065352Y-44524998D01*
X27072731Y-44537308D01*
X27078867Y-44550283D01*
X27083703Y-44563796D01*
X27087190Y-44577718D01*
X27089296Y-44591915D01*
X27090000Y-44606250D01*
X27090000Y-44898750D01*
X27089296Y-44913085D01*
X27087190Y-44927282D01*
X27083703Y-44941204D01*
X27078867Y-44954717D01*
X27072731Y-44967692D01*
X27065352Y-44980002D01*
X27056803Y-44991530D01*
X27047164Y-45002164D01*
X27036530Y-45011803D01*
X27025002Y-45020352D01*
X27012692Y-45027731D01*
X26999717Y-45033867D01*
X26986204Y-45038703D01*
X26972282Y-45042190D01*
X26958085Y-45044296D01*
X26943750Y-45045000D01*
X26396250Y-45045000D01*
X26381915Y-45044296D01*
X26367718Y-45042190D01*
X26353796Y-45038703D01*
X26340283Y-45033867D01*
X26327308Y-45027731D01*
X26314998Y-45020352D01*
X26303470Y-45011803D01*
X26292836Y-45002164D01*
X26283197Y-44991530D01*
X26274648Y-44980002D01*
X26267269Y-44967692D01*
X26261133Y-44954717D01*
X26256297Y-44941204D01*
X26252810Y-44927282D01*
X26250704Y-44913085D01*
X26250000Y-44898750D01*
X26250000Y-44606250D01*
X26250704Y-44591915D01*
X26252810Y-44577718D01*
X26256297Y-44563796D01*
X26261133Y-44550283D01*
X26267269Y-44537308D01*
X26274648Y-44524998D01*
X26283197Y-44513470D01*
X26292836Y-44502836D01*
X26303470Y-44493197D01*
X26314998Y-44484648D01*
X26327308Y-44477269D01*
X26340283Y-44471133D01*
X26353796Y-44466297D01*
X26367718Y-44462810D01*
X26381915Y-44460704D01*
X26396250Y-44460000D01*
X26943750Y-44460000D01*
X26958085Y-44460704D01*
X26958085Y-44460704D01*
G37*
D11*
X26670000Y-44752500D03*
D10*
G36*
X32673085Y-44460704D02*
G01*
X32687282Y-44462810D01*
X32701204Y-44466297D01*
X32714717Y-44471133D01*
X32727692Y-44477269D01*
X32740002Y-44484648D01*
X32751530Y-44493197D01*
X32762164Y-44502836D01*
X32771803Y-44513470D01*
X32780352Y-44524998D01*
X32787731Y-44537308D01*
X32793867Y-44550283D01*
X32798703Y-44563796D01*
X32802190Y-44577718D01*
X32804296Y-44591915D01*
X32805000Y-44606250D01*
X32805000Y-44898750D01*
X32804296Y-44913085D01*
X32802190Y-44927282D01*
X32798703Y-44941204D01*
X32793867Y-44954717D01*
X32787731Y-44967692D01*
X32780352Y-44980002D01*
X32771803Y-44991530D01*
X32762164Y-45002164D01*
X32751530Y-45011803D01*
X32740002Y-45020352D01*
X32727692Y-45027731D01*
X32714717Y-45033867D01*
X32701204Y-45038703D01*
X32687282Y-45042190D01*
X32673085Y-45044296D01*
X32658750Y-45045000D01*
X32111250Y-45045000D01*
X32096915Y-45044296D01*
X32082718Y-45042190D01*
X32068796Y-45038703D01*
X32055283Y-45033867D01*
X32042308Y-45027731D01*
X32029998Y-45020352D01*
X32018470Y-45011803D01*
X32007836Y-45002164D01*
X31998197Y-44991530D01*
X31989648Y-44980002D01*
X31982269Y-44967692D01*
X31976133Y-44954717D01*
X31971297Y-44941204D01*
X31967810Y-44927282D01*
X31965704Y-44913085D01*
X31965000Y-44898750D01*
X31965000Y-44606250D01*
X31965704Y-44591915D01*
X31967810Y-44577718D01*
X31971297Y-44563796D01*
X31976133Y-44550283D01*
X31982269Y-44537308D01*
X31989648Y-44524998D01*
X31998197Y-44513470D01*
X32007836Y-44502836D01*
X32018470Y-44493197D01*
X32029998Y-44484648D01*
X32042308Y-44477269D01*
X32055283Y-44471133D01*
X32068796Y-44466297D01*
X32082718Y-44462810D01*
X32096915Y-44460704D01*
X32111250Y-44460000D01*
X32658750Y-44460000D01*
X32673085Y-44460704D01*
X32673085Y-44460704D01*
G37*
D11*
X32385000Y-44752500D03*
D10*
G36*
X32673085Y-42585704D02*
G01*
X32687282Y-42587810D01*
X32701204Y-42591297D01*
X32714717Y-42596133D01*
X32727692Y-42602269D01*
X32740002Y-42609648D01*
X32751530Y-42618197D01*
X32762164Y-42627836D01*
X32771803Y-42638470D01*
X32780352Y-42649998D01*
X32787731Y-42662308D01*
X32793867Y-42675283D01*
X32798703Y-42688796D01*
X32802190Y-42702718D01*
X32804296Y-42716915D01*
X32805000Y-42731250D01*
X32805000Y-43023750D01*
X32804296Y-43038085D01*
X32802190Y-43052282D01*
X32798703Y-43066204D01*
X32793867Y-43079717D01*
X32787731Y-43092692D01*
X32780352Y-43105002D01*
X32771803Y-43116530D01*
X32762164Y-43127164D01*
X32751530Y-43136803D01*
X32740002Y-43145352D01*
X32727692Y-43152731D01*
X32714717Y-43158867D01*
X32701204Y-43163703D01*
X32687282Y-43167190D01*
X32673085Y-43169296D01*
X32658750Y-43170000D01*
X32111250Y-43170000D01*
X32096915Y-43169296D01*
X32082718Y-43167190D01*
X32068796Y-43163703D01*
X32055283Y-43158867D01*
X32042308Y-43152731D01*
X32029998Y-43145352D01*
X32018470Y-43136803D01*
X32007836Y-43127164D01*
X31998197Y-43116530D01*
X31989648Y-43105002D01*
X31982269Y-43092692D01*
X31976133Y-43079717D01*
X31971297Y-43066204D01*
X31967810Y-43052282D01*
X31965704Y-43038085D01*
X31965000Y-43023750D01*
X31965000Y-42731250D01*
X31965704Y-42716915D01*
X31967810Y-42702718D01*
X31971297Y-42688796D01*
X31976133Y-42675283D01*
X31982269Y-42662308D01*
X31989648Y-42649998D01*
X31998197Y-42638470D01*
X32007836Y-42627836D01*
X32018470Y-42618197D01*
X32029998Y-42609648D01*
X32042308Y-42602269D01*
X32055283Y-42596133D01*
X32068796Y-42591297D01*
X32082718Y-42587810D01*
X32096915Y-42585704D01*
X32111250Y-42585000D01*
X32658750Y-42585000D01*
X32673085Y-42585704D01*
X32673085Y-42585704D01*
G37*
D11*
X32385000Y-42877500D03*
M02*
