G04 #@! TF.GenerationSoftware,KiCad,Pcbnew,(5.1.4)-1*
G04 #@! TF.CreationDate,2020-11-09T21:53:22-05:00*
G04 #@! TF.ProjectId,ft221x,66743232-3178-42e6-9b69-6361645f7063,2020-02*
G04 #@! TF.SameCoordinates,Original*
G04 #@! TF.FileFunction,Copper,L1,Top*
G04 #@! TF.FilePolarity,Positive*
%FSLAX46Y46*%
G04 Gerber Fmt 4.6, Leading zero omitted, Abs format (unit mm)*
G04 Created by KiCad (PCBNEW (5.1.4)-1) date 2020-11-09 21:53:22*
%MOMM*%
%LPD*%
G04 APERTURE LIST*
%ADD10O,1.700000X1.700000*%
%ADD11R,1.700000X1.700000*%
%ADD12C,1.000000*%
%ADD13C,0.100000*%
%ADD14C,0.975000*%
%ADD15R,1.200000X0.400000*%
%ADD16R,1.200000X1.900000*%
%ADD17O,1.200000X1.900000*%
%ADD18R,1.500000X1.900000*%
%ADD19C,1.450000*%
%ADD20R,0.400000X1.350000*%
%ADD21C,0.800000*%
%ADD22C,0.508000*%
%ADD23C,0.304800*%
%ADD24C,0.101600*%
%ADD25C,0.152400*%
G04 APERTURE END LIST*
D10*
X35560000Y-27940000D03*
X33020000Y-27940000D03*
X30480000Y-27940000D03*
X27940000Y-27940000D03*
X25400000Y-27940000D03*
D11*
X22860000Y-27940000D03*
D12*
X24892000Y-41402000D03*
D13*
G36*
X30833142Y-42391174D02*
G01*
X30856803Y-42394684D01*
X30880007Y-42400496D01*
X30902529Y-42408554D01*
X30924153Y-42418782D01*
X30944670Y-42431079D01*
X30963883Y-42445329D01*
X30981607Y-42461393D01*
X30997671Y-42479117D01*
X31011921Y-42498330D01*
X31024218Y-42518847D01*
X31034446Y-42540471D01*
X31042504Y-42562993D01*
X31048316Y-42586197D01*
X31051826Y-42609858D01*
X31053000Y-42633750D01*
X31053000Y-43121250D01*
X31051826Y-43145142D01*
X31048316Y-43168803D01*
X31042504Y-43192007D01*
X31034446Y-43214529D01*
X31024218Y-43236153D01*
X31011921Y-43256670D01*
X30997671Y-43275883D01*
X30981607Y-43293607D01*
X30963883Y-43309671D01*
X30944670Y-43323921D01*
X30924153Y-43336218D01*
X30902529Y-43346446D01*
X30880007Y-43354504D01*
X30856803Y-43360316D01*
X30833142Y-43363826D01*
X30809250Y-43365000D01*
X29896750Y-43365000D01*
X29872858Y-43363826D01*
X29849197Y-43360316D01*
X29825993Y-43354504D01*
X29803471Y-43346446D01*
X29781847Y-43336218D01*
X29761330Y-43323921D01*
X29742117Y-43309671D01*
X29724393Y-43293607D01*
X29708329Y-43275883D01*
X29694079Y-43256670D01*
X29681782Y-43236153D01*
X29671554Y-43214529D01*
X29663496Y-43192007D01*
X29657684Y-43168803D01*
X29654174Y-43145142D01*
X29653000Y-43121250D01*
X29653000Y-42633750D01*
X29654174Y-42609858D01*
X29657684Y-42586197D01*
X29663496Y-42562993D01*
X29671554Y-42540471D01*
X29681782Y-42518847D01*
X29694079Y-42498330D01*
X29708329Y-42479117D01*
X29724393Y-42461393D01*
X29742117Y-42445329D01*
X29761330Y-42431079D01*
X29781847Y-42418782D01*
X29803471Y-42408554D01*
X29825993Y-42400496D01*
X29849197Y-42394684D01*
X29872858Y-42391174D01*
X29896750Y-42390000D01*
X30809250Y-42390000D01*
X30833142Y-42391174D01*
X30833142Y-42391174D01*
G37*
D14*
X30353000Y-42877500D03*
D13*
G36*
X30833142Y-44266174D02*
G01*
X30856803Y-44269684D01*
X30880007Y-44275496D01*
X30902529Y-44283554D01*
X30924153Y-44293782D01*
X30944670Y-44306079D01*
X30963883Y-44320329D01*
X30981607Y-44336393D01*
X30997671Y-44354117D01*
X31011921Y-44373330D01*
X31024218Y-44393847D01*
X31034446Y-44415471D01*
X31042504Y-44437993D01*
X31048316Y-44461197D01*
X31051826Y-44484858D01*
X31053000Y-44508750D01*
X31053000Y-44996250D01*
X31051826Y-45020142D01*
X31048316Y-45043803D01*
X31042504Y-45067007D01*
X31034446Y-45089529D01*
X31024218Y-45111153D01*
X31011921Y-45131670D01*
X30997671Y-45150883D01*
X30981607Y-45168607D01*
X30963883Y-45184671D01*
X30944670Y-45198921D01*
X30924153Y-45211218D01*
X30902529Y-45221446D01*
X30880007Y-45229504D01*
X30856803Y-45235316D01*
X30833142Y-45238826D01*
X30809250Y-45240000D01*
X29896750Y-45240000D01*
X29872858Y-45238826D01*
X29849197Y-45235316D01*
X29825993Y-45229504D01*
X29803471Y-45221446D01*
X29781847Y-45211218D01*
X29761330Y-45198921D01*
X29742117Y-45184671D01*
X29724393Y-45168607D01*
X29708329Y-45150883D01*
X29694079Y-45131670D01*
X29681782Y-45111153D01*
X29671554Y-45089529D01*
X29663496Y-45067007D01*
X29657684Y-45043803D01*
X29654174Y-45020142D01*
X29653000Y-44996250D01*
X29653000Y-44508750D01*
X29654174Y-44484858D01*
X29657684Y-44461197D01*
X29663496Y-44437993D01*
X29671554Y-44415471D01*
X29681782Y-44393847D01*
X29694079Y-44373330D01*
X29708329Y-44354117D01*
X29724393Y-44336393D01*
X29742117Y-44320329D01*
X29761330Y-44306079D01*
X29781847Y-44293782D01*
X29803471Y-44283554D01*
X29825993Y-44275496D01*
X29849197Y-44269684D01*
X29872858Y-44266174D01*
X29896750Y-44265000D01*
X30809250Y-44265000D01*
X30833142Y-44266174D01*
X30833142Y-44266174D01*
G37*
D14*
X30353000Y-44752500D03*
D15*
X26610000Y-39687500D03*
X26610000Y-39052500D03*
X26610000Y-38417500D03*
X26610000Y-37782500D03*
X26610000Y-37147500D03*
X26610000Y-36512500D03*
X26610000Y-35877500D03*
X26610000Y-35242500D03*
X26610000Y-34607500D03*
X26610000Y-33972500D03*
X31810000Y-33972500D03*
X31810000Y-34607500D03*
X31810000Y-35242500D03*
X31810000Y-35877500D03*
X31810000Y-36512500D03*
X31810000Y-37147500D03*
X31810000Y-37782500D03*
X31810000Y-38417500D03*
X31810000Y-39052500D03*
X31810000Y-39687500D03*
D10*
X35560000Y-49530000D03*
X35560000Y-46990000D03*
X35560000Y-44450000D03*
X35560000Y-41910000D03*
X35560000Y-39370000D03*
X35560000Y-36830000D03*
X35560000Y-34290000D03*
D11*
X35560000Y-31750000D03*
D10*
X22860000Y-49530000D03*
X22860000Y-46990000D03*
X22860000Y-44450000D03*
X22860000Y-41910000D03*
X22860000Y-39370000D03*
X22860000Y-36830000D03*
X22860000Y-34290000D03*
D11*
X22860000Y-31750000D03*
D16*
X26310000Y-50767500D03*
X32110000Y-50767500D03*
D17*
X32710000Y-50767500D03*
X25710000Y-50767500D03*
D18*
X28210000Y-50767500D03*
D19*
X31710000Y-48067500D03*
D20*
X29210000Y-48067500D03*
X29860000Y-48067500D03*
X30510000Y-48067500D03*
X27910000Y-48067500D03*
X28560000Y-48067500D03*
D19*
X26710000Y-48067500D03*
D18*
X30210000Y-50767500D03*
D13*
G36*
X30415142Y-30416174D02*
G01*
X30438803Y-30419684D01*
X30462007Y-30425496D01*
X30484529Y-30433554D01*
X30506153Y-30443782D01*
X30526670Y-30456079D01*
X30545883Y-30470329D01*
X30563607Y-30486393D01*
X30579671Y-30504117D01*
X30593921Y-30523330D01*
X30606218Y-30543847D01*
X30616446Y-30565471D01*
X30624504Y-30587993D01*
X30630316Y-30611197D01*
X30633826Y-30634858D01*
X30635000Y-30658750D01*
X30635000Y-31571250D01*
X30633826Y-31595142D01*
X30630316Y-31618803D01*
X30624504Y-31642007D01*
X30616446Y-31664529D01*
X30606218Y-31686153D01*
X30593921Y-31706670D01*
X30579671Y-31725883D01*
X30563607Y-31743607D01*
X30545883Y-31759671D01*
X30526670Y-31773921D01*
X30506153Y-31786218D01*
X30484529Y-31796446D01*
X30462007Y-31804504D01*
X30438803Y-31810316D01*
X30415142Y-31813826D01*
X30391250Y-31815000D01*
X29903750Y-31815000D01*
X29879858Y-31813826D01*
X29856197Y-31810316D01*
X29832993Y-31804504D01*
X29810471Y-31796446D01*
X29788847Y-31786218D01*
X29768330Y-31773921D01*
X29749117Y-31759671D01*
X29731393Y-31743607D01*
X29715329Y-31725883D01*
X29701079Y-31706670D01*
X29688782Y-31686153D01*
X29678554Y-31664529D01*
X29670496Y-31642007D01*
X29664684Y-31618803D01*
X29661174Y-31595142D01*
X29660000Y-31571250D01*
X29660000Y-30658750D01*
X29661174Y-30634858D01*
X29664684Y-30611197D01*
X29670496Y-30587993D01*
X29678554Y-30565471D01*
X29688782Y-30543847D01*
X29701079Y-30523330D01*
X29715329Y-30504117D01*
X29731393Y-30486393D01*
X29749117Y-30470329D01*
X29768330Y-30456079D01*
X29788847Y-30443782D01*
X29810471Y-30433554D01*
X29832993Y-30425496D01*
X29856197Y-30419684D01*
X29879858Y-30416174D01*
X29903750Y-30415000D01*
X30391250Y-30415000D01*
X30415142Y-30416174D01*
X30415142Y-30416174D01*
G37*
D14*
X30147500Y-31115000D03*
D13*
G36*
X28540142Y-30416174D02*
G01*
X28563803Y-30419684D01*
X28587007Y-30425496D01*
X28609529Y-30433554D01*
X28631153Y-30443782D01*
X28651670Y-30456079D01*
X28670883Y-30470329D01*
X28688607Y-30486393D01*
X28704671Y-30504117D01*
X28718921Y-30523330D01*
X28731218Y-30543847D01*
X28741446Y-30565471D01*
X28749504Y-30587993D01*
X28755316Y-30611197D01*
X28758826Y-30634858D01*
X28760000Y-30658750D01*
X28760000Y-31571250D01*
X28758826Y-31595142D01*
X28755316Y-31618803D01*
X28749504Y-31642007D01*
X28741446Y-31664529D01*
X28731218Y-31686153D01*
X28718921Y-31706670D01*
X28704671Y-31725883D01*
X28688607Y-31743607D01*
X28670883Y-31759671D01*
X28651670Y-31773921D01*
X28631153Y-31786218D01*
X28609529Y-31796446D01*
X28587007Y-31804504D01*
X28563803Y-31810316D01*
X28540142Y-31813826D01*
X28516250Y-31815000D01*
X28028750Y-31815000D01*
X28004858Y-31813826D01*
X27981197Y-31810316D01*
X27957993Y-31804504D01*
X27935471Y-31796446D01*
X27913847Y-31786218D01*
X27893330Y-31773921D01*
X27874117Y-31759671D01*
X27856393Y-31743607D01*
X27840329Y-31725883D01*
X27826079Y-31706670D01*
X27813782Y-31686153D01*
X27803554Y-31664529D01*
X27795496Y-31642007D01*
X27789684Y-31618803D01*
X27786174Y-31595142D01*
X27785000Y-31571250D01*
X27785000Y-30658750D01*
X27786174Y-30634858D01*
X27789684Y-30611197D01*
X27795496Y-30587993D01*
X27803554Y-30565471D01*
X27813782Y-30543847D01*
X27826079Y-30523330D01*
X27840329Y-30504117D01*
X27856393Y-30486393D01*
X27874117Y-30470329D01*
X27893330Y-30456079D01*
X27913847Y-30443782D01*
X27935471Y-30433554D01*
X27957993Y-30425496D01*
X27981197Y-30419684D01*
X28004858Y-30416174D01*
X28028750Y-30415000D01*
X28516250Y-30415000D01*
X28540142Y-30416174D01*
X28540142Y-30416174D01*
G37*
D14*
X28272500Y-31115000D03*
D13*
G36*
X27150142Y-42391174D02*
G01*
X27173803Y-42394684D01*
X27197007Y-42400496D01*
X27219529Y-42408554D01*
X27241153Y-42418782D01*
X27261670Y-42431079D01*
X27280883Y-42445329D01*
X27298607Y-42461393D01*
X27314671Y-42479117D01*
X27328921Y-42498330D01*
X27341218Y-42518847D01*
X27351446Y-42540471D01*
X27359504Y-42562993D01*
X27365316Y-42586197D01*
X27368826Y-42609858D01*
X27370000Y-42633750D01*
X27370000Y-43121250D01*
X27368826Y-43145142D01*
X27365316Y-43168803D01*
X27359504Y-43192007D01*
X27351446Y-43214529D01*
X27341218Y-43236153D01*
X27328921Y-43256670D01*
X27314671Y-43275883D01*
X27298607Y-43293607D01*
X27280883Y-43309671D01*
X27261670Y-43323921D01*
X27241153Y-43336218D01*
X27219529Y-43346446D01*
X27197007Y-43354504D01*
X27173803Y-43360316D01*
X27150142Y-43363826D01*
X27126250Y-43365000D01*
X26213750Y-43365000D01*
X26189858Y-43363826D01*
X26166197Y-43360316D01*
X26142993Y-43354504D01*
X26120471Y-43346446D01*
X26098847Y-43336218D01*
X26078330Y-43323921D01*
X26059117Y-43309671D01*
X26041393Y-43293607D01*
X26025329Y-43275883D01*
X26011079Y-43256670D01*
X25998782Y-43236153D01*
X25988554Y-43214529D01*
X25980496Y-43192007D01*
X25974684Y-43168803D01*
X25971174Y-43145142D01*
X25970000Y-43121250D01*
X25970000Y-42633750D01*
X25971174Y-42609858D01*
X25974684Y-42586197D01*
X25980496Y-42562993D01*
X25988554Y-42540471D01*
X25998782Y-42518847D01*
X26011079Y-42498330D01*
X26025329Y-42479117D01*
X26041393Y-42461393D01*
X26059117Y-42445329D01*
X26078330Y-42431079D01*
X26098847Y-42418782D01*
X26120471Y-42408554D01*
X26142993Y-42400496D01*
X26166197Y-42394684D01*
X26189858Y-42391174D01*
X26213750Y-42390000D01*
X27126250Y-42390000D01*
X27150142Y-42391174D01*
X27150142Y-42391174D01*
G37*
D14*
X26670000Y-42877500D03*
D13*
G36*
X27150142Y-44266174D02*
G01*
X27173803Y-44269684D01*
X27197007Y-44275496D01*
X27219529Y-44283554D01*
X27241153Y-44293782D01*
X27261670Y-44306079D01*
X27280883Y-44320329D01*
X27298607Y-44336393D01*
X27314671Y-44354117D01*
X27328921Y-44373330D01*
X27341218Y-44393847D01*
X27351446Y-44415471D01*
X27359504Y-44437993D01*
X27365316Y-44461197D01*
X27368826Y-44484858D01*
X27370000Y-44508750D01*
X27370000Y-44996250D01*
X27368826Y-45020142D01*
X27365316Y-45043803D01*
X27359504Y-45067007D01*
X27351446Y-45089529D01*
X27341218Y-45111153D01*
X27328921Y-45131670D01*
X27314671Y-45150883D01*
X27298607Y-45168607D01*
X27280883Y-45184671D01*
X27261670Y-45198921D01*
X27241153Y-45211218D01*
X27219529Y-45221446D01*
X27197007Y-45229504D01*
X27173803Y-45235316D01*
X27150142Y-45238826D01*
X27126250Y-45240000D01*
X26213750Y-45240000D01*
X26189858Y-45238826D01*
X26166197Y-45235316D01*
X26142993Y-45229504D01*
X26120471Y-45221446D01*
X26098847Y-45211218D01*
X26078330Y-45198921D01*
X26059117Y-45184671D01*
X26041393Y-45168607D01*
X26025329Y-45150883D01*
X26011079Y-45131670D01*
X25998782Y-45111153D01*
X25988554Y-45089529D01*
X25980496Y-45067007D01*
X25974684Y-45043803D01*
X25971174Y-45020142D01*
X25970000Y-44996250D01*
X25970000Y-44508750D01*
X25971174Y-44484858D01*
X25974684Y-44461197D01*
X25980496Y-44437993D01*
X25988554Y-44415471D01*
X25998782Y-44393847D01*
X26011079Y-44373330D01*
X26025329Y-44354117D01*
X26041393Y-44336393D01*
X26059117Y-44320329D01*
X26078330Y-44306079D01*
X26098847Y-44293782D01*
X26120471Y-44283554D01*
X26142993Y-44275496D01*
X26166197Y-44269684D01*
X26189858Y-44266174D01*
X26213750Y-44265000D01*
X27126250Y-44265000D01*
X27150142Y-44266174D01*
X27150142Y-44266174D01*
G37*
D14*
X26670000Y-44752500D03*
D13*
G36*
X32865142Y-44266174D02*
G01*
X32888803Y-44269684D01*
X32912007Y-44275496D01*
X32934529Y-44283554D01*
X32956153Y-44293782D01*
X32976670Y-44306079D01*
X32995883Y-44320329D01*
X33013607Y-44336393D01*
X33029671Y-44354117D01*
X33043921Y-44373330D01*
X33056218Y-44393847D01*
X33066446Y-44415471D01*
X33074504Y-44437993D01*
X33080316Y-44461197D01*
X33083826Y-44484858D01*
X33085000Y-44508750D01*
X33085000Y-44996250D01*
X33083826Y-45020142D01*
X33080316Y-45043803D01*
X33074504Y-45067007D01*
X33066446Y-45089529D01*
X33056218Y-45111153D01*
X33043921Y-45131670D01*
X33029671Y-45150883D01*
X33013607Y-45168607D01*
X32995883Y-45184671D01*
X32976670Y-45198921D01*
X32956153Y-45211218D01*
X32934529Y-45221446D01*
X32912007Y-45229504D01*
X32888803Y-45235316D01*
X32865142Y-45238826D01*
X32841250Y-45240000D01*
X31928750Y-45240000D01*
X31904858Y-45238826D01*
X31881197Y-45235316D01*
X31857993Y-45229504D01*
X31835471Y-45221446D01*
X31813847Y-45211218D01*
X31793330Y-45198921D01*
X31774117Y-45184671D01*
X31756393Y-45168607D01*
X31740329Y-45150883D01*
X31726079Y-45131670D01*
X31713782Y-45111153D01*
X31703554Y-45089529D01*
X31695496Y-45067007D01*
X31689684Y-45043803D01*
X31686174Y-45020142D01*
X31685000Y-44996250D01*
X31685000Y-44508750D01*
X31686174Y-44484858D01*
X31689684Y-44461197D01*
X31695496Y-44437993D01*
X31703554Y-44415471D01*
X31713782Y-44393847D01*
X31726079Y-44373330D01*
X31740329Y-44354117D01*
X31756393Y-44336393D01*
X31774117Y-44320329D01*
X31793330Y-44306079D01*
X31813847Y-44293782D01*
X31835471Y-44283554D01*
X31857993Y-44275496D01*
X31881197Y-44269684D01*
X31904858Y-44266174D01*
X31928750Y-44265000D01*
X32841250Y-44265000D01*
X32865142Y-44266174D01*
X32865142Y-44266174D01*
G37*
D14*
X32385000Y-44752500D03*
D13*
G36*
X32865142Y-42391174D02*
G01*
X32888803Y-42394684D01*
X32912007Y-42400496D01*
X32934529Y-42408554D01*
X32956153Y-42418782D01*
X32976670Y-42431079D01*
X32995883Y-42445329D01*
X33013607Y-42461393D01*
X33029671Y-42479117D01*
X33043921Y-42498330D01*
X33056218Y-42518847D01*
X33066446Y-42540471D01*
X33074504Y-42562993D01*
X33080316Y-42586197D01*
X33083826Y-42609858D01*
X33085000Y-42633750D01*
X33085000Y-43121250D01*
X33083826Y-43145142D01*
X33080316Y-43168803D01*
X33074504Y-43192007D01*
X33066446Y-43214529D01*
X33056218Y-43236153D01*
X33043921Y-43256670D01*
X33029671Y-43275883D01*
X33013607Y-43293607D01*
X32995883Y-43309671D01*
X32976670Y-43323921D01*
X32956153Y-43336218D01*
X32934529Y-43346446D01*
X32912007Y-43354504D01*
X32888803Y-43360316D01*
X32865142Y-43363826D01*
X32841250Y-43365000D01*
X31928750Y-43365000D01*
X31904858Y-43363826D01*
X31881197Y-43360316D01*
X31857993Y-43354504D01*
X31835471Y-43346446D01*
X31813847Y-43336218D01*
X31793330Y-43323921D01*
X31774117Y-43309671D01*
X31756393Y-43293607D01*
X31740329Y-43275883D01*
X31726079Y-43256670D01*
X31713782Y-43236153D01*
X31703554Y-43214529D01*
X31695496Y-43192007D01*
X31689684Y-43168803D01*
X31686174Y-43145142D01*
X31685000Y-43121250D01*
X31685000Y-42633750D01*
X31686174Y-42609858D01*
X31689684Y-42586197D01*
X31695496Y-42562993D01*
X31703554Y-42540471D01*
X31713782Y-42518847D01*
X31726079Y-42498330D01*
X31740329Y-42479117D01*
X31756393Y-42461393D01*
X31774117Y-42445329D01*
X31793330Y-42431079D01*
X31813847Y-42418782D01*
X31835471Y-42408554D01*
X31857993Y-42400496D01*
X31881197Y-42394684D01*
X31904858Y-42391174D01*
X31928750Y-42390000D01*
X32841250Y-42390000D01*
X32865142Y-42391174D01*
X32865142Y-42391174D01*
G37*
D14*
X32385000Y-42877500D03*
D21*
X30480000Y-46228000D03*
X26416000Y-30734000D03*
X33274000Y-36576000D03*
X26670000Y-46228000D03*
X29210000Y-33655000D03*
X22733000Y-29845000D03*
X27807590Y-35560000D03*
X31057600Y-33020000D03*
X33020000Y-40005000D03*
X33020000Y-38735000D03*
X30480000Y-36576000D03*
D22*
X32385000Y-47392500D02*
X31710000Y-48067500D01*
X32385000Y-44752500D02*
X32385000Y-47392500D01*
X30353000Y-44752500D02*
X32385000Y-44752500D01*
D23*
X30510000Y-48067500D02*
X30510000Y-46258000D01*
X30510000Y-46258000D02*
X30480000Y-46228000D01*
X26797000Y-31115000D02*
X26416000Y-30734000D01*
X28272500Y-31115000D02*
X26797000Y-31115000D01*
X31810000Y-36512500D02*
X33210500Y-36512500D01*
X33210500Y-36512500D02*
X33274000Y-36576000D01*
X27910000Y-44117500D02*
X26670000Y-42877500D01*
X27910000Y-48067500D02*
X27910000Y-44117500D01*
X27514800Y-36512500D02*
X26610000Y-36512500D01*
X27940000Y-36937700D02*
X27514800Y-36512500D01*
X26670000Y-42877500D02*
X27940000Y-41607500D01*
X27940000Y-41607500D02*
X27940000Y-36937700D01*
X25705200Y-36512500D02*
X26610000Y-36512500D01*
X24765000Y-35572300D02*
X25705200Y-36512500D01*
X24765000Y-32500200D02*
X24765000Y-35572300D01*
X22860000Y-31750000D02*
X24014800Y-31750000D01*
X24014800Y-31750000D02*
X24765000Y-32500200D01*
X24130000Y-29210000D02*
X22860000Y-27940000D01*
X24765000Y-29845000D02*
X24130000Y-29210000D01*
X30147500Y-31115000D02*
X28877500Y-29845000D01*
X21209000Y-29591000D02*
X22860000Y-27940000D01*
X22860000Y-34290000D02*
X21209000Y-32639000D01*
X21209000Y-32639000D02*
X21209000Y-29591000D01*
X25781000Y-29845000D02*
X24765000Y-29845000D01*
X28877500Y-29845000D02*
X26289000Y-29845000D01*
X27823447Y-33255001D02*
X25654000Y-31085554D01*
X29210000Y-33655000D02*
X28810001Y-33255001D01*
X28810001Y-33255001D02*
X27823447Y-33255001D01*
X25654000Y-30226000D02*
X26035000Y-29845000D01*
X25654000Y-31085554D02*
X25654000Y-30226000D01*
X26289000Y-29845000D02*
X26035000Y-29845000D01*
X26035000Y-29845000D02*
X25781000Y-29845000D01*
X30147500Y-35300750D02*
X30147500Y-31115000D01*
X29727599Y-35720651D02*
X30147500Y-35300750D01*
X29727599Y-37239899D02*
X29727599Y-35720651D01*
X31810000Y-38417500D02*
X30905200Y-38417500D01*
X30905200Y-38417500D02*
X29727599Y-37239899D01*
X27514800Y-33972500D02*
X26610000Y-33972500D01*
X28257500Y-33972500D02*
X27514800Y-33972500D01*
X29210000Y-48067500D02*
X29210000Y-34925000D01*
X29210000Y-34925000D02*
X28257500Y-33972500D01*
X28028150Y-34607500D02*
X26610000Y-34607500D01*
X28657599Y-35236949D02*
X28028150Y-34607500D01*
X28560000Y-48067500D02*
X28657599Y-47969901D01*
X28657599Y-47969901D02*
X28657599Y-35236949D01*
X23709999Y-46140001D02*
X22860000Y-46990000D01*
X24765000Y-45085000D02*
X23709999Y-46140001D01*
X24765000Y-43053000D02*
X24765000Y-45085000D01*
X26610000Y-39687500D02*
X26610000Y-41208000D01*
X26610000Y-41208000D02*
X24765000Y-43053000D01*
X31810000Y-29270000D02*
X31810000Y-33972500D01*
X30480000Y-27940000D02*
X31810000Y-29270000D01*
X23495000Y-39370000D02*
X22860000Y-39370000D01*
X26610000Y-37782500D02*
X25082500Y-37782500D01*
X25082500Y-37782500D02*
X23495000Y-39370000D01*
X23876000Y-40894000D02*
X22860000Y-41910000D01*
X23876000Y-40259000D02*
X23876000Y-40894000D01*
X26610000Y-38417500D02*
X25717500Y-38417500D01*
X25717500Y-38417500D02*
X23876000Y-40259000D01*
X23289322Y-29845000D02*
X22733000Y-29845000D01*
X25400000Y-31955678D02*
X23289322Y-29845000D01*
X25400000Y-34831822D02*
X25400000Y-31955678D01*
X26610000Y-35242500D02*
X25810678Y-35242500D01*
X25810678Y-35242500D02*
X25400000Y-34831822D01*
X27807590Y-35535290D02*
X27807590Y-35560000D01*
X26610000Y-35242500D02*
X27514800Y-35242500D01*
X27514800Y-35242500D02*
X27807590Y-35535290D01*
X34710001Y-46140001D02*
X35560000Y-46990000D01*
X33785190Y-45215190D02*
X34710001Y-46140001D01*
X33785190Y-38217890D02*
X33785190Y-45215190D01*
X32714800Y-37147500D02*
X33785190Y-38217890D01*
X31810000Y-37147500D02*
X32714800Y-37147500D01*
X34290000Y-43180000D02*
X35560000Y-44450000D01*
X34290000Y-36315850D02*
X34290000Y-43180000D01*
X31810000Y-35242500D02*
X33216650Y-35242500D01*
X33216650Y-35242500D02*
X34290000Y-36315850D01*
X30905200Y-35877500D02*
X30734000Y-35706300D01*
X31810000Y-35877500D02*
X30905200Y-35877500D01*
X30734000Y-35706300D02*
X30734000Y-33343600D01*
X30734000Y-33343600D02*
X31057600Y-33020000D01*
X31810000Y-39687500D02*
X32702500Y-39687500D01*
X32702500Y-39687500D02*
X33020000Y-40005000D01*
X33337500Y-34607500D02*
X35560000Y-36830000D01*
X31810000Y-34607500D02*
X33337500Y-34607500D01*
X31810000Y-39052500D02*
X32702500Y-39052500D01*
X32702500Y-39052500D02*
X33020000Y-38735000D01*
X30480000Y-37141685D02*
X30480000Y-36576000D01*
X30480000Y-37278392D02*
X30480000Y-37141685D01*
X30984108Y-37782500D02*
X30480000Y-37278392D01*
X31810000Y-37782500D02*
X30984108Y-37782500D01*
X24892000Y-40694894D02*
X24892000Y-41402000D01*
X24892000Y-39971178D02*
X24892000Y-40694894D01*
X25810678Y-39052500D02*
X24892000Y-39971178D01*
X26610000Y-39052500D02*
X25810678Y-39052500D01*
D24*
G36*
X37032142Y-25649116D02*
G01*
X37226578Y-25707819D01*
X37405915Y-25803174D01*
X37563319Y-25931548D01*
X37692782Y-26088043D01*
X37789387Y-26266707D01*
X37849449Y-26460739D01*
X37871801Y-26673400D01*
X37871799Y-50788837D01*
X37850884Y-51002142D01*
X37792181Y-51196579D01*
X37696826Y-51375915D01*
X37568454Y-51533316D01*
X37411957Y-51662782D01*
X37233289Y-51759388D01*
X37039262Y-51819449D01*
X36826610Y-51841800D01*
X33778800Y-51841800D01*
X33778800Y-49892360D01*
X34571098Y-49892360D01*
X34604506Y-49973038D01*
X34709298Y-50150933D01*
X34846782Y-50304966D01*
X35011675Y-50429217D01*
X35197639Y-50518912D01*
X35356800Y-50512623D01*
X35356800Y-49733200D01*
X35763200Y-49733200D01*
X35763200Y-50512623D01*
X35922361Y-50518912D01*
X36108325Y-50429217D01*
X36273218Y-50304966D01*
X36410702Y-50150933D01*
X36515494Y-49973038D01*
X36548902Y-49892360D01*
X36541588Y-49733200D01*
X35763200Y-49733200D01*
X35356800Y-49733200D01*
X34578412Y-49733200D01*
X34571098Y-49892360D01*
X33778800Y-49892360D01*
X33778800Y-49167640D01*
X34571098Y-49167640D01*
X34578412Y-49326800D01*
X35356800Y-49326800D01*
X35356800Y-48547377D01*
X35763200Y-48547377D01*
X35763200Y-49326800D01*
X36541588Y-49326800D01*
X36548902Y-49167640D01*
X36515494Y-49086962D01*
X36410702Y-48909067D01*
X36273218Y-48755034D01*
X36108325Y-48630783D01*
X35922361Y-48541088D01*
X35763200Y-48547377D01*
X35356800Y-48547377D01*
X35197639Y-48541088D01*
X35011675Y-48630783D01*
X34846782Y-48755034D01*
X34709298Y-48909067D01*
X34604506Y-49086962D01*
X34571098Y-49167640D01*
X33778800Y-49167640D01*
X33778800Y-47244000D01*
X33773981Y-47195071D01*
X33759709Y-47148023D01*
X33736533Y-47104663D01*
X33705342Y-47066658D01*
X33667337Y-47035467D01*
X33623977Y-47012291D01*
X33576929Y-46998019D01*
X33528000Y-46993200D01*
X32889800Y-46993200D01*
X32889800Y-45487231D01*
X32937969Y-45482487D01*
X33030970Y-45454275D01*
X33116681Y-45408462D01*
X33191807Y-45346807D01*
X33253462Y-45271681D01*
X33299275Y-45185970D01*
X33327487Y-45092969D01*
X33337013Y-44996250D01*
X33337013Y-44508750D01*
X33327487Y-44412031D01*
X33299275Y-44319030D01*
X33253462Y-44233319D01*
X33191807Y-44158193D01*
X33116681Y-44096538D01*
X33030970Y-44050725D01*
X32937969Y-44022513D01*
X32841250Y-44012987D01*
X31928750Y-44012987D01*
X31832031Y-44022513D01*
X31739030Y-44050725D01*
X31653319Y-44096538D01*
X31578193Y-44158193D01*
X31516538Y-44233319D01*
X31508851Y-44247700D01*
X31229149Y-44247700D01*
X31221462Y-44233319D01*
X31159807Y-44158193D01*
X31084681Y-44096538D01*
X30998970Y-44050725D01*
X30905969Y-44022513D01*
X30809250Y-44012987D01*
X29896750Y-44012987D01*
X29800031Y-44022513D01*
X29707030Y-44050725D01*
X29621319Y-44096538D01*
X29613200Y-44103201D01*
X29613200Y-43565263D01*
X29653000Y-43569183D01*
X30099000Y-43568200D01*
X30149800Y-43517400D01*
X30149800Y-43080700D01*
X30556200Y-43080700D01*
X30556200Y-43517400D01*
X30607000Y-43568200D01*
X31053000Y-43569183D01*
X31092834Y-43565260D01*
X31131137Y-43553640D01*
X31166438Y-43534772D01*
X31197379Y-43509379D01*
X31222772Y-43478438D01*
X31241640Y-43443137D01*
X31253260Y-43404834D01*
X31257183Y-43365000D01*
X31480817Y-43365000D01*
X31484740Y-43404834D01*
X31496360Y-43443137D01*
X31515228Y-43478438D01*
X31540621Y-43509379D01*
X31571562Y-43534772D01*
X31606863Y-43553640D01*
X31645166Y-43565260D01*
X31685000Y-43569183D01*
X32131000Y-43568200D01*
X32181800Y-43517400D01*
X32181800Y-43080700D01*
X32588200Y-43080700D01*
X32588200Y-43517400D01*
X32639000Y-43568200D01*
X33085000Y-43569183D01*
X33124834Y-43565260D01*
X33163137Y-43553640D01*
X33198438Y-43534772D01*
X33229379Y-43509379D01*
X33254772Y-43478438D01*
X33273640Y-43443137D01*
X33285260Y-43404834D01*
X33289183Y-43365000D01*
X33288200Y-43131500D01*
X33237400Y-43080700D01*
X32588200Y-43080700D01*
X32181800Y-43080700D01*
X31532600Y-43080700D01*
X31481800Y-43131500D01*
X31480817Y-43365000D01*
X31257183Y-43365000D01*
X31256200Y-43131500D01*
X31205400Y-43080700D01*
X30556200Y-43080700D01*
X30149800Y-43080700D01*
X30129800Y-43080700D01*
X30129800Y-42674300D01*
X30149800Y-42674300D01*
X30149800Y-42237600D01*
X30556200Y-42237600D01*
X30556200Y-42674300D01*
X31205400Y-42674300D01*
X31256200Y-42623500D01*
X31257183Y-42390000D01*
X31480817Y-42390000D01*
X31481800Y-42623500D01*
X31532600Y-42674300D01*
X32181800Y-42674300D01*
X32181800Y-42237600D01*
X32588200Y-42237600D01*
X32588200Y-42674300D01*
X33237400Y-42674300D01*
X33288200Y-42623500D01*
X33289183Y-42390000D01*
X33285260Y-42350166D01*
X33273640Y-42311863D01*
X33254772Y-42276562D01*
X33229379Y-42245621D01*
X33198438Y-42220228D01*
X33163137Y-42201360D01*
X33124834Y-42189740D01*
X33085000Y-42185817D01*
X32639000Y-42186800D01*
X32588200Y-42237600D01*
X32181800Y-42237600D01*
X32131000Y-42186800D01*
X31685000Y-42185817D01*
X31645166Y-42189740D01*
X31606863Y-42201360D01*
X31571562Y-42220228D01*
X31540621Y-42245621D01*
X31515228Y-42276562D01*
X31496360Y-42311863D01*
X31484740Y-42350166D01*
X31480817Y-42390000D01*
X31257183Y-42390000D01*
X31253260Y-42350166D01*
X31241640Y-42311863D01*
X31222772Y-42276562D01*
X31197379Y-42245621D01*
X31166438Y-42220228D01*
X31131137Y-42201360D01*
X31092834Y-42189740D01*
X31053000Y-42185817D01*
X30607000Y-42186800D01*
X30556200Y-42237600D01*
X30149800Y-42237600D01*
X30099000Y-42186800D01*
X29653000Y-42185817D01*
X29613200Y-42189737D01*
X29613200Y-37695710D01*
X30606096Y-38688607D01*
X30618716Y-38703984D01*
X30680111Y-38754370D01*
X30750156Y-38791810D01*
X30826159Y-38814865D01*
X30885402Y-38820700D01*
X30885411Y-38820700D01*
X30905199Y-38822649D01*
X30924987Y-38820700D01*
X30961119Y-38820700D01*
X30957987Y-38852500D01*
X30957987Y-39252500D01*
X30962829Y-39301665D01*
X30977170Y-39348941D01*
X30988426Y-39370000D01*
X30977170Y-39391059D01*
X30962829Y-39438335D01*
X30957987Y-39487500D01*
X30957987Y-39887500D01*
X30962829Y-39936665D01*
X30977170Y-39983941D01*
X31000459Y-40027511D01*
X31031800Y-40065700D01*
X31069989Y-40097041D01*
X31113559Y-40120330D01*
X31160835Y-40134671D01*
X31210000Y-40139513D01*
X32383206Y-40139513D01*
X32394210Y-40194831D01*
X32443268Y-40313269D01*
X32514491Y-40419861D01*
X32605139Y-40510509D01*
X32711731Y-40581732D01*
X32830169Y-40630790D01*
X32955902Y-40655800D01*
X33084098Y-40655800D01*
X33209831Y-40630790D01*
X33328269Y-40581732D01*
X33381990Y-40545836D01*
X33381991Y-45195389D01*
X33380041Y-45215190D01*
X33387825Y-45294231D01*
X33410881Y-45370234D01*
X33448321Y-45440279D01*
X33482961Y-45482487D01*
X33498707Y-45501674D01*
X33514082Y-45514292D01*
X34438894Y-46439105D01*
X34438899Y-46439109D01*
X34547973Y-46548183D01*
X34538073Y-46566704D01*
X34475128Y-46774206D01*
X34453874Y-46990000D01*
X34475128Y-47205794D01*
X34538073Y-47413296D01*
X34640290Y-47604531D01*
X34777851Y-47772149D01*
X34945469Y-47909710D01*
X35136704Y-48011927D01*
X35344206Y-48074872D01*
X35505925Y-48090800D01*
X35614075Y-48090800D01*
X35775794Y-48074872D01*
X35983296Y-48011927D01*
X36174531Y-47909710D01*
X36342149Y-47772149D01*
X36479710Y-47604531D01*
X36581927Y-47413296D01*
X36644872Y-47205794D01*
X36666126Y-46990000D01*
X36644872Y-46774206D01*
X36581927Y-46566704D01*
X36479710Y-46375469D01*
X36342149Y-46207851D01*
X36174531Y-46070290D01*
X35983296Y-45968073D01*
X35775794Y-45905128D01*
X35614075Y-45889200D01*
X35505925Y-45889200D01*
X35344206Y-45905128D01*
X35136704Y-45968073D01*
X35118183Y-45977973D01*
X35009109Y-45868899D01*
X35009105Y-45868894D01*
X34188390Y-45048180D01*
X34188390Y-43648600D01*
X34547973Y-44008183D01*
X34538073Y-44026704D01*
X34475128Y-44234206D01*
X34453874Y-44450000D01*
X34475128Y-44665794D01*
X34538073Y-44873296D01*
X34640290Y-45064531D01*
X34777851Y-45232149D01*
X34945469Y-45369710D01*
X35136704Y-45471927D01*
X35344206Y-45534872D01*
X35505925Y-45550800D01*
X35614075Y-45550800D01*
X35775794Y-45534872D01*
X35983296Y-45471927D01*
X36174531Y-45369710D01*
X36342149Y-45232149D01*
X36479710Y-45064531D01*
X36581927Y-44873296D01*
X36644872Y-44665794D01*
X36666126Y-44450000D01*
X36644872Y-44234206D01*
X36581927Y-44026704D01*
X36479710Y-43835469D01*
X36342149Y-43667851D01*
X36174531Y-43530290D01*
X35983296Y-43428073D01*
X35775794Y-43365128D01*
X35614075Y-43349200D01*
X35505925Y-43349200D01*
X35344206Y-43365128D01*
X35136704Y-43428073D01*
X35118183Y-43437973D01*
X34693200Y-43012990D01*
X34693200Y-42589002D01*
X34777851Y-42692149D01*
X34945469Y-42829710D01*
X35136704Y-42931927D01*
X35344206Y-42994872D01*
X35505925Y-43010800D01*
X35614075Y-43010800D01*
X35775794Y-42994872D01*
X35983296Y-42931927D01*
X36174531Y-42829710D01*
X36342149Y-42692149D01*
X36479710Y-42524531D01*
X36581927Y-42333296D01*
X36644872Y-42125794D01*
X36666126Y-41910000D01*
X36644872Y-41694206D01*
X36581927Y-41486704D01*
X36479710Y-41295469D01*
X36342149Y-41127851D01*
X36174531Y-40990290D01*
X35983296Y-40888073D01*
X35775794Y-40825128D01*
X35614075Y-40809200D01*
X35505925Y-40809200D01*
X35344206Y-40825128D01*
X35136704Y-40888073D01*
X34945469Y-40990290D01*
X34777851Y-41127851D01*
X34693200Y-41230998D01*
X34693200Y-40049002D01*
X34777851Y-40152149D01*
X34945469Y-40289710D01*
X35136704Y-40391927D01*
X35344206Y-40454872D01*
X35505925Y-40470800D01*
X35614075Y-40470800D01*
X35775794Y-40454872D01*
X35983296Y-40391927D01*
X36174531Y-40289710D01*
X36342149Y-40152149D01*
X36479710Y-39984531D01*
X36581927Y-39793296D01*
X36644872Y-39585794D01*
X36666126Y-39370000D01*
X36644872Y-39154206D01*
X36581927Y-38946704D01*
X36479710Y-38755469D01*
X36342149Y-38587851D01*
X36174531Y-38450290D01*
X35983296Y-38348073D01*
X35775794Y-38285128D01*
X35614075Y-38269200D01*
X35505925Y-38269200D01*
X35344206Y-38285128D01*
X35136704Y-38348073D01*
X34945469Y-38450290D01*
X34777851Y-38587851D01*
X34693200Y-38690998D01*
X34693200Y-37509002D01*
X34777851Y-37612149D01*
X34945469Y-37749710D01*
X35136704Y-37851927D01*
X35344206Y-37914872D01*
X35505925Y-37930800D01*
X35614075Y-37930800D01*
X35775794Y-37914872D01*
X35983296Y-37851927D01*
X36174531Y-37749710D01*
X36342149Y-37612149D01*
X36479710Y-37444531D01*
X36581927Y-37253296D01*
X36644872Y-37045794D01*
X36666126Y-36830000D01*
X36644872Y-36614206D01*
X36581927Y-36406704D01*
X36479710Y-36215469D01*
X36342149Y-36047851D01*
X36174531Y-35910290D01*
X35983296Y-35808073D01*
X35775794Y-35745128D01*
X35614075Y-35729200D01*
X35505925Y-35729200D01*
X35344206Y-35745128D01*
X35136704Y-35808073D01*
X35118183Y-35817973D01*
X33636607Y-34336397D01*
X33623984Y-34321016D01*
X33586192Y-34290000D01*
X34453874Y-34290000D01*
X34475128Y-34505794D01*
X34538073Y-34713296D01*
X34640290Y-34904531D01*
X34777851Y-35072149D01*
X34945469Y-35209710D01*
X35136704Y-35311927D01*
X35344206Y-35374872D01*
X35505925Y-35390800D01*
X35614075Y-35390800D01*
X35775794Y-35374872D01*
X35983296Y-35311927D01*
X36174531Y-35209710D01*
X36342149Y-35072149D01*
X36479710Y-34904531D01*
X36581927Y-34713296D01*
X36644872Y-34505794D01*
X36666126Y-34290000D01*
X36644872Y-34074206D01*
X36581927Y-33866704D01*
X36479710Y-33675469D01*
X36342149Y-33507851D01*
X36174531Y-33370290D01*
X35983296Y-33268073D01*
X35775794Y-33205128D01*
X35614075Y-33189200D01*
X35505925Y-33189200D01*
X35344206Y-33205128D01*
X35136704Y-33268073D01*
X34945469Y-33370290D01*
X34777851Y-33507851D01*
X34640290Y-33675469D01*
X34538073Y-33866704D01*
X34475128Y-34074206D01*
X34453874Y-34290000D01*
X33586192Y-34290000D01*
X33562589Y-34270630D01*
X33492544Y-34233190D01*
X33416541Y-34210135D01*
X33357298Y-34204300D01*
X33357291Y-34204300D01*
X33337500Y-34202351D01*
X33317709Y-34204300D01*
X32658881Y-34204300D01*
X32662013Y-34172500D01*
X32662013Y-33772500D01*
X32657171Y-33723335D01*
X32642830Y-33676059D01*
X32619541Y-33632489D01*
X32588200Y-33594300D01*
X32550011Y-33562959D01*
X32506441Y-33539670D01*
X32459165Y-33525329D01*
X32410000Y-33520487D01*
X32213200Y-33520487D01*
X32213200Y-30900000D01*
X34457987Y-30900000D01*
X34457987Y-32600000D01*
X34462829Y-32649165D01*
X34477170Y-32696441D01*
X34500459Y-32740011D01*
X34531800Y-32778200D01*
X34569989Y-32809541D01*
X34613559Y-32832830D01*
X34660835Y-32847171D01*
X34710000Y-32852013D01*
X36410000Y-32852013D01*
X36459165Y-32847171D01*
X36506441Y-32832830D01*
X36550011Y-32809541D01*
X36588200Y-32778200D01*
X36619541Y-32740011D01*
X36642830Y-32696441D01*
X36657171Y-32649165D01*
X36662013Y-32600000D01*
X36662013Y-30900000D01*
X36657171Y-30850835D01*
X36642830Y-30803559D01*
X36619541Y-30759989D01*
X36588200Y-30721800D01*
X36550011Y-30690459D01*
X36506441Y-30667170D01*
X36459165Y-30652829D01*
X36410000Y-30647987D01*
X34710000Y-30647987D01*
X34660835Y-30652829D01*
X34613559Y-30667170D01*
X34569989Y-30690459D01*
X34531800Y-30721800D01*
X34500459Y-30759989D01*
X34477170Y-30803559D01*
X34462829Y-30850835D01*
X34457987Y-30900000D01*
X32213200Y-30900000D01*
X32213200Y-29289787D01*
X32215149Y-29269999D01*
X32213200Y-29250211D01*
X32213200Y-29250202D01*
X32207365Y-29190959D01*
X32184310Y-29114956D01*
X32146870Y-29044911D01*
X32128748Y-29022830D01*
X32109104Y-28998893D01*
X32109102Y-28998891D01*
X32096484Y-28983516D01*
X32081110Y-28970899D01*
X31492027Y-28381817D01*
X31501927Y-28363296D01*
X31564872Y-28155794D01*
X31586126Y-27940000D01*
X31913874Y-27940000D01*
X31935128Y-28155794D01*
X31998073Y-28363296D01*
X32100290Y-28554531D01*
X32237851Y-28722149D01*
X32405469Y-28859710D01*
X32596704Y-28961927D01*
X32804206Y-29024872D01*
X32965925Y-29040800D01*
X33074075Y-29040800D01*
X33235794Y-29024872D01*
X33443296Y-28961927D01*
X33634531Y-28859710D01*
X33802149Y-28722149D01*
X33939710Y-28554531D01*
X34041927Y-28363296D01*
X34060411Y-28302361D01*
X34571088Y-28302361D01*
X34660783Y-28488325D01*
X34785034Y-28653218D01*
X34939067Y-28790702D01*
X35116962Y-28895494D01*
X35197640Y-28928902D01*
X35356800Y-28921588D01*
X35356800Y-28143200D01*
X35763200Y-28143200D01*
X35763200Y-28921588D01*
X35922360Y-28928902D01*
X36003038Y-28895494D01*
X36180933Y-28790702D01*
X36334966Y-28653218D01*
X36459217Y-28488325D01*
X36548912Y-28302361D01*
X36542623Y-28143200D01*
X35763200Y-28143200D01*
X35356800Y-28143200D01*
X34577377Y-28143200D01*
X34571088Y-28302361D01*
X34060411Y-28302361D01*
X34104872Y-28155794D01*
X34126126Y-27940000D01*
X34104872Y-27724206D01*
X34060412Y-27577639D01*
X34571088Y-27577639D01*
X34577377Y-27736800D01*
X35356800Y-27736800D01*
X35356800Y-26958412D01*
X35763200Y-26958412D01*
X35763200Y-27736800D01*
X36542623Y-27736800D01*
X36548912Y-27577639D01*
X36459217Y-27391675D01*
X36334966Y-27226782D01*
X36180933Y-27089298D01*
X36003038Y-26984506D01*
X35922360Y-26951098D01*
X35763200Y-26958412D01*
X35356800Y-26958412D01*
X35197640Y-26951098D01*
X35116962Y-26984506D01*
X34939067Y-27089298D01*
X34785034Y-27226782D01*
X34660783Y-27391675D01*
X34571088Y-27577639D01*
X34060412Y-27577639D01*
X34041927Y-27516704D01*
X33939710Y-27325469D01*
X33802149Y-27157851D01*
X33634531Y-27020290D01*
X33443296Y-26918073D01*
X33235794Y-26855128D01*
X33074075Y-26839200D01*
X32965925Y-26839200D01*
X32804206Y-26855128D01*
X32596704Y-26918073D01*
X32405469Y-27020290D01*
X32237851Y-27157851D01*
X32100290Y-27325469D01*
X31998073Y-27516704D01*
X31935128Y-27724206D01*
X31913874Y-27940000D01*
X31586126Y-27940000D01*
X31564872Y-27724206D01*
X31501927Y-27516704D01*
X31399710Y-27325469D01*
X31262149Y-27157851D01*
X31094531Y-27020290D01*
X30903296Y-26918073D01*
X30695794Y-26855128D01*
X30534075Y-26839200D01*
X30425925Y-26839200D01*
X30264206Y-26855128D01*
X30056704Y-26918073D01*
X29865469Y-27020290D01*
X29697851Y-27157851D01*
X29560290Y-27325469D01*
X29458073Y-27516704D01*
X29395128Y-27724206D01*
X29373874Y-27940000D01*
X29395128Y-28155794D01*
X29458073Y-28363296D01*
X29560290Y-28554531D01*
X29697851Y-28722149D01*
X29865469Y-28859710D01*
X30056704Y-28961927D01*
X30264206Y-29024872D01*
X30425925Y-29040800D01*
X30534075Y-29040800D01*
X30695794Y-29024872D01*
X30903296Y-28961927D01*
X30921817Y-28952027D01*
X31406800Y-29437011D01*
X31406801Y-32470618D01*
X31365869Y-32443268D01*
X31247431Y-32394210D01*
X31121698Y-32369200D01*
X30993502Y-32369200D01*
X30867769Y-32394210D01*
X30749331Y-32443268D01*
X30642739Y-32514491D01*
X30552091Y-32605139D01*
X30550700Y-32607221D01*
X30550700Y-32038457D01*
X30580970Y-32029275D01*
X30666681Y-31983462D01*
X30741807Y-31921807D01*
X30803462Y-31846681D01*
X30849275Y-31760970D01*
X30877487Y-31667969D01*
X30887013Y-31571250D01*
X30887013Y-30658750D01*
X30877487Y-30562031D01*
X30849275Y-30469030D01*
X30803462Y-30383319D01*
X30741807Y-30308193D01*
X30666681Y-30246538D01*
X30580970Y-30200725D01*
X30487969Y-30172513D01*
X30391250Y-30162987D01*
X29903750Y-30162987D01*
X29807031Y-30172513D01*
X29782627Y-30179916D01*
X29176607Y-29573897D01*
X29163984Y-29558516D01*
X29102589Y-29508130D01*
X29032544Y-29470690D01*
X28956541Y-29447635D01*
X28897298Y-29441800D01*
X28897291Y-29441800D01*
X28877500Y-29439851D01*
X28857709Y-29441800D01*
X26054787Y-29441800D01*
X26034999Y-29439851D01*
X26015211Y-29441800D01*
X24932011Y-29441800D01*
X24429108Y-28938898D01*
X24429104Y-28938893D01*
X23962013Y-28471802D01*
X23962013Y-27940000D01*
X24293874Y-27940000D01*
X24315128Y-28155794D01*
X24378073Y-28363296D01*
X24480290Y-28554531D01*
X24617851Y-28722149D01*
X24785469Y-28859710D01*
X24976704Y-28961927D01*
X25184206Y-29024872D01*
X25345925Y-29040800D01*
X25454075Y-29040800D01*
X25615794Y-29024872D01*
X25823296Y-28961927D01*
X26014531Y-28859710D01*
X26182149Y-28722149D01*
X26319710Y-28554531D01*
X26421927Y-28363296D01*
X26484872Y-28155794D01*
X26506126Y-27940000D01*
X26833874Y-27940000D01*
X26855128Y-28155794D01*
X26918073Y-28363296D01*
X27020290Y-28554531D01*
X27157851Y-28722149D01*
X27325469Y-28859710D01*
X27516704Y-28961927D01*
X27724206Y-29024872D01*
X27885925Y-29040800D01*
X27994075Y-29040800D01*
X28155794Y-29024872D01*
X28363296Y-28961927D01*
X28554531Y-28859710D01*
X28722149Y-28722149D01*
X28859710Y-28554531D01*
X28961927Y-28363296D01*
X29024872Y-28155794D01*
X29046126Y-27940000D01*
X29024872Y-27724206D01*
X28961927Y-27516704D01*
X28859710Y-27325469D01*
X28722149Y-27157851D01*
X28554531Y-27020290D01*
X28363296Y-26918073D01*
X28155794Y-26855128D01*
X27994075Y-26839200D01*
X27885925Y-26839200D01*
X27724206Y-26855128D01*
X27516704Y-26918073D01*
X27325469Y-27020290D01*
X27157851Y-27157851D01*
X27020290Y-27325469D01*
X26918073Y-27516704D01*
X26855128Y-27724206D01*
X26833874Y-27940000D01*
X26506126Y-27940000D01*
X26484872Y-27724206D01*
X26421927Y-27516704D01*
X26319710Y-27325469D01*
X26182149Y-27157851D01*
X26014531Y-27020290D01*
X25823296Y-26918073D01*
X25615794Y-26855128D01*
X25454075Y-26839200D01*
X25345925Y-26839200D01*
X25184206Y-26855128D01*
X24976704Y-26918073D01*
X24785469Y-27020290D01*
X24617851Y-27157851D01*
X24480290Y-27325469D01*
X24378073Y-27516704D01*
X24315128Y-27724206D01*
X24293874Y-27940000D01*
X23962013Y-27940000D01*
X23962013Y-27090000D01*
X23957171Y-27040835D01*
X23942830Y-26993559D01*
X23919541Y-26949989D01*
X23888200Y-26911800D01*
X23850011Y-26880459D01*
X23806441Y-26857170D01*
X23759165Y-26842829D01*
X23710000Y-26837987D01*
X22010000Y-26837987D01*
X21960835Y-26842829D01*
X21913559Y-26857170D01*
X21869989Y-26880459D01*
X21831800Y-26911800D01*
X21800459Y-26949989D01*
X21777170Y-26993559D01*
X21762829Y-27040835D01*
X21757987Y-27090000D01*
X21757987Y-28471802D01*
X20937892Y-29291898D01*
X20922517Y-29304516D01*
X20909899Y-29319891D01*
X20909896Y-29319894D01*
X20872131Y-29365911D01*
X20834691Y-29435956D01*
X20811635Y-29511959D01*
X20803851Y-29591000D01*
X20805801Y-29610801D01*
X20805800Y-32619209D01*
X20803851Y-32639000D01*
X20805800Y-32658791D01*
X20805800Y-32658797D01*
X20808197Y-32683130D01*
X20811635Y-32718041D01*
X20818300Y-32740011D01*
X20834690Y-32794043D01*
X20872130Y-32864088D01*
X20922516Y-32925484D01*
X20937897Y-32938107D01*
X21847973Y-33848183D01*
X21838073Y-33866704D01*
X21775128Y-34074206D01*
X21753874Y-34290000D01*
X21775128Y-34505794D01*
X21838073Y-34713296D01*
X21940290Y-34904531D01*
X22077851Y-35072149D01*
X22245469Y-35209710D01*
X22436704Y-35311927D01*
X22644206Y-35374872D01*
X22805925Y-35390800D01*
X22914075Y-35390800D01*
X23075794Y-35374872D01*
X23283296Y-35311927D01*
X23474531Y-35209710D01*
X23642149Y-35072149D01*
X23779710Y-34904531D01*
X23881927Y-34713296D01*
X23944872Y-34505794D01*
X23966126Y-34290000D01*
X23944872Y-34074206D01*
X23881927Y-33866704D01*
X23779710Y-33675469D01*
X23642149Y-33507851D01*
X23474531Y-33370290D01*
X23283296Y-33268073D01*
X23075794Y-33205128D01*
X22914075Y-33189200D01*
X22805925Y-33189200D01*
X22644206Y-33205128D01*
X22436704Y-33268073D01*
X22418183Y-33277973D01*
X21990281Y-32850071D01*
X22010000Y-32852013D01*
X23710000Y-32852013D01*
X23759165Y-32847171D01*
X23806441Y-32832830D01*
X23850011Y-32809541D01*
X23888200Y-32778200D01*
X23919541Y-32740011D01*
X23942830Y-32696441D01*
X23957171Y-32649165D01*
X23962013Y-32600000D01*
X23962013Y-32267423D01*
X24361800Y-32667211D01*
X24361801Y-35552499D01*
X24359851Y-35572300D01*
X24367635Y-35651341D01*
X24386960Y-35715044D01*
X24390691Y-35727344D01*
X24428131Y-35797389D01*
X24478517Y-35858784D01*
X24493892Y-35871402D01*
X25406095Y-36783606D01*
X25418716Y-36798984D01*
X25434091Y-36811602D01*
X25434094Y-36811605D01*
X25480111Y-36849370D01*
X25550155Y-36886810D01*
X25607098Y-36904083D01*
X25626159Y-36909865D01*
X25685402Y-36915700D01*
X25685409Y-36915700D01*
X25705200Y-36917649D01*
X25724991Y-36915700D01*
X25808949Y-36915700D01*
X25805817Y-36947500D01*
X25806800Y-36947500D01*
X25857600Y-36998300D01*
X26406800Y-36998300D01*
X26406800Y-36964513D01*
X26813200Y-36964513D01*
X26813200Y-36998300D01*
X27362400Y-36998300D01*
X27396395Y-36964305D01*
X27536801Y-37104712D01*
X27536800Y-41440489D01*
X26839303Y-42137987D01*
X26250224Y-42137987D01*
X26881109Y-41507102D01*
X26896484Y-41494484D01*
X26946870Y-41433089D01*
X26984310Y-41363044D01*
X27003692Y-41299150D01*
X27007365Y-41287042D01*
X27009210Y-41268310D01*
X27013200Y-41227798D01*
X27013200Y-41227792D01*
X27015149Y-41208001D01*
X27013200Y-41188210D01*
X27013200Y-40139513D01*
X27210000Y-40139513D01*
X27259165Y-40134671D01*
X27306441Y-40120330D01*
X27350011Y-40097041D01*
X27388200Y-40065700D01*
X27419541Y-40027511D01*
X27442830Y-39983941D01*
X27457171Y-39936665D01*
X27462013Y-39887500D01*
X27462013Y-39487500D01*
X27457171Y-39438335D01*
X27442830Y-39391059D01*
X27431574Y-39370000D01*
X27442830Y-39348941D01*
X27457171Y-39301665D01*
X27462013Y-39252500D01*
X27462013Y-38852500D01*
X27457171Y-38803335D01*
X27442830Y-38756059D01*
X27431574Y-38735000D01*
X27442830Y-38713941D01*
X27457171Y-38666665D01*
X27462013Y-38617500D01*
X27462013Y-38217500D01*
X27457171Y-38168335D01*
X27442830Y-38121059D01*
X27431574Y-38100000D01*
X27442830Y-38078941D01*
X27457171Y-38031665D01*
X27462013Y-37982500D01*
X27462013Y-37582500D01*
X27457171Y-37533335D01*
X27442830Y-37486059D01*
X27419541Y-37442489D01*
X27400548Y-37419346D01*
X27410260Y-37387334D01*
X27414183Y-37347500D01*
X27413200Y-37347500D01*
X27362400Y-37296700D01*
X26813200Y-37296700D01*
X26813200Y-37330487D01*
X26406800Y-37330487D01*
X26406800Y-37296700D01*
X25857600Y-37296700D01*
X25806800Y-37347500D01*
X25805817Y-37347500D01*
X25808949Y-37379300D01*
X25102287Y-37379300D01*
X25082499Y-37377351D01*
X25062711Y-37379300D01*
X25062702Y-37379300D01*
X25003459Y-37385135D01*
X24927456Y-37408190D01*
X24857411Y-37445630D01*
X24796016Y-37496016D01*
X24783398Y-37511391D01*
X23671353Y-38623436D01*
X23642149Y-38587851D01*
X23474531Y-38450290D01*
X23283296Y-38348073D01*
X23075794Y-38285128D01*
X22914075Y-38269200D01*
X22805925Y-38269200D01*
X22644206Y-38285128D01*
X22436704Y-38348073D01*
X22245469Y-38450290D01*
X22077851Y-38587851D01*
X21940290Y-38755469D01*
X21838073Y-38946704D01*
X21775128Y-39154206D01*
X21753874Y-39370000D01*
X21775128Y-39585794D01*
X21838073Y-39793296D01*
X21940290Y-39984531D01*
X22077851Y-40152149D01*
X22245469Y-40289710D01*
X22436704Y-40391927D01*
X22644206Y-40454872D01*
X22805925Y-40470800D01*
X22914075Y-40470800D01*
X23075794Y-40454872D01*
X23283296Y-40391927D01*
X23472800Y-40290635D01*
X23472801Y-40726988D01*
X23301817Y-40897973D01*
X23283296Y-40888073D01*
X23075794Y-40825128D01*
X22914075Y-40809200D01*
X22805925Y-40809200D01*
X22644206Y-40825128D01*
X22436704Y-40888073D01*
X22245469Y-40990290D01*
X22077851Y-41127851D01*
X21940290Y-41295469D01*
X21838073Y-41486704D01*
X21775128Y-41694206D01*
X21753874Y-41910000D01*
X21775128Y-42125794D01*
X21838073Y-42333296D01*
X21940290Y-42524531D01*
X22077851Y-42692149D01*
X22245469Y-42829710D01*
X22436704Y-42931927D01*
X22644206Y-42994872D01*
X22805925Y-43010800D01*
X22914075Y-43010800D01*
X23075794Y-42994872D01*
X23283296Y-42931927D01*
X23474531Y-42829710D01*
X23642149Y-42692149D01*
X23779710Y-42524531D01*
X23881927Y-42333296D01*
X23944872Y-42125794D01*
X23966126Y-41910000D01*
X23944872Y-41694206D01*
X23881927Y-41486704D01*
X23872027Y-41468183D01*
X24147109Y-41193102D01*
X24162484Y-41180484D01*
X24179870Y-41159299D01*
X24170053Y-41183000D01*
X24141200Y-41328053D01*
X24141200Y-41475947D01*
X24170053Y-41621000D01*
X24226649Y-41757637D01*
X24308815Y-41880607D01*
X24413393Y-41985185D01*
X24536363Y-42067351D01*
X24673000Y-42123947D01*
X24818053Y-42152800D01*
X24965947Y-42152800D01*
X25111000Y-42123947D01*
X25132924Y-42114866D01*
X24493897Y-42753893D01*
X24478516Y-42766516D01*
X24428130Y-42827912D01*
X24390690Y-42897957D01*
X24367635Y-42973960D01*
X24361800Y-43033203D01*
X24361800Y-43033209D01*
X24359851Y-43053000D01*
X24361800Y-43072791D01*
X24361801Y-44917989D01*
X23438898Y-45840892D01*
X23438892Y-45840897D01*
X23301817Y-45977972D01*
X23283296Y-45968073D01*
X23075794Y-45905128D01*
X22914075Y-45889200D01*
X22805925Y-45889200D01*
X22644206Y-45905128D01*
X22436704Y-45968073D01*
X22245469Y-46070290D01*
X22077851Y-46207851D01*
X21940290Y-46375469D01*
X21838073Y-46566704D01*
X21775128Y-46774206D01*
X21753874Y-46990000D01*
X21775128Y-47205794D01*
X21838073Y-47413296D01*
X21940290Y-47604531D01*
X22077851Y-47772149D01*
X22245469Y-47909710D01*
X22436704Y-48011927D01*
X22644206Y-48074872D01*
X22805925Y-48090800D01*
X22914075Y-48090800D01*
X23075794Y-48074872D01*
X23283296Y-48011927D01*
X23474531Y-47909710D01*
X23642149Y-47772149D01*
X23779710Y-47604531D01*
X23881927Y-47413296D01*
X23944872Y-47205794D01*
X23966126Y-46990000D01*
X23944872Y-46774206D01*
X23881927Y-46566704D01*
X23872028Y-46548183D01*
X24009103Y-46411108D01*
X24009108Y-46411102D01*
X25036103Y-45384107D01*
X25051484Y-45371484D01*
X25101870Y-45310089D01*
X25139310Y-45240044D01*
X25139323Y-45240000D01*
X25765817Y-45240000D01*
X25769740Y-45279834D01*
X25781360Y-45318137D01*
X25800228Y-45353438D01*
X25825621Y-45384379D01*
X25856562Y-45409772D01*
X25891863Y-45428640D01*
X25930166Y-45440260D01*
X25970000Y-45444183D01*
X26416000Y-45443200D01*
X26466800Y-45392400D01*
X26466800Y-44955700D01*
X25817600Y-44955700D01*
X25766800Y-45006500D01*
X25765817Y-45240000D01*
X25139323Y-45240000D01*
X25162365Y-45164041D01*
X25168200Y-45104798D01*
X25168200Y-45104791D01*
X25170149Y-45085000D01*
X25168200Y-45065209D01*
X25168200Y-44265000D01*
X25765817Y-44265000D01*
X25766800Y-44498500D01*
X25817600Y-44549300D01*
X26466800Y-44549300D01*
X26466800Y-44112600D01*
X26416000Y-44061800D01*
X25970000Y-44060817D01*
X25930166Y-44064740D01*
X25891863Y-44076360D01*
X25856562Y-44095228D01*
X25825621Y-44120621D01*
X25800228Y-44151562D01*
X25781360Y-44186863D01*
X25769740Y-44225166D01*
X25765817Y-44265000D01*
X25168200Y-44265000D01*
X25168200Y-43220010D01*
X25717987Y-42670223D01*
X25717987Y-43121250D01*
X25727513Y-43217969D01*
X25755725Y-43310970D01*
X25801538Y-43396681D01*
X25863193Y-43471807D01*
X25938319Y-43533462D01*
X26024030Y-43579275D01*
X26117031Y-43607487D01*
X26213750Y-43617013D01*
X26839303Y-43617013D01*
X27283297Y-44061008D01*
X26924000Y-44061800D01*
X26873200Y-44112600D01*
X26873200Y-44549300D01*
X26893200Y-44549300D01*
X26893200Y-44955700D01*
X26873200Y-44955700D01*
X26873200Y-45392400D01*
X26924000Y-45443200D01*
X27370000Y-45444183D01*
X27409834Y-45440260D01*
X27448137Y-45428640D01*
X27483438Y-45409772D01*
X27506801Y-45390598D01*
X27506800Y-46993200D01*
X24892000Y-46993200D01*
X24843071Y-46998019D01*
X24796023Y-47012291D01*
X24752663Y-47035467D01*
X24714658Y-47066658D01*
X24683467Y-47104663D01*
X24660291Y-47148023D01*
X24646019Y-47195071D01*
X24641200Y-47244000D01*
X24641200Y-51841800D01*
X21601152Y-51841800D01*
X21387858Y-51820886D01*
X21193420Y-51762182D01*
X21014084Y-51666827D01*
X20856686Y-51538458D01*
X20727216Y-51381957D01*
X20630611Y-51203289D01*
X20570550Y-51009265D01*
X20548200Y-50796611D01*
X20548200Y-49892360D01*
X21871098Y-49892360D01*
X21904506Y-49973038D01*
X22009298Y-50150933D01*
X22146782Y-50304966D01*
X22311675Y-50429217D01*
X22497639Y-50518912D01*
X22656800Y-50512623D01*
X22656800Y-49733200D01*
X23063200Y-49733200D01*
X23063200Y-50512623D01*
X23222361Y-50518912D01*
X23408325Y-50429217D01*
X23573218Y-50304966D01*
X23710702Y-50150933D01*
X23815494Y-49973038D01*
X23848902Y-49892360D01*
X23841588Y-49733200D01*
X23063200Y-49733200D01*
X22656800Y-49733200D01*
X21878412Y-49733200D01*
X21871098Y-49892360D01*
X20548200Y-49892360D01*
X20548200Y-49167640D01*
X21871098Y-49167640D01*
X21878412Y-49326800D01*
X22656800Y-49326800D01*
X22656800Y-48547377D01*
X23063200Y-48547377D01*
X23063200Y-49326800D01*
X23841588Y-49326800D01*
X23848902Y-49167640D01*
X23815494Y-49086962D01*
X23710702Y-48909067D01*
X23573218Y-48755034D01*
X23408325Y-48630783D01*
X23222361Y-48541088D01*
X23063200Y-48547377D01*
X22656800Y-48547377D01*
X22497639Y-48541088D01*
X22311675Y-48630783D01*
X22146782Y-48755034D01*
X22009298Y-48909067D01*
X21904506Y-49086962D01*
X21871098Y-49167640D01*
X20548200Y-49167640D01*
X20548200Y-44450000D01*
X21753874Y-44450000D01*
X21775128Y-44665794D01*
X21838073Y-44873296D01*
X21940290Y-45064531D01*
X22077851Y-45232149D01*
X22245469Y-45369710D01*
X22436704Y-45471927D01*
X22644206Y-45534872D01*
X22805925Y-45550800D01*
X22914075Y-45550800D01*
X23075794Y-45534872D01*
X23283296Y-45471927D01*
X23474531Y-45369710D01*
X23642149Y-45232149D01*
X23779710Y-45064531D01*
X23881927Y-44873296D01*
X23944872Y-44665794D01*
X23966126Y-44450000D01*
X23944872Y-44234206D01*
X23881927Y-44026704D01*
X23779710Y-43835469D01*
X23642149Y-43667851D01*
X23474531Y-43530290D01*
X23283296Y-43428073D01*
X23075794Y-43365128D01*
X22914075Y-43349200D01*
X22805925Y-43349200D01*
X22644206Y-43365128D01*
X22436704Y-43428073D01*
X22245469Y-43530290D01*
X22077851Y-43667851D01*
X21940290Y-43835469D01*
X21838073Y-44026704D01*
X21775128Y-44234206D01*
X21753874Y-44450000D01*
X20548200Y-44450000D01*
X20548200Y-36830000D01*
X21753874Y-36830000D01*
X21775128Y-37045794D01*
X21838073Y-37253296D01*
X21940290Y-37444531D01*
X22077851Y-37612149D01*
X22245469Y-37749710D01*
X22436704Y-37851927D01*
X22644206Y-37914872D01*
X22805925Y-37930800D01*
X22914075Y-37930800D01*
X23075794Y-37914872D01*
X23283296Y-37851927D01*
X23474531Y-37749710D01*
X23642149Y-37612149D01*
X23779710Y-37444531D01*
X23881927Y-37253296D01*
X23944872Y-37045794D01*
X23966126Y-36830000D01*
X23944872Y-36614206D01*
X23881927Y-36406704D01*
X23779710Y-36215469D01*
X23642149Y-36047851D01*
X23474531Y-35910290D01*
X23283296Y-35808073D01*
X23075794Y-35745128D01*
X22914075Y-35729200D01*
X22805925Y-35729200D01*
X22644206Y-35745128D01*
X22436704Y-35808073D01*
X22245469Y-35910290D01*
X22077851Y-36047851D01*
X21940290Y-36215469D01*
X21838073Y-36406704D01*
X21775128Y-36614206D01*
X21753874Y-36830000D01*
X20548200Y-36830000D01*
X20548200Y-26681162D01*
X20569115Y-26467859D01*
X20627820Y-26273419D01*
X20723175Y-26094080D01*
X20851545Y-25936684D01*
X21008044Y-25807216D01*
X21186712Y-25710611D01*
X21380735Y-25650550D01*
X21593379Y-25628201D01*
X36818837Y-25628201D01*
X37032142Y-25649116D01*
X37032142Y-25649116D01*
G37*
X37032142Y-25649116D02*
X37226578Y-25707819D01*
X37405915Y-25803174D01*
X37563319Y-25931548D01*
X37692782Y-26088043D01*
X37789387Y-26266707D01*
X37849449Y-26460739D01*
X37871801Y-26673400D01*
X37871799Y-50788837D01*
X37850884Y-51002142D01*
X37792181Y-51196579D01*
X37696826Y-51375915D01*
X37568454Y-51533316D01*
X37411957Y-51662782D01*
X37233289Y-51759388D01*
X37039262Y-51819449D01*
X36826610Y-51841800D01*
X33778800Y-51841800D01*
X33778800Y-49892360D01*
X34571098Y-49892360D01*
X34604506Y-49973038D01*
X34709298Y-50150933D01*
X34846782Y-50304966D01*
X35011675Y-50429217D01*
X35197639Y-50518912D01*
X35356800Y-50512623D01*
X35356800Y-49733200D01*
X35763200Y-49733200D01*
X35763200Y-50512623D01*
X35922361Y-50518912D01*
X36108325Y-50429217D01*
X36273218Y-50304966D01*
X36410702Y-50150933D01*
X36515494Y-49973038D01*
X36548902Y-49892360D01*
X36541588Y-49733200D01*
X35763200Y-49733200D01*
X35356800Y-49733200D01*
X34578412Y-49733200D01*
X34571098Y-49892360D01*
X33778800Y-49892360D01*
X33778800Y-49167640D01*
X34571098Y-49167640D01*
X34578412Y-49326800D01*
X35356800Y-49326800D01*
X35356800Y-48547377D01*
X35763200Y-48547377D01*
X35763200Y-49326800D01*
X36541588Y-49326800D01*
X36548902Y-49167640D01*
X36515494Y-49086962D01*
X36410702Y-48909067D01*
X36273218Y-48755034D01*
X36108325Y-48630783D01*
X35922361Y-48541088D01*
X35763200Y-48547377D01*
X35356800Y-48547377D01*
X35197639Y-48541088D01*
X35011675Y-48630783D01*
X34846782Y-48755034D01*
X34709298Y-48909067D01*
X34604506Y-49086962D01*
X34571098Y-49167640D01*
X33778800Y-49167640D01*
X33778800Y-47244000D01*
X33773981Y-47195071D01*
X33759709Y-47148023D01*
X33736533Y-47104663D01*
X33705342Y-47066658D01*
X33667337Y-47035467D01*
X33623977Y-47012291D01*
X33576929Y-46998019D01*
X33528000Y-46993200D01*
X32889800Y-46993200D01*
X32889800Y-45487231D01*
X32937969Y-45482487D01*
X33030970Y-45454275D01*
X33116681Y-45408462D01*
X33191807Y-45346807D01*
X33253462Y-45271681D01*
X33299275Y-45185970D01*
X33327487Y-45092969D01*
X33337013Y-44996250D01*
X33337013Y-44508750D01*
X33327487Y-44412031D01*
X33299275Y-44319030D01*
X33253462Y-44233319D01*
X33191807Y-44158193D01*
X33116681Y-44096538D01*
X33030970Y-44050725D01*
X32937969Y-44022513D01*
X32841250Y-44012987D01*
X31928750Y-44012987D01*
X31832031Y-44022513D01*
X31739030Y-44050725D01*
X31653319Y-44096538D01*
X31578193Y-44158193D01*
X31516538Y-44233319D01*
X31508851Y-44247700D01*
X31229149Y-44247700D01*
X31221462Y-44233319D01*
X31159807Y-44158193D01*
X31084681Y-44096538D01*
X30998970Y-44050725D01*
X30905969Y-44022513D01*
X30809250Y-44012987D01*
X29896750Y-44012987D01*
X29800031Y-44022513D01*
X29707030Y-44050725D01*
X29621319Y-44096538D01*
X29613200Y-44103201D01*
X29613200Y-43565263D01*
X29653000Y-43569183D01*
X30099000Y-43568200D01*
X30149800Y-43517400D01*
X30149800Y-43080700D01*
X30556200Y-43080700D01*
X30556200Y-43517400D01*
X30607000Y-43568200D01*
X31053000Y-43569183D01*
X31092834Y-43565260D01*
X31131137Y-43553640D01*
X31166438Y-43534772D01*
X31197379Y-43509379D01*
X31222772Y-43478438D01*
X31241640Y-43443137D01*
X31253260Y-43404834D01*
X31257183Y-43365000D01*
X31480817Y-43365000D01*
X31484740Y-43404834D01*
X31496360Y-43443137D01*
X31515228Y-43478438D01*
X31540621Y-43509379D01*
X31571562Y-43534772D01*
X31606863Y-43553640D01*
X31645166Y-43565260D01*
X31685000Y-43569183D01*
X32131000Y-43568200D01*
X32181800Y-43517400D01*
X32181800Y-43080700D01*
X32588200Y-43080700D01*
X32588200Y-43517400D01*
X32639000Y-43568200D01*
X33085000Y-43569183D01*
X33124834Y-43565260D01*
X33163137Y-43553640D01*
X33198438Y-43534772D01*
X33229379Y-43509379D01*
X33254772Y-43478438D01*
X33273640Y-43443137D01*
X33285260Y-43404834D01*
X33289183Y-43365000D01*
X33288200Y-43131500D01*
X33237400Y-43080700D01*
X32588200Y-43080700D01*
X32181800Y-43080700D01*
X31532600Y-43080700D01*
X31481800Y-43131500D01*
X31480817Y-43365000D01*
X31257183Y-43365000D01*
X31256200Y-43131500D01*
X31205400Y-43080700D01*
X30556200Y-43080700D01*
X30149800Y-43080700D01*
X30129800Y-43080700D01*
X30129800Y-42674300D01*
X30149800Y-42674300D01*
X30149800Y-42237600D01*
X30556200Y-42237600D01*
X30556200Y-42674300D01*
X31205400Y-42674300D01*
X31256200Y-42623500D01*
X31257183Y-42390000D01*
X31480817Y-42390000D01*
X31481800Y-42623500D01*
X31532600Y-42674300D01*
X32181800Y-42674300D01*
X32181800Y-42237600D01*
X32588200Y-42237600D01*
X32588200Y-42674300D01*
X33237400Y-42674300D01*
X33288200Y-42623500D01*
X33289183Y-42390000D01*
X33285260Y-42350166D01*
X33273640Y-42311863D01*
X33254772Y-42276562D01*
X33229379Y-42245621D01*
X33198438Y-42220228D01*
X33163137Y-42201360D01*
X33124834Y-42189740D01*
X33085000Y-42185817D01*
X32639000Y-42186800D01*
X32588200Y-42237600D01*
X32181800Y-42237600D01*
X32131000Y-42186800D01*
X31685000Y-42185817D01*
X31645166Y-42189740D01*
X31606863Y-42201360D01*
X31571562Y-42220228D01*
X31540621Y-42245621D01*
X31515228Y-42276562D01*
X31496360Y-42311863D01*
X31484740Y-42350166D01*
X31480817Y-42390000D01*
X31257183Y-42390000D01*
X31253260Y-42350166D01*
X31241640Y-42311863D01*
X31222772Y-42276562D01*
X31197379Y-42245621D01*
X31166438Y-42220228D01*
X31131137Y-42201360D01*
X31092834Y-42189740D01*
X31053000Y-42185817D01*
X30607000Y-42186800D01*
X30556200Y-42237600D01*
X30149800Y-42237600D01*
X30099000Y-42186800D01*
X29653000Y-42185817D01*
X29613200Y-42189737D01*
X29613200Y-37695710D01*
X30606096Y-38688607D01*
X30618716Y-38703984D01*
X30680111Y-38754370D01*
X30750156Y-38791810D01*
X30826159Y-38814865D01*
X30885402Y-38820700D01*
X30885411Y-38820700D01*
X30905199Y-38822649D01*
X30924987Y-38820700D01*
X30961119Y-38820700D01*
X30957987Y-38852500D01*
X30957987Y-39252500D01*
X30962829Y-39301665D01*
X30977170Y-39348941D01*
X30988426Y-39370000D01*
X30977170Y-39391059D01*
X30962829Y-39438335D01*
X30957987Y-39487500D01*
X30957987Y-39887500D01*
X30962829Y-39936665D01*
X30977170Y-39983941D01*
X31000459Y-40027511D01*
X31031800Y-40065700D01*
X31069989Y-40097041D01*
X31113559Y-40120330D01*
X31160835Y-40134671D01*
X31210000Y-40139513D01*
X32383206Y-40139513D01*
X32394210Y-40194831D01*
X32443268Y-40313269D01*
X32514491Y-40419861D01*
X32605139Y-40510509D01*
X32711731Y-40581732D01*
X32830169Y-40630790D01*
X32955902Y-40655800D01*
X33084098Y-40655800D01*
X33209831Y-40630790D01*
X33328269Y-40581732D01*
X33381990Y-40545836D01*
X33381991Y-45195389D01*
X33380041Y-45215190D01*
X33387825Y-45294231D01*
X33410881Y-45370234D01*
X33448321Y-45440279D01*
X33482961Y-45482487D01*
X33498707Y-45501674D01*
X33514082Y-45514292D01*
X34438894Y-46439105D01*
X34438899Y-46439109D01*
X34547973Y-46548183D01*
X34538073Y-46566704D01*
X34475128Y-46774206D01*
X34453874Y-46990000D01*
X34475128Y-47205794D01*
X34538073Y-47413296D01*
X34640290Y-47604531D01*
X34777851Y-47772149D01*
X34945469Y-47909710D01*
X35136704Y-48011927D01*
X35344206Y-48074872D01*
X35505925Y-48090800D01*
X35614075Y-48090800D01*
X35775794Y-48074872D01*
X35983296Y-48011927D01*
X36174531Y-47909710D01*
X36342149Y-47772149D01*
X36479710Y-47604531D01*
X36581927Y-47413296D01*
X36644872Y-47205794D01*
X36666126Y-46990000D01*
X36644872Y-46774206D01*
X36581927Y-46566704D01*
X36479710Y-46375469D01*
X36342149Y-46207851D01*
X36174531Y-46070290D01*
X35983296Y-45968073D01*
X35775794Y-45905128D01*
X35614075Y-45889200D01*
X35505925Y-45889200D01*
X35344206Y-45905128D01*
X35136704Y-45968073D01*
X35118183Y-45977973D01*
X35009109Y-45868899D01*
X35009105Y-45868894D01*
X34188390Y-45048180D01*
X34188390Y-43648600D01*
X34547973Y-44008183D01*
X34538073Y-44026704D01*
X34475128Y-44234206D01*
X34453874Y-44450000D01*
X34475128Y-44665794D01*
X34538073Y-44873296D01*
X34640290Y-45064531D01*
X34777851Y-45232149D01*
X34945469Y-45369710D01*
X35136704Y-45471927D01*
X35344206Y-45534872D01*
X35505925Y-45550800D01*
X35614075Y-45550800D01*
X35775794Y-45534872D01*
X35983296Y-45471927D01*
X36174531Y-45369710D01*
X36342149Y-45232149D01*
X36479710Y-45064531D01*
X36581927Y-44873296D01*
X36644872Y-44665794D01*
X36666126Y-44450000D01*
X36644872Y-44234206D01*
X36581927Y-44026704D01*
X36479710Y-43835469D01*
X36342149Y-43667851D01*
X36174531Y-43530290D01*
X35983296Y-43428073D01*
X35775794Y-43365128D01*
X35614075Y-43349200D01*
X35505925Y-43349200D01*
X35344206Y-43365128D01*
X35136704Y-43428073D01*
X35118183Y-43437973D01*
X34693200Y-43012990D01*
X34693200Y-42589002D01*
X34777851Y-42692149D01*
X34945469Y-42829710D01*
X35136704Y-42931927D01*
X35344206Y-42994872D01*
X35505925Y-43010800D01*
X35614075Y-43010800D01*
X35775794Y-42994872D01*
X35983296Y-42931927D01*
X36174531Y-42829710D01*
X36342149Y-42692149D01*
X36479710Y-42524531D01*
X36581927Y-42333296D01*
X36644872Y-42125794D01*
X36666126Y-41910000D01*
X36644872Y-41694206D01*
X36581927Y-41486704D01*
X36479710Y-41295469D01*
X36342149Y-41127851D01*
X36174531Y-40990290D01*
X35983296Y-40888073D01*
X35775794Y-40825128D01*
X35614075Y-40809200D01*
X35505925Y-40809200D01*
X35344206Y-40825128D01*
X35136704Y-40888073D01*
X34945469Y-40990290D01*
X34777851Y-41127851D01*
X34693200Y-41230998D01*
X34693200Y-40049002D01*
X34777851Y-40152149D01*
X34945469Y-40289710D01*
X35136704Y-40391927D01*
X35344206Y-40454872D01*
X35505925Y-40470800D01*
X35614075Y-40470800D01*
X35775794Y-40454872D01*
X35983296Y-40391927D01*
X36174531Y-40289710D01*
X36342149Y-40152149D01*
X36479710Y-39984531D01*
X36581927Y-39793296D01*
X36644872Y-39585794D01*
X36666126Y-39370000D01*
X36644872Y-39154206D01*
X36581927Y-38946704D01*
X36479710Y-38755469D01*
X36342149Y-38587851D01*
X36174531Y-38450290D01*
X35983296Y-38348073D01*
X35775794Y-38285128D01*
X35614075Y-38269200D01*
X35505925Y-38269200D01*
X35344206Y-38285128D01*
X35136704Y-38348073D01*
X34945469Y-38450290D01*
X34777851Y-38587851D01*
X34693200Y-38690998D01*
X34693200Y-37509002D01*
X34777851Y-37612149D01*
X34945469Y-37749710D01*
X35136704Y-37851927D01*
X35344206Y-37914872D01*
X35505925Y-37930800D01*
X35614075Y-37930800D01*
X35775794Y-37914872D01*
X35983296Y-37851927D01*
X36174531Y-37749710D01*
X36342149Y-37612149D01*
X36479710Y-37444531D01*
X36581927Y-37253296D01*
X36644872Y-37045794D01*
X36666126Y-36830000D01*
X36644872Y-36614206D01*
X36581927Y-36406704D01*
X36479710Y-36215469D01*
X36342149Y-36047851D01*
X36174531Y-35910290D01*
X35983296Y-35808073D01*
X35775794Y-35745128D01*
X35614075Y-35729200D01*
X35505925Y-35729200D01*
X35344206Y-35745128D01*
X35136704Y-35808073D01*
X35118183Y-35817973D01*
X33636607Y-34336397D01*
X33623984Y-34321016D01*
X33586192Y-34290000D01*
X34453874Y-34290000D01*
X34475128Y-34505794D01*
X34538073Y-34713296D01*
X34640290Y-34904531D01*
X34777851Y-35072149D01*
X34945469Y-35209710D01*
X35136704Y-35311927D01*
X35344206Y-35374872D01*
X35505925Y-35390800D01*
X35614075Y-35390800D01*
X35775794Y-35374872D01*
X35983296Y-35311927D01*
X36174531Y-35209710D01*
X36342149Y-35072149D01*
X36479710Y-34904531D01*
X36581927Y-34713296D01*
X36644872Y-34505794D01*
X36666126Y-34290000D01*
X36644872Y-34074206D01*
X36581927Y-33866704D01*
X36479710Y-33675469D01*
X36342149Y-33507851D01*
X36174531Y-33370290D01*
X35983296Y-33268073D01*
X35775794Y-33205128D01*
X35614075Y-33189200D01*
X35505925Y-33189200D01*
X35344206Y-33205128D01*
X35136704Y-33268073D01*
X34945469Y-33370290D01*
X34777851Y-33507851D01*
X34640290Y-33675469D01*
X34538073Y-33866704D01*
X34475128Y-34074206D01*
X34453874Y-34290000D01*
X33586192Y-34290000D01*
X33562589Y-34270630D01*
X33492544Y-34233190D01*
X33416541Y-34210135D01*
X33357298Y-34204300D01*
X33357291Y-34204300D01*
X33337500Y-34202351D01*
X33317709Y-34204300D01*
X32658881Y-34204300D01*
X32662013Y-34172500D01*
X32662013Y-33772500D01*
X32657171Y-33723335D01*
X32642830Y-33676059D01*
X32619541Y-33632489D01*
X32588200Y-33594300D01*
X32550011Y-33562959D01*
X32506441Y-33539670D01*
X32459165Y-33525329D01*
X32410000Y-33520487D01*
X32213200Y-33520487D01*
X32213200Y-30900000D01*
X34457987Y-30900000D01*
X34457987Y-32600000D01*
X34462829Y-32649165D01*
X34477170Y-32696441D01*
X34500459Y-32740011D01*
X34531800Y-32778200D01*
X34569989Y-32809541D01*
X34613559Y-32832830D01*
X34660835Y-32847171D01*
X34710000Y-32852013D01*
X36410000Y-32852013D01*
X36459165Y-32847171D01*
X36506441Y-32832830D01*
X36550011Y-32809541D01*
X36588200Y-32778200D01*
X36619541Y-32740011D01*
X36642830Y-32696441D01*
X36657171Y-32649165D01*
X36662013Y-32600000D01*
X36662013Y-30900000D01*
X36657171Y-30850835D01*
X36642830Y-30803559D01*
X36619541Y-30759989D01*
X36588200Y-30721800D01*
X36550011Y-30690459D01*
X36506441Y-30667170D01*
X36459165Y-30652829D01*
X36410000Y-30647987D01*
X34710000Y-30647987D01*
X34660835Y-30652829D01*
X34613559Y-30667170D01*
X34569989Y-30690459D01*
X34531800Y-30721800D01*
X34500459Y-30759989D01*
X34477170Y-30803559D01*
X34462829Y-30850835D01*
X34457987Y-30900000D01*
X32213200Y-30900000D01*
X32213200Y-29289787D01*
X32215149Y-29269999D01*
X32213200Y-29250211D01*
X32213200Y-29250202D01*
X32207365Y-29190959D01*
X32184310Y-29114956D01*
X32146870Y-29044911D01*
X32128748Y-29022830D01*
X32109104Y-28998893D01*
X32109102Y-28998891D01*
X32096484Y-28983516D01*
X32081110Y-28970899D01*
X31492027Y-28381817D01*
X31501927Y-28363296D01*
X31564872Y-28155794D01*
X31586126Y-27940000D01*
X31913874Y-27940000D01*
X31935128Y-28155794D01*
X31998073Y-28363296D01*
X32100290Y-28554531D01*
X32237851Y-28722149D01*
X32405469Y-28859710D01*
X32596704Y-28961927D01*
X32804206Y-29024872D01*
X32965925Y-29040800D01*
X33074075Y-29040800D01*
X33235794Y-29024872D01*
X33443296Y-28961927D01*
X33634531Y-28859710D01*
X33802149Y-28722149D01*
X33939710Y-28554531D01*
X34041927Y-28363296D01*
X34060411Y-28302361D01*
X34571088Y-28302361D01*
X34660783Y-28488325D01*
X34785034Y-28653218D01*
X34939067Y-28790702D01*
X35116962Y-28895494D01*
X35197640Y-28928902D01*
X35356800Y-28921588D01*
X35356800Y-28143200D01*
X35763200Y-28143200D01*
X35763200Y-28921588D01*
X35922360Y-28928902D01*
X36003038Y-28895494D01*
X36180933Y-28790702D01*
X36334966Y-28653218D01*
X36459217Y-28488325D01*
X36548912Y-28302361D01*
X36542623Y-28143200D01*
X35763200Y-28143200D01*
X35356800Y-28143200D01*
X34577377Y-28143200D01*
X34571088Y-28302361D01*
X34060411Y-28302361D01*
X34104872Y-28155794D01*
X34126126Y-27940000D01*
X34104872Y-27724206D01*
X34060412Y-27577639D01*
X34571088Y-27577639D01*
X34577377Y-27736800D01*
X35356800Y-27736800D01*
X35356800Y-26958412D01*
X35763200Y-26958412D01*
X35763200Y-27736800D01*
X36542623Y-27736800D01*
X36548912Y-27577639D01*
X36459217Y-27391675D01*
X36334966Y-27226782D01*
X36180933Y-27089298D01*
X36003038Y-26984506D01*
X35922360Y-26951098D01*
X35763200Y-26958412D01*
X35356800Y-26958412D01*
X35197640Y-26951098D01*
X35116962Y-26984506D01*
X34939067Y-27089298D01*
X34785034Y-27226782D01*
X34660783Y-27391675D01*
X34571088Y-27577639D01*
X34060412Y-27577639D01*
X34041927Y-27516704D01*
X33939710Y-27325469D01*
X33802149Y-27157851D01*
X33634531Y-27020290D01*
X33443296Y-26918073D01*
X33235794Y-26855128D01*
X33074075Y-26839200D01*
X32965925Y-26839200D01*
X32804206Y-26855128D01*
X32596704Y-26918073D01*
X32405469Y-27020290D01*
X32237851Y-27157851D01*
X32100290Y-27325469D01*
X31998073Y-27516704D01*
X31935128Y-27724206D01*
X31913874Y-27940000D01*
X31586126Y-27940000D01*
X31564872Y-27724206D01*
X31501927Y-27516704D01*
X31399710Y-27325469D01*
X31262149Y-27157851D01*
X31094531Y-27020290D01*
X30903296Y-26918073D01*
X30695794Y-26855128D01*
X30534075Y-26839200D01*
X30425925Y-26839200D01*
X30264206Y-26855128D01*
X30056704Y-26918073D01*
X29865469Y-27020290D01*
X29697851Y-27157851D01*
X29560290Y-27325469D01*
X29458073Y-27516704D01*
X29395128Y-27724206D01*
X29373874Y-27940000D01*
X29395128Y-28155794D01*
X29458073Y-28363296D01*
X29560290Y-28554531D01*
X29697851Y-28722149D01*
X29865469Y-28859710D01*
X30056704Y-28961927D01*
X30264206Y-29024872D01*
X30425925Y-29040800D01*
X30534075Y-29040800D01*
X30695794Y-29024872D01*
X30903296Y-28961927D01*
X30921817Y-28952027D01*
X31406800Y-29437011D01*
X31406801Y-32470618D01*
X31365869Y-32443268D01*
X31247431Y-32394210D01*
X31121698Y-32369200D01*
X30993502Y-32369200D01*
X30867769Y-32394210D01*
X30749331Y-32443268D01*
X30642739Y-32514491D01*
X30552091Y-32605139D01*
X30550700Y-32607221D01*
X30550700Y-32038457D01*
X30580970Y-32029275D01*
X30666681Y-31983462D01*
X30741807Y-31921807D01*
X30803462Y-31846681D01*
X30849275Y-31760970D01*
X30877487Y-31667969D01*
X30887013Y-31571250D01*
X30887013Y-30658750D01*
X30877487Y-30562031D01*
X30849275Y-30469030D01*
X30803462Y-30383319D01*
X30741807Y-30308193D01*
X30666681Y-30246538D01*
X30580970Y-30200725D01*
X30487969Y-30172513D01*
X30391250Y-30162987D01*
X29903750Y-30162987D01*
X29807031Y-30172513D01*
X29782627Y-30179916D01*
X29176607Y-29573897D01*
X29163984Y-29558516D01*
X29102589Y-29508130D01*
X29032544Y-29470690D01*
X28956541Y-29447635D01*
X28897298Y-29441800D01*
X28897291Y-29441800D01*
X28877500Y-29439851D01*
X28857709Y-29441800D01*
X26054787Y-29441800D01*
X26034999Y-29439851D01*
X26015211Y-29441800D01*
X24932011Y-29441800D01*
X24429108Y-28938898D01*
X24429104Y-28938893D01*
X23962013Y-28471802D01*
X23962013Y-27940000D01*
X24293874Y-27940000D01*
X24315128Y-28155794D01*
X24378073Y-28363296D01*
X24480290Y-28554531D01*
X24617851Y-28722149D01*
X24785469Y-28859710D01*
X24976704Y-28961927D01*
X25184206Y-29024872D01*
X25345925Y-29040800D01*
X25454075Y-29040800D01*
X25615794Y-29024872D01*
X25823296Y-28961927D01*
X26014531Y-28859710D01*
X26182149Y-28722149D01*
X26319710Y-28554531D01*
X26421927Y-28363296D01*
X26484872Y-28155794D01*
X26506126Y-27940000D01*
X26833874Y-27940000D01*
X26855128Y-28155794D01*
X26918073Y-28363296D01*
X27020290Y-28554531D01*
X27157851Y-28722149D01*
X27325469Y-28859710D01*
X27516704Y-28961927D01*
X27724206Y-29024872D01*
X27885925Y-29040800D01*
X27994075Y-29040800D01*
X28155794Y-29024872D01*
X28363296Y-28961927D01*
X28554531Y-28859710D01*
X28722149Y-28722149D01*
X28859710Y-28554531D01*
X28961927Y-28363296D01*
X29024872Y-28155794D01*
X29046126Y-27940000D01*
X29024872Y-27724206D01*
X28961927Y-27516704D01*
X28859710Y-27325469D01*
X28722149Y-27157851D01*
X28554531Y-27020290D01*
X28363296Y-26918073D01*
X28155794Y-26855128D01*
X27994075Y-26839200D01*
X27885925Y-26839200D01*
X27724206Y-26855128D01*
X27516704Y-26918073D01*
X27325469Y-27020290D01*
X27157851Y-27157851D01*
X27020290Y-27325469D01*
X26918073Y-27516704D01*
X26855128Y-27724206D01*
X26833874Y-27940000D01*
X26506126Y-27940000D01*
X26484872Y-27724206D01*
X26421927Y-27516704D01*
X26319710Y-27325469D01*
X26182149Y-27157851D01*
X26014531Y-27020290D01*
X25823296Y-26918073D01*
X25615794Y-26855128D01*
X25454075Y-26839200D01*
X25345925Y-26839200D01*
X25184206Y-26855128D01*
X24976704Y-26918073D01*
X24785469Y-27020290D01*
X24617851Y-27157851D01*
X24480290Y-27325469D01*
X24378073Y-27516704D01*
X24315128Y-27724206D01*
X24293874Y-27940000D01*
X23962013Y-27940000D01*
X23962013Y-27090000D01*
X23957171Y-27040835D01*
X23942830Y-26993559D01*
X23919541Y-26949989D01*
X23888200Y-26911800D01*
X23850011Y-26880459D01*
X23806441Y-26857170D01*
X23759165Y-26842829D01*
X23710000Y-26837987D01*
X22010000Y-26837987D01*
X21960835Y-26842829D01*
X21913559Y-26857170D01*
X21869989Y-26880459D01*
X21831800Y-26911800D01*
X21800459Y-26949989D01*
X21777170Y-26993559D01*
X21762829Y-27040835D01*
X21757987Y-27090000D01*
X21757987Y-28471802D01*
X20937892Y-29291898D01*
X20922517Y-29304516D01*
X20909899Y-29319891D01*
X20909896Y-29319894D01*
X20872131Y-29365911D01*
X20834691Y-29435956D01*
X20811635Y-29511959D01*
X20803851Y-29591000D01*
X20805801Y-29610801D01*
X20805800Y-32619209D01*
X20803851Y-32639000D01*
X20805800Y-32658791D01*
X20805800Y-32658797D01*
X20808197Y-32683130D01*
X20811635Y-32718041D01*
X20818300Y-32740011D01*
X20834690Y-32794043D01*
X20872130Y-32864088D01*
X20922516Y-32925484D01*
X20937897Y-32938107D01*
X21847973Y-33848183D01*
X21838073Y-33866704D01*
X21775128Y-34074206D01*
X21753874Y-34290000D01*
X21775128Y-34505794D01*
X21838073Y-34713296D01*
X21940290Y-34904531D01*
X22077851Y-35072149D01*
X22245469Y-35209710D01*
X22436704Y-35311927D01*
X22644206Y-35374872D01*
X22805925Y-35390800D01*
X22914075Y-35390800D01*
X23075794Y-35374872D01*
X23283296Y-35311927D01*
X23474531Y-35209710D01*
X23642149Y-35072149D01*
X23779710Y-34904531D01*
X23881927Y-34713296D01*
X23944872Y-34505794D01*
X23966126Y-34290000D01*
X23944872Y-34074206D01*
X23881927Y-33866704D01*
X23779710Y-33675469D01*
X23642149Y-33507851D01*
X23474531Y-33370290D01*
X23283296Y-33268073D01*
X23075794Y-33205128D01*
X22914075Y-33189200D01*
X22805925Y-33189200D01*
X22644206Y-33205128D01*
X22436704Y-33268073D01*
X22418183Y-33277973D01*
X21990281Y-32850071D01*
X22010000Y-32852013D01*
X23710000Y-32852013D01*
X23759165Y-32847171D01*
X23806441Y-32832830D01*
X23850011Y-32809541D01*
X23888200Y-32778200D01*
X23919541Y-32740011D01*
X23942830Y-32696441D01*
X23957171Y-32649165D01*
X23962013Y-32600000D01*
X23962013Y-32267423D01*
X24361800Y-32667211D01*
X24361801Y-35552499D01*
X24359851Y-35572300D01*
X24367635Y-35651341D01*
X24386960Y-35715044D01*
X24390691Y-35727344D01*
X24428131Y-35797389D01*
X24478517Y-35858784D01*
X24493892Y-35871402D01*
X25406095Y-36783606D01*
X25418716Y-36798984D01*
X25434091Y-36811602D01*
X25434094Y-36811605D01*
X25480111Y-36849370D01*
X25550155Y-36886810D01*
X25607098Y-36904083D01*
X25626159Y-36909865D01*
X25685402Y-36915700D01*
X25685409Y-36915700D01*
X25705200Y-36917649D01*
X25724991Y-36915700D01*
X25808949Y-36915700D01*
X25805817Y-36947500D01*
X25806800Y-36947500D01*
X25857600Y-36998300D01*
X26406800Y-36998300D01*
X26406800Y-36964513D01*
X26813200Y-36964513D01*
X26813200Y-36998300D01*
X27362400Y-36998300D01*
X27396395Y-36964305D01*
X27536801Y-37104712D01*
X27536800Y-41440489D01*
X26839303Y-42137987D01*
X26250224Y-42137987D01*
X26881109Y-41507102D01*
X26896484Y-41494484D01*
X26946870Y-41433089D01*
X26984310Y-41363044D01*
X27003692Y-41299150D01*
X27007365Y-41287042D01*
X27009210Y-41268310D01*
X27013200Y-41227798D01*
X27013200Y-41227792D01*
X27015149Y-41208001D01*
X27013200Y-41188210D01*
X27013200Y-40139513D01*
X27210000Y-40139513D01*
X27259165Y-40134671D01*
X27306441Y-40120330D01*
X27350011Y-40097041D01*
X27388200Y-40065700D01*
X27419541Y-40027511D01*
X27442830Y-39983941D01*
X27457171Y-39936665D01*
X27462013Y-39887500D01*
X27462013Y-39487500D01*
X27457171Y-39438335D01*
X27442830Y-39391059D01*
X27431574Y-39370000D01*
X27442830Y-39348941D01*
X27457171Y-39301665D01*
X27462013Y-39252500D01*
X27462013Y-38852500D01*
X27457171Y-38803335D01*
X27442830Y-38756059D01*
X27431574Y-38735000D01*
X27442830Y-38713941D01*
X27457171Y-38666665D01*
X27462013Y-38617500D01*
X27462013Y-38217500D01*
X27457171Y-38168335D01*
X27442830Y-38121059D01*
X27431574Y-38100000D01*
X27442830Y-38078941D01*
X27457171Y-38031665D01*
X27462013Y-37982500D01*
X27462013Y-37582500D01*
X27457171Y-37533335D01*
X27442830Y-37486059D01*
X27419541Y-37442489D01*
X27400548Y-37419346D01*
X27410260Y-37387334D01*
X27414183Y-37347500D01*
X27413200Y-37347500D01*
X27362400Y-37296700D01*
X26813200Y-37296700D01*
X26813200Y-37330487D01*
X26406800Y-37330487D01*
X26406800Y-37296700D01*
X25857600Y-37296700D01*
X25806800Y-37347500D01*
X25805817Y-37347500D01*
X25808949Y-37379300D01*
X25102287Y-37379300D01*
X25082499Y-37377351D01*
X25062711Y-37379300D01*
X25062702Y-37379300D01*
X25003459Y-37385135D01*
X24927456Y-37408190D01*
X24857411Y-37445630D01*
X24796016Y-37496016D01*
X24783398Y-37511391D01*
X23671353Y-38623436D01*
X23642149Y-38587851D01*
X23474531Y-38450290D01*
X23283296Y-38348073D01*
X23075794Y-38285128D01*
X22914075Y-38269200D01*
X22805925Y-38269200D01*
X22644206Y-38285128D01*
X22436704Y-38348073D01*
X22245469Y-38450290D01*
X22077851Y-38587851D01*
X21940290Y-38755469D01*
X21838073Y-38946704D01*
X21775128Y-39154206D01*
X21753874Y-39370000D01*
X21775128Y-39585794D01*
X21838073Y-39793296D01*
X21940290Y-39984531D01*
X22077851Y-40152149D01*
X22245469Y-40289710D01*
X22436704Y-40391927D01*
X22644206Y-40454872D01*
X22805925Y-40470800D01*
X22914075Y-40470800D01*
X23075794Y-40454872D01*
X23283296Y-40391927D01*
X23472800Y-40290635D01*
X23472801Y-40726988D01*
X23301817Y-40897973D01*
X23283296Y-40888073D01*
X23075794Y-40825128D01*
X22914075Y-40809200D01*
X22805925Y-40809200D01*
X22644206Y-40825128D01*
X22436704Y-40888073D01*
X22245469Y-40990290D01*
X22077851Y-41127851D01*
X21940290Y-41295469D01*
X21838073Y-41486704D01*
X21775128Y-41694206D01*
X21753874Y-41910000D01*
X21775128Y-42125794D01*
X21838073Y-42333296D01*
X21940290Y-42524531D01*
X22077851Y-42692149D01*
X22245469Y-42829710D01*
X22436704Y-42931927D01*
X22644206Y-42994872D01*
X22805925Y-43010800D01*
X22914075Y-43010800D01*
X23075794Y-42994872D01*
X23283296Y-42931927D01*
X23474531Y-42829710D01*
X23642149Y-42692149D01*
X23779710Y-42524531D01*
X23881927Y-42333296D01*
X23944872Y-42125794D01*
X23966126Y-41910000D01*
X23944872Y-41694206D01*
X23881927Y-41486704D01*
X23872027Y-41468183D01*
X24147109Y-41193102D01*
X24162484Y-41180484D01*
X24179870Y-41159299D01*
X24170053Y-41183000D01*
X24141200Y-41328053D01*
X24141200Y-41475947D01*
X24170053Y-41621000D01*
X24226649Y-41757637D01*
X24308815Y-41880607D01*
X24413393Y-41985185D01*
X24536363Y-42067351D01*
X24673000Y-42123947D01*
X24818053Y-42152800D01*
X24965947Y-42152800D01*
X25111000Y-42123947D01*
X25132924Y-42114866D01*
X24493897Y-42753893D01*
X24478516Y-42766516D01*
X24428130Y-42827912D01*
X24390690Y-42897957D01*
X24367635Y-42973960D01*
X24361800Y-43033203D01*
X24361800Y-43033209D01*
X24359851Y-43053000D01*
X24361800Y-43072791D01*
X24361801Y-44917989D01*
X23438898Y-45840892D01*
X23438892Y-45840897D01*
X23301817Y-45977972D01*
X23283296Y-45968073D01*
X23075794Y-45905128D01*
X22914075Y-45889200D01*
X22805925Y-45889200D01*
X22644206Y-45905128D01*
X22436704Y-45968073D01*
X22245469Y-46070290D01*
X22077851Y-46207851D01*
X21940290Y-46375469D01*
X21838073Y-46566704D01*
X21775128Y-46774206D01*
X21753874Y-46990000D01*
X21775128Y-47205794D01*
X21838073Y-47413296D01*
X21940290Y-47604531D01*
X22077851Y-47772149D01*
X22245469Y-47909710D01*
X22436704Y-48011927D01*
X22644206Y-48074872D01*
X22805925Y-48090800D01*
X22914075Y-48090800D01*
X23075794Y-48074872D01*
X23283296Y-48011927D01*
X23474531Y-47909710D01*
X23642149Y-47772149D01*
X23779710Y-47604531D01*
X23881927Y-47413296D01*
X23944872Y-47205794D01*
X23966126Y-46990000D01*
X23944872Y-46774206D01*
X23881927Y-46566704D01*
X23872028Y-46548183D01*
X24009103Y-46411108D01*
X24009108Y-46411102D01*
X25036103Y-45384107D01*
X25051484Y-45371484D01*
X25101870Y-45310089D01*
X25139310Y-45240044D01*
X25139323Y-45240000D01*
X25765817Y-45240000D01*
X25769740Y-45279834D01*
X25781360Y-45318137D01*
X25800228Y-45353438D01*
X25825621Y-45384379D01*
X25856562Y-45409772D01*
X25891863Y-45428640D01*
X25930166Y-45440260D01*
X25970000Y-45444183D01*
X26416000Y-45443200D01*
X26466800Y-45392400D01*
X26466800Y-44955700D01*
X25817600Y-44955700D01*
X25766800Y-45006500D01*
X25765817Y-45240000D01*
X25139323Y-45240000D01*
X25162365Y-45164041D01*
X25168200Y-45104798D01*
X25168200Y-45104791D01*
X25170149Y-45085000D01*
X25168200Y-45065209D01*
X25168200Y-44265000D01*
X25765817Y-44265000D01*
X25766800Y-44498500D01*
X25817600Y-44549300D01*
X26466800Y-44549300D01*
X26466800Y-44112600D01*
X26416000Y-44061800D01*
X25970000Y-44060817D01*
X25930166Y-44064740D01*
X25891863Y-44076360D01*
X25856562Y-44095228D01*
X25825621Y-44120621D01*
X25800228Y-44151562D01*
X25781360Y-44186863D01*
X25769740Y-44225166D01*
X25765817Y-44265000D01*
X25168200Y-44265000D01*
X25168200Y-43220010D01*
X25717987Y-42670223D01*
X25717987Y-43121250D01*
X25727513Y-43217969D01*
X25755725Y-43310970D01*
X25801538Y-43396681D01*
X25863193Y-43471807D01*
X25938319Y-43533462D01*
X26024030Y-43579275D01*
X26117031Y-43607487D01*
X26213750Y-43617013D01*
X26839303Y-43617013D01*
X27283297Y-44061008D01*
X26924000Y-44061800D01*
X26873200Y-44112600D01*
X26873200Y-44549300D01*
X26893200Y-44549300D01*
X26893200Y-44955700D01*
X26873200Y-44955700D01*
X26873200Y-45392400D01*
X26924000Y-45443200D01*
X27370000Y-45444183D01*
X27409834Y-45440260D01*
X27448137Y-45428640D01*
X27483438Y-45409772D01*
X27506801Y-45390598D01*
X27506800Y-46993200D01*
X24892000Y-46993200D01*
X24843071Y-46998019D01*
X24796023Y-47012291D01*
X24752663Y-47035467D01*
X24714658Y-47066658D01*
X24683467Y-47104663D01*
X24660291Y-47148023D01*
X24646019Y-47195071D01*
X24641200Y-47244000D01*
X24641200Y-51841800D01*
X21601152Y-51841800D01*
X21387858Y-51820886D01*
X21193420Y-51762182D01*
X21014084Y-51666827D01*
X20856686Y-51538458D01*
X20727216Y-51381957D01*
X20630611Y-51203289D01*
X20570550Y-51009265D01*
X20548200Y-50796611D01*
X20548200Y-49892360D01*
X21871098Y-49892360D01*
X21904506Y-49973038D01*
X22009298Y-50150933D01*
X22146782Y-50304966D01*
X22311675Y-50429217D01*
X22497639Y-50518912D01*
X22656800Y-50512623D01*
X22656800Y-49733200D01*
X23063200Y-49733200D01*
X23063200Y-50512623D01*
X23222361Y-50518912D01*
X23408325Y-50429217D01*
X23573218Y-50304966D01*
X23710702Y-50150933D01*
X23815494Y-49973038D01*
X23848902Y-49892360D01*
X23841588Y-49733200D01*
X23063200Y-49733200D01*
X22656800Y-49733200D01*
X21878412Y-49733200D01*
X21871098Y-49892360D01*
X20548200Y-49892360D01*
X20548200Y-49167640D01*
X21871098Y-49167640D01*
X21878412Y-49326800D01*
X22656800Y-49326800D01*
X22656800Y-48547377D01*
X23063200Y-48547377D01*
X23063200Y-49326800D01*
X23841588Y-49326800D01*
X23848902Y-49167640D01*
X23815494Y-49086962D01*
X23710702Y-48909067D01*
X23573218Y-48755034D01*
X23408325Y-48630783D01*
X23222361Y-48541088D01*
X23063200Y-48547377D01*
X22656800Y-48547377D01*
X22497639Y-48541088D01*
X22311675Y-48630783D01*
X22146782Y-48755034D01*
X22009298Y-48909067D01*
X21904506Y-49086962D01*
X21871098Y-49167640D01*
X20548200Y-49167640D01*
X20548200Y-44450000D01*
X21753874Y-44450000D01*
X21775128Y-44665794D01*
X21838073Y-44873296D01*
X21940290Y-45064531D01*
X22077851Y-45232149D01*
X22245469Y-45369710D01*
X22436704Y-45471927D01*
X22644206Y-45534872D01*
X22805925Y-45550800D01*
X22914075Y-45550800D01*
X23075794Y-45534872D01*
X23283296Y-45471927D01*
X23474531Y-45369710D01*
X23642149Y-45232149D01*
X23779710Y-45064531D01*
X23881927Y-44873296D01*
X23944872Y-44665794D01*
X23966126Y-44450000D01*
X23944872Y-44234206D01*
X23881927Y-44026704D01*
X23779710Y-43835469D01*
X23642149Y-43667851D01*
X23474531Y-43530290D01*
X23283296Y-43428073D01*
X23075794Y-43365128D01*
X22914075Y-43349200D01*
X22805925Y-43349200D01*
X22644206Y-43365128D01*
X22436704Y-43428073D01*
X22245469Y-43530290D01*
X22077851Y-43667851D01*
X21940290Y-43835469D01*
X21838073Y-44026704D01*
X21775128Y-44234206D01*
X21753874Y-44450000D01*
X20548200Y-44450000D01*
X20548200Y-36830000D01*
X21753874Y-36830000D01*
X21775128Y-37045794D01*
X21838073Y-37253296D01*
X21940290Y-37444531D01*
X22077851Y-37612149D01*
X22245469Y-37749710D01*
X22436704Y-37851927D01*
X22644206Y-37914872D01*
X22805925Y-37930800D01*
X22914075Y-37930800D01*
X23075794Y-37914872D01*
X23283296Y-37851927D01*
X23474531Y-37749710D01*
X23642149Y-37612149D01*
X23779710Y-37444531D01*
X23881927Y-37253296D01*
X23944872Y-37045794D01*
X23966126Y-36830000D01*
X23944872Y-36614206D01*
X23881927Y-36406704D01*
X23779710Y-36215469D01*
X23642149Y-36047851D01*
X23474531Y-35910290D01*
X23283296Y-35808073D01*
X23075794Y-35745128D01*
X22914075Y-35729200D01*
X22805925Y-35729200D01*
X22644206Y-35745128D01*
X22436704Y-35808073D01*
X22245469Y-35910290D01*
X22077851Y-36047851D01*
X21940290Y-36215469D01*
X21838073Y-36406704D01*
X21775128Y-36614206D01*
X21753874Y-36830000D01*
X20548200Y-36830000D01*
X20548200Y-26681162D01*
X20569115Y-26467859D01*
X20627820Y-26273419D01*
X20723175Y-26094080D01*
X20851545Y-25936684D01*
X21008044Y-25807216D01*
X21186712Y-25710611D01*
X21380735Y-25650550D01*
X21593379Y-25628201D01*
X36818837Y-25628201D01*
X37032142Y-25649116D01*
G36*
X31516538Y-45271681D02*
G01*
X31578193Y-45346807D01*
X31653319Y-45408462D01*
X31739030Y-45454275D01*
X31832031Y-45482487D01*
X31880200Y-45487231D01*
X31880201Y-46993200D01*
X29613200Y-46993200D01*
X29613200Y-45401799D01*
X29621319Y-45408462D01*
X29707030Y-45454275D01*
X29800031Y-45482487D01*
X29896750Y-45492013D01*
X30809250Y-45492013D01*
X30905969Y-45482487D01*
X30998970Y-45454275D01*
X31084681Y-45408462D01*
X31159807Y-45346807D01*
X31221462Y-45271681D01*
X31229149Y-45257300D01*
X31508851Y-45257300D01*
X31516538Y-45271681D01*
X31516538Y-45271681D01*
G37*
X31516538Y-45271681D02*
X31578193Y-45346807D01*
X31653319Y-45408462D01*
X31739030Y-45454275D01*
X31832031Y-45482487D01*
X31880200Y-45487231D01*
X31880201Y-46993200D01*
X29613200Y-46993200D01*
X29613200Y-45401799D01*
X29621319Y-45408462D01*
X29707030Y-45454275D01*
X29800031Y-45482487D01*
X29896750Y-45492013D01*
X30809250Y-45492013D01*
X30905969Y-45482487D01*
X30998970Y-45454275D01*
X31084681Y-45408462D01*
X31159807Y-45346807D01*
X31221462Y-45271681D01*
X31229149Y-45257300D01*
X31508851Y-45257300D01*
X31516538Y-45271681D01*
G36*
X33886800Y-36482861D02*
G01*
X33886800Y-37749289D01*
X33013907Y-36876397D01*
X33001284Y-36861016D01*
X32939889Y-36810630D01*
X32869844Y-36773190D01*
X32793841Y-36750135D01*
X32734598Y-36744300D01*
X32734591Y-36744300D01*
X32714800Y-36742351D01*
X32695009Y-36744300D01*
X32611051Y-36744300D01*
X32614183Y-36712500D01*
X32613200Y-36712500D01*
X32562400Y-36661700D01*
X32013200Y-36661700D01*
X32013200Y-36695487D01*
X31606800Y-36695487D01*
X31606800Y-36661700D01*
X31586800Y-36661700D01*
X31586800Y-36363300D01*
X31606800Y-36363300D01*
X31606800Y-36329513D01*
X32013200Y-36329513D01*
X32013200Y-36363300D01*
X32562400Y-36363300D01*
X32613200Y-36312500D01*
X32614183Y-36312500D01*
X32610260Y-36272666D01*
X32600548Y-36240654D01*
X32619541Y-36217511D01*
X32642830Y-36173941D01*
X32657171Y-36126665D01*
X32662013Y-36077500D01*
X32662013Y-35677500D01*
X32658881Y-35645700D01*
X33049640Y-35645700D01*
X33886800Y-36482861D01*
X33886800Y-36482861D01*
G37*
X33886800Y-36482861D02*
X33886800Y-37749289D01*
X33013907Y-36876397D01*
X33001284Y-36861016D01*
X32939889Y-36810630D01*
X32869844Y-36773190D01*
X32793841Y-36750135D01*
X32734598Y-36744300D01*
X32734591Y-36744300D01*
X32714800Y-36742351D01*
X32695009Y-36744300D01*
X32611051Y-36744300D01*
X32614183Y-36712500D01*
X32613200Y-36712500D01*
X32562400Y-36661700D01*
X32013200Y-36661700D01*
X32013200Y-36695487D01*
X31606800Y-36695487D01*
X31606800Y-36661700D01*
X31586800Y-36661700D01*
X31586800Y-36363300D01*
X31606800Y-36363300D01*
X31606800Y-36329513D01*
X32013200Y-36329513D01*
X32013200Y-36363300D01*
X32562400Y-36363300D01*
X32613200Y-36312500D01*
X32614183Y-36312500D01*
X32610260Y-36272666D01*
X32600548Y-36240654D01*
X32619541Y-36217511D01*
X32642830Y-36173941D01*
X32657171Y-36126665D01*
X32662013Y-36077500D01*
X32662013Y-35677500D01*
X32658881Y-35645700D01*
X33049640Y-35645700D01*
X33886800Y-36482861D01*
G36*
X27640621Y-30270621D02*
G01*
X27615228Y-30301562D01*
X27596360Y-30336863D01*
X27584740Y-30375166D01*
X27580817Y-30415000D01*
X27581800Y-30861000D01*
X27632600Y-30911800D01*
X28069300Y-30911800D01*
X28069300Y-30891800D01*
X28475700Y-30891800D01*
X28475700Y-30911800D01*
X28912400Y-30911800D01*
X28963200Y-30861000D01*
X28963992Y-30501702D01*
X29407987Y-30945698D01*
X29407987Y-31571250D01*
X29417513Y-31667969D01*
X29445725Y-31760970D01*
X29491538Y-31846681D01*
X29553193Y-31921807D01*
X29628319Y-31983462D01*
X29714030Y-32029275D01*
X29744301Y-32038458D01*
X29744300Y-33283228D01*
X29715509Y-33240139D01*
X29624861Y-33149491D01*
X29518269Y-33078268D01*
X29399831Y-33029210D01*
X29274098Y-33004200D01*
X29145902Y-33004200D01*
X29132146Y-33006936D01*
X29109108Y-32983897D01*
X29096485Y-32968517D01*
X29035090Y-32918131D01*
X28965045Y-32880691D01*
X28889042Y-32857636D01*
X28829799Y-32851801D01*
X28829792Y-32851801D01*
X28810001Y-32849852D01*
X28790210Y-32851801D01*
X27990458Y-32851801D01*
X26953657Y-31815000D01*
X27580817Y-31815000D01*
X27584740Y-31854834D01*
X27596360Y-31893137D01*
X27615228Y-31928438D01*
X27640621Y-31959379D01*
X27671562Y-31984772D01*
X27706863Y-32003640D01*
X27745166Y-32015260D01*
X27785000Y-32019183D01*
X28018500Y-32018200D01*
X28069300Y-31967400D01*
X28069300Y-31318200D01*
X28475700Y-31318200D01*
X28475700Y-31967400D01*
X28526500Y-32018200D01*
X28760000Y-32019183D01*
X28799834Y-32015260D01*
X28838137Y-32003640D01*
X28873438Y-31984772D01*
X28904379Y-31959379D01*
X28929772Y-31928438D01*
X28948640Y-31893137D01*
X28960260Y-31854834D01*
X28964183Y-31815000D01*
X28963200Y-31369000D01*
X28912400Y-31318200D01*
X28475700Y-31318200D01*
X28069300Y-31318200D01*
X27632600Y-31318200D01*
X27581800Y-31369000D01*
X27580817Y-31815000D01*
X26953657Y-31815000D01*
X26057200Y-30918544D01*
X26057200Y-30393010D01*
X26202011Y-30248200D01*
X27667941Y-30248200D01*
X27640621Y-30270621D01*
X27640621Y-30270621D01*
G37*
X27640621Y-30270621D02*
X27615228Y-30301562D01*
X27596360Y-30336863D01*
X27584740Y-30375166D01*
X27580817Y-30415000D01*
X27581800Y-30861000D01*
X27632600Y-30911800D01*
X28069300Y-30911800D01*
X28069300Y-30891800D01*
X28475700Y-30891800D01*
X28475700Y-30911800D01*
X28912400Y-30911800D01*
X28963200Y-30861000D01*
X28963992Y-30501702D01*
X29407987Y-30945698D01*
X29407987Y-31571250D01*
X29417513Y-31667969D01*
X29445725Y-31760970D01*
X29491538Y-31846681D01*
X29553193Y-31921807D01*
X29628319Y-31983462D01*
X29714030Y-32029275D01*
X29744301Y-32038458D01*
X29744300Y-33283228D01*
X29715509Y-33240139D01*
X29624861Y-33149491D01*
X29518269Y-33078268D01*
X29399831Y-33029210D01*
X29274098Y-33004200D01*
X29145902Y-33004200D01*
X29132146Y-33006936D01*
X29109108Y-32983897D01*
X29096485Y-32968517D01*
X29035090Y-32918131D01*
X28965045Y-32880691D01*
X28889042Y-32857636D01*
X28829799Y-32851801D01*
X28829792Y-32851801D01*
X28810001Y-32849852D01*
X28790210Y-32851801D01*
X27990458Y-32851801D01*
X26953657Y-31815000D01*
X27580817Y-31815000D01*
X27584740Y-31854834D01*
X27596360Y-31893137D01*
X27615228Y-31928438D01*
X27640621Y-31959379D01*
X27671562Y-31984772D01*
X27706863Y-32003640D01*
X27745166Y-32015260D01*
X27785000Y-32019183D01*
X28018500Y-32018200D01*
X28069300Y-31967400D01*
X28069300Y-31318200D01*
X28475700Y-31318200D01*
X28475700Y-31967400D01*
X28526500Y-32018200D01*
X28760000Y-32019183D01*
X28799834Y-32015260D01*
X28838137Y-32003640D01*
X28873438Y-31984772D01*
X28904379Y-31959379D01*
X28929772Y-31928438D01*
X28948640Y-31893137D01*
X28960260Y-31854834D01*
X28964183Y-31815000D01*
X28963200Y-31369000D01*
X28912400Y-31318200D01*
X28475700Y-31318200D01*
X28069300Y-31318200D01*
X27632600Y-31318200D01*
X27581800Y-31369000D01*
X27580817Y-31815000D01*
X26953657Y-31815000D01*
X26057200Y-30918544D01*
X26057200Y-30393010D01*
X26202011Y-30248200D01*
X27667941Y-30248200D01*
X27640621Y-30270621D01*
D25*
G36*
X26710000Y-47816053D02*
G01*
X27205853Y-47320200D01*
X27443304Y-47320200D01*
X27437797Y-47338355D01*
X27432464Y-47392500D01*
X27432464Y-47596483D01*
X26961447Y-48067500D01*
X27432464Y-48538517D01*
X27432464Y-48742500D01*
X27437797Y-48796645D01*
X27453590Y-48848708D01*
X27479237Y-48896691D01*
X27513752Y-48938748D01*
X27555809Y-48973263D01*
X27603792Y-48998910D01*
X27655855Y-49014703D01*
X27710000Y-49020036D01*
X28110000Y-49020036D01*
X28164145Y-49014703D01*
X28216208Y-48998910D01*
X28235000Y-48988866D01*
X28253792Y-48998910D01*
X28305855Y-49014703D01*
X28360000Y-49020036D01*
X28760000Y-49020036D01*
X28814145Y-49014703D01*
X28866208Y-48998910D01*
X28885000Y-48988866D01*
X28903792Y-48998910D01*
X28955855Y-49014703D01*
X29010000Y-49020036D01*
X29410000Y-49020036D01*
X29464145Y-49014703D01*
X29516208Y-48998910D01*
X29535000Y-48988866D01*
X29553792Y-48998910D01*
X29605855Y-49014703D01*
X29660000Y-49020036D01*
X30060000Y-49020036D01*
X30114145Y-49014703D01*
X30166208Y-48998910D01*
X30185000Y-48988866D01*
X30203792Y-48998910D01*
X30255855Y-49014703D01*
X30310000Y-49020036D01*
X30710000Y-49020036D01*
X30764145Y-49014703D01*
X30816208Y-48998910D01*
X30864191Y-48973263D01*
X30906248Y-48938748D01*
X30940763Y-48896691D01*
X30966410Y-48848708D01*
X30975772Y-48817845D01*
X31211102Y-48817845D01*
X31300400Y-48933758D01*
X31477269Y-48997022D01*
X31663082Y-49024565D01*
X31850697Y-49015329D01*
X32032906Y-48969668D01*
X32119600Y-48933758D01*
X32208898Y-48817845D01*
X31710000Y-48318947D01*
X31211102Y-48817845D01*
X30975772Y-48817845D01*
X30982203Y-48796645D01*
X30987536Y-48742500D01*
X30987536Y-48538517D01*
X31458553Y-48067500D01*
X31961447Y-48067500D01*
X32460345Y-48566398D01*
X32576258Y-48477100D01*
X32639522Y-48300231D01*
X32667065Y-48114418D01*
X32657829Y-47926803D01*
X32612168Y-47744594D01*
X32576258Y-47657900D01*
X32460345Y-47568602D01*
X31961447Y-48067500D01*
X31458553Y-48067500D01*
X30987536Y-47596483D01*
X30987536Y-47392500D01*
X30982203Y-47338355D01*
X30976696Y-47320200D01*
X31214147Y-47320200D01*
X31710000Y-47816053D01*
X32205853Y-47320200D01*
X33451800Y-47320200D01*
X33451800Y-49975436D01*
X33448760Y-49969100D01*
X33347086Y-49833591D01*
X33220930Y-49720521D01*
X33012213Y-49645979D01*
X32887802Y-49666819D01*
X32887802Y-49588900D01*
X32721229Y-49588900D01*
X32710000Y-49587794D01*
X32344950Y-49588900D01*
X32287800Y-49646050D01*
X32287800Y-49688832D01*
X32199070Y-49720521D01*
X32072914Y-49833591D01*
X31971240Y-49969100D01*
X31932200Y-50050470D01*
X31932200Y-49646050D01*
X31875050Y-49588900D01*
X31510000Y-49587794D01*
X31465187Y-49592208D01*
X31422095Y-49605279D01*
X31382382Y-49626506D01*
X31347573Y-49655073D01*
X31319006Y-49689882D01*
X31297779Y-49729595D01*
X31284708Y-49772687D01*
X31280294Y-49817500D01*
X31281400Y-50532550D01*
X31338550Y-50589700D01*
X32881450Y-50589700D01*
X32887800Y-50583350D01*
X32887800Y-50589700D01*
X32907800Y-50589700D01*
X32907800Y-50945300D01*
X32887800Y-50945300D01*
X32887800Y-50951650D01*
X32881450Y-50945300D01*
X31338550Y-50945300D01*
X31281400Y-51002450D01*
X31280294Y-51717500D01*
X31284708Y-51762313D01*
X31297779Y-51805405D01*
X31319006Y-51845118D01*
X31337128Y-51867200D01*
X31132872Y-51867200D01*
X31150994Y-51845118D01*
X31172221Y-51805405D01*
X31185292Y-51762313D01*
X31189706Y-51717500D01*
X31188600Y-51002450D01*
X31131450Y-50945300D01*
X30387800Y-50945300D01*
X30387800Y-50965300D01*
X30032200Y-50965300D01*
X30032200Y-50945300D01*
X29288550Y-50945300D01*
X29231400Y-51002450D01*
X29230294Y-51717500D01*
X29234708Y-51762313D01*
X29247779Y-51805405D01*
X29269006Y-51845118D01*
X29287128Y-51867200D01*
X29132872Y-51867200D01*
X29150994Y-51845118D01*
X29172221Y-51805405D01*
X29185292Y-51762313D01*
X29189706Y-51717500D01*
X29188600Y-51002450D01*
X29131450Y-50945300D01*
X28387800Y-50945300D01*
X28387800Y-50965300D01*
X28032200Y-50965300D01*
X28032200Y-50945300D01*
X27288550Y-50945300D01*
X27231400Y-51002450D01*
X27230294Y-51717500D01*
X27234708Y-51762313D01*
X27247779Y-51805405D01*
X27269006Y-51845118D01*
X27287128Y-51867200D01*
X27082872Y-51867200D01*
X27100994Y-51845118D01*
X27122221Y-51805405D01*
X27135292Y-51762313D01*
X27139706Y-51717500D01*
X27138600Y-51002450D01*
X27081450Y-50945300D01*
X25538550Y-50945300D01*
X25532200Y-50951650D01*
X25532200Y-50945300D01*
X25512200Y-50945300D01*
X25512200Y-50589700D01*
X25532200Y-50589700D01*
X25532200Y-50583350D01*
X25538550Y-50589700D01*
X27081450Y-50589700D01*
X27138600Y-50532550D01*
X27139706Y-49817500D01*
X27230294Y-49817500D01*
X27231400Y-50532550D01*
X27288550Y-50589700D01*
X28032200Y-50589700D01*
X28032200Y-49646050D01*
X28387800Y-49646050D01*
X28387800Y-50589700D01*
X29131450Y-50589700D01*
X29188600Y-50532550D01*
X29189706Y-49817500D01*
X29230294Y-49817500D01*
X29231400Y-50532550D01*
X29288550Y-50589700D01*
X30032200Y-50589700D01*
X30032200Y-49646050D01*
X30387800Y-49646050D01*
X30387800Y-50589700D01*
X31131450Y-50589700D01*
X31188600Y-50532550D01*
X31189706Y-49817500D01*
X31185292Y-49772687D01*
X31172221Y-49729595D01*
X31150994Y-49689882D01*
X31122427Y-49655073D01*
X31087618Y-49626506D01*
X31047905Y-49605279D01*
X31004813Y-49592208D01*
X30960000Y-49587794D01*
X30444950Y-49588900D01*
X30387800Y-49646050D01*
X30032200Y-49646050D01*
X29975050Y-49588900D01*
X29460000Y-49587794D01*
X29415187Y-49592208D01*
X29372095Y-49605279D01*
X29332382Y-49626506D01*
X29297573Y-49655073D01*
X29269006Y-49689882D01*
X29247779Y-49729595D01*
X29234708Y-49772687D01*
X29230294Y-49817500D01*
X29189706Y-49817500D01*
X29185292Y-49772687D01*
X29172221Y-49729595D01*
X29150994Y-49689882D01*
X29122427Y-49655073D01*
X29087618Y-49626506D01*
X29047905Y-49605279D01*
X29004813Y-49592208D01*
X28960000Y-49587794D01*
X28444950Y-49588900D01*
X28387800Y-49646050D01*
X28032200Y-49646050D01*
X27975050Y-49588900D01*
X27460000Y-49587794D01*
X27415187Y-49592208D01*
X27372095Y-49605279D01*
X27332382Y-49626506D01*
X27297573Y-49655073D01*
X27269006Y-49689882D01*
X27247779Y-49729595D01*
X27234708Y-49772687D01*
X27230294Y-49817500D01*
X27139706Y-49817500D01*
X27135292Y-49772687D01*
X27122221Y-49729595D01*
X27100994Y-49689882D01*
X27072427Y-49655073D01*
X27037618Y-49626506D01*
X26997905Y-49605279D01*
X26954813Y-49592208D01*
X26910000Y-49587794D01*
X26544950Y-49588900D01*
X26487800Y-49646050D01*
X26487800Y-50050470D01*
X26448760Y-49969100D01*
X26347086Y-49833591D01*
X26220930Y-49720521D01*
X26132200Y-49688832D01*
X26132200Y-49646050D01*
X26075050Y-49588900D01*
X25710000Y-49587794D01*
X25698771Y-49588900D01*
X25532198Y-49588900D01*
X25532198Y-49666819D01*
X25407787Y-49645979D01*
X25199070Y-49720521D01*
X25072914Y-49833591D01*
X24971240Y-49969100D01*
X24968200Y-49975436D01*
X24968200Y-48817845D01*
X26211102Y-48817845D01*
X26300400Y-48933758D01*
X26477269Y-48997022D01*
X26663082Y-49024565D01*
X26850697Y-49015329D01*
X27032906Y-48969668D01*
X27119600Y-48933758D01*
X27208898Y-48817845D01*
X26710000Y-48318947D01*
X26211102Y-48817845D01*
X24968200Y-48817845D01*
X24968200Y-48020582D01*
X25752935Y-48020582D01*
X25762171Y-48208197D01*
X25807832Y-48390406D01*
X25843742Y-48477100D01*
X25959655Y-48566398D01*
X26458553Y-48067500D01*
X25959655Y-47568602D01*
X25843742Y-47657900D01*
X25780478Y-47834769D01*
X25752935Y-48020582D01*
X24968200Y-48020582D01*
X24968200Y-47320200D01*
X26214147Y-47320200D01*
X26710000Y-47816053D01*
X26710000Y-47816053D01*
G37*
X26710000Y-47816053D02*
X27205853Y-47320200D01*
X27443304Y-47320200D01*
X27437797Y-47338355D01*
X27432464Y-47392500D01*
X27432464Y-47596483D01*
X26961447Y-48067500D01*
X27432464Y-48538517D01*
X27432464Y-48742500D01*
X27437797Y-48796645D01*
X27453590Y-48848708D01*
X27479237Y-48896691D01*
X27513752Y-48938748D01*
X27555809Y-48973263D01*
X27603792Y-48998910D01*
X27655855Y-49014703D01*
X27710000Y-49020036D01*
X28110000Y-49020036D01*
X28164145Y-49014703D01*
X28216208Y-48998910D01*
X28235000Y-48988866D01*
X28253792Y-48998910D01*
X28305855Y-49014703D01*
X28360000Y-49020036D01*
X28760000Y-49020036D01*
X28814145Y-49014703D01*
X28866208Y-48998910D01*
X28885000Y-48988866D01*
X28903792Y-48998910D01*
X28955855Y-49014703D01*
X29010000Y-49020036D01*
X29410000Y-49020036D01*
X29464145Y-49014703D01*
X29516208Y-48998910D01*
X29535000Y-48988866D01*
X29553792Y-48998910D01*
X29605855Y-49014703D01*
X29660000Y-49020036D01*
X30060000Y-49020036D01*
X30114145Y-49014703D01*
X30166208Y-48998910D01*
X30185000Y-48988866D01*
X30203792Y-48998910D01*
X30255855Y-49014703D01*
X30310000Y-49020036D01*
X30710000Y-49020036D01*
X30764145Y-49014703D01*
X30816208Y-48998910D01*
X30864191Y-48973263D01*
X30906248Y-48938748D01*
X30940763Y-48896691D01*
X30966410Y-48848708D01*
X30975772Y-48817845D01*
X31211102Y-48817845D01*
X31300400Y-48933758D01*
X31477269Y-48997022D01*
X31663082Y-49024565D01*
X31850697Y-49015329D01*
X32032906Y-48969668D01*
X32119600Y-48933758D01*
X32208898Y-48817845D01*
X31710000Y-48318947D01*
X31211102Y-48817845D01*
X30975772Y-48817845D01*
X30982203Y-48796645D01*
X30987536Y-48742500D01*
X30987536Y-48538517D01*
X31458553Y-48067500D01*
X31961447Y-48067500D01*
X32460345Y-48566398D01*
X32576258Y-48477100D01*
X32639522Y-48300231D01*
X32667065Y-48114418D01*
X32657829Y-47926803D01*
X32612168Y-47744594D01*
X32576258Y-47657900D01*
X32460345Y-47568602D01*
X31961447Y-48067500D01*
X31458553Y-48067500D01*
X30987536Y-47596483D01*
X30987536Y-47392500D01*
X30982203Y-47338355D01*
X30976696Y-47320200D01*
X31214147Y-47320200D01*
X31710000Y-47816053D01*
X32205853Y-47320200D01*
X33451800Y-47320200D01*
X33451800Y-49975436D01*
X33448760Y-49969100D01*
X33347086Y-49833591D01*
X33220930Y-49720521D01*
X33012213Y-49645979D01*
X32887802Y-49666819D01*
X32887802Y-49588900D01*
X32721229Y-49588900D01*
X32710000Y-49587794D01*
X32344950Y-49588900D01*
X32287800Y-49646050D01*
X32287800Y-49688832D01*
X32199070Y-49720521D01*
X32072914Y-49833591D01*
X31971240Y-49969100D01*
X31932200Y-50050470D01*
X31932200Y-49646050D01*
X31875050Y-49588900D01*
X31510000Y-49587794D01*
X31465187Y-49592208D01*
X31422095Y-49605279D01*
X31382382Y-49626506D01*
X31347573Y-49655073D01*
X31319006Y-49689882D01*
X31297779Y-49729595D01*
X31284708Y-49772687D01*
X31280294Y-49817500D01*
X31281400Y-50532550D01*
X31338550Y-50589700D01*
X32881450Y-50589700D01*
X32887800Y-50583350D01*
X32887800Y-50589700D01*
X32907800Y-50589700D01*
X32907800Y-50945300D01*
X32887800Y-50945300D01*
X32887800Y-50951650D01*
X32881450Y-50945300D01*
X31338550Y-50945300D01*
X31281400Y-51002450D01*
X31280294Y-51717500D01*
X31284708Y-51762313D01*
X31297779Y-51805405D01*
X31319006Y-51845118D01*
X31337128Y-51867200D01*
X31132872Y-51867200D01*
X31150994Y-51845118D01*
X31172221Y-51805405D01*
X31185292Y-51762313D01*
X31189706Y-51717500D01*
X31188600Y-51002450D01*
X31131450Y-50945300D01*
X30387800Y-50945300D01*
X30387800Y-50965300D01*
X30032200Y-50965300D01*
X30032200Y-50945300D01*
X29288550Y-50945300D01*
X29231400Y-51002450D01*
X29230294Y-51717500D01*
X29234708Y-51762313D01*
X29247779Y-51805405D01*
X29269006Y-51845118D01*
X29287128Y-51867200D01*
X29132872Y-51867200D01*
X29150994Y-51845118D01*
X29172221Y-51805405D01*
X29185292Y-51762313D01*
X29189706Y-51717500D01*
X29188600Y-51002450D01*
X29131450Y-50945300D01*
X28387800Y-50945300D01*
X28387800Y-50965300D01*
X28032200Y-50965300D01*
X28032200Y-50945300D01*
X27288550Y-50945300D01*
X27231400Y-51002450D01*
X27230294Y-51717500D01*
X27234708Y-51762313D01*
X27247779Y-51805405D01*
X27269006Y-51845118D01*
X27287128Y-51867200D01*
X27082872Y-51867200D01*
X27100994Y-51845118D01*
X27122221Y-51805405D01*
X27135292Y-51762313D01*
X27139706Y-51717500D01*
X27138600Y-51002450D01*
X27081450Y-50945300D01*
X25538550Y-50945300D01*
X25532200Y-50951650D01*
X25532200Y-50945300D01*
X25512200Y-50945300D01*
X25512200Y-50589700D01*
X25532200Y-50589700D01*
X25532200Y-50583350D01*
X25538550Y-50589700D01*
X27081450Y-50589700D01*
X27138600Y-50532550D01*
X27139706Y-49817500D01*
X27230294Y-49817500D01*
X27231400Y-50532550D01*
X27288550Y-50589700D01*
X28032200Y-50589700D01*
X28032200Y-49646050D01*
X28387800Y-49646050D01*
X28387800Y-50589700D01*
X29131450Y-50589700D01*
X29188600Y-50532550D01*
X29189706Y-49817500D01*
X29230294Y-49817500D01*
X29231400Y-50532550D01*
X29288550Y-50589700D01*
X30032200Y-50589700D01*
X30032200Y-49646050D01*
X30387800Y-49646050D01*
X30387800Y-50589700D01*
X31131450Y-50589700D01*
X31188600Y-50532550D01*
X31189706Y-49817500D01*
X31185292Y-49772687D01*
X31172221Y-49729595D01*
X31150994Y-49689882D01*
X31122427Y-49655073D01*
X31087618Y-49626506D01*
X31047905Y-49605279D01*
X31004813Y-49592208D01*
X30960000Y-49587794D01*
X30444950Y-49588900D01*
X30387800Y-49646050D01*
X30032200Y-49646050D01*
X29975050Y-49588900D01*
X29460000Y-49587794D01*
X29415187Y-49592208D01*
X29372095Y-49605279D01*
X29332382Y-49626506D01*
X29297573Y-49655073D01*
X29269006Y-49689882D01*
X29247779Y-49729595D01*
X29234708Y-49772687D01*
X29230294Y-49817500D01*
X29189706Y-49817500D01*
X29185292Y-49772687D01*
X29172221Y-49729595D01*
X29150994Y-49689882D01*
X29122427Y-49655073D01*
X29087618Y-49626506D01*
X29047905Y-49605279D01*
X29004813Y-49592208D01*
X28960000Y-49587794D01*
X28444950Y-49588900D01*
X28387800Y-49646050D01*
X28032200Y-49646050D01*
X27975050Y-49588900D01*
X27460000Y-49587794D01*
X27415187Y-49592208D01*
X27372095Y-49605279D01*
X27332382Y-49626506D01*
X27297573Y-49655073D01*
X27269006Y-49689882D01*
X27247779Y-49729595D01*
X27234708Y-49772687D01*
X27230294Y-49817500D01*
X27139706Y-49817500D01*
X27135292Y-49772687D01*
X27122221Y-49729595D01*
X27100994Y-49689882D01*
X27072427Y-49655073D01*
X27037618Y-49626506D01*
X26997905Y-49605279D01*
X26954813Y-49592208D01*
X26910000Y-49587794D01*
X26544950Y-49588900D01*
X26487800Y-49646050D01*
X26487800Y-50050470D01*
X26448760Y-49969100D01*
X26347086Y-49833591D01*
X26220930Y-49720521D01*
X26132200Y-49688832D01*
X26132200Y-49646050D01*
X26075050Y-49588900D01*
X25710000Y-49587794D01*
X25698771Y-49588900D01*
X25532198Y-49588900D01*
X25532198Y-49666819D01*
X25407787Y-49645979D01*
X25199070Y-49720521D01*
X25072914Y-49833591D01*
X24971240Y-49969100D01*
X24968200Y-49975436D01*
X24968200Y-48817845D01*
X26211102Y-48817845D01*
X26300400Y-48933758D01*
X26477269Y-48997022D01*
X26663082Y-49024565D01*
X26850697Y-49015329D01*
X27032906Y-48969668D01*
X27119600Y-48933758D01*
X27208898Y-48817845D01*
X26710000Y-48318947D01*
X26211102Y-48817845D01*
X24968200Y-48817845D01*
X24968200Y-48020582D01*
X25752935Y-48020582D01*
X25762171Y-48208197D01*
X25807832Y-48390406D01*
X25843742Y-48477100D01*
X25959655Y-48566398D01*
X26458553Y-48067500D01*
X25959655Y-47568602D01*
X25843742Y-47657900D01*
X25780478Y-47834769D01*
X25752935Y-48020582D01*
X24968200Y-48020582D01*
X24968200Y-47320200D01*
X26214147Y-47320200D01*
X26710000Y-47816053D01*
M02*
