G04 #@! TF.GenerationSoftware,KiCad,Pcbnew,(5.1.4)-1*
G04 #@! TF.CreationDate,2020-11-09T21:53:23-05:00*
G04 #@! TF.ProjectId,ft221x,66743232-3178-42e6-9b69-6361645f7063,2020-02*
G04 #@! TF.SameCoordinates,Original*
G04 #@! TF.FileFunction,Soldermask,Bot*
G04 #@! TF.FilePolarity,Negative*
%FSLAX46Y46*%
G04 Gerber Fmt 4.6, Leading zero omitted, Abs format (unit mm)*
G04 Created by KiCad (PCBNEW (5.1.4)-1) date 2020-11-09 21:53:23*
%MOMM*%
%LPD*%
G04 APERTURE LIST*
%ADD10C,0.100000*%
G04 APERTURE END LIST*
D10*
X30595714Y-48401428D02*
X30367142Y-48401428D01*
X30510000Y-48801428D02*
X30510000Y-48287142D01*
X30481428Y-48230000D01*
X30424285Y-48201428D01*
X30367142Y-48201428D01*
X30252857Y-48401428D02*
X30024285Y-48401428D01*
X30167142Y-48201428D02*
X30167142Y-48715714D01*
X30138571Y-48772857D01*
X30081428Y-48801428D01*
X30024285Y-48801428D01*
X29852857Y-48258571D02*
X29824285Y-48230000D01*
X29767142Y-48201428D01*
X29624285Y-48201428D01*
X29567142Y-48230000D01*
X29538571Y-48258571D01*
X29510000Y-48315714D01*
X29510000Y-48372857D01*
X29538571Y-48458571D01*
X29881428Y-48801428D01*
X29510000Y-48801428D01*
X29281428Y-48258571D02*
X29252857Y-48230000D01*
X29195714Y-48201428D01*
X29052857Y-48201428D01*
X28995714Y-48230000D01*
X28967142Y-48258571D01*
X28938571Y-48315714D01*
X28938571Y-48372857D01*
X28967142Y-48458571D01*
X29310000Y-48801428D01*
X28938571Y-48801428D01*
X28367142Y-48801428D02*
X28710000Y-48801428D01*
X28538571Y-48801428D02*
X28538571Y-48201428D01*
X28595714Y-48287142D01*
X28652857Y-48344285D01*
X28710000Y-48372857D01*
X28167142Y-48801428D02*
X27852857Y-48401428D01*
X28167142Y-48401428D02*
X27852857Y-48801428D01*
X31181428Y-49258571D02*
X31152857Y-49230000D01*
X31095714Y-49201428D01*
X30952857Y-49201428D01*
X30895714Y-49230000D01*
X30867142Y-49258571D01*
X30838571Y-49315714D01*
X30838571Y-49372857D01*
X30867142Y-49458571D01*
X31210000Y-49801428D01*
X30838571Y-49801428D01*
X30467142Y-49201428D02*
X30410000Y-49201428D01*
X30352857Y-49230000D01*
X30324285Y-49258571D01*
X30295714Y-49315714D01*
X30267142Y-49430000D01*
X30267142Y-49572857D01*
X30295714Y-49687142D01*
X30324285Y-49744285D01*
X30352857Y-49772857D01*
X30410000Y-49801428D01*
X30467142Y-49801428D01*
X30524285Y-49772857D01*
X30552857Y-49744285D01*
X30581428Y-49687142D01*
X30610000Y-49572857D01*
X30610000Y-49430000D01*
X30581428Y-49315714D01*
X30552857Y-49258571D01*
X30524285Y-49230000D01*
X30467142Y-49201428D01*
X30038571Y-49258571D02*
X30010000Y-49230000D01*
X29952857Y-49201428D01*
X29810000Y-49201428D01*
X29752857Y-49230000D01*
X29724285Y-49258571D01*
X29695714Y-49315714D01*
X29695714Y-49372857D01*
X29724285Y-49458571D01*
X30067142Y-49801428D01*
X29695714Y-49801428D01*
X29324285Y-49201428D02*
X29267142Y-49201428D01*
X29210000Y-49230000D01*
X29181428Y-49258571D01*
X29152857Y-49315714D01*
X29124285Y-49430000D01*
X29124285Y-49572857D01*
X29152857Y-49687142D01*
X29181428Y-49744285D01*
X29210000Y-49772857D01*
X29267142Y-49801428D01*
X29324285Y-49801428D01*
X29381428Y-49772857D01*
X29410000Y-49744285D01*
X29438571Y-49687142D01*
X29467142Y-49572857D01*
X29467142Y-49430000D01*
X29438571Y-49315714D01*
X29410000Y-49258571D01*
X29381428Y-49230000D01*
X29324285Y-49201428D01*
X28867142Y-49572857D02*
X28410000Y-49572857D01*
X28010000Y-49201428D02*
X27952857Y-49201428D01*
X27895714Y-49230000D01*
X27867142Y-49258571D01*
X27838571Y-49315714D01*
X27810000Y-49430000D01*
X27810000Y-49572857D01*
X27838571Y-49687142D01*
X27867142Y-49744285D01*
X27895714Y-49772857D01*
X27952857Y-49801428D01*
X28010000Y-49801428D01*
X28067142Y-49772857D01*
X28095714Y-49744285D01*
X28124285Y-49687142D01*
X28152857Y-49572857D01*
X28152857Y-49430000D01*
X28124285Y-49315714D01*
X28095714Y-49258571D01*
X28067142Y-49230000D01*
X28010000Y-49201428D01*
X27238571Y-49801428D02*
X27581428Y-49801428D01*
X27410000Y-49801428D02*
X27410000Y-49201428D01*
X27467142Y-49287142D01*
X27524285Y-49344285D01*
X27581428Y-49372857D01*
X31524285Y-50401428D02*
X31295714Y-50401428D01*
X31438571Y-50801428D02*
X31438571Y-50287142D01*
X31410000Y-50230000D01*
X31352857Y-50201428D01*
X31295714Y-50201428D01*
X31010000Y-50801428D02*
X31067142Y-50772857D01*
X31095714Y-50744285D01*
X31124285Y-50687142D01*
X31124285Y-50515714D01*
X31095714Y-50458571D01*
X31067142Y-50430000D01*
X31010000Y-50401428D01*
X30924285Y-50401428D01*
X30867142Y-50430000D01*
X30838571Y-50458571D01*
X30810000Y-50515714D01*
X30810000Y-50687142D01*
X30838571Y-50744285D01*
X30867142Y-50772857D01*
X30924285Y-50801428D01*
X31010000Y-50801428D01*
X30295714Y-50401428D02*
X30295714Y-50801428D01*
X30552857Y-50401428D02*
X30552857Y-50715714D01*
X30524285Y-50772857D01*
X30467142Y-50801428D01*
X30381428Y-50801428D01*
X30324285Y-50772857D01*
X30295714Y-50744285D01*
X30010000Y-50801428D02*
X30010000Y-50401428D01*
X30010000Y-50515714D02*
X29981428Y-50458571D01*
X29952857Y-50430000D01*
X29895714Y-50401428D01*
X29838571Y-50401428D01*
X29667142Y-50772857D02*
X29610000Y-50801428D01*
X29495714Y-50801428D01*
X29438571Y-50772857D01*
X29410000Y-50715714D01*
X29410000Y-50687142D01*
X29438571Y-50630000D01*
X29495714Y-50601428D01*
X29581428Y-50601428D01*
X29638571Y-50572857D01*
X29667142Y-50515714D01*
X29667142Y-50487142D01*
X29638571Y-50430000D01*
X29581428Y-50401428D01*
X29495714Y-50401428D01*
X29438571Y-50430000D01*
X29152857Y-50801428D02*
X29152857Y-50401428D01*
X29152857Y-50201428D02*
X29181428Y-50230000D01*
X29152857Y-50258571D01*
X29124285Y-50230000D01*
X29152857Y-50201428D01*
X29152857Y-50258571D01*
X28610000Y-50801428D02*
X28610000Y-50201428D01*
X28610000Y-50772857D02*
X28667142Y-50801428D01*
X28781428Y-50801428D01*
X28838571Y-50772857D01*
X28867142Y-50744285D01*
X28895714Y-50687142D01*
X28895714Y-50515714D01*
X28867142Y-50458571D01*
X28838571Y-50430000D01*
X28781428Y-50401428D01*
X28667142Y-50401428D01*
X28610000Y-50430000D01*
X28095714Y-50772857D02*
X28152857Y-50801428D01*
X28267142Y-50801428D01*
X28324285Y-50772857D01*
X28352857Y-50715714D01*
X28352857Y-50487142D01*
X28324285Y-50430000D01*
X28267142Y-50401428D01*
X28152857Y-50401428D01*
X28095714Y-50430000D01*
X28067142Y-50487142D01*
X28067142Y-50544285D01*
X28352857Y-50601428D01*
X27810000Y-50744285D02*
X27781428Y-50772857D01*
X27810000Y-50801428D01*
X27838571Y-50772857D01*
X27810000Y-50744285D01*
X27810000Y-50801428D01*
X27524285Y-50801428D02*
X27524285Y-50401428D01*
X27524285Y-50201428D02*
X27552857Y-50230000D01*
X27524285Y-50258571D01*
X27495714Y-50230000D01*
X27524285Y-50201428D01*
X27524285Y-50258571D01*
X27152857Y-50801428D02*
X27210000Y-50772857D01*
X27238571Y-50744285D01*
X27267142Y-50687142D01*
X27267142Y-50515714D01*
X27238571Y-50458571D01*
X27210000Y-50430000D01*
X27152857Y-50401428D01*
X27067142Y-50401428D01*
X27010000Y-50430000D01*
X26981428Y-50458571D01*
X26952857Y-50515714D01*
X26952857Y-50687142D01*
X26981428Y-50744285D01*
X27010000Y-50772857D01*
X27067142Y-50801428D01*
X27152857Y-50801428D01*
G36*
X25837618Y-49775920D02*
G01*
X25928404Y-49803460D01*
X25960336Y-49813146D01*
X26073425Y-49873594D01*
X26172554Y-49954946D01*
X26253906Y-50054075D01*
X26314354Y-50167164D01*
X26315270Y-50170185D01*
X26351580Y-50289882D01*
X26361000Y-50385527D01*
X26361000Y-51149473D01*
X26351580Y-51245118D01*
X26324040Y-51335904D01*
X26314354Y-51367836D01*
X26253906Y-51480925D01*
X26172554Y-51580053D01*
X26073424Y-51661406D01*
X25960335Y-51721854D01*
X25928403Y-51731540D01*
X25837617Y-51759080D01*
X25710000Y-51771649D01*
X25582382Y-51759080D01*
X25491596Y-51731540D01*
X25459664Y-51721854D01*
X25346575Y-51661406D01*
X25247447Y-51580054D01*
X25166094Y-51480924D01*
X25105646Y-51367835D01*
X25095960Y-51335903D01*
X25068420Y-51245117D01*
X25059000Y-51149472D01*
X25059000Y-50385527D01*
X25068420Y-50289882D01*
X25105645Y-50167168D01*
X25130608Y-50120466D01*
X25166095Y-50054075D01*
X25247447Y-49954946D01*
X25346576Y-49873594D01*
X25459665Y-49813146D01*
X25491597Y-49803460D01*
X25582383Y-49775920D01*
X25710000Y-49763351D01*
X25837618Y-49775920D01*
X25837618Y-49775920D01*
G37*
G36*
X32837617Y-49775920D02*
G01*
X32928403Y-49803460D01*
X32960335Y-49813146D01*
X33073424Y-49873594D01*
X33172554Y-49954947D01*
X33253906Y-50054075D01*
X33314354Y-50167164D01*
X33315270Y-50170185D01*
X33351580Y-50289882D01*
X33361000Y-50385527D01*
X33361000Y-51149473D01*
X33351580Y-51245118D01*
X33324040Y-51335904D01*
X33314354Y-51367836D01*
X33253906Y-51480925D01*
X33172554Y-51580054D01*
X33073425Y-51661406D01*
X32960336Y-51721854D01*
X32928404Y-51731540D01*
X32837618Y-51759080D01*
X32710000Y-51771649D01*
X32582383Y-51759080D01*
X32491597Y-51731540D01*
X32459665Y-51721854D01*
X32346576Y-51661406D01*
X32247447Y-51580054D01*
X32166095Y-51480925D01*
X32105648Y-51367837D01*
X32105645Y-51367832D01*
X32068420Y-51245118D01*
X32059000Y-51149473D01*
X32059000Y-50385528D01*
X32068420Y-50289883D01*
X32105645Y-50167169D01*
X32105646Y-50167165D01*
X32166094Y-50054076D01*
X32247447Y-49954946D01*
X32346575Y-49873594D01*
X32459664Y-49813146D01*
X32491596Y-49803460D01*
X32582382Y-49775920D01*
X32710000Y-49763351D01*
X32837617Y-49775920D01*
X32837617Y-49775920D01*
G37*
G36*
X35670443Y-48635519D02*
G01*
X35736627Y-48642037D01*
X35906466Y-48693557D01*
X36062991Y-48777222D01*
X36098729Y-48806552D01*
X36200186Y-48889814D01*
X36283448Y-48991271D01*
X36312778Y-49027009D01*
X36396443Y-49183534D01*
X36447963Y-49353373D01*
X36465359Y-49530000D01*
X36447963Y-49706627D01*
X36396443Y-49876466D01*
X36312778Y-50032991D01*
X36295474Y-50054076D01*
X36200186Y-50170186D01*
X36098729Y-50253448D01*
X36062991Y-50282778D01*
X35906466Y-50366443D01*
X35736627Y-50417963D01*
X35670443Y-50424481D01*
X35604260Y-50431000D01*
X35515740Y-50431000D01*
X35449558Y-50424482D01*
X35383373Y-50417963D01*
X35213534Y-50366443D01*
X35057009Y-50282778D01*
X35021271Y-50253448D01*
X34919814Y-50170186D01*
X34824526Y-50054076D01*
X34807222Y-50032991D01*
X34723557Y-49876466D01*
X34672037Y-49706627D01*
X34654641Y-49530000D01*
X34672037Y-49353373D01*
X34723557Y-49183534D01*
X34807222Y-49027009D01*
X34836552Y-48991271D01*
X34919814Y-48889814D01*
X35021271Y-48806552D01*
X35057009Y-48777222D01*
X35213534Y-48693557D01*
X35383373Y-48642037D01*
X35449557Y-48635519D01*
X35515740Y-48629000D01*
X35604260Y-48629000D01*
X35670443Y-48635519D01*
X35670443Y-48635519D01*
G37*
G36*
X22970443Y-48635519D02*
G01*
X23036627Y-48642037D01*
X23206466Y-48693557D01*
X23362991Y-48777222D01*
X23398729Y-48806552D01*
X23500186Y-48889814D01*
X23583448Y-48991271D01*
X23612778Y-49027009D01*
X23696443Y-49183534D01*
X23747963Y-49353373D01*
X23765359Y-49530000D01*
X23747963Y-49706627D01*
X23696443Y-49876466D01*
X23612778Y-50032991D01*
X23595474Y-50054076D01*
X23500186Y-50170186D01*
X23398729Y-50253448D01*
X23362991Y-50282778D01*
X23206466Y-50366443D01*
X23036627Y-50417963D01*
X22970442Y-50424482D01*
X22904260Y-50431000D01*
X22815740Y-50431000D01*
X22749558Y-50424482D01*
X22683373Y-50417963D01*
X22513534Y-50366443D01*
X22357009Y-50282778D01*
X22321271Y-50253448D01*
X22219814Y-50170186D01*
X22124526Y-50054076D01*
X22107222Y-50032991D01*
X22023557Y-49876466D01*
X21972037Y-49706627D01*
X21954641Y-49530000D01*
X21972037Y-49353373D01*
X22023557Y-49183534D01*
X22107222Y-49027009D01*
X22136552Y-48991271D01*
X22219814Y-48889814D01*
X22321271Y-48806552D01*
X22357009Y-48777222D01*
X22513534Y-48693557D01*
X22683373Y-48642037D01*
X22749557Y-48635519D01*
X22815740Y-48629000D01*
X22904260Y-48629000D01*
X22970443Y-48635519D01*
X22970443Y-48635519D01*
G37*
G36*
X26936348Y-47321320D02*
G01*
X26936350Y-47321321D01*
X26936351Y-47321321D01*
X27077574Y-47379817D01*
X27077577Y-47379819D01*
X27204669Y-47464739D01*
X27312761Y-47572831D01*
X27351084Y-47630186D01*
X27397683Y-47699926D01*
X27456179Y-47841149D01*
X27486000Y-47991071D01*
X27486000Y-48143929D01*
X27456179Y-48293851D01*
X27397683Y-48435074D01*
X27397681Y-48435077D01*
X27312761Y-48562169D01*
X27204669Y-48670261D01*
X27077577Y-48755181D01*
X27077574Y-48755183D01*
X26936351Y-48813679D01*
X26936350Y-48813679D01*
X26936348Y-48813680D01*
X26786431Y-48843500D01*
X26633569Y-48843500D01*
X26483652Y-48813680D01*
X26483650Y-48813679D01*
X26483649Y-48813679D01*
X26342426Y-48755183D01*
X26342423Y-48755181D01*
X26215331Y-48670261D01*
X26107239Y-48562169D01*
X26022319Y-48435077D01*
X26022317Y-48435074D01*
X25963821Y-48293851D01*
X25934000Y-48143929D01*
X25934000Y-47991071D01*
X25963821Y-47841149D01*
X26022317Y-47699926D01*
X26068916Y-47630186D01*
X26107239Y-47572831D01*
X26215331Y-47464739D01*
X26342423Y-47379819D01*
X26342426Y-47379817D01*
X26483649Y-47321321D01*
X26483650Y-47321321D01*
X26483652Y-47321320D01*
X26633569Y-47291500D01*
X26786431Y-47291500D01*
X26936348Y-47321320D01*
X26936348Y-47321320D01*
G37*
G36*
X31936348Y-47321320D02*
G01*
X31936350Y-47321321D01*
X31936351Y-47321321D01*
X32077574Y-47379817D01*
X32077577Y-47379819D01*
X32204669Y-47464739D01*
X32312761Y-47572831D01*
X32351084Y-47630186D01*
X32397683Y-47699926D01*
X32456179Y-47841149D01*
X32486000Y-47991071D01*
X32486000Y-48143929D01*
X32456179Y-48293851D01*
X32397683Y-48435074D01*
X32397681Y-48435077D01*
X32312761Y-48562169D01*
X32204669Y-48670261D01*
X32077577Y-48755181D01*
X32077574Y-48755183D01*
X31936351Y-48813679D01*
X31936350Y-48813679D01*
X31936348Y-48813680D01*
X31786431Y-48843500D01*
X31633569Y-48843500D01*
X31483652Y-48813680D01*
X31483650Y-48813679D01*
X31483649Y-48813679D01*
X31342426Y-48755183D01*
X31342423Y-48755181D01*
X31215331Y-48670261D01*
X31107239Y-48562169D01*
X31022319Y-48435077D01*
X31022317Y-48435074D01*
X30963821Y-48293851D01*
X30934000Y-48143929D01*
X30934000Y-47991071D01*
X30963821Y-47841149D01*
X31022317Y-47699926D01*
X31068916Y-47630186D01*
X31107239Y-47572831D01*
X31215331Y-47464739D01*
X31342423Y-47379819D01*
X31342426Y-47379817D01*
X31483649Y-47321321D01*
X31483650Y-47321321D01*
X31483652Y-47321320D01*
X31633569Y-47291500D01*
X31786431Y-47291500D01*
X31936348Y-47321320D01*
X31936348Y-47321320D01*
G37*
G36*
X35670442Y-46095518D02*
G01*
X35736627Y-46102037D01*
X35906466Y-46153557D01*
X36062991Y-46237222D01*
X36098729Y-46266552D01*
X36200186Y-46349814D01*
X36283448Y-46451271D01*
X36312778Y-46487009D01*
X36396443Y-46643534D01*
X36447963Y-46813373D01*
X36465359Y-46990000D01*
X36447963Y-47166627D01*
X36396443Y-47336466D01*
X36312778Y-47492991D01*
X36283448Y-47528729D01*
X36200186Y-47630186D01*
X36115210Y-47699923D01*
X36062991Y-47742778D01*
X35906466Y-47826443D01*
X35736627Y-47877963D01*
X35670443Y-47884481D01*
X35604260Y-47891000D01*
X35515740Y-47891000D01*
X35449557Y-47884481D01*
X35383373Y-47877963D01*
X35213534Y-47826443D01*
X35057009Y-47742778D01*
X35004790Y-47699923D01*
X34919814Y-47630186D01*
X34836552Y-47528729D01*
X34807222Y-47492991D01*
X34723557Y-47336466D01*
X34672037Y-47166627D01*
X34654641Y-46990000D01*
X34672037Y-46813373D01*
X34723557Y-46643534D01*
X34807222Y-46487009D01*
X34836552Y-46451271D01*
X34919814Y-46349814D01*
X35021271Y-46266552D01*
X35057009Y-46237222D01*
X35213534Y-46153557D01*
X35383373Y-46102037D01*
X35449558Y-46095518D01*
X35515740Y-46089000D01*
X35604260Y-46089000D01*
X35670442Y-46095518D01*
X35670442Y-46095518D01*
G37*
G36*
X22970442Y-46095518D02*
G01*
X23036627Y-46102037D01*
X23206466Y-46153557D01*
X23362991Y-46237222D01*
X23398729Y-46266552D01*
X23500186Y-46349814D01*
X23583448Y-46451271D01*
X23612778Y-46487009D01*
X23696443Y-46643534D01*
X23747963Y-46813373D01*
X23765359Y-46990000D01*
X23747963Y-47166627D01*
X23696443Y-47336466D01*
X23612778Y-47492991D01*
X23583448Y-47528729D01*
X23500186Y-47630186D01*
X23415210Y-47699923D01*
X23362991Y-47742778D01*
X23206466Y-47826443D01*
X23036627Y-47877963D01*
X22970443Y-47884481D01*
X22904260Y-47891000D01*
X22815740Y-47891000D01*
X22749557Y-47884481D01*
X22683373Y-47877963D01*
X22513534Y-47826443D01*
X22357009Y-47742778D01*
X22304790Y-47699923D01*
X22219814Y-47630186D01*
X22136552Y-47528729D01*
X22107222Y-47492991D01*
X22023557Y-47336466D01*
X21972037Y-47166627D01*
X21954641Y-46990000D01*
X21972037Y-46813373D01*
X22023557Y-46643534D01*
X22107222Y-46487009D01*
X22136552Y-46451271D01*
X22219814Y-46349814D01*
X22321271Y-46266552D01*
X22357009Y-46237222D01*
X22513534Y-46153557D01*
X22683373Y-46102037D01*
X22749558Y-46095518D01*
X22815740Y-46089000D01*
X22904260Y-46089000D01*
X22970442Y-46095518D01*
X22970442Y-46095518D01*
G37*
G36*
X22970443Y-43555519D02*
G01*
X23036627Y-43562037D01*
X23206466Y-43613557D01*
X23362991Y-43697222D01*
X23398729Y-43726552D01*
X23500186Y-43809814D01*
X23583448Y-43911271D01*
X23612778Y-43947009D01*
X23696443Y-44103534D01*
X23747963Y-44273373D01*
X23765359Y-44450000D01*
X23747963Y-44626627D01*
X23696443Y-44796466D01*
X23612778Y-44952991D01*
X23583448Y-44988729D01*
X23500186Y-45090186D01*
X23398729Y-45173448D01*
X23362991Y-45202778D01*
X23206466Y-45286443D01*
X23036627Y-45337963D01*
X22970442Y-45344482D01*
X22904260Y-45351000D01*
X22815740Y-45351000D01*
X22749558Y-45344482D01*
X22683373Y-45337963D01*
X22513534Y-45286443D01*
X22357009Y-45202778D01*
X22321271Y-45173448D01*
X22219814Y-45090186D01*
X22136552Y-44988729D01*
X22107222Y-44952991D01*
X22023557Y-44796466D01*
X21972037Y-44626627D01*
X21954641Y-44450000D01*
X21972037Y-44273373D01*
X22023557Y-44103534D01*
X22107222Y-43947009D01*
X22136552Y-43911271D01*
X22219814Y-43809814D01*
X22321271Y-43726552D01*
X22357009Y-43697222D01*
X22513534Y-43613557D01*
X22683373Y-43562037D01*
X22749557Y-43555519D01*
X22815740Y-43549000D01*
X22904260Y-43549000D01*
X22970443Y-43555519D01*
X22970443Y-43555519D01*
G37*
G36*
X35670443Y-43555519D02*
G01*
X35736627Y-43562037D01*
X35906466Y-43613557D01*
X36062991Y-43697222D01*
X36098729Y-43726552D01*
X36200186Y-43809814D01*
X36283448Y-43911271D01*
X36312778Y-43947009D01*
X36396443Y-44103534D01*
X36447963Y-44273373D01*
X36465359Y-44450000D01*
X36447963Y-44626627D01*
X36396443Y-44796466D01*
X36312778Y-44952991D01*
X36283448Y-44988729D01*
X36200186Y-45090186D01*
X36098729Y-45173448D01*
X36062991Y-45202778D01*
X35906466Y-45286443D01*
X35736627Y-45337963D01*
X35670442Y-45344482D01*
X35604260Y-45351000D01*
X35515740Y-45351000D01*
X35449558Y-45344482D01*
X35383373Y-45337963D01*
X35213534Y-45286443D01*
X35057009Y-45202778D01*
X35021271Y-45173448D01*
X34919814Y-45090186D01*
X34836552Y-44988729D01*
X34807222Y-44952991D01*
X34723557Y-44796466D01*
X34672037Y-44626627D01*
X34654641Y-44450000D01*
X34672037Y-44273373D01*
X34723557Y-44103534D01*
X34807222Y-43947009D01*
X34836552Y-43911271D01*
X34919814Y-43809814D01*
X35021271Y-43726552D01*
X35057009Y-43697222D01*
X35213534Y-43613557D01*
X35383373Y-43562037D01*
X35449557Y-43555519D01*
X35515740Y-43549000D01*
X35604260Y-43549000D01*
X35670443Y-43555519D01*
X35670443Y-43555519D01*
G37*
G36*
X22970442Y-41015518D02*
G01*
X23036627Y-41022037D01*
X23206466Y-41073557D01*
X23362991Y-41157222D01*
X23398729Y-41186552D01*
X23500186Y-41269814D01*
X23583448Y-41371271D01*
X23612778Y-41407009D01*
X23612779Y-41407011D01*
X23696009Y-41562721D01*
X23696443Y-41563534D01*
X23747963Y-41733373D01*
X23765359Y-41910000D01*
X23747963Y-42086627D01*
X23696443Y-42256466D01*
X23612778Y-42412991D01*
X23583448Y-42448729D01*
X23500186Y-42550186D01*
X23398729Y-42633448D01*
X23362991Y-42662778D01*
X23206466Y-42746443D01*
X23036627Y-42797963D01*
X22970443Y-42804481D01*
X22904260Y-42811000D01*
X22815740Y-42811000D01*
X22749557Y-42804481D01*
X22683373Y-42797963D01*
X22513534Y-42746443D01*
X22357009Y-42662778D01*
X22321271Y-42633448D01*
X22219814Y-42550186D01*
X22136552Y-42448729D01*
X22107222Y-42412991D01*
X22023557Y-42256466D01*
X21972037Y-42086627D01*
X21954641Y-41910000D01*
X21972037Y-41733373D01*
X22023557Y-41563534D01*
X22023992Y-41562721D01*
X22107221Y-41407011D01*
X22107222Y-41407009D01*
X22136552Y-41371271D01*
X22219814Y-41269814D01*
X22321271Y-41186552D01*
X22357009Y-41157222D01*
X22513534Y-41073557D01*
X22683373Y-41022037D01*
X22749558Y-41015518D01*
X22815740Y-41009000D01*
X22904260Y-41009000D01*
X22970442Y-41015518D01*
X22970442Y-41015518D01*
G37*
G36*
X35670442Y-41015518D02*
G01*
X35736627Y-41022037D01*
X35906466Y-41073557D01*
X36062991Y-41157222D01*
X36098729Y-41186552D01*
X36200186Y-41269814D01*
X36283448Y-41371271D01*
X36312778Y-41407009D01*
X36312779Y-41407011D01*
X36396009Y-41562721D01*
X36396443Y-41563534D01*
X36447963Y-41733373D01*
X36465359Y-41910000D01*
X36447963Y-42086627D01*
X36396443Y-42256466D01*
X36312778Y-42412991D01*
X36283448Y-42448729D01*
X36200186Y-42550186D01*
X36098729Y-42633448D01*
X36062991Y-42662778D01*
X35906466Y-42746443D01*
X35736627Y-42797963D01*
X35670443Y-42804481D01*
X35604260Y-42811000D01*
X35515740Y-42811000D01*
X35449557Y-42804481D01*
X35383373Y-42797963D01*
X35213534Y-42746443D01*
X35057009Y-42662778D01*
X35021271Y-42633448D01*
X34919814Y-42550186D01*
X34836552Y-42448729D01*
X34807222Y-42412991D01*
X34723557Y-42256466D01*
X34672037Y-42086627D01*
X34654641Y-41910000D01*
X34672037Y-41733373D01*
X34723557Y-41563534D01*
X34723992Y-41562721D01*
X34807221Y-41407011D01*
X34807222Y-41407009D01*
X34836552Y-41371271D01*
X34919814Y-41269814D01*
X35021271Y-41186552D01*
X35057009Y-41157222D01*
X35213534Y-41073557D01*
X35383373Y-41022037D01*
X35449558Y-41015518D01*
X35515740Y-41009000D01*
X35604260Y-41009000D01*
X35670442Y-41015518D01*
X35670442Y-41015518D01*
G37*
G36*
X25052721Y-40872174D02*
G01*
X25152995Y-40913709D01*
X25152996Y-40913710D01*
X25243242Y-40974010D01*
X25319990Y-41050758D01*
X25319991Y-41050760D01*
X25380291Y-41141005D01*
X25421826Y-41241279D01*
X25443000Y-41347730D01*
X25443000Y-41456270D01*
X25421826Y-41562721D01*
X25380291Y-41662995D01*
X25380290Y-41662996D01*
X25319990Y-41753242D01*
X25243242Y-41829990D01*
X25197812Y-41860345D01*
X25152995Y-41890291D01*
X25052721Y-41931826D01*
X24946270Y-41953000D01*
X24837730Y-41953000D01*
X24731279Y-41931826D01*
X24631005Y-41890291D01*
X24586188Y-41860345D01*
X24540758Y-41829990D01*
X24464010Y-41753242D01*
X24403710Y-41662996D01*
X24403709Y-41662995D01*
X24362174Y-41562721D01*
X24341000Y-41456270D01*
X24341000Y-41347730D01*
X24362174Y-41241279D01*
X24403709Y-41141005D01*
X24464009Y-41050760D01*
X24464010Y-41050758D01*
X24540758Y-40974010D01*
X24631004Y-40913710D01*
X24631005Y-40913709D01*
X24731279Y-40872174D01*
X24837730Y-40851000D01*
X24946270Y-40851000D01*
X25052721Y-40872174D01*
X25052721Y-40872174D01*
G37*
G36*
X35670443Y-38475519D02*
G01*
X35736627Y-38482037D01*
X35906466Y-38533557D01*
X36062991Y-38617222D01*
X36098729Y-38646552D01*
X36200186Y-38729814D01*
X36282947Y-38830660D01*
X36312778Y-38867009D01*
X36396443Y-39023534D01*
X36447963Y-39193373D01*
X36465359Y-39370000D01*
X36447963Y-39546627D01*
X36396443Y-39716466D01*
X36312778Y-39872991D01*
X36283448Y-39908729D01*
X36200186Y-40010186D01*
X36098729Y-40093448D01*
X36062991Y-40122778D01*
X35906466Y-40206443D01*
X35736627Y-40257963D01*
X35670443Y-40264481D01*
X35604260Y-40271000D01*
X35515740Y-40271000D01*
X35449557Y-40264481D01*
X35383373Y-40257963D01*
X35213534Y-40206443D01*
X35057009Y-40122778D01*
X35021271Y-40093448D01*
X34919814Y-40010186D01*
X34836552Y-39908729D01*
X34807222Y-39872991D01*
X34723557Y-39716466D01*
X34672037Y-39546627D01*
X34654641Y-39370000D01*
X34672037Y-39193373D01*
X34723557Y-39023534D01*
X34807222Y-38867009D01*
X34837053Y-38830660D01*
X34919814Y-38729814D01*
X35021271Y-38646552D01*
X35057009Y-38617222D01*
X35213534Y-38533557D01*
X35383373Y-38482037D01*
X35449557Y-38475519D01*
X35515740Y-38469000D01*
X35604260Y-38469000D01*
X35670443Y-38475519D01*
X35670443Y-38475519D01*
G37*
G36*
X22970443Y-38475519D02*
G01*
X23036627Y-38482037D01*
X23206466Y-38533557D01*
X23362991Y-38617222D01*
X23398729Y-38646552D01*
X23500186Y-38729814D01*
X23582947Y-38830660D01*
X23612778Y-38867009D01*
X23696443Y-39023534D01*
X23747963Y-39193373D01*
X23765359Y-39370000D01*
X23747963Y-39546627D01*
X23696443Y-39716466D01*
X23612778Y-39872991D01*
X23583448Y-39908729D01*
X23500186Y-40010186D01*
X23398729Y-40093448D01*
X23362991Y-40122778D01*
X23206466Y-40206443D01*
X23036627Y-40257963D01*
X22970443Y-40264481D01*
X22904260Y-40271000D01*
X22815740Y-40271000D01*
X22749557Y-40264481D01*
X22683373Y-40257963D01*
X22513534Y-40206443D01*
X22357009Y-40122778D01*
X22321271Y-40093448D01*
X22219814Y-40010186D01*
X22136552Y-39908729D01*
X22107222Y-39872991D01*
X22023557Y-39716466D01*
X21972037Y-39546627D01*
X21954641Y-39370000D01*
X21972037Y-39193373D01*
X22023557Y-39023534D01*
X22107222Y-38867009D01*
X22137053Y-38830660D01*
X22219814Y-38729814D01*
X22321271Y-38646552D01*
X22357009Y-38617222D01*
X22513534Y-38533557D01*
X22683373Y-38482037D01*
X22749557Y-38475519D01*
X22815740Y-38469000D01*
X22904260Y-38469000D01*
X22970443Y-38475519D01*
X22970443Y-38475519D01*
G37*
G36*
X29069999Y-37299737D02*
G01*
X29079608Y-37302652D01*
X29088472Y-37307390D01*
X29096237Y-37313763D01*
X29106448Y-37326206D01*
X29113378Y-37336575D01*
X29130705Y-37353902D01*
X29151080Y-37367515D01*
X29173720Y-37376891D01*
X29197753Y-37381671D01*
X29222257Y-37381670D01*
X29246290Y-37376888D01*
X29268929Y-37367510D01*
X29289302Y-37353895D01*
X29306629Y-37336568D01*
X29313558Y-37326198D01*
X29323763Y-37313763D01*
X29331528Y-37307390D01*
X29340392Y-37302652D01*
X29350001Y-37299737D01*
X29366140Y-37298148D01*
X29853861Y-37298148D01*
X29872199Y-37299954D01*
X29884450Y-37300556D01*
X29902869Y-37300556D01*
X29925149Y-37302750D01*
X30009233Y-37319476D01*
X30030660Y-37325976D01*
X30109858Y-37358780D01*
X30115303Y-37361691D01*
X30115309Y-37361693D01*
X30124169Y-37366429D01*
X30124173Y-37366432D01*
X30129614Y-37369340D01*
X30200899Y-37416971D01*
X30218204Y-37431172D01*
X30278828Y-37491796D01*
X30293029Y-37509101D01*
X30340660Y-37580386D01*
X30343568Y-37585827D01*
X30343571Y-37585831D01*
X30348307Y-37594691D01*
X30348309Y-37594697D01*
X30351220Y-37600142D01*
X30384024Y-37679340D01*
X30390524Y-37700767D01*
X30407250Y-37784851D01*
X30409444Y-37807131D01*
X30409444Y-37825550D01*
X30410046Y-37837801D01*
X30411852Y-37856139D01*
X30411852Y-38343862D01*
X30410046Y-38362199D01*
X30409444Y-38374450D01*
X30409444Y-38392869D01*
X30407250Y-38415149D01*
X30390524Y-38499233D01*
X30384024Y-38520660D01*
X30351220Y-38599858D01*
X30348309Y-38605303D01*
X30348307Y-38605309D01*
X30343571Y-38614169D01*
X30343568Y-38614173D01*
X30340660Y-38619614D01*
X30293029Y-38690899D01*
X30278828Y-38708204D01*
X30218204Y-38768828D01*
X30200899Y-38783029D01*
X30129614Y-38830660D01*
X30124173Y-38833568D01*
X30124169Y-38833571D01*
X30115309Y-38838307D01*
X30115303Y-38838309D01*
X30109858Y-38841220D01*
X30030660Y-38874024D01*
X30009233Y-38880524D01*
X29925149Y-38897250D01*
X29902869Y-38899444D01*
X29884450Y-38899444D01*
X29872199Y-38900046D01*
X29853862Y-38901852D01*
X29366140Y-38901852D01*
X29350001Y-38900263D01*
X29340392Y-38897348D01*
X29331528Y-38892610D01*
X29323763Y-38886237D01*
X29313552Y-38873794D01*
X29306622Y-38863425D01*
X29289295Y-38846098D01*
X29268920Y-38832485D01*
X29246280Y-38823109D01*
X29222247Y-38818329D01*
X29197743Y-38818330D01*
X29173710Y-38823112D01*
X29151071Y-38832490D01*
X29130698Y-38846105D01*
X29113371Y-38863432D01*
X29106442Y-38873802D01*
X29096237Y-38886237D01*
X29088472Y-38892610D01*
X29079608Y-38897348D01*
X29069999Y-38900263D01*
X29053860Y-38901852D01*
X28566138Y-38901852D01*
X28547801Y-38900046D01*
X28535550Y-38899444D01*
X28517131Y-38899444D01*
X28494851Y-38897250D01*
X28410767Y-38880524D01*
X28389340Y-38874024D01*
X28310142Y-38841220D01*
X28304697Y-38838309D01*
X28304691Y-38838307D01*
X28295831Y-38833571D01*
X28295827Y-38833568D01*
X28290386Y-38830660D01*
X28219101Y-38783029D01*
X28201796Y-38768828D01*
X28141172Y-38708204D01*
X28126971Y-38690899D01*
X28079340Y-38619614D01*
X28076432Y-38614173D01*
X28076429Y-38614169D01*
X28071693Y-38605309D01*
X28071691Y-38605303D01*
X28068780Y-38599858D01*
X28035976Y-38520660D01*
X28029476Y-38499233D01*
X28012750Y-38415149D01*
X28010556Y-38392869D01*
X28010556Y-38374450D01*
X28009954Y-38362199D01*
X28008148Y-38343862D01*
X28008148Y-37856139D01*
X28009954Y-37837801D01*
X28010556Y-37825550D01*
X28010556Y-37807131D01*
X28012750Y-37784851D01*
X28029476Y-37700767D01*
X28035976Y-37679340D01*
X28068780Y-37600142D01*
X28071691Y-37594697D01*
X28071693Y-37594691D01*
X28076429Y-37585831D01*
X28076432Y-37585827D01*
X28079340Y-37580386D01*
X28126971Y-37509101D01*
X28141172Y-37491796D01*
X28201796Y-37431172D01*
X28219101Y-37416971D01*
X28290386Y-37369340D01*
X28295827Y-37366432D01*
X28295831Y-37366429D01*
X28304691Y-37361693D01*
X28304697Y-37361691D01*
X28310142Y-37358780D01*
X28389340Y-37325976D01*
X28410767Y-37319476D01*
X28494851Y-37302750D01*
X28517131Y-37300556D01*
X28535550Y-37300556D01*
X28547801Y-37299954D01*
X28566139Y-37298148D01*
X29053860Y-37298148D01*
X29069999Y-37299737D01*
X29069999Y-37299737D01*
G37*
G36*
X35670442Y-35935518D02*
G01*
X35736627Y-35942037D01*
X35906466Y-35993557D01*
X36062991Y-36077222D01*
X36098729Y-36106552D01*
X36200186Y-36189814D01*
X36283448Y-36291271D01*
X36312778Y-36327009D01*
X36396443Y-36483534D01*
X36447963Y-36653373D01*
X36465359Y-36830000D01*
X36447963Y-37006627D01*
X36396443Y-37176466D01*
X36312778Y-37332991D01*
X36291613Y-37358780D01*
X36200186Y-37470186D01*
X36098729Y-37553448D01*
X36062991Y-37582778D01*
X35906466Y-37666443D01*
X35736627Y-37717963D01*
X35670443Y-37724481D01*
X35604260Y-37731000D01*
X35515740Y-37731000D01*
X35449557Y-37724481D01*
X35383373Y-37717963D01*
X35213534Y-37666443D01*
X35057009Y-37582778D01*
X35021271Y-37553448D01*
X34919814Y-37470186D01*
X34828387Y-37358780D01*
X34807222Y-37332991D01*
X34723557Y-37176466D01*
X34672037Y-37006627D01*
X34654641Y-36830000D01*
X34672037Y-36653373D01*
X34723557Y-36483534D01*
X34807222Y-36327009D01*
X34836552Y-36291271D01*
X34919814Y-36189814D01*
X35021271Y-36106552D01*
X35057009Y-36077222D01*
X35213534Y-35993557D01*
X35383373Y-35942037D01*
X35449558Y-35935518D01*
X35515740Y-35929000D01*
X35604260Y-35929000D01*
X35670442Y-35935518D01*
X35670442Y-35935518D01*
G37*
G36*
X22970442Y-35935518D02*
G01*
X23036627Y-35942037D01*
X23206466Y-35993557D01*
X23362991Y-36077222D01*
X23398729Y-36106552D01*
X23500186Y-36189814D01*
X23583448Y-36291271D01*
X23612778Y-36327009D01*
X23696443Y-36483534D01*
X23747963Y-36653373D01*
X23765359Y-36830000D01*
X23747963Y-37006627D01*
X23696443Y-37176466D01*
X23612778Y-37332991D01*
X23591613Y-37358780D01*
X23500186Y-37470186D01*
X23398729Y-37553448D01*
X23362991Y-37582778D01*
X23206466Y-37666443D01*
X23036627Y-37717963D01*
X22970443Y-37724481D01*
X22904260Y-37731000D01*
X22815740Y-37731000D01*
X22749557Y-37724481D01*
X22683373Y-37717963D01*
X22513534Y-37666443D01*
X22357009Y-37582778D01*
X22321271Y-37553448D01*
X22219814Y-37470186D01*
X22128387Y-37358780D01*
X22107222Y-37332991D01*
X22023557Y-37176466D01*
X21972037Y-37006627D01*
X21954641Y-36830000D01*
X21972037Y-36653373D01*
X22023557Y-36483534D01*
X22107222Y-36327009D01*
X22136552Y-36291271D01*
X22219814Y-36189814D01*
X22321271Y-36106552D01*
X22357009Y-36077222D01*
X22513534Y-35993557D01*
X22683373Y-35942037D01*
X22749558Y-35935518D01*
X22815740Y-35929000D01*
X22904260Y-35929000D01*
X22970442Y-35935518D01*
X22970442Y-35935518D01*
G37*
G36*
X35670442Y-33395518D02*
G01*
X35736627Y-33402037D01*
X35906466Y-33453557D01*
X36062991Y-33537222D01*
X36098729Y-33566552D01*
X36200186Y-33649814D01*
X36283448Y-33751271D01*
X36312778Y-33787009D01*
X36396443Y-33943534D01*
X36447963Y-34113373D01*
X36465359Y-34290000D01*
X36447963Y-34466627D01*
X36396443Y-34636466D01*
X36312778Y-34792991D01*
X36283448Y-34828729D01*
X36200186Y-34930186D01*
X36098729Y-35013448D01*
X36062991Y-35042778D01*
X35906466Y-35126443D01*
X35736627Y-35177963D01*
X35670442Y-35184482D01*
X35604260Y-35191000D01*
X35515740Y-35191000D01*
X35449558Y-35184482D01*
X35383373Y-35177963D01*
X35213534Y-35126443D01*
X35057009Y-35042778D01*
X35021271Y-35013448D01*
X34919814Y-34930186D01*
X34836552Y-34828729D01*
X34807222Y-34792991D01*
X34723557Y-34636466D01*
X34672037Y-34466627D01*
X34654641Y-34290000D01*
X34672037Y-34113373D01*
X34723557Y-33943534D01*
X34807222Y-33787009D01*
X34836552Y-33751271D01*
X34919814Y-33649814D01*
X35021271Y-33566552D01*
X35057009Y-33537222D01*
X35213534Y-33453557D01*
X35383373Y-33402037D01*
X35449558Y-33395518D01*
X35515740Y-33389000D01*
X35604260Y-33389000D01*
X35670442Y-33395518D01*
X35670442Y-33395518D01*
G37*
G36*
X22970442Y-33395518D02*
G01*
X23036627Y-33402037D01*
X23206466Y-33453557D01*
X23362991Y-33537222D01*
X23398729Y-33566552D01*
X23500186Y-33649814D01*
X23583448Y-33751271D01*
X23612778Y-33787009D01*
X23696443Y-33943534D01*
X23747963Y-34113373D01*
X23765359Y-34290000D01*
X23747963Y-34466627D01*
X23696443Y-34636466D01*
X23612778Y-34792991D01*
X23583448Y-34828729D01*
X23500186Y-34930186D01*
X23398729Y-35013448D01*
X23362991Y-35042778D01*
X23206466Y-35126443D01*
X23036627Y-35177963D01*
X22970442Y-35184482D01*
X22904260Y-35191000D01*
X22815740Y-35191000D01*
X22749558Y-35184482D01*
X22683373Y-35177963D01*
X22513534Y-35126443D01*
X22357009Y-35042778D01*
X22321271Y-35013448D01*
X22219814Y-34930186D01*
X22136552Y-34828729D01*
X22107222Y-34792991D01*
X22023557Y-34636466D01*
X21972037Y-34466627D01*
X21954641Y-34290000D01*
X21972037Y-34113373D01*
X22023557Y-33943534D01*
X22107222Y-33787009D01*
X22136552Y-33751271D01*
X22219814Y-33649814D01*
X22321271Y-33566552D01*
X22357009Y-33537222D01*
X22513534Y-33453557D01*
X22683373Y-33402037D01*
X22749558Y-33395518D01*
X22815740Y-33389000D01*
X22904260Y-33389000D01*
X22970442Y-33395518D01*
X22970442Y-33395518D01*
G37*
G36*
X36461000Y-32651000D02*
G01*
X34659000Y-32651000D01*
X34659000Y-30849000D01*
X36461000Y-30849000D01*
X36461000Y-32651000D01*
X36461000Y-32651000D01*
G37*
G36*
X23761000Y-32651000D02*
G01*
X21959000Y-32651000D01*
X21959000Y-30849000D01*
X23761000Y-30849000D01*
X23761000Y-32651000D01*
X23761000Y-32651000D01*
G37*
G36*
X35670443Y-27045519D02*
G01*
X35736627Y-27052037D01*
X35906466Y-27103557D01*
X36062991Y-27187222D01*
X36098729Y-27216552D01*
X36200186Y-27299814D01*
X36283448Y-27401271D01*
X36312778Y-27437009D01*
X36396443Y-27593534D01*
X36447963Y-27763373D01*
X36465359Y-27940000D01*
X36447963Y-28116627D01*
X36396443Y-28286466D01*
X36312778Y-28442991D01*
X36283448Y-28478729D01*
X36200186Y-28580186D01*
X36098729Y-28663448D01*
X36062991Y-28692778D01*
X35906466Y-28776443D01*
X35736627Y-28827963D01*
X35670442Y-28834482D01*
X35604260Y-28841000D01*
X35515740Y-28841000D01*
X35449558Y-28834482D01*
X35383373Y-28827963D01*
X35213534Y-28776443D01*
X35057009Y-28692778D01*
X35021271Y-28663448D01*
X34919814Y-28580186D01*
X34836552Y-28478729D01*
X34807222Y-28442991D01*
X34723557Y-28286466D01*
X34672037Y-28116627D01*
X34654641Y-27940000D01*
X34672037Y-27763373D01*
X34723557Y-27593534D01*
X34807222Y-27437009D01*
X34836552Y-27401271D01*
X34919814Y-27299814D01*
X35021271Y-27216552D01*
X35057009Y-27187222D01*
X35213534Y-27103557D01*
X35383373Y-27052037D01*
X35449557Y-27045519D01*
X35515740Y-27039000D01*
X35604260Y-27039000D01*
X35670443Y-27045519D01*
X35670443Y-27045519D01*
G37*
G36*
X33130443Y-27045519D02*
G01*
X33196627Y-27052037D01*
X33366466Y-27103557D01*
X33522991Y-27187222D01*
X33558729Y-27216552D01*
X33660186Y-27299814D01*
X33743448Y-27401271D01*
X33772778Y-27437009D01*
X33856443Y-27593534D01*
X33907963Y-27763373D01*
X33925359Y-27940000D01*
X33907963Y-28116627D01*
X33856443Y-28286466D01*
X33772778Y-28442991D01*
X33743448Y-28478729D01*
X33660186Y-28580186D01*
X33558729Y-28663448D01*
X33522991Y-28692778D01*
X33366466Y-28776443D01*
X33196627Y-28827963D01*
X33130442Y-28834482D01*
X33064260Y-28841000D01*
X32975740Y-28841000D01*
X32909558Y-28834482D01*
X32843373Y-28827963D01*
X32673534Y-28776443D01*
X32517009Y-28692778D01*
X32481271Y-28663448D01*
X32379814Y-28580186D01*
X32296552Y-28478729D01*
X32267222Y-28442991D01*
X32183557Y-28286466D01*
X32132037Y-28116627D01*
X32114641Y-27940000D01*
X32132037Y-27763373D01*
X32183557Y-27593534D01*
X32267222Y-27437009D01*
X32296552Y-27401271D01*
X32379814Y-27299814D01*
X32481271Y-27216552D01*
X32517009Y-27187222D01*
X32673534Y-27103557D01*
X32843373Y-27052037D01*
X32909557Y-27045519D01*
X32975740Y-27039000D01*
X33064260Y-27039000D01*
X33130443Y-27045519D01*
X33130443Y-27045519D01*
G37*
G36*
X30590443Y-27045519D02*
G01*
X30656627Y-27052037D01*
X30826466Y-27103557D01*
X30982991Y-27187222D01*
X31018729Y-27216552D01*
X31120186Y-27299814D01*
X31203448Y-27401271D01*
X31232778Y-27437009D01*
X31316443Y-27593534D01*
X31367963Y-27763373D01*
X31385359Y-27940000D01*
X31367963Y-28116627D01*
X31316443Y-28286466D01*
X31232778Y-28442991D01*
X31203448Y-28478729D01*
X31120186Y-28580186D01*
X31018729Y-28663448D01*
X30982991Y-28692778D01*
X30826466Y-28776443D01*
X30656627Y-28827963D01*
X30590442Y-28834482D01*
X30524260Y-28841000D01*
X30435740Y-28841000D01*
X30369558Y-28834482D01*
X30303373Y-28827963D01*
X30133534Y-28776443D01*
X29977009Y-28692778D01*
X29941271Y-28663448D01*
X29839814Y-28580186D01*
X29756552Y-28478729D01*
X29727222Y-28442991D01*
X29643557Y-28286466D01*
X29592037Y-28116627D01*
X29574641Y-27940000D01*
X29592037Y-27763373D01*
X29643557Y-27593534D01*
X29727222Y-27437009D01*
X29756552Y-27401271D01*
X29839814Y-27299814D01*
X29941271Y-27216552D01*
X29977009Y-27187222D01*
X30133534Y-27103557D01*
X30303373Y-27052037D01*
X30369557Y-27045519D01*
X30435740Y-27039000D01*
X30524260Y-27039000D01*
X30590443Y-27045519D01*
X30590443Y-27045519D01*
G37*
G36*
X28050443Y-27045519D02*
G01*
X28116627Y-27052037D01*
X28286466Y-27103557D01*
X28442991Y-27187222D01*
X28478729Y-27216552D01*
X28580186Y-27299814D01*
X28663448Y-27401271D01*
X28692778Y-27437009D01*
X28776443Y-27593534D01*
X28827963Y-27763373D01*
X28845359Y-27940000D01*
X28827963Y-28116627D01*
X28776443Y-28286466D01*
X28692778Y-28442991D01*
X28663448Y-28478729D01*
X28580186Y-28580186D01*
X28478729Y-28663448D01*
X28442991Y-28692778D01*
X28286466Y-28776443D01*
X28116627Y-28827963D01*
X28050442Y-28834482D01*
X27984260Y-28841000D01*
X27895740Y-28841000D01*
X27829558Y-28834482D01*
X27763373Y-28827963D01*
X27593534Y-28776443D01*
X27437009Y-28692778D01*
X27401271Y-28663448D01*
X27299814Y-28580186D01*
X27216552Y-28478729D01*
X27187222Y-28442991D01*
X27103557Y-28286466D01*
X27052037Y-28116627D01*
X27034641Y-27940000D01*
X27052037Y-27763373D01*
X27103557Y-27593534D01*
X27187222Y-27437009D01*
X27216552Y-27401271D01*
X27299814Y-27299814D01*
X27401271Y-27216552D01*
X27437009Y-27187222D01*
X27593534Y-27103557D01*
X27763373Y-27052037D01*
X27829557Y-27045519D01*
X27895740Y-27039000D01*
X27984260Y-27039000D01*
X28050443Y-27045519D01*
X28050443Y-27045519D01*
G37*
G36*
X25510443Y-27045519D02*
G01*
X25576627Y-27052037D01*
X25746466Y-27103557D01*
X25902991Y-27187222D01*
X25938729Y-27216552D01*
X26040186Y-27299814D01*
X26123448Y-27401271D01*
X26152778Y-27437009D01*
X26236443Y-27593534D01*
X26287963Y-27763373D01*
X26305359Y-27940000D01*
X26287963Y-28116627D01*
X26236443Y-28286466D01*
X26152778Y-28442991D01*
X26123448Y-28478729D01*
X26040186Y-28580186D01*
X25938729Y-28663448D01*
X25902991Y-28692778D01*
X25746466Y-28776443D01*
X25576627Y-28827963D01*
X25510442Y-28834482D01*
X25444260Y-28841000D01*
X25355740Y-28841000D01*
X25289558Y-28834482D01*
X25223373Y-28827963D01*
X25053534Y-28776443D01*
X24897009Y-28692778D01*
X24861271Y-28663448D01*
X24759814Y-28580186D01*
X24676552Y-28478729D01*
X24647222Y-28442991D01*
X24563557Y-28286466D01*
X24512037Y-28116627D01*
X24494641Y-27940000D01*
X24512037Y-27763373D01*
X24563557Y-27593534D01*
X24647222Y-27437009D01*
X24676552Y-27401271D01*
X24759814Y-27299814D01*
X24861271Y-27216552D01*
X24897009Y-27187222D01*
X25053534Y-27103557D01*
X25223373Y-27052037D01*
X25289557Y-27045519D01*
X25355740Y-27039000D01*
X25444260Y-27039000D01*
X25510443Y-27045519D01*
X25510443Y-27045519D01*
G37*
G36*
X23761000Y-28841000D02*
G01*
X21959000Y-28841000D01*
X21959000Y-27039000D01*
X23761000Y-27039000D01*
X23761000Y-28841000D01*
X23761000Y-28841000D01*
G37*
M02*
