G04 #@! TF.GenerationSoftware,KiCad,Pcbnew,(5.1.4)-1*
G04 #@! TF.CreationDate,2020-11-09T21:53:22-05:00*
G04 #@! TF.ProjectId,ft221x,66743232-3178-42e6-9b69-6361645f7063,2020-02*
G04 #@! TF.SameCoordinates,Original*
G04 #@! TF.FileFunction,Legend,Top*
G04 #@! TF.FilePolarity,Positive*
%FSLAX46Y46*%
G04 Gerber Fmt 4.6, Leading zero omitted, Abs format (unit mm)*
G04 Created by KiCad (PCBNEW (5.1.4)-1) date 2020-11-09 21:53:22*
%MOMM*%
%LPD*%
G04 APERTURE LIST*
%ADD10C,0.100000*%
%ADD11C,0.120000*%
%ADD12C,0.150000*%
%ADD13O,1.802000X1.802000*%
%ADD14R,1.802000X1.802000*%
%ADD15C,1.102000*%
%ADD16C,1.077000*%
%ADD17R,1.302000X0.502000*%
%ADD18R,1.302000X2.002000*%
%ADD19O,1.302000X2.002000*%
%ADD20R,1.602000X2.002000*%
%ADD21C,1.552000*%
%ADD22R,0.502000X1.452000*%
G04 APERTURE END LIST*
D10*
X35102857Y-29418000D02*
X35045714Y-29389428D01*
X34960000Y-29389428D01*
X34874285Y-29418000D01*
X34817142Y-29475142D01*
X34788571Y-29532285D01*
X34760000Y-29646571D01*
X34760000Y-29732285D01*
X34788571Y-29846571D01*
X34817142Y-29903714D01*
X34874285Y-29960857D01*
X34960000Y-29989428D01*
X35017142Y-29989428D01*
X35102857Y-29960857D01*
X35131428Y-29932285D01*
X35131428Y-29732285D01*
X35017142Y-29732285D01*
X35388571Y-29989428D02*
X35388571Y-29389428D01*
X35731428Y-29989428D01*
X35731428Y-29389428D01*
X36017142Y-29989428D02*
X36017142Y-29389428D01*
X36160000Y-29389428D01*
X36245714Y-29418000D01*
X36302857Y-29475142D01*
X36331428Y-29532285D01*
X36360000Y-29646571D01*
X36360000Y-29732285D01*
X36331428Y-29846571D01*
X36302857Y-29903714D01*
X36245714Y-29960857D01*
X36160000Y-29989428D01*
X36017142Y-29989428D01*
X32648571Y-31107000D02*
X32620000Y-31078428D01*
X32562857Y-30992714D01*
X32534285Y-30935571D01*
X32505714Y-30849857D01*
X32477142Y-30707000D01*
X32477142Y-30592714D01*
X32505714Y-30449857D01*
X32534285Y-30364142D01*
X32562857Y-30307000D01*
X32620000Y-30221285D01*
X32648571Y-30192714D01*
X32991428Y-30278428D02*
X33048571Y-30278428D01*
X33105714Y-30307000D01*
X33134285Y-30335571D01*
X33162857Y-30392714D01*
X33191428Y-30507000D01*
X33191428Y-30649857D01*
X33162857Y-30764142D01*
X33134285Y-30821285D01*
X33105714Y-30849857D01*
X33048571Y-30878428D01*
X32991428Y-30878428D01*
X32934285Y-30849857D01*
X32905714Y-30821285D01*
X32877142Y-30764142D01*
X32848571Y-30649857D01*
X32848571Y-30507000D01*
X32877142Y-30392714D01*
X32905714Y-30335571D01*
X32934285Y-30307000D01*
X32991428Y-30278428D01*
X33391428Y-31107000D02*
X33420000Y-31078428D01*
X33477142Y-30992714D01*
X33505714Y-30935571D01*
X33534285Y-30849857D01*
X33562857Y-30707000D01*
X33562857Y-30592714D01*
X33534285Y-30449857D01*
X33505714Y-30364142D01*
X33477142Y-30307000D01*
X33420000Y-30221285D01*
X33391428Y-30192714D01*
X21410571Y-46961428D02*
X21410571Y-47018571D01*
X21382000Y-47075714D01*
X21353428Y-47104285D01*
X21296285Y-47132857D01*
X21182000Y-47161428D01*
X21039142Y-47161428D01*
X20924857Y-47132857D01*
X20867714Y-47104285D01*
X20839142Y-47075714D01*
X20810571Y-47018571D01*
X20810571Y-46961428D01*
X20839142Y-46904285D01*
X20867714Y-46875714D01*
X20924857Y-46847142D01*
X21039142Y-46818571D01*
X21182000Y-46818571D01*
X21296285Y-46847142D01*
X21353428Y-46875714D01*
X21382000Y-46904285D01*
X21410571Y-46961428D01*
D11*
X21590000Y-48133000D02*
X21590000Y-45847000D01*
X24130000Y-48133000D02*
X21590000Y-48133000D01*
X24130000Y-45847000D02*
X24130000Y-48133000D01*
X21590000Y-45847000D02*
X24130000Y-45847000D01*
D10*
X32077142Y-29989428D02*
X32077142Y-29389428D01*
X32277142Y-29818000D01*
X32477142Y-29389428D01*
X32477142Y-29989428D01*
X32877142Y-29389428D02*
X32991428Y-29389428D01*
X33048571Y-29418000D01*
X33105714Y-29475142D01*
X33134285Y-29589428D01*
X33134285Y-29789428D01*
X33105714Y-29903714D01*
X33048571Y-29960857D01*
X32991428Y-29989428D01*
X32877142Y-29989428D01*
X32820000Y-29960857D01*
X32762857Y-29903714D01*
X32734285Y-29789428D01*
X32734285Y-29589428D01*
X32762857Y-29475142D01*
X32820000Y-29418000D01*
X32877142Y-29389428D01*
X33362857Y-29960857D02*
X33448571Y-29989428D01*
X33591428Y-29989428D01*
X33648571Y-29960857D01*
X33677142Y-29932285D01*
X33705714Y-29875142D01*
X33705714Y-29818000D01*
X33677142Y-29760857D01*
X33648571Y-29732285D01*
X33591428Y-29703714D01*
X33477142Y-29675142D01*
X33420000Y-29646571D01*
X33391428Y-29618000D01*
X33362857Y-29560857D01*
X33362857Y-29503714D01*
X33391428Y-29446571D01*
X33420000Y-29418000D01*
X33477142Y-29389428D01*
X33620000Y-29389428D01*
X33705714Y-29418000D01*
X33962857Y-29989428D02*
X33962857Y-29389428D01*
X29537142Y-29989428D02*
X29537142Y-29389428D01*
X29737142Y-29818000D01*
X29937142Y-29389428D01*
X29937142Y-29989428D01*
X30222857Y-29989428D02*
X30222857Y-29389428D01*
X30480000Y-29960857D02*
X30565714Y-29989428D01*
X30708571Y-29989428D01*
X30765714Y-29960857D01*
X30794285Y-29932285D01*
X30822857Y-29875142D01*
X30822857Y-29818000D01*
X30794285Y-29760857D01*
X30765714Y-29732285D01*
X30708571Y-29703714D01*
X30594285Y-29675142D01*
X30537142Y-29646571D01*
X30508571Y-29618000D01*
X30480000Y-29560857D01*
X30480000Y-29503714D01*
X30508571Y-29446571D01*
X30537142Y-29418000D01*
X30594285Y-29389428D01*
X30737142Y-29389428D01*
X30822857Y-29418000D01*
X31194285Y-29389428D02*
X31308571Y-29389428D01*
X31365714Y-29418000D01*
X31422857Y-29475142D01*
X31451428Y-29589428D01*
X31451428Y-29789428D01*
X31422857Y-29903714D01*
X31365714Y-29960857D01*
X31308571Y-29989428D01*
X31194285Y-29989428D01*
X31137142Y-29960857D01*
X31080000Y-29903714D01*
X31051428Y-29789428D01*
X31051428Y-29589428D01*
X31080000Y-29475142D01*
X31137142Y-29418000D01*
X31194285Y-29389428D01*
X27168571Y-29960857D02*
X27254285Y-29989428D01*
X27397142Y-29989428D01*
X27454285Y-29960857D01*
X27482857Y-29932285D01*
X27511428Y-29875142D01*
X27511428Y-29818000D01*
X27482857Y-29760857D01*
X27454285Y-29732285D01*
X27397142Y-29703714D01*
X27282857Y-29675142D01*
X27225714Y-29646571D01*
X27197142Y-29618000D01*
X27168571Y-29560857D01*
X27168571Y-29503714D01*
X27197142Y-29446571D01*
X27225714Y-29418000D01*
X27282857Y-29389428D01*
X27425714Y-29389428D01*
X27511428Y-29418000D01*
X28111428Y-29932285D02*
X28082857Y-29960857D01*
X27997142Y-29989428D01*
X27940000Y-29989428D01*
X27854285Y-29960857D01*
X27797142Y-29903714D01*
X27768571Y-29846571D01*
X27740000Y-29732285D01*
X27740000Y-29646571D01*
X27768571Y-29532285D01*
X27797142Y-29475142D01*
X27854285Y-29418000D01*
X27940000Y-29389428D01*
X27997142Y-29389428D01*
X28082857Y-29418000D01*
X28111428Y-29446571D01*
X28368571Y-29989428D02*
X28368571Y-29389428D01*
X28711428Y-29989428D02*
X28454285Y-29646571D01*
X28711428Y-29389428D02*
X28368571Y-29732285D01*
X24828571Y-29156000D02*
X25400000Y-29156000D01*
X24942857Y-29960857D02*
X25028571Y-29989428D01*
X25171428Y-29989428D01*
X25228571Y-29960857D01*
X25257142Y-29932285D01*
X25285714Y-29875142D01*
X25285714Y-29818000D01*
X25257142Y-29760857D01*
X25228571Y-29732285D01*
X25171428Y-29703714D01*
X25057142Y-29675142D01*
X25000000Y-29646571D01*
X24971428Y-29618000D01*
X24942857Y-29560857D01*
X24942857Y-29503714D01*
X24971428Y-29446571D01*
X25000000Y-29418000D01*
X25057142Y-29389428D01*
X25200000Y-29389428D01*
X25285714Y-29418000D01*
X25400000Y-29156000D02*
X25971428Y-29156000D01*
X25514285Y-29960857D02*
X25600000Y-29989428D01*
X25742857Y-29989428D01*
X25800000Y-29960857D01*
X25828571Y-29932285D01*
X25857142Y-29875142D01*
X25857142Y-29818000D01*
X25828571Y-29760857D01*
X25800000Y-29732285D01*
X25742857Y-29703714D01*
X25628571Y-29675142D01*
X25571428Y-29646571D01*
X25542857Y-29618000D01*
X25514285Y-29560857D01*
X25514285Y-29503714D01*
X25542857Y-29446571D01*
X25571428Y-29418000D01*
X25628571Y-29389428D01*
X25771428Y-29389428D01*
X25857142Y-29418000D01*
X22202857Y-29389428D02*
X22402857Y-29989428D01*
X22602857Y-29389428D01*
X22802857Y-29989428D02*
X22802857Y-29389428D01*
X23202857Y-29389428D02*
X23317142Y-29389428D01*
X23374285Y-29418000D01*
X23431428Y-29475142D01*
X23460000Y-29589428D01*
X23460000Y-29789428D01*
X23431428Y-29903714D01*
X23374285Y-29960857D01*
X23317142Y-29989428D01*
X23202857Y-29989428D01*
X23145714Y-29960857D01*
X23088571Y-29903714D01*
X23060000Y-29789428D01*
X23060000Y-29589428D01*
X23088571Y-29475142D01*
X23145714Y-29418000D01*
X23202857Y-29389428D01*
X37165000Y-49987142D02*
X37136428Y-50044285D01*
X37136428Y-50130000D01*
X37165000Y-50215714D01*
X37222142Y-50272857D01*
X37279285Y-50301428D01*
X37393571Y-50330000D01*
X37479285Y-50330000D01*
X37593571Y-50301428D01*
X37650714Y-50272857D01*
X37707857Y-50215714D01*
X37736428Y-50130000D01*
X37736428Y-50072857D01*
X37707857Y-49987142D01*
X37679285Y-49958571D01*
X37479285Y-49958571D01*
X37479285Y-50072857D01*
X37736428Y-49701428D02*
X37136428Y-49701428D01*
X37736428Y-49358571D01*
X37136428Y-49358571D01*
X37736428Y-49072857D02*
X37136428Y-49072857D01*
X37136428Y-48930000D01*
X37165000Y-48844285D01*
X37222142Y-48787142D01*
X37279285Y-48758571D01*
X37393571Y-48730000D01*
X37479285Y-48730000D01*
X37593571Y-48758571D01*
X37650714Y-48787142D01*
X37707857Y-48844285D01*
X37736428Y-48930000D01*
X37736428Y-49072857D01*
X21382000Y-49072857D02*
X21410571Y-49015714D01*
X21410571Y-48930000D01*
X21382000Y-48844285D01*
X21324857Y-48787142D01*
X21267714Y-48758571D01*
X21153428Y-48730000D01*
X21067714Y-48730000D01*
X20953428Y-48758571D01*
X20896285Y-48787142D01*
X20839142Y-48844285D01*
X20810571Y-48930000D01*
X20810571Y-48987142D01*
X20839142Y-49072857D01*
X20867714Y-49101428D01*
X21067714Y-49101428D01*
X21067714Y-48987142D01*
X20810571Y-49358571D02*
X21410571Y-49358571D01*
X20810571Y-49701428D01*
X21410571Y-49701428D01*
X20810571Y-49987142D02*
X21410571Y-49987142D01*
X21410571Y-50130000D01*
X21382000Y-50215714D01*
X21324857Y-50272857D01*
X21267714Y-50301428D01*
X21153428Y-50330000D01*
X21067714Y-50330000D01*
X20953428Y-50301428D01*
X20896285Y-50272857D01*
X20839142Y-50215714D01*
X20810571Y-50130000D01*
X20810571Y-49987142D01*
X20810571Y-43507142D02*
X21410571Y-43507142D01*
X20982000Y-43707142D01*
X21410571Y-43907142D01*
X20810571Y-43907142D01*
X20810571Y-44192857D02*
X21410571Y-44192857D01*
X20839142Y-44450000D02*
X20810571Y-44535714D01*
X20810571Y-44678571D01*
X20839142Y-44735714D01*
X20867714Y-44764285D01*
X20924857Y-44792857D01*
X20982000Y-44792857D01*
X21039142Y-44764285D01*
X21067714Y-44735714D01*
X21096285Y-44678571D01*
X21124857Y-44564285D01*
X21153428Y-44507142D01*
X21182000Y-44478571D01*
X21239142Y-44450000D01*
X21296285Y-44450000D01*
X21353428Y-44478571D01*
X21382000Y-44507142D01*
X21410571Y-44564285D01*
X21410571Y-44707142D01*
X21382000Y-44792857D01*
X21410571Y-45164285D02*
X21410571Y-45278571D01*
X21382000Y-45335714D01*
X21324857Y-45392857D01*
X21210571Y-45421428D01*
X21010571Y-45421428D01*
X20896285Y-45392857D01*
X20839142Y-45335714D01*
X20810571Y-45278571D01*
X20810571Y-45164285D01*
X20839142Y-45107142D01*
X20896285Y-45050000D01*
X21010571Y-45021428D01*
X21210571Y-45021428D01*
X21324857Y-45050000D01*
X21382000Y-45107142D01*
X21410571Y-45164285D01*
X20839142Y-41138571D02*
X20810571Y-41224285D01*
X20810571Y-41367142D01*
X20839142Y-41424285D01*
X20867714Y-41452857D01*
X20924857Y-41481428D01*
X20982000Y-41481428D01*
X21039142Y-41452857D01*
X21067714Y-41424285D01*
X21096285Y-41367142D01*
X21124857Y-41252857D01*
X21153428Y-41195714D01*
X21182000Y-41167142D01*
X21239142Y-41138571D01*
X21296285Y-41138571D01*
X21353428Y-41167142D01*
X21382000Y-41195714D01*
X21410571Y-41252857D01*
X21410571Y-41395714D01*
X21382000Y-41481428D01*
X20867714Y-42081428D02*
X20839142Y-42052857D01*
X20810571Y-41967142D01*
X20810571Y-41910000D01*
X20839142Y-41824285D01*
X20896285Y-41767142D01*
X20953428Y-41738571D01*
X21067714Y-41710000D01*
X21153428Y-41710000D01*
X21267714Y-41738571D01*
X21324857Y-41767142D01*
X21382000Y-41824285D01*
X21410571Y-41910000D01*
X21410571Y-41967142D01*
X21382000Y-42052857D01*
X21353428Y-42081428D01*
X20810571Y-42338571D02*
X21410571Y-42338571D01*
X20810571Y-42681428D02*
X21153428Y-42424285D01*
X21410571Y-42681428D02*
X21067714Y-42338571D01*
X21644000Y-38784285D02*
X21644000Y-39384285D01*
X20867714Y-39270000D02*
X20839142Y-39241428D01*
X20810571Y-39155714D01*
X20810571Y-39098571D01*
X20839142Y-39012857D01*
X20896285Y-38955714D01*
X20953428Y-38927142D01*
X21067714Y-38898571D01*
X21153428Y-38898571D01*
X21267714Y-38927142D01*
X21324857Y-38955714D01*
X21382000Y-39012857D01*
X21410571Y-39098571D01*
X21410571Y-39155714D01*
X21382000Y-39241428D01*
X21353428Y-39270000D01*
X21644000Y-39384285D02*
X21644000Y-39955714D01*
X20839142Y-39498571D02*
X20810571Y-39584285D01*
X20810571Y-39727142D01*
X20839142Y-39784285D01*
X20867714Y-39812857D01*
X20924857Y-39841428D01*
X20982000Y-39841428D01*
X21039142Y-39812857D01*
X21067714Y-39784285D01*
X21096285Y-39727142D01*
X21124857Y-39612857D01*
X21153428Y-39555714D01*
X21182000Y-39527142D01*
X21239142Y-39498571D01*
X21296285Y-39498571D01*
X21353428Y-39527142D01*
X21382000Y-39555714D01*
X21410571Y-39612857D01*
X21410571Y-39755714D01*
X21382000Y-39841428D01*
X21410571Y-36087142D02*
X21410571Y-36458571D01*
X21182000Y-36258571D01*
X21182000Y-36344285D01*
X21153428Y-36401428D01*
X21124857Y-36430000D01*
X21067714Y-36458571D01*
X20924857Y-36458571D01*
X20867714Y-36430000D01*
X20839142Y-36401428D01*
X20810571Y-36344285D01*
X20810571Y-36172857D01*
X20839142Y-36115714D01*
X20867714Y-36087142D01*
X21410571Y-36630000D02*
X20810571Y-36830000D01*
X21410571Y-37030000D01*
X21410571Y-37172857D02*
X21410571Y-37544285D01*
X21182000Y-37344285D01*
X21182000Y-37430000D01*
X21153428Y-37487142D01*
X21124857Y-37515714D01*
X21067714Y-37544285D01*
X20924857Y-37544285D01*
X20867714Y-37515714D01*
X20839142Y-37487142D01*
X20810571Y-37430000D01*
X20810571Y-37258571D01*
X20839142Y-37201428D01*
X20867714Y-37172857D01*
X21410571Y-33632857D02*
X20810571Y-33832857D01*
X21410571Y-34032857D01*
X20810571Y-34232857D02*
X21410571Y-34232857D01*
X21410571Y-34632857D02*
X21410571Y-34747142D01*
X21382000Y-34804285D01*
X21324857Y-34861428D01*
X21210571Y-34890000D01*
X21010571Y-34890000D01*
X20896285Y-34861428D01*
X20839142Y-34804285D01*
X20810571Y-34747142D01*
X20810571Y-34632857D01*
X20839142Y-34575714D01*
X20896285Y-34518571D01*
X21010571Y-34490000D01*
X21210571Y-34490000D01*
X21324857Y-34518571D01*
X21382000Y-34575714D01*
X21410571Y-34632857D01*
X24366571Y-46047142D02*
X24966571Y-46047142D01*
X24538000Y-46247142D01*
X24966571Y-46447142D01*
X24366571Y-46447142D01*
X24966571Y-46847142D02*
X24966571Y-46961428D01*
X24938000Y-47018571D01*
X24880857Y-47075714D01*
X24766571Y-47104285D01*
X24566571Y-47104285D01*
X24452285Y-47075714D01*
X24395142Y-47018571D01*
X24366571Y-46961428D01*
X24366571Y-46847142D01*
X24395142Y-46790000D01*
X24452285Y-46732857D01*
X24566571Y-46704285D01*
X24766571Y-46704285D01*
X24880857Y-46732857D01*
X24938000Y-46790000D01*
X24966571Y-46847142D01*
X24395142Y-47332857D02*
X24366571Y-47418571D01*
X24366571Y-47561428D01*
X24395142Y-47618571D01*
X24423714Y-47647142D01*
X24480857Y-47675714D01*
X24538000Y-47675714D01*
X24595142Y-47647142D01*
X24623714Y-47618571D01*
X24652285Y-47561428D01*
X24680857Y-47447142D01*
X24709428Y-47390000D01*
X24738000Y-47361428D01*
X24795142Y-47332857D01*
X24852285Y-47332857D01*
X24909428Y-47361428D01*
X24938000Y-47390000D01*
X24966571Y-47447142D01*
X24966571Y-47590000D01*
X24938000Y-47675714D01*
X24366571Y-47932857D02*
X24966571Y-47932857D01*
D11*
X34290000Y-30480000D02*
X34290000Y-48260000D01*
X36830000Y-30480000D02*
X34290000Y-30480000D01*
X36830000Y-48260000D02*
X36830000Y-30480000D01*
X34290000Y-48260000D02*
X36830000Y-48260000D01*
D10*
X37009428Y-47190000D02*
X37009428Y-46790000D01*
X37609428Y-47047142D01*
X37009428Y-44335714D02*
X37009428Y-44450000D01*
X37038000Y-44507142D01*
X37066571Y-44535714D01*
X37152285Y-44592857D01*
X37266571Y-44621428D01*
X37495142Y-44621428D01*
X37552285Y-44592857D01*
X37580857Y-44564285D01*
X37609428Y-44507142D01*
X37609428Y-44392857D01*
X37580857Y-44335714D01*
X37552285Y-44307142D01*
X37495142Y-44278571D01*
X37352285Y-44278571D01*
X37295142Y-44307142D01*
X37266571Y-44335714D01*
X37238000Y-44392857D01*
X37238000Y-44507142D01*
X37266571Y-44564285D01*
X37295142Y-44592857D01*
X37352285Y-44621428D01*
X37009428Y-41767142D02*
X37009428Y-42052857D01*
X37295142Y-42081428D01*
X37266571Y-42052857D01*
X37238000Y-41995714D01*
X37238000Y-41852857D01*
X37266571Y-41795714D01*
X37295142Y-41767142D01*
X37352285Y-41738571D01*
X37495142Y-41738571D01*
X37552285Y-41767142D01*
X37580857Y-41795714D01*
X37609428Y-41852857D01*
X37609428Y-41995714D01*
X37580857Y-42052857D01*
X37552285Y-42081428D01*
X37209428Y-39255714D02*
X37609428Y-39255714D01*
X36980857Y-39398571D02*
X37409428Y-39541428D01*
X37409428Y-39170000D01*
X37009428Y-37030000D02*
X37009428Y-36658571D01*
X37238000Y-36858571D01*
X37238000Y-36772857D01*
X37266571Y-36715714D01*
X37295142Y-36687142D01*
X37352285Y-36658571D01*
X37495142Y-36658571D01*
X37552285Y-36687142D01*
X37580857Y-36715714D01*
X37609428Y-36772857D01*
X37609428Y-36944285D01*
X37580857Y-37001428D01*
X37552285Y-37030000D01*
X37066571Y-34461428D02*
X37038000Y-34432857D01*
X37009428Y-34375714D01*
X37009428Y-34232857D01*
X37038000Y-34175714D01*
X37066571Y-34147142D01*
X37123714Y-34118571D01*
X37180857Y-34118571D01*
X37266571Y-34147142D01*
X37609428Y-34490000D01*
X37609428Y-34118571D01*
X37609428Y-31578571D02*
X37609428Y-31921428D01*
X37609428Y-31750000D02*
X37009428Y-31750000D01*
X37095142Y-31807142D01*
X37152285Y-31864285D01*
X37180857Y-31921428D01*
X21410571Y-31635714D02*
X21410571Y-31350000D01*
X21124857Y-31321428D01*
X21153428Y-31350000D01*
X21182000Y-31407142D01*
X21182000Y-31550000D01*
X21153428Y-31607142D01*
X21124857Y-31635714D01*
X21067714Y-31664285D01*
X20924857Y-31664285D01*
X20867714Y-31635714D01*
X20839142Y-31607142D01*
X20810571Y-31550000D01*
X20810571Y-31407142D01*
X20839142Y-31350000D01*
X20867714Y-31321428D01*
X21410571Y-31835714D02*
X20810571Y-32035714D01*
X21410571Y-32235714D01*
X34053428Y-48186857D02*
X33453428Y-48186857D01*
X33882000Y-47986857D01*
X33453428Y-47786857D01*
X34053428Y-47786857D01*
X33453428Y-47386857D02*
X33453428Y-47272571D01*
X33482000Y-47215428D01*
X33539142Y-47158285D01*
X33653428Y-47129714D01*
X33853428Y-47129714D01*
X33967714Y-47158285D01*
X34024857Y-47215428D01*
X34053428Y-47272571D01*
X34053428Y-47386857D01*
X34024857Y-47444000D01*
X33967714Y-47501142D01*
X33853428Y-47529714D01*
X33653428Y-47529714D01*
X33539142Y-47501142D01*
X33482000Y-47444000D01*
X33453428Y-47386857D01*
X34024857Y-46901142D02*
X34053428Y-46815428D01*
X34053428Y-46672571D01*
X34024857Y-46615428D01*
X33996285Y-46586857D01*
X33939142Y-46558285D01*
X33882000Y-46558285D01*
X33824857Y-46586857D01*
X33796285Y-46615428D01*
X33767714Y-46672571D01*
X33739142Y-46786857D01*
X33710571Y-46844000D01*
X33682000Y-46872571D01*
X33624857Y-46901142D01*
X33567714Y-46901142D01*
X33510571Y-46872571D01*
X33482000Y-46844000D01*
X33453428Y-46786857D01*
X33453428Y-46644000D01*
X33482000Y-46558285D01*
X34053428Y-46301142D02*
X33453428Y-46301142D01*
D11*
X21590000Y-29210000D02*
X21590000Y-27940000D01*
X22860000Y-29210000D02*
X21590000Y-29210000D01*
X35940000Y-26897071D02*
X35940000Y-26500000D01*
X35180000Y-26897071D02*
X35180000Y-26500000D01*
X33400000Y-26897071D02*
X33400000Y-26500000D01*
X32640000Y-26897071D02*
X32640000Y-26500000D01*
X30860000Y-26897071D02*
X30860000Y-26500000D01*
X30100000Y-26897071D02*
X30100000Y-26500000D01*
X28320000Y-26897071D02*
X28320000Y-26500000D01*
X27560000Y-26897071D02*
X27560000Y-26500000D01*
X25780000Y-26897071D02*
X25780000Y-26500000D01*
X25020000Y-26897071D02*
X25020000Y-26500000D01*
X23240000Y-26830000D02*
X23240000Y-26500000D01*
X22480000Y-26830000D02*
X22480000Y-26500000D01*
X25592000Y-41402000D02*
G75*
G03X25592000Y-41402000I-700000J0D01*
G01*
X31063000Y-44073578D02*
X31063000Y-43556422D01*
X29643000Y-44073578D02*
X29643000Y-43556422D01*
D12*
X31285000Y-40195000D02*
X32410000Y-40195000D01*
X31285000Y-32355000D02*
X27135000Y-32355000D01*
X31285000Y-41305000D02*
X27135000Y-41305000D01*
X31285000Y-32355000D02*
X31285000Y-33465000D01*
X27135000Y-32355000D02*
X27135000Y-33465000D01*
X27135000Y-41305000D02*
X27135000Y-40195000D01*
X31285000Y-40195000D02*
X31285000Y-41305000D01*
D11*
X27510000Y-47217500D02*
X27510000Y-47667500D01*
X27510000Y-47217500D02*
X27960000Y-47217500D01*
X33110000Y-47767500D02*
X32660000Y-47767500D01*
X33110000Y-49617500D02*
X33110000Y-47767500D01*
X25310000Y-52167500D02*
X25310000Y-51917500D01*
X33110000Y-52167500D02*
X33110000Y-51917500D01*
X25310000Y-49617500D02*
X25310000Y-47767500D01*
X25310000Y-47767500D02*
X25760000Y-47767500D01*
X28951422Y-31825000D02*
X29468578Y-31825000D01*
X28951422Y-30405000D02*
X29468578Y-30405000D01*
X27380000Y-44073578D02*
X27380000Y-43556422D01*
X25960000Y-44073578D02*
X25960000Y-43556422D01*
X31675000Y-43556422D02*
X31675000Y-44073578D01*
X33095000Y-43556422D02*
X33095000Y-44073578D01*
D10*
X25106285Y-44402285D02*
X25134857Y-44430857D01*
X25163428Y-44516571D01*
X25163428Y-44573714D01*
X25134857Y-44659428D01*
X25077714Y-44716571D01*
X25020571Y-44745142D01*
X24906285Y-44773714D01*
X24820571Y-44773714D01*
X24706285Y-44745142D01*
X24649142Y-44716571D01*
X24592000Y-44659428D01*
X24563428Y-44573714D01*
X24563428Y-44516571D01*
X24592000Y-44430857D01*
X24620571Y-44402285D01*
X24849142Y-43945142D02*
X24877714Y-43859428D01*
X24906285Y-43830857D01*
X24963428Y-43802285D01*
X25049142Y-43802285D01*
X25106285Y-43830857D01*
X25134857Y-43859428D01*
X25163428Y-43916571D01*
X25163428Y-44145142D01*
X24563428Y-44145142D01*
X24563428Y-43945142D01*
X24592000Y-43888000D01*
X24620571Y-43859428D01*
X24677714Y-43830857D01*
X24734857Y-43830857D01*
X24792000Y-43859428D01*
X24820571Y-43888000D01*
X24849142Y-43945142D01*
X24849142Y-44145142D01*
X24563428Y-43545142D02*
X25049142Y-43545142D01*
X25106285Y-43516571D01*
X25134857Y-43488000D01*
X25163428Y-43430857D01*
X25163428Y-43316571D01*
X25134857Y-43259428D01*
X25106285Y-43230857D01*
X25049142Y-43202285D01*
X24563428Y-43202285D01*
X25134857Y-42945142D02*
X25163428Y-42859428D01*
X25163428Y-42716571D01*
X25134857Y-42659428D01*
X25106285Y-42630857D01*
X25049142Y-42602285D01*
X24992000Y-42602285D01*
X24934857Y-42630857D01*
X24906285Y-42659428D01*
X24877714Y-42716571D01*
X24849142Y-42830857D01*
X24820571Y-42888000D01*
X24792000Y-42916571D01*
X24734857Y-42945142D01*
X24677714Y-42945142D01*
X24620571Y-42916571D01*
X24592000Y-42888000D01*
X24563428Y-42830857D01*
X24563428Y-42688000D01*
X24592000Y-42602285D01*
%LPC*%
D13*
X35560000Y-27940000D03*
X33020000Y-27940000D03*
X30480000Y-27940000D03*
X27940000Y-27940000D03*
X25400000Y-27940000D03*
D14*
X22860000Y-27940000D03*
D15*
X24892000Y-41402000D03*
D10*
G36*
X30861141Y-42340297D02*
G01*
X30887278Y-42344174D01*
X30912909Y-42350594D01*
X30937788Y-42359495D01*
X30961674Y-42370793D01*
X30984337Y-42384377D01*
X31005560Y-42400117D01*
X31025139Y-42417861D01*
X31042883Y-42437440D01*
X31058623Y-42458663D01*
X31072207Y-42481326D01*
X31083505Y-42505212D01*
X31092406Y-42530091D01*
X31098826Y-42555722D01*
X31102703Y-42581859D01*
X31104000Y-42608250D01*
X31104000Y-43146750D01*
X31102703Y-43173141D01*
X31098826Y-43199278D01*
X31092406Y-43224909D01*
X31083505Y-43249788D01*
X31072207Y-43273674D01*
X31058623Y-43296337D01*
X31042883Y-43317560D01*
X31025139Y-43337139D01*
X31005560Y-43354883D01*
X30984337Y-43370623D01*
X30961674Y-43384207D01*
X30937788Y-43395505D01*
X30912909Y-43404406D01*
X30887278Y-43410826D01*
X30861141Y-43414703D01*
X30834750Y-43416000D01*
X29871250Y-43416000D01*
X29844859Y-43414703D01*
X29818722Y-43410826D01*
X29793091Y-43404406D01*
X29768212Y-43395505D01*
X29744326Y-43384207D01*
X29721663Y-43370623D01*
X29700440Y-43354883D01*
X29680861Y-43337139D01*
X29663117Y-43317560D01*
X29647377Y-43296337D01*
X29633793Y-43273674D01*
X29622495Y-43249788D01*
X29613594Y-43224909D01*
X29607174Y-43199278D01*
X29603297Y-43173141D01*
X29602000Y-43146750D01*
X29602000Y-42608250D01*
X29603297Y-42581859D01*
X29607174Y-42555722D01*
X29613594Y-42530091D01*
X29622495Y-42505212D01*
X29633793Y-42481326D01*
X29647377Y-42458663D01*
X29663117Y-42437440D01*
X29680861Y-42417861D01*
X29700440Y-42400117D01*
X29721663Y-42384377D01*
X29744326Y-42370793D01*
X29768212Y-42359495D01*
X29793091Y-42350594D01*
X29818722Y-42344174D01*
X29844859Y-42340297D01*
X29871250Y-42339000D01*
X30834750Y-42339000D01*
X30861141Y-42340297D01*
X30861141Y-42340297D01*
G37*
D16*
X30353000Y-42877500D03*
D10*
G36*
X30861141Y-44215297D02*
G01*
X30887278Y-44219174D01*
X30912909Y-44225594D01*
X30937788Y-44234495D01*
X30961674Y-44245793D01*
X30984337Y-44259377D01*
X31005560Y-44275117D01*
X31025139Y-44292861D01*
X31042883Y-44312440D01*
X31058623Y-44333663D01*
X31072207Y-44356326D01*
X31083505Y-44380212D01*
X31092406Y-44405091D01*
X31098826Y-44430722D01*
X31102703Y-44456859D01*
X31104000Y-44483250D01*
X31104000Y-45021750D01*
X31102703Y-45048141D01*
X31098826Y-45074278D01*
X31092406Y-45099909D01*
X31083505Y-45124788D01*
X31072207Y-45148674D01*
X31058623Y-45171337D01*
X31042883Y-45192560D01*
X31025139Y-45212139D01*
X31005560Y-45229883D01*
X30984337Y-45245623D01*
X30961674Y-45259207D01*
X30937788Y-45270505D01*
X30912909Y-45279406D01*
X30887278Y-45285826D01*
X30861141Y-45289703D01*
X30834750Y-45291000D01*
X29871250Y-45291000D01*
X29844859Y-45289703D01*
X29818722Y-45285826D01*
X29793091Y-45279406D01*
X29768212Y-45270505D01*
X29744326Y-45259207D01*
X29721663Y-45245623D01*
X29700440Y-45229883D01*
X29680861Y-45212139D01*
X29663117Y-45192560D01*
X29647377Y-45171337D01*
X29633793Y-45148674D01*
X29622495Y-45124788D01*
X29613594Y-45099909D01*
X29607174Y-45074278D01*
X29603297Y-45048141D01*
X29602000Y-45021750D01*
X29602000Y-44483250D01*
X29603297Y-44456859D01*
X29607174Y-44430722D01*
X29613594Y-44405091D01*
X29622495Y-44380212D01*
X29633793Y-44356326D01*
X29647377Y-44333663D01*
X29663117Y-44312440D01*
X29680861Y-44292861D01*
X29700440Y-44275117D01*
X29721663Y-44259377D01*
X29744326Y-44245793D01*
X29768212Y-44234495D01*
X29793091Y-44225594D01*
X29818722Y-44219174D01*
X29844859Y-44215297D01*
X29871250Y-44214000D01*
X30834750Y-44214000D01*
X30861141Y-44215297D01*
X30861141Y-44215297D01*
G37*
D16*
X30353000Y-44752500D03*
D17*
X26610000Y-39687500D03*
X26610000Y-39052500D03*
X26610000Y-38417500D03*
X26610000Y-37782500D03*
X26610000Y-37147500D03*
X26610000Y-36512500D03*
X26610000Y-35877500D03*
X26610000Y-35242500D03*
X26610000Y-34607500D03*
X26610000Y-33972500D03*
X31810000Y-33972500D03*
X31810000Y-34607500D03*
X31810000Y-35242500D03*
X31810000Y-35877500D03*
X31810000Y-36512500D03*
X31810000Y-37147500D03*
X31810000Y-37782500D03*
X31810000Y-38417500D03*
X31810000Y-39052500D03*
X31810000Y-39687500D03*
D13*
X35560000Y-49530000D03*
X35560000Y-46990000D03*
X35560000Y-44450000D03*
X35560000Y-41910000D03*
X35560000Y-39370000D03*
X35560000Y-36830000D03*
X35560000Y-34290000D03*
D14*
X35560000Y-31750000D03*
D13*
X22860000Y-49530000D03*
X22860000Y-46990000D03*
X22860000Y-44450000D03*
X22860000Y-41910000D03*
X22860000Y-39370000D03*
X22860000Y-36830000D03*
X22860000Y-34290000D03*
D14*
X22860000Y-31750000D03*
D18*
X26310000Y-50767500D03*
X32110000Y-50767500D03*
D19*
X32710000Y-50767500D03*
X25710000Y-50767500D03*
D20*
X28210000Y-50767500D03*
D21*
X31710000Y-48067500D03*
D22*
X29210000Y-48067500D03*
X29860000Y-48067500D03*
X30510000Y-48067500D03*
X27910000Y-48067500D03*
X28560000Y-48067500D03*
D21*
X26710000Y-48067500D03*
D20*
X30210000Y-50767500D03*
D10*
G36*
X30443141Y-30365297D02*
G01*
X30469278Y-30369174D01*
X30494909Y-30375594D01*
X30519788Y-30384495D01*
X30543674Y-30395793D01*
X30566337Y-30409377D01*
X30587560Y-30425117D01*
X30607139Y-30442861D01*
X30624883Y-30462440D01*
X30640623Y-30483663D01*
X30654207Y-30506326D01*
X30665505Y-30530212D01*
X30674406Y-30555091D01*
X30680826Y-30580722D01*
X30684703Y-30606859D01*
X30686000Y-30633250D01*
X30686000Y-31596750D01*
X30684703Y-31623141D01*
X30680826Y-31649278D01*
X30674406Y-31674909D01*
X30665505Y-31699788D01*
X30654207Y-31723674D01*
X30640623Y-31746337D01*
X30624883Y-31767560D01*
X30607139Y-31787139D01*
X30587560Y-31804883D01*
X30566337Y-31820623D01*
X30543674Y-31834207D01*
X30519788Y-31845505D01*
X30494909Y-31854406D01*
X30469278Y-31860826D01*
X30443141Y-31864703D01*
X30416750Y-31866000D01*
X29878250Y-31866000D01*
X29851859Y-31864703D01*
X29825722Y-31860826D01*
X29800091Y-31854406D01*
X29775212Y-31845505D01*
X29751326Y-31834207D01*
X29728663Y-31820623D01*
X29707440Y-31804883D01*
X29687861Y-31787139D01*
X29670117Y-31767560D01*
X29654377Y-31746337D01*
X29640793Y-31723674D01*
X29629495Y-31699788D01*
X29620594Y-31674909D01*
X29614174Y-31649278D01*
X29610297Y-31623141D01*
X29609000Y-31596750D01*
X29609000Y-30633250D01*
X29610297Y-30606859D01*
X29614174Y-30580722D01*
X29620594Y-30555091D01*
X29629495Y-30530212D01*
X29640793Y-30506326D01*
X29654377Y-30483663D01*
X29670117Y-30462440D01*
X29687861Y-30442861D01*
X29707440Y-30425117D01*
X29728663Y-30409377D01*
X29751326Y-30395793D01*
X29775212Y-30384495D01*
X29800091Y-30375594D01*
X29825722Y-30369174D01*
X29851859Y-30365297D01*
X29878250Y-30364000D01*
X30416750Y-30364000D01*
X30443141Y-30365297D01*
X30443141Y-30365297D01*
G37*
D16*
X30147500Y-31115000D03*
D10*
G36*
X28568141Y-30365297D02*
G01*
X28594278Y-30369174D01*
X28619909Y-30375594D01*
X28644788Y-30384495D01*
X28668674Y-30395793D01*
X28691337Y-30409377D01*
X28712560Y-30425117D01*
X28732139Y-30442861D01*
X28749883Y-30462440D01*
X28765623Y-30483663D01*
X28779207Y-30506326D01*
X28790505Y-30530212D01*
X28799406Y-30555091D01*
X28805826Y-30580722D01*
X28809703Y-30606859D01*
X28811000Y-30633250D01*
X28811000Y-31596750D01*
X28809703Y-31623141D01*
X28805826Y-31649278D01*
X28799406Y-31674909D01*
X28790505Y-31699788D01*
X28779207Y-31723674D01*
X28765623Y-31746337D01*
X28749883Y-31767560D01*
X28732139Y-31787139D01*
X28712560Y-31804883D01*
X28691337Y-31820623D01*
X28668674Y-31834207D01*
X28644788Y-31845505D01*
X28619909Y-31854406D01*
X28594278Y-31860826D01*
X28568141Y-31864703D01*
X28541750Y-31866000D01*
X28003250Y-31866000D01*
X27976859Y-31864703D01*
X27950722Y-31860826D01*
X27925091Y-31854406D01*
X27900212Y-31845505D01*
X27876326Y-31834207D01*
X27853663Y-31820623D01*
X27832440Y-31804883D01*
X27812861Y-31787139D01*
X27795117Y-31767560D01*
X27779377Y-31746337D01*
X27765793Y-31723674D01*
X27754495Y-31699788D01*
X27745594Y-31674909D01*
X27739174Y-31649278D01*
X27735297Y-31623141D01*
X27734000Y-31596750D01*
X27734000Y-30633250D01*
X27735297Y-30606859D01*
X27739174Y-30580722D01*
X27745594Y-30555091D01*
X27754495Y-30530212D01*
X27765793Y-30506326D01*
X27779377Y-30483663D01*
X27795117Y-30462440D01*
X27812861Y-30442861D01*
X27832440Y-30425117D01*
X27853663Y-30409377D01*
X27876326Y-30395793D01*
X27900212Y-30384495D01*
X27925091Y-30375594D01*
X27950722Y-30369174D01*
X27976859Y-30365297D01*
X28003250Y-30364000D01*
X28541750Y-30364000D01*
X28568141Y-30365297D01*
X28568141Y-30365297D01*
G37*
D16*
X28272500Y-31115000D03*
D10*
G36*
X27178141Y-42340297D02*
G01*
X27204278Y-42344174D01*
X27229909Y-42350594D01*
X27254788Y-42359495D01*
X27278674Y-42370793D01*
X27301337Y-42384377D01*
X27322560Y-42400117D01*
X27342139Y-42417861D01*
X27359883Y-42437440D01*
X27375623Y-42458663D01*
X27389207Y-42481326D01*
X27400505Y-42505212D01*
X27409406Y-42530091D01*
X27415826Y-42555722D01*
X27419703Y-42581859D01*
X27421000Y-42608250D01*
X27421000Y-43146750D01*
X27419703Y-43173141D01*
X27415826Y-43199278D01*
X27409406Y-43224909D01*
X27400505Y-43249788D01*
X27389207Y-43273674D01*
X27375623Y-43296337D01*
X27359883Y-43317560D01*
X27342139Y-43337139D01*
X27322560Y-43354883D01*
X27301337Y-43370623D01*
X27278674Y-43384207D01*
X27254788Y-43395505D01*
X27229909Y-43404406D01*
X27204278Y-43410826D01*
X27178141Y-43414703D01*
X27151750Y-43416000D01*
X26188250Y-43416000D01*
X26161859Y-43414703D01*
X26135722Y-43410826D01*
X26110091Y-43404406D01*
X26085212Y-43395505D01*
X26061326Y-43384207D01*
X26038663Y-43370623D01*
X26017440Y-43354883D01*
X25997861Y-43337139D01*
X25980117Y-43317560D01*
X25964377Y-43296337D01*
X25950793Y-43273674D01*
X25939495Y-43249788D01*
X25930594Y-43224909D01*
X25924174Y-43199278D01*
X25920297Y-43173141D01*
X25919000Y-43146750D01*
X25919000Y-42608250D01*
X25920297Y-42581859D01*
X25924174Y-42555722D01*
X25930594Y-42530091D01*
X25939495Y-42505212D01*
X25950793Y-42481326D01*
X25964377Y-42458663D01*
X25980117Y-42437440D01*
X25997861Y-42417861D01*
X26017440Y-42400117D01*
X26038663Y-42384377D01*
X26061326Y-42370793D01*
X26085212Y-42359495D01*
X26110091Y-42350594D01*
X26135722Y-42344174D01*
X26161859Y-42340297D01*
X26188250Y-42339000D01*
X27151750Y-42339000D01*
X27178141Y-42340297D01*
X27178141Y-42340297D01*
G37*
D16*
X26670000Y-42877500D03*
D10*
G36*
X27178141Y-44215297D02*
G01*
X27204278Y-44219174D01*
X27229909Y-44225594D01*
X27254788Y-44234495D01*
X27278674Y-44245793D01*
X27301337Y-44259377D01*
X27322560Y-44275117D01*
X27342139Y-44292861D01*
X27359883Y-44312440D01*
X27375623Y-44333663D01*
X27389207Y-44356326D01*
X27400505Y-44380212D01*
X27409406Y-44405091D01*
X27415826Y-44430722D01*
X27419703Y-44456859D01*
X27421000Y-44483250D01*
X27421000Y-45021750D01*
X27419703Y-45048141D01*
X27415826Y-45074278D01*
X27409406Y-45099909D01*
X27400505Y-45124788D01*
X27389207Y-45148674D01*
X27375623Y-45171337D01*
X27359883Y-45192560D01*
X27342139Y-45212139D01*
X27322560Y-45229883D01*
X27301337Y-45245623D01*
X27278674Y-45259207D01*
X27254788Y-45270505D01*
X27229909Y-45279406D01*
X27204278Y-45285826D01*
X27178141Y-45289703D01*
X27151750Y-45291000D01*
X26188250Y-45291000D01*
X26161859Y-45289703D01*
X26135722Y-45285826D01*
X26110091Y-45279406D01*
X26085212Y-45270505D01*
X26061326Y-45259207D01*
X26038663Y-45245623D01*
X26017440Y-45229883D01*
X25997861Y-45212139D01*
X25980117Y-45192560D01*
X25964377Y-45171337D01*
X25950793Y-45148674D01*
X25939495Y-45124788D01*
X25930594Y-45099909D01*
X25924174Y-45074278D01*
X25920297Y-45048141D01*
X25919000Y-45021750D01*
X25919000Y-44483250D01*
X25920297Y-44456859D01*
X25924174Y-44430722D01*
X25930594Y-44405091D01*
X25939495Y-44380212D01*
X25950793Y-44356326D01*
X25964377Y-44333663D01*
X25980117Y-44312440D01*
X25997861Y-44292861D01*
X26017440Y-44275117D01*
X26038663Y-44259377D01*
X26061326Y-44245793D01*
X26085212Y-44234495D01*
X26110091Y-44225594D01*
X26135722Y-44219174D01*
X26161859Y-44215297D01*
X26188250Y-44214000D01*
X27151750Y-44214000D01*
X27178141Y-44215297D01*
X27178141Y-44215297D01*
G37*
D16*
X26670000Y-44752500D03*
D10*
G36*
X32893141Y-44215297D02*
G01*
X32919278Y-44219174D01*
X32944909Y-44225594D01*
X32969788Y-44234495D01*
X32993674Y-44245793D01*
X33016337Y-44259377D01*
X33037560Y-44275117D01*
X33057139Y-44292861D01*
X33074883Y-44312440D01*
X33090623Y-44333663D01*
X33104207Y-44356326D01*
X33115505Y-44380212D01*
X33124406Y-44405091D01*
X33130826Y-44430722D01*
X33134703Y-44456859D01*
X33136000Y-44483250D01*
X33136000Y-45021750D01*
X33134703Y-45048141D01*
X33130826Y-45074278D01*
X33124406Y-45099909D01*
X33115505Y-45124788D01*
X33104207Y-45148674D01*
X33090623Y-45171337D01*
X33074883Y-45192560D01*
X33057139Y-45212139D01*
X33037560Y-45229883D01*
X33016337Y-45245623D01*
X32993674Y-45259207D01*
X32969788Y-45270505D01*
X32944909Y-45279406D01*
X32919278Y-45285826D01*
X32893141Y-45289703D01*
X32866750Y-45291000D01*
X31903250Y-45291000D01*
X31876859Y-45289703D01*
X31850722Y-45285826D01*
X31825091Y-45279406D01*
X31800212Y-45270505D01*
X31776326Y-45259207D01*
X31753663Y-45245623D01*
X31732440Y-45229883D01*
X31712861Y-45212139D01*
X31695117Y-45192560D01*
X31679377Y-45171337D01*
X31665793Y-45148674D01*
X31654495Y-45124788D01*
X31645594Y-45099909D01*
X31639174Y-45074278D01*
X31635297Y-45048141D01*
X31634000Y-45021750D01*
X31634000Y-44483250D01*
X31635297Y-44456859D01*
X31639174Y-44430722D01*
X31645594Y-44405091D01*
X31654495Y-44380212D01*
X31665793Y-44356326D01*
X31679377Y-44333663D01*
X31695117Y-44312440D01*
X31712861Y-44292861D01*
X31732440Y-44275117D01*
X31753663Y-44259377D01*
X31776326Y-44245793D01*
X31800212Y-44234495D01*
X31825091Y-44225594D01*
X31850722Y-44219174D01*
X31876859Y-44215297D01*
X31903250Y-44214000D01*
X32866750Y-44214000D01*
X32893141Y-44215297D01*
X32893141Y-44215297D01*
G37*
D16*
X32385000Y-44752500D03*
D10*
G36*
X32893141Y-42340297D02*
G01*
X32919278Y-42344174D01*
X32944909Y-42350594D01*
X32969788Y-42359495D01*
X32993674Y-42370793D01*
X33016337Y-42384377D01*
X33037560Y-42400117D01*
X33057139Y-42417861D01*
X33074883Y-42437440D01*
X33090623Y-42458663D01*
X33104207Y-42481326D01*
X33115505Y-42505212D01*
X33124406Y-42530091D01*
X33130826Y-42555722D01*
X33134703Y-42581859D01*
X33136000Y-42608250D01*
X33136000Y-43146750D01*
X33134703Y-43173141D01*
X33130826Y-43199278D01*
X33124406Y-43224909D01*
X33115505Y-43249788D01*
X33104207Y-43273674D01*
X33090623Y-43296337D01*
X33074883Y-43317560D01*
X33057139Y-43337139D01*
X33037560Y-43354883D01*
X33016337Y-43370623D01*
X32993674Y-43384207D01*
X32969788Y-43395505D01*
X32944909Y-43404406D01*
X32919278Y-43410826D01*
X32893141Y-43414703D01*
X32866750Y-43416000D01*
X31903250Y-43416000D01*
X31876859Y-43414703D01*
X31850722Y-43410826D01*
X31825091Y-43404406D01*
X31800212Y-43395505D01*
X31776326Y-43384207D01*
X31753663Y-43370623D01*
X31732440Y-43354883D01*
X31712861Y-43337139D01*
X31695117Y-43317560D01*
X31679377Y-43296337D01*
X31665793Y-43273674D01*
X31654495Y-43249788D01*
X31645594Y-43224909D01*
X31639174Y-43199278D01*
X31635297Y-43173141D01*
X31634000Y-43146750D01*
X31634000Y-42608250D01*
X31635297Y-42581859D01*
X31639174Y-42555722D01*
X31645594Y-42530091D01*
X31654495Y-42505212D01*
X31665793Y-42481326D01*
X31679377Y-42458663D01*
X31695117Y-42437440D01*
X31712861Y-42417861D01*
X31732440Y-42400117D01*
X31753663Y-42384377D01*
X31776326Y-42370793D01*
X31800212Y-42359495D01*
X31825091Y-42350594D01*
X31850722Y-42344174D01*
X31876859Y-42340297D01*
X31903250Y-42339000D01*
X32866750Y-42339000D01*
X32893141Y-42340297D01*
X32893141Y-42340297D01*
G37*
D16*
X32385000Y-42877500D03*
M02*
