G04 #@! TF.GenerationSoftware,KiCad,Pcbnew,(5.1.4)-1*
G04 #@! TF.CreationDate,2020-11-09T21:53:23-05:00*
G04 #@! TF.ProjectId,ft221x,66743232-3178-42e6-9b69-6361645f7063,2020-02*
G04 #@! TF.SameCoordinates,Original*
G04 #@! TF.FileFunction,Soldermask,Top*
G04 #@! TF.FilePolarity,Negative*
%FSLAX46Y46*%
G04 Gerber Fmt 4.6, Leading zero omitted, Abs format (unit mm)*
G04 Created by KiCad (PCBNEW (5.1.4)-1) date 2020-11-09 21:53:23*
%MOMM*%
%LPD*%
G04 APERTURE LIST*
%ADD10C,0.100000*%
G04 APERTURE END LIST*
D10*
G36*
X25735862Y-49765898D02*
G01*
X25748114Y-49766500D01*
X26961000Y-49766500D01*
X26961000Y-51768500D01*
X25748114Y-51768500D01*
X25735862Y-51769102D01*
X25710000Y-51771649D01*
X25684138Y-51769102D01*
X25671886Y-51768500D01*
X25598594Y-51768500D01*
X25581836Y-51759543D01*
X25570299Y-51755415D01*
X25485307Y-51729632D01*
X25459664Y-51721854D01*
X25346575Y-51661406D01*
X25247447Y-51580054D01*
X25166094Y-51480924D01*
X25105646Y-51367835D01*
X25095960Y-51335903D01*
X25068420Y-51245117D01*
X25059000Y-51149472D01*
X25059000Y-50385527D01*
X25068420Y-50289882D01*
X25105645Y-50167168D01*
X25166096Y-50054074D01*
X25183400Y-50032989D01*
X25247447Y-49954946D01*
X25346576Y-49873594D01*
X25459666Y-49813146D01*
X25459669Y-49813145D01*
X25570290Y-49779588D01*
X25592925Y-49770212D01*
X25598481Y-49766500D01*
X25671886Y-49766500D01*
X25684138Y-49765898D01*
X25710000Y-49763351D01*
X25735862Y-49765898D01*
X25735862Y-49765898D01*
G37*
G36*
X32735862Y-49765898D02*
G01*
X32748114Y-49766500D01*
X32821406Y-49766500D01*
X32838164Y-49775457D01*
X32849707Y-49779587D01*
X32960331Y-49813145D01*
X32960334Y-49813146D01*
X33073424Y-49873594D01*
X33172554Y-49954947D01*
X33253906Y-50054075D01*
X33314354Y-50167164D01*
X33315270Y-50170185D01*
X33351580Y-50289882D01*
X33361000Y-50385527D01*
X33361000Y-51149473D01*
X33351580Y-51245118D01*
X33324040Y-51335904D01*
X33314354Y-51367836D01*
X33253906Y-51480925D01*
X33172554Y-51580054D01*
X33073425Y-51661406D01*
X32960336Y-51721854D01*
X32934693Y-51729632D01*
X32849708Y-51755413D01*
X32827075Y-51764787D01*
X32821518Y-51768500D01*
X32748114Y-51768500D01*
X32735862Y-51769102D01*
X32710000Y-51771649D01*
X32684138Y-51769102D01*
X32671886Y-51768500D01*
X31459000Y-51768500D01*
X31459000Y-49766500D01*
X32671886Y-49766500D01*
X32684138Y-49765898D01*
X32710000Y-49763351D01*
X32735862Y-49765898D01*
X32735862Y-49765898D01*
G37*
G36*
X31011000Y-51768500D02*
G01*
X29409000Y-51768500D01*
X29409000Y-49766500D01*
X31011000Y-49766500D01*
X31011000Y-51768500D01*
X31011000Y-51768500D01*
G37*
G36*
X29011000Y-51768500D02*
G01*
X27409000Y-51768500D01*
X27409000Y-49766500D01*
X29011000Y-49766500D01*
X29011000Y-51768500D01*
X29011000Y-51768500D01*
G37*
G36*
X22970443Y-48635519D02*
G01*
X23036627Y-48642037D01*
X23206466Y-48693557D01*
X23362991Y-48777222D01*
X23398729Y-48806552D01*
X23500186Y-48889814D01*
X23583448Y-48991271D01*
X23612778Y-49027009D01*
X23696443Y-49183534D01*
X23747963Y-49353373D01*
X23765359Y-49530000D01*
X23747963Y-49706627D01*
X23696443Y-49876466D01*
X23612778Y-50032991D01*
X23583448Y-50068729D01*
X23500186Y-50170186D01*
X23398729Y-50253448D01*
X23362991Y-50282778D01*
X23206466Y-50366443D01*
X23036627Y-50417963D01*
X22970442Y-50424482D01*
X22904260Y-50431000D01*
X22815740Y-50431000D01*
X22749558Y-50424482D01*
X22683373Y-50417963D01*
X22513534Y-50366443D01*
X22357009Y-50282778D01*
X22321271Y-50253448D01*
X22219814Y-50170186D01*
X22136552Y-50068729D01*
X22107222Y-50032991D01*
X22023557Y-49876466D01*
X21972037Y-49706627D01*
X21954641Y-49530000D01*
X21972037Y-49353373D01*
X22023557Y-49183534D01*
X22107222Y-49027009D01*
X22136552Y-48991271D01*
X22219814Y-48889814D01*
X22321271Y-48806552D01*
X22357009Y-48777222D01*
X22513534Y-48693557D01*
X22683373Y-48642037D01*
X22749557Y-48635519D01*
X22815740Y-48629000D01*
X22904260Y-48629000D01*
X22970443Y-48635519D01*
X22970443Y-48635519D01*
G37*
G36*
X35670443Y-48635519D02*
G01*
X35736627Y-48642037D01*
X35906466Y-48693557D01*
X36062991Y-48777222D01*
X36098729Y-48806552D01*
X36200186Y-48889814D01*
X36283448Y-48991271D01*
X36312778Y-49027009D01*
X36396443Y-49183534D01*
X36447963Y-49353373D01*
X36465359Y-49530000D01*
X36447963Y-49706627D01*
X36396443Y-49876466D01*
X36312778Y-50032991D01*
X36283448Y-50068729D01*
X36200186Y-50170186D01*
X36098729Y-50253448D01*
X36062991Y-50282778D01*
X35906466Y-50366443D01*
X35736627Y-50417963D01*
X35670443Y-50424481D01*
X35604260Y-50431000D01*
X35515740Y-50431000D01*
X35449558Y-50424482D01*
X35383373Y-50417963D01*
X35213534Y-50366443D01*
X35057009Y-50282778D01*
X35021271Y-50253448D01*
X34919814Y-50170186D01*
X34836552Y-50068729D01*
X34807222Y-50032991D01*
X34723557Y-49876466D01*
X34672037Y-49706627D01*
X34654641Y-49530000D01*
X34672037Y-49353373D01*
X34723557Y-49183534D01*
X34807222Y-49027009D01*
X34836552Y-48991271D01*
X34919814Y-48889814D01*
X35021271Y-48806552D01*
X35057009Y-48777222D01*
X35213534Y-48693557D01*
X35383373Y-48642037D01*
X35449557Y-48635519D01*
X35515740Y-48629000D01*
X35604260Y-48629000D01*
X35670443Y-48635519D01*
X35670443Y-48635519D01*
G37*
G36*
X26936348Y-47321320D02*
G01*
X26936350Y-47321321D01*
X26936351Y-47321321D01*
X27077574Y-47379817D01*
X27077577Y-47379819D01*
X27204669Y-47464739D01*
X27312761Y-47572831D01*
X27351083Y-47630185D01*
X27397683Y-47699926D01*
X27415433Y-47742779D01*
X27418517Y-47750225D01*
X27430068Y-47771836D01*
X27445614Y-47790778D01*
X27464556Y-47806323D01*
X27486166Y-47817874D01*
X27509615Y-47824987D01*
X27534001Y-47827389D01*
X27558387Y-47824987D01*
X27581836Y-47817874D01*
X27603447Y-47806323D01*
X27622389Y-47790777D01*
X27637934Y-47771835D01*
X27649485Y-47750225D01*
X27656598Y-47726776D01*
X27659000Y-47702390D01*
X27659000Y-47341500D01*
X30761000Y-47341500D01*
X30761000Y-47702390D01*
X30763402Y-47726776D01*
X30770515Y-47750225D01*
X30782066Y-47771836D01*
X30797611Y-47790778D01*
X30816553Y-47806323D01*
X30838164Y-47817874D01*
X30861613Y-47824987D01*
X30885999Y-47827389D01*
X30910385Y-47824987D01*
X30933834Y-47817874D01*
X30955445Y-47806323D01*
X30974387Y-47790778D01*
X30989932Y-47771836D01*
X31001483Y-47750225D01*
X31004567Y-47742779D01*
X31022317Y-47699926D01*
X31068917Y-47630185D01*
X31107239Y-47572831D01*
X31215331Y-47464739D01*
X31342423Y-47379819D01*
X31342426Y-47379817D01*
X31483649Y-47321321D01*
X31483650Y-47321321D01*
X31483652Y-47321320D01*
X31633569Y-47291500D01*
X31786431Y-47291500D01*
X31936348Y-47321320D01*
X31936350Y-47321321D01*
X31936351Y-47321321D01*
X32077574Y-47379817D01*
X32077577Y-47379819D01*
X32204669Y-47464739D01*
X32312761Y-47572831D01*
X32351084Y-47630186D01*
X32397683Y-47699926D01*
X32456179Y-47841149D01*
X32486000Y-47991071D01*
X32486000Y-48143929D01*
X32456179Y-48293851D01*
X32397683Y-48435074D01*
X32397682Y-48435075D01*
X32397681Y-48435077D01*
X32312761Y-48562169D01*
X32204669Y-48670261D01*
X32077577Y-48755181D01*
X32077574Y-48755183D01*
X31936351Y-48813679D01*
X31936350Y-48813679D01*
X31936348Y-48813680D01*
X31786431Y-48843500D01*
X31633569Y-48843500D01*
X31483652Y-48813680D01*
X31483650Y-48813679D01*
X31483649Y-48813679D01*
X31342426Y-48755183D01*
X31342423Y-48755181D01*
X31215331Y-48670261D01*
X31107239Y-48562169D01*
X31022318Y-48435075D01*
X31022317Y-48435074D01*
X31001481Y-48384772D01*
X30989932Y-48363164D01*
X30974386Y-48344222D01*
X30955444Y-48328677D01*
X30933834Y-48317126D01*
X30910385Y-48310013D01*
X30885999Y-48307611D01*
X30861613Y-48310013D01*
X30838164Y-48317126D01*
X30816553Y-48328677D01*
X30797611Y-48344223D01*
X30782066Y-48363165D01*
X30770515Y-48384775D01*
X30763402Y-48408224D01*
X30761000Y-48432610D01*
X30761000Y-48793500D01*
X27659000Y-48793500D01*
X27659000Y-48432610D01*
X27656598Y-48408224D01*
X27649485Y-48384775D01*
X27637934Y-48363164D01*
X27622389Y-48344222D01*
X27603447Y-48328677D01*
X27581836Y-48317126D01*
X27558387Y-48310013D01*
X27534001Y-48307611D01*
X27509615Y-48310013D01*
X27486166Y-48317126D01*
X27464555Y-48328677D01*
X27445613Y-48344222D01*
X27430068Y-48363164D01*
X27418519Y-48384772D01*
X27397683Y-48435074D01*
X27397682Y-48435075D01*
X27312761Y-48562169D01*
X27204669Y-48670261D01*
X27077577Y-48755181D01*
X27077574Y-48755183D01*
X26936351Y-48813679D01*
X26936350Y-48813679D01*
X26936348Y-48813680D01*
X26786431Y-48843500D01*
X26633569Y-48843500D01*
X26483652Y-48813680D01*
X26483650Y-48813679D01*
X26483649Y-48813679D01*
X26342426Y-48755183D01*
X26342423Y-48755181D01*
X26215331Y-48670261D01*
X26107239Y-48562169D01*
X26022319Y-48435077D01*
X26022318Y-48435075D01*
X26022317Y-48435074D01*
X25963821Y-48293851D01*
X25934000Y-48143929D01*
X25934000Y-47991071D01*
X25963821Y-47841149D01*
X26022317Y-47699926D01*
X26068916Y-47630186D01*
X26107239Y-47572831D01*
X26215331Y-47464739D01*
X26342423Y-47379819D01*
X26342426Y-47379817D01*
X26483649Y-47321321D01*
X26483650Y-47321321D01*
X26483652Y-47321320D01*
X26633569Y-47291500D01*
X26786431Y-47291500D01*
X26936348Y-47321320D01*
X26936348Y-47321320D01*
G37*
G36*
X22970442Y-46095518D02*
G01*
X23036627Y-46102037D01*
X23206466Y-46153557D01*
X23362991Y-46237222D01*
X23398729Y-46266552D01*
X23500186Y-46349814D01*
X23583448Y-46451271D01*
X23612778Y-46487009D01*
X23696443Y-46643534D01*
X23747963Y-46813373D01*
X23765359Y-46990000D01*
X23747963Y-47166627D01*
X23696443Y-47336466D01*
X23612778Y-47492991D01*
X23583448Y-47528729D01*
X23500186Y-47630186D01*
X23415206Y-47699926D01*
X23362991Y-47742778D01*
X23206466Y-47826443D01*
X23036627Y-47877963D01*
X22970443Y-47884481D01*
X22904260Y-47891000D01*
X22815740Y-47891000D01*
X22749557Y-47884481D01*
X22683373Y-47877963D01*
X22513534Y-47826443D01*
X22357009Y-47742778D01*
X22304794Y-47699926D01*
X22219814Y-47630186D01*
X22136552Y-47528729D01*
X22107222Y-47492991D01*
X22023557Y-47336466D01*
X21972037Y-47166627D01*
X21954641Y-46990000D01*
X21972037Y-46813373D01*
X22023557Y-46643534D01*
X22107222Y-46487009D01*
X22136552Y-46451271D01*
X22219814Y-46349814D01*
X22321271Y-46266552D01*
X22357009Y-46237222D01*
X22513534Y-46153557D01*
X22683373Y-46102037D01*
X22749558Y-46095518D01*
X22815740Y-46089000D01*
X22904260Y-46089000D01*
X22970442Y-46095518D01*
X22970442Y-46095518D01*
G37*
G36*
X35670442Y-46095518D02*
G01*
X35736627Y-46102037D01*
X35906466Y-46153557D01*
X36062991Y-46237222D01*
X36098729Y-46266552D01*
X36200186Y-46349814D01*
X36283448Y-46451271D01*
X36312778Y-46487009D01*
X36396443Y-46643534D01*
X36447963Y-46813373D01*
X36465359Y-46990000D01*
X36447963Y-47166627D01*
X36396443Y-47336466D01*
X36312778Y-47492991D01*
X36283448Y-47528729D01*
X36200186Y-47630186D01*
X36115206Y-47699926D01*
X36062991Y-47742778D01*
X35906466Y-47826443D01*
X35736627Y-47877963D01*
X35670443Y-47884481D01*
X35604260Y-47891000D01*
X35515740Y-47891000D01*
X35449557Y-47884481D01*
X35383373Y-47877963D01*
X35213534Y-47826443D01*
X35057009Y-47742778D01*
X35004794Y-47699926D01*
X34919814Y-47630186D01*
X34836552Y-47528729D01*
X34807222Y-47492991D01*
X34723557Y-47336466D01*
X34672037Y-47166627D01*
X34654641Y-46990000D01*
X34672037Y-46813373D01*
X34723557Y-46643534D01*
X34807222Y-46487009D01*
X34836552Y-46451271D01*
X34919814Y-46349814D01*
X35021271Y-46266552D01*
X35057009Y-46237222D01*
X35213534Y-46153557D01*
X35383373Y-46102037D01*
X35449558Y-46095518D01*
X35515740Y-46089000D01*
X35604260Y-46089000D01*
X35670442Y-46095518D01*
X35670442Y-46095518D01*
G37*
G36*
X22970443Y-43555519D02*
G01*
X23036627Y-43562037D01*
X23206466Y-43613557D01*
X23362991Y-43697222D01*
X23398729Y-43726552D01*
X23500186Y-43809814D01*
X23583448Y-43911271D01*
X23612778Y-43947009D01*
X23696443Y-44103534D01*
X23747963Y-44273373D01*
X23765359Y-44450000D01*
X23747963Y-44626627D01*
X23696443Y-44796466D01*
X23612778Y-44952991D01*
X23583448Y-44988729D01*
X23500186Y-45090186D01*
X23411292Y-45163138D01*
X23362991Y-45202778D01*
X23206466Y-45286443D01*
X23036627Y-45337963D01*
X22970442Y-45344482D01*
X22904260Y-45351000D01*
X22815740Y-45351000D01*
X22749558Y-45344482D01*
X22683373Y-45337963D01*
X22513534Y-45286443D01*
X22357009Y-45202778D01*
X22308708Y-45163138D01*
X22219814Y-45090186D01*
X22136552Y-44988729D01*
X22107222Y-44952991D01*
X22023557Y-44796466D01*
X21972037Y-44626627D01*
X21954641Y-44450000D01*
X21972037Y-44273373D01*
X22023557Y-44103534D01*
X22107222Y-43947009D01*
X22136552Y-43911271D01*
X22219814Y-43809814D01*
X22321271Y-43726552D01*
X22357009Y-43697222D01*
X22513534Y-43613557D01*
X22683373Y-43562037D01*
X22749557Y-43555519D01*
X22815740Y-43549000D01*
X22904260Y-43549000D01*
X22970443Y-43555519D01*
X22970443Y-43555519D01*
G37*
G36*
X35670443Y-43555519D02*
G01*
X35736627Y-43562037D01*
X35906466Y-43613557D01*
X36062991Y-43697222D01*
X36098729Y-43726552D01*
X36200186Y-43809814D01*
X36283448Y-43911271D01*
X36312778Y-43947009D01*
X36396443Y-44103534D01*
X36447963Y-44273373D01*
X36465359Y-44450000D01*
X36447963Y-44626627D01*
X36396443Y-44796466D01*
X36312778Y-44952991D01*
X36283448Y-44988729D01*
X36200186Y-45090186D01*
X36111292Y-45163138D01*
X36062991Y-45202778D01*
X35906466Y-45286443D01*
X35736627Y-45337963D01*
X35670442Y-45344482D01*
X35604260Y-45351000D01*
X35515740Y-45351000D01*
X35449558Y-45344482D01*
X35383373Y-45337963D01*
X35213534Y-45286443D01*
X35057009Y-45202778D01*
X35008708Y-45163138D01*
X34919814Y-45090186D01*
X34836552Y-44988729D01*
X34807222Y-44952991D01*
X34723557Y-44796466D01*
X34672037Y-44626627D01*
X34654641Y-44450000D01*
X34672037Y-44273373D01*
X34723557Y-44103534D01*
X34807222Y-43947009D01*
X34836552Y-43911271D01*
X34919814Y-43809814D01*
X35021271Y-43726552D01*
X35057009Y-43697222D01*
X35213534Y-43613557D01*
X35383373Y-43562037D01*
X35449557Y-43555519D01*
X35515740Y-43549000D01*
X35604260Y-43549000D01*
X35670443Y-43555519D01*
X35670443Y-43555519D01*
G37*
G36*
X30937468Y-44218565D02*
G01*
X30976138Y-44230296D01*
X31011777Y-44249346D01*
X31043017Y-44274983D01*
X31068654Y-44306223D01*
X31087704Y-44341862D01*
X31099435Y-44380532D01*
X31104000Y-44426888D01*
X31104000Y-45078112D01*
X31099435Y-45124468D01*
X31087704Y-45163138D01*
X31068654Y-45198777D01*
X31043017Y-45230017D01*
X31011777Y-45255654D01*
X30976138Y-45274704D01*
X30937468Y-45286435D01*
X30891112Y-45291000D01*
X29814888Y-45291000D01*
X29768532Y-45286435D01*
X29729862Y-45274704D01*
X29694223Y-45255654D01*
X29662983Y-45230017D01*
X29637346Y-45198777D01*
X29618296Y-45163138D01*
X29606565Y-45124468D01*
X29602000Y-45078112D01*
X29602000Y-44426888D01*
X29606565Y-44380532D01*
X29618296Y-44341862D01*
X29637346Y-44306223D01*
X29662983Y-44274983D01*
X29694223Y-44249346D01*
X29729862Y-44230296D01*
X29768532Y-44218565D01*
X29814888Y-44214000D01*
X30891112Y-44214000D01*
X30937468Y-44218565D01*
X30937468Y-44218565D01*
G37*
G36*
X27254468Y-44218565D02*
G01*
X27293138Y-44230296D01*
X27328777Y-44249346D01*
X27360017Y-44274983D01*
X27385654Y-44306223D01*
X27404704Y-44341862D01*
X27416435Y-44380532D01*
X27421000Y-44426888D01*
X27421000Y-45078112D01*
X27416435Y-45124468D01*
X27404704Y-45163138D01*
X27385654Y-45198777D01*
X27360017Y-45230017D01*
X27328777Y-45255654D01*
X27293138Y-45274704D01*
X27254468Y-45286435D01*
X27208112Y-45291000D01*
X26131888Y-45291000D01*
X26085532Y-45286435D01*
X26046862Y-45274704D01*
X26011223Y-45255654D01*
X25979983Y-45230017D01*
X25954346Y-45198777D01*
X25935296Y-45163138D01*
X25923565Y-45124468D01*
X25919000Y-45078112D01*
X25919000Y-44426888D01*
X25923565Y-44380532D01*
X25935296Y-44341862D01*
X25954346Y-44306223D01*
X25979983Y-44274983D01*
X26011223Y-44249346D01*
X26046862Y-44230296D01*
X26085532Y-44218565D01*
X26131888Y-44214000D01*
X27208112Y-44214000D01*
X27254468Y-44218565D01*
X27254468Y-44218565D01*
G37*
G36*
X32969468Y-44218565D02*
G01*
X33008138Y-44230296D01*
X33043777Y-44249346D01*
X33075017Y-44274983D01*
X33100654Y-44306223D01*
X33119704Y-44341862D01*
X33131435Y-44380532D01*
X33136000Y-44426888D01*
X33136000Y-45078112D01*
X33131435Y-45124468D01*
X33119704Y-45163138D01*
X33100654Y-45198777D01*
X33075017Y-45230017D01*
X33043777Y-45255654D01*
X33008138Y-45274704D01*
X32969468Y-45286435D01*
X32923112Y-45291000D01*
X31846888Y-45291000D01*
X31800532Y-45286435D01*
X31761862Y-45274704D01*
X31726223Y-45255654D01*
X31694983Y-45230017D01*
X31669346Y-45198777D01*
X31650296Y-45163138D01*
X31638565Y-45124468D01*
X31634000Y-45078112D01*
X31634000Y-44426888D01*
X31638565Y-44380532D01*
X31650296Y-44341862D01*
X31669346Y-44306223D01*
X31694983Y-44274983D01*
X31726223Y-44249346D01*
X31761862Y-44230296D01*
X31800532Y-44218565D01*
X31846888Y-44214000D01*
X32923112Y-44214000D01*
X32969468Y-44218565D01*
X32969468Y-44218565D01*
G37*
G36*
X32969468Y-42343565D02*
G01*
X33008138Y-42355296D01*
X33043777Y-42374346D01*
X33075017Y-42399983D01*
X33100654Y-42431223D01*
X33119704Y-42466862D01*
X33131435Y-42505532D01*
X33136000Y-42551888D01*
X33136000Y-43203112D01*
X33131435Y-43249468D01*
X33119704Y-43288138D01*
X33100654Y-43323777D01*
X33075017Y-43355017D01*
X33043777Y-43380654D01*
X33008138Y-43399704D01*
X32969468Y-43411435D01*
X32923112Y-43416000D01*
X31846888Y-43416000D01*
X31800532Y-43411435D01*
X31761862Y-43399704D01*
X31726223Y-43380654D01*
X31694983Y-43355017D01*
X31669346Y-43323777D01*
X31650296Y-43288138D01*
X31638565Y-43249468D01*
X31634000Y-43203112D01*
X31634000Y-42551888D01*
X31638565Y-42505532D01*
X31650296Y-42466862D01*
X31669346Y-42431223D01*
X31694983Y-42399983D01*
X31726223Y-42374346D01*
X31761862Y-42355296D01*
X31800532Y-42343565D01*
X31846888Y-42339000D01*
X32923112Y-42339000D01*
X32969468Y-42343565D01*
X32969468Y-42343565D01*
G37*
G36*
X30937468Y-42343565D02*
G01*
X30976138Y-42355296D01*
X31011777Y-42374346D01*
X31043017Y-42399983D01*
X31068654Y-42431223D01*
X31087704Y-42466862D01*
X31099435Y-42505532D01*
X31104000Y-42551888D01*
X31104000Y-43203112D01*
X31099435Y-43249468D01*
X31087704Y-43288138D01*
X31068654Y-43323777D01*
X31043017Y-43355017D01*
X31011777Y-43380654D01*
X30976138Y-43399704D01*
X30937468Y-43411435D01*
X30891112Y-43416000D01*
X29814888Y-43416000D01*
X29768532Y-43411435D01*
X29729862Y-43399704D01*
X29694223Y-43380654D01*
X29662983Y-43355017D01*
X29637346Y-43323777D01*
X29618296Y-43288138D01*
X29606565Y-43249468D01*
X29602000Y-43203112D01*
X29602000Y-42551888D01*
X29606565Y-42505532D01*
X29618296Y-42466862D01*
X29637346Y-42431223D01*
X29662983Y-42399983D01*
X29694223Y-42374346D01*
X29729862Y-42355296D01*
X29768532Y-42343565D01*
X29814888Y-42339000D01*
X30891112Y-42339000D01*
X30937468Y-42343565D01*
X30937468Y-42343565D01*
G37*
G36*
X27254468Y-42343565D02*
G01*
X27293138Y-42355296D01*
X27328777Y-42374346D01*
X27360017Y-42399983D01*
X27385654Y-42431223D01*
X27404704Y-42466862D01*
X27416435Y-42505532D01*
X27421000Y-42551888D01*
X27421000Y-43203112D01*
X27416435Y-43249468D01*
X27404704Y-43288138D01*
X27385654Y-43323777D01*
X27360017Y-43355017D01*
X27328777Y-43380654D01*
X27293138Y-43399704D01*
X27254468Y-43411435D01*
X27208112Y-43416000D01*
X26131888Y-43416000D01*
X26085532Y-43411435D01*
X26046862Y-43399704D01*
X26011223Y-43380654D01*
X25979983Y-43355017D01*
X25954346Y-43323777D01*
X25935296Y-43288138D01*
X25923565Y-43249468D01*
X25919000Y-43203112D01*
X25919000Y-42551888D01*
X25923565Y-42505532D01*
X25935296Y-42466862D01*
X25954346Y-42431223D01*
X25979983Y-42399983D01*
X26011223Y-42374346D01*
X26046862Y-42355296D01*
X26085532Y-42343565D01*
X26131888Y-42339000D01*
X27208112Y-42339000D01*
X27254468Y-42343565D01*
X27254468Y-42343565D01*
G37*
G36*
X35670442Y-41015518D02*
G01*
X35736627Y-41022037D01*
X35906466Y-41073557D01*
X36062991Y-41157222D01*
X36098729Y-41186552D01*
X36200186Y-41269814D01*
X36283448Y-41371271D01*
X36312778Y-41407009D01*
X36312779Y-41407011D01*
X36396009Y-41562721D01*
X36396443Y-41563534D01*
X36447963Y-41733373D01*
X36465359Y-41910000D01*
X36447963Y-42086627D01*
X36396443Y-42256466D01*
X36312778Y-42412991D01*
X36308781Y-42417861D01*
X36200186Y-42550186D01*
X36098729Y-42633448D01*
X36062991Y-42662778D01*
X35906466Y-42746443D01*
X35736627Y-42797963D01*
X35670443Y-42804481D01*
X35604260Y-42811000D01*
X35515740Y-42811000D01*
X35449557Y-42804481D01*
X35383373Y-42797963D01*
X35213534Y-42746443D01*
X35057009Y-42662778D01*
X35021271Y-42633448D01*
X34919814Y-42550186D01*
X34811219Y-42417861D01*
X34807222Y-42412991D01*
X34723557Y-42256466D01*
X34672037Y-42086627D01*
X34654641Y-41910000D01*
X34672037Y-41733373D01*
X34723557Y-41563534D01*
X34723992Y-41562721D01*
X34807221Y-41407011D01*
X34807222Y-41407009D01*
X34836552Y-41371271D01*
X34919814Y-41269814D01*
X35021271Y-41186552D01*
X35057009Y-41157222D01*
X35213534Y-41073557D01*
X35383373Y-41022037D01*
X35449558Y-41015518D01*
X35515740Y-41009000D01*
X35604260Y-41009000D01*
X35670442Y-41015518D01*
X35670442Y-41015518D01*
G37*
G36*
X22970442Y-41015518D02*
G01*
X23036627Y-41022037D01*
X23206466Y-41073557D01*
X23362991Y-41157222D01*
X23398729Y-41186552D01*
X23500186Y-41269814D01*
X23583448Y-41371271D01*
X23612778Y-41407009D01*
X23612779Y-41407011D01*
X23696009Y-41562721D01*
X23696443Y-41563534D01*
X23747963Y-41733373D01*
X23765359Y-41910000D01*
X23747963Y-42086627D01*
X23696443Y-42256466D01*
X23612778Y-42412991D01*
X23608781Y-42417861D01*
X23500186Y-42550186D01*
X23398729Y-42633448D01*
X23362991Y-42662778D01*
X23206466Y-42746443D01*
X23036627Y-42797963D01*
X22970443Y-42804481D01*
X22904260Y-42811000D01*
X22815740Y-42811000D01*
X22749557Y-42804481D01*
X22683373Y-42797963D01*
X22513534Y-42746443D01*
X22357009Y-42662778D01*
X22321271Y-42633448D01*
X22219814Y-42550186D01*
X22111219Y-42417861D01*
X22107222Y-42412991D01*
X22023557Y-42256466D01*
X21972037Y-42086627D01*
X21954641Y-41910000D01*
X21972037Y-41733373D01*
X22023557Y-41563534D01*
X22023992Y-41562721D01*
X22107221Y-41407011D01*
X22107222Y-41407009D01*
X22136552Y-41371271D01*
X22219814Y-41269814D01*
X22321271Y-41186552D01*
X22357009Y-41157222D01*
X22513534Y-41073557D01*
X22683373Y-41022037D01*
X22749558Y-41015518D01*
X22815740Y-41009000D01*
X22904260Y-41009000D01*
X22970442Y-41015518D01*
X22970442Y-41015518D01*
G37*
G36*
X25052721Y-40872174D02*
G01*
X25152995Y-40913709D01*
X25152996Y-40913710D01*
X25243242Y-40974010D01*
X25319990Y-41050758D01*
X25319991Y-41050760D01*
X25380291Y-41141005D01*
X25421826Y-41241279D01*
X25443000Y-41347730D01*
X25443000Y-41456270D01*
X25421826Y-41562721D01*
X25380291Y-41662995D01*
X25380290Y-41662996D01*
X25319990Y-41753242D01*
X25243242Y-41829990D01*
X25197812Y-41860345D01*
X25152995Y-41890291D01*
X25052721Y-41931826D01*
X24946270Y-41953000D01*
X24837730Y-41953000D01*
X24731279Y-41931826D01*
X24631005Y-41890291D01*
X24586188Y-41860345D01*
X24540758Y-41829990D01*
X24464010Y-41753242D01*
X24403710Y-41662996D01*
X24403709Y-41662995D01*
X24362174Y-41562721D01*
X24341000Y-41456270D01*
X24341000Y-41347730D01*
X24362174Y-41241279D01*
X24403709Y-41141005D01*
X24464009Y-41050760D01*
X24464010Y-41050758D01*
X24540758Y-40974010D01*
X24631004Y-40913710D01*
X24631005Y-40913709D01*
X24731279Y-40872174D01*
X24837730Y-40851000D01*
X24946270Y-40851000D01*
X25052721Y-40872174D01*
X25052721Y-40872174D01*
G37*
G36*
X22970443Y-38475519D02*
G01*
X23036627Y-38482037D01*
X23206466Y-38533557D01*
X23362991Y-38617222D01*
X23398729Y-38646552D01*
X23500186Y-38729814D01*
X23559016Y-38801500D01*
X23612778Y-38867009D01*
X23696443Y-39023534D01*
X23747963Y-39193373D01*
X23765359Y-39370000D01*
X23747963Y-39546627D01*
X23696443Y-39716466D01*
X23612778Y-39872991D01*
X23583448Y-39908729D01*
X23500186Y-40010186D01*
X23398729Y-40093448D01*
X23362991Y-40122778D01*
X23206466Y-40206443D01*
X23036627Y-40257963D01*
X22970443Y-40264481D01*
X22904260Y-40271000D01*
X22815740Y-40271000D01*
X22749557Y-40264481D01*
X22683373Y-40257963D01*
X22513534Y-40206443D01*
X22357009Y-40122778D01*
X22321271Y-40093448D01*
X22219814Y-40010186D01*
X22136552Y-39908729D01*
X22107222Y-39872991D01*
X22023557Y-39716466D01*
X21972037Y-39546627D01*
X21954641Y-39370000D01*
X21972037Y-39193373D01*
X22023557Y-39023534D01*
X22107222Y-38867009D01*
X22160984Y-38801500D01*
X22219814Y-38729814D01*
X22321271Y-38646552D01*
X22357009Y-38617222D01*
X22513534Y-38533557D01*
X22683373Y-38482037D01*
X22749557Y-38475519D01*
X22815740Y-38469000D01*
X22904260Y-38469000D01*
X22970443Y-38475519D01*
X22970443Y-38475519D01*
G37*
G36*
X35670443Y-38475519D02*
G01*
X35736627Y-38482037D01*
X35906466Y-38533557D01*
X36062991Y-38617222D01*
X36098729Y-38646552D01*
X36200186Y-38729814D01*
X36259016Y-38801500D01*
X36312778Y-38867009D01*
X36396443Y-39023534D01*
X36447963Y-39193373D01*
X36465359Y-39370000D01*
X36447963Y-39546627D01*
X36396443Y-39716466D01*
X36312778Y-39872991D01*
X36283448Y-39908729D01*
X36200186Y-40010186D01*
X36098729Y-40093448D01*
X36062991Y-40122778D01*
X35906466Y-40206443D01*
X35736627Y-40257963D01*
X35670443Y-40264481D01*
X35604260Y-40271000D01*
X35515740Y-40271000D01*
X35449557Y-40264481D01*
X35383373Y-40257963D01*
X35213534Y-40206443D01*
X35057009Y-40122778D01*
X35021271Y-40093448D01*
X34919814Y-40010186D01*
X34836552Y-39908729D01*
X34807222Y-39872991D01*
X34723557Y-39716466D01*
X34672037Y-39546627D01*
X34654641Y-39370000D01*
X34672037Y-39193373D01*
X34723557Y-39023534D01*
X34807222Y-38867009D01*
X34860984Y-38801500D01*
X34919814Y-38729814D01*
X35021271Y-38646552D01*
X35057009Y-38617222D01*
X35213534Y-38533557D01*
X35383373Y-38482037D01*
X35449557Y-38475519D01*
X35515740Y-38469000D01*
X35604260Y-38469000D01*
X35670443Y-38475519D01*
X35670443Y-38475519D01*
G37*
G36*
X27261000Y-39938500D02*
G01*
X25959000Y-39938500D01*
X25959000Y-33721500D01*
X27261000Y-33721500D01*
X27261000Y-39938500D01*
X27261000Y-39938500D01*
G37*
G36*
X32461000Y-39938500D02*
G01*
X31159000Y-39938500D01*
X31159000Y-33721500D01*
X32461000Y-33721500D01*
X32461000Y-39938500D01*
X32461000Y-39938500D01*
G37*
G36*
X22970442Y-35935518D02*
G01*
X23036627Y-35942037D01*
X23206466Y-35993557D01*
X23362991Y-36077222D01*
X23398729Y-36106552D01*
X23500186Y-36189814D01*
X23559016Y-36261500D01*
X23612778Y-36327009D01*
X23696443Y-36483534D01*
X23747963Y-36653373D01*
X23765359Y-36830000D01*
X23747963Y-37006627D01*
X23696443Y-37176466D01*
X23612778Y-37332991D01*
X23583448Y-37368729D01*
X23500186Y-37470186D01*
X23398729Y-37553448D01*
X23362991Y-37582778D01*
X23206466Y-37666443D01*
X23036627Y-37717963D01*
X22970443Y-37724481D01*
X22904260Y-37731000D01*
X22815740Y-37731000D01*
X22749557Y-37724481D01*
X22683373Y-37717963D01*
X22513534Y-37666443D01*
X22357009Y-37582778D01*
X22321271Y-37553448D01*
X22219814Y-37470186D01*
X22136552Y-37368729D01*
X22107222Y-37332991D01*
X22023557Y-37176466D01*
X21972037Y-37006627D01*
X21954641Y-36830000D01*
X21972037Y-36653373D01*
X22023557Y-36483534D01*
X22107222Y-36327009D01*
X22160984Y-36261500D01*
X22219814Y-36189814D01*
X22321271Y-36106552D01*
X22357009Y-36077222D01*
X22513534Y-35993557D01*
X22683373Y-35942037D01*
X22749558Y-35935518D01*
X22815740Y-35929000D01*
X22904260Y-35929000D01*
X22970442Y-35935518D01*
X22970442Y-35935518D01*
G37*
G36*
X35670442Y-35935518D02*
G01*
X35736627Y-35942037D01*
X35906466Y-35993557D01*
X36062991Y-36077222D01*
X36098729Y-36106552D01*
X36200186Y-36189814D01*
X36259016Y-36261500D01*
X36312778Y-36327009D01*
X36396443Y-36483534D01*
X36447963Y-36653373D01*
X36465359Y-36830000D01*
X36447963Y-37006627D01*
X36396443Y-37176466D01*
X36312778Y-37332991D01*
X36283448Y-37368729D01*
X36200186Y-37470186D01*
X36098729Y-37553448D01*
X36062991Y-37582778D01*
X35906466Y-37666443D01*
X35736627Y-37717963D01*
X35670443Y-37724481D01*
X35604260Y-37731000D01*
X35515740Y-37731000D01*
X35449557Y-37724481D01*
X35383373Y-37717963D01*
X35213534Y-37666443D01*
X35057009Y-37582778D01*
X35021271Y-37553448D01*
X34919814Y-37470186D01*
X34836552Y-37368729D01*
X34807222Y-37332991D01*
X34723557Y-37176466D01*
X34672037Y-37006627D01*
X34654641Y-36830000D01*
X34672037Y-36653373D01*
X34723557Y-36483534D01*
X34807222Y-36327009D01*
X34860984Y-36261500D01*
X34919814Y-36189814D01*
X35021271Y-36106552D01*
X35057009Y-36077222D01*
X35213534Y-35993557D01*
X35383373Y-35942037D01*
X35449558Y-35935518D01*
X35515740Y-35929000D01*
X35604260Y-35929000D01*
X35670442Y-35935518D01*
X35670442Y-35935518D01*
G37*
G36*
X35670442Y-33395518D02*
G01*
X35736627Y-33402037D01*
X35906466Y-33453557D01*
X36062991Y-33537222D01*
X36098729Y-33566552D01*
X36200186Y-33649814D01*
X36259016Y-33721500D01*
X36312778Y-33787009D01*
X36396443Y-33943534D01*
X36447963Y-34113373D01*
X36465359Y-34290000D01*
X36447963Y-34466627D01*
X36396443Y-34636466D01*
X36312778Y-34792991D01*
X36283448Y-34828729D01*
X36200186Y-34930186D01*
X36098729Y-35013448D01*
X36062991Y-35042778D01*
X35906466Y-35126443D01*
X35736627Y-35177963D01*
X35670442Y-35184482D01*
X35604260Y-35191000D01*
X35515740Y-35191000D01*
X35449558Y-35184482D01*
X35383373Y-35177963D01*
X35213534Y-35126443D01*
X35057009Y-35042778D01*
X35021271Y-35013448D01*
X34919814Y-34930186D01*
X34836552Y-34828729D01*
X34807222Y-34792991D01*
X34723557Y-34636466D01*
X34672037Y-34466627D01*
X34654641Y-34290000D01*
X34672037Y-34113373D01*
X34723557Y-33943534D01*
X34807222Y-33787009D01*
X34860984Y-33721500D01*
X34919814Y-33649814D01*
X35021271Y-33566552D01*
X35057009Y-33537222D01*
X35213534Y-33453557D01*
X35383373Y-33402037D01*
X35449558Y-33395518D01*
X35515740Y-33389000D01*
X35604260Y-33389000D01*
X35670442Y-33395518D01*
X35670442Y-33395518D01*
G37*
G36*
X22970442Y-33395518D02*
G01*
X23036627Y-33402037D01*
X23206466Y-33453557D01*
X23362991Y-33537222D01*
X23398729Y-33566552D01*
X23500186Y-33649814D01*
X23559016Y-33721500D01*
X23612778Y-33787009D01*
X23696443Y-33943534D01*
X23747963Y-34113373D01*
X23765359Y-34290000D01*
X23747963Y-34466627D01*
X23696443Y-34636466D01*
X23612778Y-34792991D01*
X23583448Y-34828729D01*
X23500186Y-34930186D01*
X23398729Y-35013448D01*
X23362991Y-35042778D01*
X23206466Y-35126443D01*
X23036627Y-35177963D01*
X22970442Y-35184482D01*
X22904260Y-35191000D01*
X22815740Y-35191000D01*
X22749558Y-35184482D01*
X22683373Y-35177963D01*
X22513534Y-35126443D01*
X22357009Y-35042778D01*
X22321271Y-35013448D01*
X22219814Y-34930186D01*
X22136552Y-34828729D01*
X22107222Y-34792991D01*
X22023557Y-34636466D01*
X21972037Y-34466627D01*
X21954641Y-34290000D01*
X21972037Y-34113373D01*
X22023557Y-33943534D01*
X22107222Y-33787009D01*
X22160984Y-33721500D01*
X22219814Y-33649814D01*
X22321271Y-33566552D01*
X22357009Y-33537222D01*
X22513534Y-33453557D01*
X22683373Y-33402037D01*
X22749558Y-33395518D01*
X22815740Y-33389000D01*
X22904260Y-33389000D01*
X22970442Y-33395518D01*
X22970442Y-33395518D01*
G37*
G36*
X36461000Y-32651000D02*
G01*
X34659000Y-32651000D01*
X34659000Y-30849000D01*
X36461000Y-30849000D01*
X36461000Y-32651000D01*
X36461000Y-32651000D01*
G37*
G36*
X23761000Y-32651000D02*
G01*
X21959000Y-32651000D01*
X21959000Y-30849000D01*
X23761000Y-30849000D01*
X23761000Y-32651000D01*
X23761000Y-32651000D01*
G37*
G36*
X30519468Y-30368565D02*
G01*
X30558138Y-30380296D01*
X30593777Y-30399346D01*
X30625017Y-30424983D01*
X30650654Y-30456223D01*
X30669704Y-30491862D01*
X30681435Y-30530532D01*
X30686000Y-30576888D01*
X30686000Y-31653112D01*
X30681435Y-31699468D01*
X30669704Y-31738138D01*
X30650654Y-31773777D01*
X30625017Y-31805017D01*
X30593777Y-31830654D01*
X30558138Y-31849704D01*
X30519468Y-31861435D01*
X30473112Y-31866000D01*
X29821888Y-31866000D01*
X29775532Y-31861435D01*
X29736862Y-31849704D01*
X29701223Y-31830654D01*
X29669983Y-31805017D01*
X29644346Y-31773777D01*
X29625296Y-31738138D01*
X29613565Y-31699468D01*
X29609000Y-31653112D01*
X29609000Y-30576888D01*
X29613565Y-30530532D01*
X29625296Y-30491862D01*
X29644346Y-30456223D01*
X29669983Y-30424983D01*
X29701223Y-30399346D01*
X29736862Y-30380296D01*
X29775532Y-30368565D01*
X29821888Y-30364000D01*
X30473112Y-30364000D01*
X30519468Y-30368565D01*
X30519468Y-30368565D01*
G37*
G36*
X28644468Y-30368565D02*
G01*
X28683138Y-30380296D01*
X28718777Y-30399346D01*
X28750017Y-30424983D01*
X28775654Y-30456223D01*
X28794704Y-30491862D01*
X28806435Y-30530532D01*
X28811000Y-30576888D01*
X28811000Y-31653112D01*
X28806435Y-31699468D01*
X28794704Y-31738138D01*
X28775654Y-31773777D01*
X28750017Y-31805017D01*
X28718777Y-31830654D01*
X28683138Y-31849704D01*
X28644468Y-31861435D01*
X28598112Y-31866000D01*
X27946888Y-31866000D01*
X27900532Y-31861435D01*
X27861862Y-31849704D01*
X27826223Y-31830654D01*
X27794983Y-31805017D01*
X27769346Y-31773777D01*
X27750296Y-31738138D01*
X27738565Y-31699468D01*
X27734000Y-31653112D01*
X27734000Y-30576888D01*
X27738565Y-30530532D01*
X27750296Y-30491862D01*
X27769346Y-30456223D01*
X27794983Y-30424983D01*
X27826223Y-30399346D01*
X27861862Y-30380296D01*
X27900532Y-30368565D01*
X27946888Y-30364000D01*
X28598112Y-30364000D01*
X28644468Y-30368565D01*
X28644468Y-30368565D01*
G37*
G36*
X30590443Y-27045519D02*
G01*
X30656627Y-27052037D01*
X30826466Y-27103557D01*
X30982991Y-27187222D01*
X31018729Y-27216552D01*
X31120186Y-27299814D01*
X31203448Y-27401271D01*
X31232778Y-27437009D01*
X31316443Y-27593534D01*
X31367963Y-27763373D01*
X31385359Y-27940000D01*
X31367963Y-28116627D01*
X31316443Y-28286466D01*
X31232778Y-28442991D01*
X31203448Y-28478729D01*
X31120186Y-28580186D01*
X31018729Y-28663448D01*
X30982991Y-28692778D01*
X30826466Y-28776443D01*
X30656627Y-28827963D01*
X30590442Y-28834482D01*
X30524260Y-28841000D01*
X30435740Y-28841000D01*
X30369558Y-28834482D01*
X30303373Y-28827963D01*
X30133534Y-28776443D01*
X29977009Y-28692778D01*
X29941271Y-28663448D01*
X29839814Y-28580186D01*
X29756552Y-28478729D01*
X29727222Y-28442991D01*
X29643557Y-28286466D01*
X29592037Y-28116627D01*
X29574641Y-27940000D01*
X29592037Y-27763373D01*
X29643557Y-27593534D01*
X29727222Y-27437009D01*
X29756552Y-27401271D01*
X29839814Y-27299814D01*
X29941271Y-27216552D01*
X29977009Y-27187222D01*
X30133534Y-27103557D01*
X30303373Y-27052037D01*
X30369557Y-27045519D01*
X30435740Y-27039000D01*
X30524260Y-27039000D01*
X30590443Y-27045519D01*
X30590443Y-27045519D01*
G37*
G36*
X28050443Y-27045519D02*
G01*
X28116627Y-27052037D01*
X28286466Y-27103557D01*
X28442991Y-27187222D01*
X28478729Y-27216552D01*
X28580186Y-27299814D01*
X28663448Y-27401271D01*
X28692778Y-27437009D01*
X28776443Y-27593534D01*
X28827963Y-27763373D01*
X28845359Y-27940000D01*
X28827963Y-28116627D01*
X28776443Y-28286466D01*
X28692778Y-28442991D01*
X28663448Y-28478729D01*
X28580186Y-28580186D01*
X28478729Y-28663448D01*
X28442991Y-28692778D01*
X28286466Y-28776443D01*
X28116627Y-28827963D01*
X28050442Y-28834482D01*
X27984260Y-28841000D01*
X27895740Y-28841000D01*
X27829558Y-28834482D01*
X27763373Y-28827963D01*
X27593534Y-28776443D01*
X27437009Y-28692778D01*
X27401271Y-28663448D01*
X27299814Y-28580186D01*
X27216552Y-28478729D01*
X27187222Y-28442991D01*
X27103557Y-28286466D01*
X27052037Y-28116627D01*
X27034641Y-27940000D01*
X27052037Y-27763373D01*
X27103557Y-27593534D01*
X27187222Y-27437009D01*
X27216552Y-27401271D01*
X27299814Y-27299814D01*
X27401271Y-27216552D01*
X27437009Y-27187222D01*
X27593534Y-27103557D01*
X27763373Y-27052037D01*
X27829557Y-27045519D01*
X27895740Y-27039000D01*
X27984260Y-27039000D01*
X28050443Y-27045519D01*
X28050443Y-27045519D01*
G37*
G36*
X25510443Y-27045519D02*
G01*
X25576627Y-27052037D01*
X25746466Y-27103557D01*
X25902991Y-27187222D01*
X25938729Y-27216552D01*
X26040186Y-27299814D01*
X26123448Y-27401271D01*
X26152778Y-27437009D01*
X26236443Y-27593534D01*
X26287963Y-27763373D01*
X26305359Y-27940000D01*
X26287963Y-28116627D01*
X26236443Y-28286466D01*
X26152778Y-28442991D01*
X26123448Y-28478729D01*
X26040186Y-28580186D01*
X25938729Y-28663448D01*
X25902991Y-28692778D01*
X25746466Y-28776443D01*
X25576627Y-28827963D01*
X25510442Y-28834482D01*
X25444260Y-28841000D01*
X25355740Y-28841000D01*
X25289558Y-28834482D01*
X25223373Y-28827963D01*
X25053534Y-28776443D01*
X24897009Y-28692778D01*
X24861271Y-28663448D01*
X24759814Y-28580186D01*
X24676552Y-28478729D01*
X24647222Y-28442991D01*
X24563557Y-28286466D01*
X24512037Y-28116627D01*
X24494641Y-27940000D01*
X24512037Y-27763373D01*
X24563557Y-27593534D01*
X24647222Y-27437009D01*
X24676552Y-27401271D01*
X24759814Y-27299814D01*
X24861271Y-27216552D01*
X24897009Y-27187222D01*
X25053534Y-27103557D01*
X25223373Y-27052037D01*
X25289557Y-27045519D01*
X25355740Y-27039000D01*
X25444260Y-27039000D01*
X25510443Y-27045519D01*
X25510443Y-27045519D01*
G37*
G36*
X23761000Y-28841000D02*
G01*
X21959000Y-28841000D01*
X21959000Y-27039000D01*
X23761000Y-27039000D01*
X23761000Y-28841000D01*
X23761000Y-28841000D01*
G37*
G36*
X33130443Y-27045519D02*
G01*
X33196627Y-27052037D01*
X33366466Y-27103557D01*
X33522991Y-27187222D01*
X33558729Y-27216552D01*
X33660186Y-27299814D01*
X33743448Y-27401271D01*
X33772778Y-27437009D01*
X33856443Y-27593534D01*
X33907963Y-27763373D01*
X33925359Y-27940000D01*
X33907963Y-28116627D01*
X33856443Y-28286466D01*
X33772778Y-28442991D01*
X33743448Y-28478729D01*
X33660186Y-28580186D01*
X33558729Y-28663448D01*
X33522991Y-28692778D01*
X33366466Y-28776443D01*
X33196627Y-28827963D01*
X33130442Y-28834482D01*
X33064260Y-28841000D01*
X32975740Y-28841000D01*
X32909558Y-28834482D01*
X32843373Y-28827963D01*
X32673534Y-28776443D01*
X32517009Y-28692778D01*
X32481271Y-28663448D01*
X32379814Y-28580186D01*
X32296552Y-28478729D01*
X32267222Y-28442991D01*
X32183557Y-28286466D01*
X32132037Y-28116627D01*
X32114641Y-27940000D01*
X32132037Y-27763373D01*
X32183557Y-27593534D01*
X32267222Y-27437009D01*
X32296552Y-27401271D01*
X32379814Y-27299814D01*
X32481271Y-27216552D01*
X32517009Y-27187222D01*
X32673534Y-27103557D01*
X32843373Y-27052037D01*
X32909557Y-27045519D01*
X32975740Y-27039000D01*
X33064260Y-27039000D01*
X33130443Y-27045519D01*
X33130443Y-27045519D01*
G37*
G36*
X35670443Y-27045519D02*
G01*
X35736627Y-27052037D01*
X35906466Y-27103557D01*
X36062991Y-27187222D01*
X36098729Y-27216552D01*
X36200186Y-27299814D01*
X36283448Y-27401271D01*
X36312778Y-27437009D01*
X36396443Y-27593534D01*
X36447963Y-27763373D01*
X36465359Y-27940000D01*
X36447963Y-28116627D01*
X36396443Y-28286466D01*
X36312778Y-28442991D01*
X36283448Y-28478729D01*
X36200186Y-28580186D01*
X36098729Y-28663448D01*
X36062991Y-28692778D01*
X35906466Y-28776443D01*
X35736627Y-28827963D01*
X35670442Y-28834482D01*
X35604260Y-28841000D01*
X35515740Y-28841000D01*
X35449558Y-28834482D01*
X35383373Y-28827963D01*
X35213534Y-28776443D01*
X35057009Y-28692778D01*
X35021271Y-28663448D01*
X34919814Y-28580186D01*
X34836552Y-28478729D01*
X34807222Y-28442991D01*
X34723557Y-28286466D01*
X34672037Y-28116627D01*
X34654641Y-27940000D01*
X34672037Y-27763373D01*
X34723557Y-27593534D01*
X34807222Y-27437009D01*
X34836552Y-27401271D01*
X34919814Y-27299814D01*
X35021271Y-27216552D01*
X35057009Y-27187222D01*
X35213534Y-27103557D01*
X35383373Y-27052037D01*
X35449557Y-27045519D01*
X35515740Y-27039000D01*
X35604260Y-27039000D01*
X35670443Y-27045519D01*
X35670443Y-27045519D01*
G37*
M02*
