G04 #@! TF.GenerationSoftware,KiCad,Pcbnew,(5.1.4)-1*
G04 #@! TF.CreationDate,2020-11-09T21:53:22-05:00*
G04 #@! TF.ProjectId,ft221x,66743232-3178-42e6-9b69-6361645f7063,2020-02*
G04 #@! TF.SameCoordinates,Original*
G04 #@! TF.FileFunction,Copper,L2,Bot*
G04 #@! TF.FilePolarity,Positive*
%FSLAX46Y46*%
G04 Gerber Fmt 4.6, Leading zero omitted, Abs format (unit mm)*
G04 Created by KiCad (PCBNEW (5.1.4)-1) date 2020-11-09 21:53:22*
%MOMM*%
%LPD*%
G04 APERTURE LIST*
%ADD10C,0.010000*%
%ADD11C,0.100000*%
%ADD12O,1.700000X1.700000*%
%ADD13R,1.700000X1.700000*%
%ADD14C,1.000000*%
%ADD15C,0.500000*%
%ADD16O,1.200000X1.900000*%
%ADD17C,1.450000*%
%ADD18C,0.800000*%
%ADD19C,0.304800*%
%ADD20C,0.101600*%
G04 APERTURE END LIST*
D10*
G36*
X29924186Y-41537931D02*
G01*
X29840365Y-41982555D01*
X29531080Y-42110053D01*
X29221794Y-42237551D01*
X28850754Y-41985246D01*
X28746843Y-41914996D01*
X28652913Y-41852272D01*
X28573348Y-41799938D01*
X28512530Y-41760857D01*
X28474843Y-41737893D01*
X28464579Y-41732942D01*
X28446090Y-41745676D01*
X28406580Y-41780882D01*
X28350478Y-41834062D01*
X28282213Y-41900718D01*
X28206214Y-41976354D01*
X28126908Y-42056472D01*
X28048725Y-42136574D01*
X27976093Y-42212164D01*
X27913441Y-42278745D01*
X27865197Y-42331818D01*
X27835790Y-42366887D01*
X27828759Y-42378623D01*
X27838877Y-42400260D01*
X27867241Y-42447662D01*
X27910871Y-42516193D01*
X27966782Y-42601215D01*
X28031994Y-42698093D01*
X28069781Y-42753350D01*
X28138657Y-42854248D01*
X28199860Y-42945299D01*
X28250422Y-43021970D01*
X28287372Y-43079728D01*
X28307742Y-43114043D01*
X28310803Y-43121254D01*
X28303864Y-43141748D01*
X28284949Y-43189513D01*
X28256913Y-43257832D01*
X28222609Y-43339989D01*
X28184891Y-43429270D01*
X28146613Y-43518958D01*
X28110630Y-43602338D01*
X28079794Y-43672694D01*
X28056961Y-43723310D01*
X28044983Y-43747471D01*
X28044276Y-43748422D01*
X28025469Y-43753036D01*
X27975382Y-43763328D01*
X27899207Y-43778287D01*
X27802135Y-43796901D01*
X27689357Y-43818159D01*
X27623558Y-43830418D01*
X27503050Y-43853362D01*
X27394203Y-43875195D01*
X27302524Y-43894722D01*
X27233519Y-43910748D01*
X27192696Y-43922079D01*
X27184489Y-43925674D01*
X27176452Y-43950006D01*
X27169967Y-44004959D01*
X27165030Y-44084108D01*
X27161636Y-44181026D01*
X27159782Y-44289287D01*
X27159462Y-44402465D01*
X27160673Y-44514135D01*
X27163410Y-44617868D01*
X27167669Y-44707241D01*
X27173445Y-44775826D01*
X27180733Y-44817197D01*
X27185105Y-44825810D01*
X27211236Y-44836133D01*
X27266607Y-44850892D01*
X27343893Y-44868352D01*
X27435770Y-44886780D01*
X27467842Y-44892741D01*
X27622476Y-44921066D01*
X27744625Y-44943876D01*
X27838327Y-44962080D01*
X27907616Y-44976583D01*
X27956529Y-44988292D01*
X27989103Y-44998115D01*
X28009372Y-45006956D01*
X28021374Y-45015724D01*
X28023053Y-45017457D01*
X28039816Y-45045371D01*
X28065386Y-45099695D01*
X28097212Y-45173777D01*
X28132740Y-45260965D01*
X28169417Y-45354608D01*
X28204689Y-45448052D01*
X28236004Y-45534647D01*
X28260807Y-45607740D01*
X28276546Y-45660678D01*
X28280668Y-45686811D01*
X28280324Y-45687726D01*
X28266359Y-45709086D01*
X28234678Y-45756084D01*
X28188609Y-45823827D01*
X28131482Y-45907423D01*
X28066627Y-46001982D01*
X28048157Y-46028854D01*
X27982301Y-46126275D01*
X27924350Y-46215163D01*
X27877462Y-46290412D01*
X27844793Y-46346920D01*
X27829500Y-46379581D01*
X27828759Y-46383593D01*
X27841608Y-46404684D01*
X27877112Y-46446464D01*
X27930707Y-46504445D01*
X27997829Y-46574135D01*
X28073913Y-46651045D01*
X28154396Y-46730683D01*
X28234713Y-46808561D01*
X28310301Y-46880186D01*
X28376595Y-46941070D01*
X28429031Y-46986721D01*
X28463045Y-47012650D01*
X28472455Y-47016883D01*
X28494357Y-47006912D01*
X28539200Y-46980020D01*
X28599679Y-46940736D01*
X28646211Y-46909117D01*
X28730525Y-46851098D01*
X28830374Y-46782784D01*
X28930527Y-46714579D01*
X28984373Y-46678075D01*
X29166629Y-46554800D01*
X29319619Y-46637520D01*
X29389318Y-46673759D01*
X29448586Y-46701926D01*
X29488689Y-46717991D01*
X29498897Y-46720226D01*
X29511171Y-46703722D01*
X29535387Y-46657082D01*
X29569737Y-46584609D01*
X29612412Y-46490606D01*
X29661606Y-46379374D01*
X29715510Y-46255215D01*
X29772316Y-46122432D01*
X29830218Y-45985327D01*
X29887407Y-45848202D01*
X29942076Y-45715358D01*
X29992416Y-45591098D01*
X30036620Y-45479725D01*
X30072881Y-45385539D01*
X30099391Y-45312844D01*
X30114342Y-45265941D01*
X30116746Y-45249833D01*
X30097689Y-45229286D01*
X30055964Y-45195933D01*
X30000294Y-45156702D01*
X29995622Y-45153599D01*
X29851736Y-45038423D01*
X29735717Y-44904053D01*
X29648570Y-44754784D01*
X29591301Y-44594913D01*
X29564914Y-44428737D01*
X29570415Y-44260552D01*
X29608810Y-44094655D01*
X29681105Y-43935342D01*
X29702374Y-43900487D01*
X29813004Y-43759737D01*
X29943698Y-43646714D01*
X30089936Y-43562003D01*
X30247192Y-43506194D01*
X30410943Y-43479874D01*
X30576667Y-43483630D01*
X30739838Y-43518050D01*
X30895935Y-43583723D01*
X31040433Y-43681235D01*
X31085131Y-43720813D01*
X31198888Y-43844703D01*
X31281782Y-43975124D01*
X31338644Y-44121315D01*
X31370313Y-44266088D01*
X31378131Y-44428860D01*
X31352062Y-44592440D01*
X31294755Y-44751298D01*
X31208856Y-44899906D01*
X31097014Y-45032735D01*
X30961877Y-45144256D01*
X30944117Y-45156011D01*
X30887850Y-45194508D01*
X30845077Y-45227863D01*
X30824628Y-45249160D01*
X30824331Y-45249833D01*
X30828721Y-45272871D01*
X30846124Y-45325157D01*
X30874732Y-45402390D01*
X30912735Y-45500268D01*
X30958326Y-45614491D01*
X31009697Y-45740758D01*
X31065038Y-45874767D01*
X31122542Y-46012218D01*
X31180399Y-46148808D01*
X31236802Y-46280237D01*
X31289942Y-46402205D01*
X31338010Y-46510409D01*
X31379199Y-46600549D01*
X31411699Y-46668323D01*
X31433703Y-46709430D01*
X31442564Y-46720226D01*
X31469640Y-46711819D01*
X31520303Y-46689272D01*
X31585817Y-46656613D01*
X31621841Y-46637520D01*
X31774832Y-46554800D01*
X31957088Y-46678075D01*
X32050125Y-46741228D01*
X32151985Y-46810727D01*
X32247438Y-46876165D01*
X32295250Y-46909117D01*
X32362495Y-46954273D01*
X32419436Y-46990057D01*
X32458646Y-47011938D01*
X32471381Y-47016563D01*
X32489917Y-47004085D01*
X32530941Y-46969252D01*
X32590475Y-46915678D01*
X32664542Y-46846983D01*
X32749165Y-46766781D01*
X32802685Y-46715286D01*
X32896319Y-46623286D01*
X32977241Y-46540999D01*
X33042177Y-46471945D01*
X33087858Y-46419644D01*
X33111011Y-46387616D01*
X33113232Y-46381116D01*
X33102924Y-46356394D01*
X33074439Y-46306405D01*
X33030937Y-46236212D01*
X32975577Y-46150875D01*
X32911520Y-46055456D01*
X32893303Y-46028854D01*
X32826927Y-45932167D01*
X32767378Y-45845117D01*
X32717984Y-45772595D01*
X32682075Y-45719493D01*
X32662981Y-45690703D01*
X32661136Y-45687726D01*
X32663895Y-45664782D01*
X32678538Y-45614336D01*
X32702513Y-45543041D01*
X32733266Y-45457547D01*
X32768244Y-45364507D01*
X32804893Y-45270574D01*
X32840661Y-45182399D01*
X32872994Y-45106634D01*
X32899338Y-45049931D01*
X32917142Y-45018943D01*
X32918407Y-45017457D01*
X32929294Y-45008601D01*
X32947682Y-44999843D01*
X32977606Y-44990277D01*
X33023103Y-44978996D01*
X33088209Y-44965093D01*
X33176961Y-44947663D01*
X33293393Y-44925798D01*
X33441542Y-44898591D01*
X33473618Y-44892741D01*
X33568686Y-44874374D01*
X33651565Y-44856405D01*
X33714930Y-44840569D01*
X33751458Y-44828600D01*
X33756356Y-44825810D01*
X33764427Y-44801072D01*
X33770987Y-44745790D01*
X33776033Y-44666389D01*
X33779559Y-44569296D01*
X33781561Y-44460938D01*
X33782036Y-44347740D01*
X33780977Y-44236128D01*
X33778382Y-44132529D01*
X33774246Y-44043368D01*
X33768563Y-43975072D01*
X33761331Y-43934066D01*
X33756971Y-43925674D01*
X33732698Y-43917208D01*
X33677426Y-43903435D01*
X33596662Y-43885550D01*
X33495912Y-43864748D01*
X33380683Y-43842223D01*
X33317902Y-43830418D01*
X33198787Y-43808151D01*
X33092565Y-43787979D01*
X33004427Y-43770915D01*
X32939566Y-43757969D01*
X32903174Y-43750155D01*
X32897184Y-43748422D01*
X32887061Y-43728890D01*
X32865662Y-43681843D01*
X32835839Y-43614003D01*
X32800445Y-43532091D01*
X32762332Y-43442828D01*
X32724353Y-43352935D01*
X32689360Y-43269135D01*
X32660206Y-43198147D01*
X32639743Y-43146694D01*
X32630823Y-43121497D01*
X32630657Y-43120396D01*
X32640769Y-43100519D01*
X32669117Y-43054777D01*
X32712723Y-42987717D01*
X32768606Y-42903884D01*
X32833787Y-42807826D01*
X32871679Y-42752650D01*
X32940725Y-42651481D01*
X33002050Y-42559630D01*
X33052663Y-42481744D01*
X33089571Y-42422469D01*
X33109782Y-42386451D01*
X33112701Y-42378377D01*
X33100153Y-42359584D01*
X33065463Y-42319457D01*
X33013063Y-42262493D01*
X32947384Y-42193185D01*
X32872856Y-42116031D01*
X32793913Y-42035525D01*
X32714983Y-41956163D01*
X32640500Y-41882440D01*
X32574894Y-41818852D01*
X32522596Y-41769894D01*
X32488039Y-41740061D01*
X32476478Y-41732942D01*
X32457654Y-41742953D01*
X32412631Y-41771078D01*
X32345787Y-41814454D01*
X32261499Y-41870218D01*
X32164144Y-41935506D01*
X32090707Y-41985246D01*
X31719667Y-42237551D01*
X31101095Y-41982555D01*
X31017275Y-41537931D01*
X30933454Y-41093307D01*
X30008006Y-41093307D01*
X29924186Y-41537931D01*
X29924186Y-41537931D01*
G37*
X29924186Y-41537931D02*
X29840365Y-41982555D01*
X29531080Y-42110053D01*
X29221794Y-42237551D01*
X28850754Y-41985246D01*
X28746843Y-41914996D01*
X28652913Y-41852272D01*
X28573348Y-41799938D01*
X28512530Y-41760857D01*
X28474843Y-41737893D01*
X28464579Y-41732942D01*
X28446090Y-41745676D01*
X28406580Y-41780882D01*
X28350478Y-41834062D01*
X28282213Y-41900718D01*
X28206214Y-41976354D01*
X28126908Y-42056472D01*
X28048725Y-42136574D01*
X27976093Y-42212164D01*
X27913441Y-42278745D01*
X27865197Y-42331818D01*
X27835790Y-42366887D01*
X27828759Y-42378623D01*
X27838877Y-42400260D01*
X27867241Y-42447662D01*
X27910871Y-42516193D01*
X27966782Y-42601215D01*
X28031994Y-42698093D01*
X28069781Y-42753350D01*
X28138657Y-42854248D01*
X28199860Y-42945299D01*
X28250422Y-43021970D01*
X28287372Y-43079728D01*
X28307742Y-43114043D01*
X28310803Y-43121254D01*
X28303864Y-43141748D01*
X28284949Y-43189513D01*
X28256913Y-43257832D01*
X28222609Y-43339989D01*
X28184891Y-43429270D01*
X28146613Y-43518958D01*
X28110630Y-43602338D01*
X28079794Y-43672694D01*
X28056961Y-43723310D01*
X28044983Y-43747471D01*
X28044276Y-43748422D01*
X28025469Y-43753036D01*
X27975382Y-43763328D01*
X27899207Y-43778287D01*
X27802135Y-43796901D01*
X27689357Y-43818159D01*
X27623558Y-43830418D01*
X27503050Y-43853362D01*
X27394203Y-43875195D01*
X27302524Y-43894722D01*
X27233519Y-43910748D01*
X27192696Y-43922079D01*
X27184489Y-43925674D01*
X27176452Y-43950006D01*
X27169967Y-44004959D01*
X27165030Y-44084108D01*
X27161636Y-44181026D01*
X27159782Y-44289287D01*
X27159462Y-44402465D01*
X27160673Y-44514135D01*
X27163410Y-44617868D01*
X27167669Y-44707241D01*
X27173445Y-44775826D01*
X27180733Y-44817197D01*
X27185105Y-44825810D01*
X27211236Y-44836133D01*
X27266607Y-44850892D01*
X27343893Y-44868352D01*
X27435770Y-44886780D01*
X27467842Y-44892741D01*
X27622476Y-44921066D01*
X27744625Y-44943876D01*
X27838327Y-44962080D01*
X27907616Y-44976583D01*
X27956529Y-44988292D01*
X27989103Y-44998115D01*
X28009372Y-45006956D01*
X28021374Y-45015724D01*
X28023053Y-45017457D01*
X28039816Y-45045371D01*
X28065386Y-45099695D01*
X28097212Y-45173777D01*
X28132740Y-45260965D01*
X28169417Y-45354608D01*
X28204689Y-45448052D01*
X28236004Y-45534647D01*
X28260807Y-45607740D01*
X28276546Y-45660678D01*
X28280668Y-45686811D01*
X28280324Y-45687726D01*
X28266359Y-45709086D01*
X28234678Y-45756084D01*
X28188609Y-45823827D01*
X28131482Y-45907423D01*
X28066627Y-46001982D01*
X28048157Y-46028854D01*
X27982301Y-46126275D01*
X27924350Y-46215163D01*
X27877462Y-46290412D01*
X27844793Y-46346920D01*
X27829500Y-46379581D01*
X27828759Y-46383593D01*
X27841608Y-46404684D01*
X27877112Y-46446464D01*
X27930707Y-46504445D01*
X27997829Y-46574135D01*
X28073913Y-46651045D01*
X28154396Y-46730683D01*
X28234713Y-46808561D01*
X28310301Y-46880186D01*
X28376595Y-46941070D01*
X28429031Y-46986721D01*
X28463045Y-47012650D01*
X28472455Y-47016883D01*
X28494357Y-47006912D01*
X28539200Y-46980020D01*
X28599679Y-46940736D01*
X28646211Y-46909117D01*
X28730525Y-46851098D01*
X28830374Y-46782784D01*
X28930527Y-46714579D01*
X28984373Y-46678075D01*
X29166629Y-46554800D01*
X29319619Y-46637520D01*
X29389318Y-46673759D01*
X29448586Y-46701926D01*
X29488689Y-46717991D01*
X29498897Y-46720226D01*
X29511171Y-46703722D01*
X29535387Y-46657082D01*
X29569737Y-46584609D01*
X29612412Y-46490606D01*
X29661606Y-46379374D01*
X29715510Y-46255215D01*
X29772316Y-46122432D01*
X29830218Y-45985327D01*
X29887407Y-45848202D01*
X29942076Y-45715358D01*
X29992416Y-45591098D01*
X30036620Y-45479725D01*
X30072881Y-45385539D01*
X30099391Y-45312844D01*
X30114342Y-45265941D01*
X30116746Y-45249833D01*
X30097689Y-45229286D01*
X30055964Y-45195933D01*
X30000294Y-45156702D01*
X29995622Y-45153599D01*
X29851736Y-45038423D01*
X29735717Y-44904053D01*
X29648570Y-44754784D01*
X29591301Y-44594913D01*
X29564914Y-44428737D01*
X29570415Y-44260552D01*
X29608810Y-44094655D01*
X29681105Y-43935342D01*
X29702374Y-43900487D01*
X29813004Y-43759737D01*
X29943698Y-43646714D01*
X30089936Y-43562003D01*
X30247192Y-43506194D01*
X30410943Y-43479874D01*
X30576667Y-43483630D01*
X30739838Y-43518050D01*
X30895935Y-43583723D01*
X31040433Y-43681235D01*
X31085131Y-43720813D01*
X31198888Y-43844703D01*
X31281782Y-43975124D01*
X31338644Y-44121315D01*
X31370313Y-44266088D01*
X31378131Y-44428860D01*
X31352062Y-44592440D01*
X31294755Y-44751298D01*
X31208856Y-44899906D01*
X31097014Y-45032735D01*
X30961877Y-45144256D01*
X30944117Y-45156011D01*
X30887850Y-45194508D01*
X30845077Y-45227863D01*
X30824628Y-45249160D01*
X30824331Y-45249833D01*
X30828721Y-45272871D01*
X30846124Y-45325157D01*
X30874732Y-45402390D01*
X30912735Y-45500268D01*
X30958326Y-45614491D01*
X31009697Y-45740758D01*
X31065038Y-45874767D01*
X31122542Y-46012218D01*
X31180399Y-46148808D01*
X31236802Y-46280237D01*
X31289942Y-46402205D01*
X31338010Y-46510409D01*
X31379199Y-46600549D01*
X31411699Y-46668323D01*
X31433703Y-46709430D01*
X31442564Y-46720226D01*
X31469640Y-46711819D01*
X31520303Y-46689272D01*
X31585817Y-46656613D01*
X31621841Y-46637520D01*
X31774832Y-46554800D01*
X31957088Y-46678075D01*
X32050125Y-46741228D01*
X32151985Y-46810727D01*
X32247438Y-46876165D01*
X32295250Y-46909117D01*
X32362495Y-46954273D01*
X32419436Y-46990057D01*
X32458646Y-47011938D01*
X32471381Y-47016563D01*
X32489917Y-47004085D01*
X32530941Y-46969252D01*
X32590475Y-46915678D01*
X32664542Y-46846983D01*
X32749165Y-46766781D01*
X32802685Y-46715286D01*
X32896319Y-46623286D01*
X32977241Y-46540999D01*
X33042177Y-46471945D01*
X33087858Y-46419644D01*
X33111011Y-46387616D01*
X33113232Y-46381116D01*
X33102924Y-46356394D01*
X33074439Y-46306405D01*
X33030937Y-46236212D01*
X32975577Y-46150875D01*
X32911520Y-46055456D01*
X32893303Y-46028854D01*
X32826927Y-45932167D01*
X32767378Y-45845117D01*
X32717984Y-45772595D01*
X32682075Y-45719493D01*
X32662981Y-45690703D01*
X32661136Y-45687726D01*
X32663895Y-45664782D01*
X32678538Y-45614336D01*
X32702513Y-45543041D01*
X32733266Y-45457547D01*
X32768244Y-45364507D01*
X32804893Y-45270574D01*
X32840661Y-45182399D01*
X32872994Y-45106634D01*
X32899338Y-45049931D01*
X32917142Y-45018943D01*
X32918407Y-45017457D01*
X32929294Y-45008601D01*
X32947682Y-44999843D01*
X32977606Y-44990277D01*
X33023103Y-44978996D01*
X33088209Y-44965093D01*
X33176961Y-44947663D01*
X33293393Y-44925798D01*
X33441542Y-44898591D01*
X33473618Y-44892741D01*
X33568686Y-44874374D01*
X33651565Y-44856405D01*
X33714930Y-44840569D01*
X33751458Y-44828600D01*
X33756356Y-44825810D01*
X33764427Y-44801072D01*
X33770987Y-44745790D01*
X33776033Y-44666389D01*
X33779559Y-44569296D01*
X33781561Y-44460938D01*
X33782036Y-44347740D01*
X33780977Y-44236128D01*
X33778382Y-44132529D01*
X33774246Y-44043368D01*
X33768563Y-43975072D01*
X33761331Y-43934066D01*
X33756971Y-43925674D01*
X33732698Y-43917208D01*
X33677426Y-43903435D01*
X33596662Y-43885550D01*
X33495912Y-43864748D01*
X33380683Y-43842223D01*
X33317902Y-43830418D01*
X33198787Y-43808151D01*
X33092565Y-43787979D01*
X33004427Y-43770915D01*
X32939566Y-43757969D01*
X32903174Y-43750155D01*
X32897184Y-43748422D01*
X32887061Y-43728890D01*
X32865662Y-43681843D01*
X32835839Y-43614003D01*
X32800445Y-43532091D01*
X32762332Y-43442828D01*
X32724353Y-43352935D01*
X32689360Y-43269135D01*
X32660206Y-43198147D01*
X32639743Y-43146694D01*
X32630823Y-43121497D01*
X32630657Y-43120396D01*
X32640769Y-43100519D01*
X32669117Y-43054777D01*
X32712723Y-42987717D01*
X32768606Y-42903884D01*
X32833787Y-42807826D01*
X32871679Y-42752650D01*
X32940725Y-42651481D01*
X33002050Y-42559630D01*
X33052663Y-42481744D01*
X33089571Y-42422469D01*
X33109782Y-42386451D01*
X33112701Y-42378377D01*
X33100153Y-42359584D01*
X33065463Y-42319457D01*
X33013063Y-42262493D01*
X32947384Y-42193185D01*
X32872856Y-42116031D01*
X32793913Y-42035525D01*
X32714983Y-41956163D01*
X32640500Y-41882440D01*
X32574894Y-41818852D01*
X32522596Y-41769894D01*
X32488039Y-41740061D01*
X32476478Y-41732942D01*
X32457654Y-41742953D01*
X32412631Y-41771078D01*
X32345787Y-41814454D01*
X32261499Y-41870218D01*
X32164144Y-41935506D01*
X32090707Y-41985246D01*
X31719667Y-42237551D01*
X31101095Y-41982555D01*
X31017275Y-41537931D01*
X30933454Y-41093307D01*
X30008006Y-41093307D01*
X29924186Y-41537931D01*
D11*
G36*
X28960000Y-38700000D02*
G01*
X29460000Y-38700000D01*
X29460000Y-38300000D01*
X28960000Y-38300000D01*
X28960000Y-38700000D01*
G37*
G36*
X28960000Y-37900000D02*
G01*
X29460000Y-37900000D01*
X29460000Y-37500000D01*
X28960000Y-37500000D01*
X28960000Y-37900000D01*
G37*
D12*
X35560000Y-27940000D03*
X33020000Y-27940000D03*
X30480000Y-27940000D03*
X27940000Y-27940000D03*
X25400000Y-27940000D03*
D13*
X22860000Y-27940000D03*
D14*
X24892000Y-41402000D03*
D15*
X28560000Y-38100000D03*
D11*
G36*
X29060000Y-38850000D02*
G01*
X28560000Y-38850000D01*
X28560000Y-38849398D01*
X28535466Y-38849398D01*
X28486635Y-38844588D01*
X28438510Y-38835016D01*
X28391555Y-38820772D01*
X28346222Y-38801995D01*
X28302949Y-38778864D01*
X28262150Y-38751604D01*
X28224221Y-38720476D01*
X28189524Y-38685779D01*
X28158396Y-38647850D01*
X28131136Y-38607051D01*
X28108005Y-38563778D01*
X28089228Y-38518445D01*
X28074984Y-38471490D01*
X28065412Y-38423365D01*
X28060602Y-38374534D01*
X28060602Y-38350000D01*
X28060000Y-38350000D01*
X28060000Y-37850000D01*
X28060602Y-37850000D01*
X28060602Y-37825466D01*
X28065412Y-37776635D01*
X28074984Y-37728510D01*
X28089228Y-37681555D01*
X28108005Y-37636222D01*
X28131136Y-37592949D01*
X28158396Y-37552150D01*
X28189524Y-37514221D01*
X28224221Y-37479524D01*
X28262150Y-37448396D01*
X28302949Y-37421136D01*
X28346222Y-37398005D01*
X28391555Y-37379228D01*
X28438510Y-37364984D01*
X28486635Y-37355412D01*
X28535466Y-37350602D01*
X28560000Y-37350602D01*
X28560000Y-37350000D01*
X29060000Y-37350000D01*
X29060000Y-38850000D01*
X29060000Y-38850000D01*
G37*
D15*
X29860000Y-38100000D03*
D11*
G36*
X29860000Y-37350602D02*
G01*
X29884534Y-37350602D01*
X29933365Y-37355412D01*
X29981490Y-37364984D01*
X30028445Y-37379228D01*
X30073778Y-37398005D01*
X30117051Y-37421136D01*
X30157850Y-37448396D01*
X30195779Y-37479524D01*
X30230476Y-37514221D01*
X30261604Y-37552150D01*
X30288864Y-37592949D01*
X30311995Y-37636222D01*
X30330772Y-37681555D01*
X30345016Y-37728510D01*
X30354588Y-37776635D01*
X30359398Y-37825466D01*
X30359398Y-37850000D01*
X30360000Y-37850000D01*
X30360000Y-38350000D01*
X30359398Y-38350000D01*
X30359398Y-38374534D01*
X30354588Y-38423365D01*
X30345016Y-38471490D01*
X30330772Y-38518445D01*
X30311995Y-38563778D01*
X30288864Y-38607051D01*
X30261604Y-38647850D01*
X30230476Y-38685779D01*
X30195779Y-38720476D01*
X30157850Y-38751604D01*
X30117051Y-38778864D01*
X30073778Y-38801995D01*
X30028445Y-38820772D01*
X29981490Y-38835016D01*
X29933365Y-38844588D01*
X29884534Y-38849398D01*
X29860000Y-38849398D01*
X29860000Y-38850000D01*
X29360000Y-38850000D01*
X29360000Y-37350000D01*
X29860000Y-37350000D01*
X29860000Y-37350602D01*
X29860000Y-37350602D01*
G37*
D12*
X35560000Y-49530000D03*
X35560000Y-46990000D03*
X35560000Y-44450000D03*
X35560000Y-41910000D03*
X35560000Y-39370000D03*
X35560000Y-36830000D03*
X35560000Y-34290000D03*
D13*
X35560000Y-31750000D03*
D12*
X22860000Y-49530000D03*
X22860000Y-46990000D03*
X22860000Y-44450000D03*
X22860000Y-41910000D03*
X22860000Y-39370000D03*
X22860000Y-36830000D03*
X22860000Y-34290000D03*
D13*
X22860000Y-31750000D03*
D16*
X32710000Y-50767500D03*
X25710000Y-50767500D03*
D17*
X31710000Y-48067500D03*
X26710000Y-48067500D03*
D18*
X30480000Y-46228000D03*
X26416000Y-30734000D03*
X33274000Y-36576000D03*
X26670000Y-46228000D03*
X29210000Y-33655000D03*
X22733000Y-29845000D03*
X27807590Y-35560000D03*
X31057600Y-33020000D03*
X33020000Y-40005000D03*
X33020000Y-38735000D03*
X30480000Y-36576000D03*
D19*
X29718000Y-34163000D02*
X29210000Y-33655000D01*
X29860000Y-38100000D02*
X29718000Y-37958000D01*
X29718000Y-37958000D02*
X29718000Y-34163000D01*
X29210000Y-33655000D02*
X29210000Y-33655000D01*
X29210000Y-33655000D02*
X29210000Y-33655000D01*
X26670000Y-43180000D02*
X22860000Y-46990000D01*
X33020000Y-27940000D02*
X26670000Y-34290000D01*
X26670000Y-34290000D02*
X26670000Y-43180000D01*
X23709999Y-43600001D02*
X22860000Y-44450000D01*
X24217999Y-43600001D02*
X23709999Y-43600001D01*
X26035000Y-41783000D02*
X24217999Y-43600001D01*
X30480000Y-27940000D02*
X26035000Y-32385000D01*
X26035000Y-32385000D02*
X26035000Y-41783000D01*
X23495000Y-39370000D02*
X22860000Y-39370000D01*
X24765000Y-38100000D02*
X23495000Y-39370000D01*
X25400000Y-27940000D02*
X24765000Y-28575000D01*
X24765000Y-28575000D02*
X24765000Y-38100000D01*
X23709999Y-41060001D02*
X22860000Y-41910000D01*
X25400000Y-39370000D02*
X23709999Y-41060001D01*
X27940000Y-27940000D02*
X25400000Y-30480000D01*
X25400000Y-30480000D02*
X25400000Y-39370000D01*
X22167315Y-29845000D02*
X21209000Y-30803315D01*
X22733000Y-29845000D02*
X22167315Y-29845000D01*
X21209000Y-35179000D02*
X22860000Y-36830000D01*
X21209000Y-30803315D02*
X21209000Y-35179000D01*
X28560000Y-38100000D02*
X27807590Y-37347590D01*
X27807590Y-37347590D02*
X27807590Y-36125685D01*
X27807590Y-36125685D02*
X27807590Y-35560000D01*
X31057600Y-33020000D02*
X32004000Y-33966400D01*
X34357919Y-41910000D02*
X35560000Y-41910000D01*
X33274000Y-41910000D02*
X34357919Y-41910000D01*
X32004000Y-40640000D02*
X33274000Y-41910000D01*
X32004000Y-33966400D02*
X32004000Y-40640000D01*
X34417000Y-40005000D02*
X33020000Y-40005000D01*
X35560000Y-39370000D02*
X35052000Y-39370000D01*
X35052000Y-39370000D02*
X34417000Y-40005000D01*
X34036000Y-37719000D02*
X33020000Y-38735000D01*
X35560000Y-34290000D02*
X34036000Y-35814000D01*
X34036000Y-35814000D02*
X34036000Y-37719000D01*
X34405200Y-31750000D02*
X35560000Y-31750000D01*
X31066223Y-31750000D02*
X34405200Y-31750000D01*
X30235599Y-32580624D02*
X31066223Y-31750000D01*
X30235599Y-35569599D02*
X30235599Y-32580624D01*
X30480000Y-36576000D02*
X30480000Y-35814000D01*
X30480000Y-35814000D02*
X30235599Y-35569599D01*
D20*
G36*
X37032142Y-25649116D02*
G01*
X37226578Y-25707819D01*
X37405915Y-25803174D01*
X37563319Y-25931548D01*
X37692782Y-26088043D01*
X37789387Y-26266707D01*
X37849449Y-26460739D01*
X37871801Y-26673400D01*
X37871799Y-50788837D01*
X37850884Y-51002142D01*
X37792181Y-51196579D01*
X37696826Y-51375915D01*
X37568454Y-51533316D01*
X37411957Y-51662782D01*
X37233289Y-51759388D01*
X37039262Y-51819449D01*
X36826610Y-51841800D01*
X33159778Y-51841800D01*
X33184966Y-51828337D01*
X33314517Y-51722017D01*
X33420837Y-51592466D01*
X33499839Y-51444662D01*
X33548489Y-51284286D01*
X33560800Y-51159290D01*
X33560800Y-50375710D01*
X33548489Y-50250714D01*
X33499839Y-50090338D01*
X33424175Y-49948779D01*
X34214882Y-49948779D01*
X34312731Y-50185026D01*
X34464486Y-50415770D01*
X34658341Y-50612474D01*
X34886846Y-50767580D01*
X35141220Y-50875126D01*
X35356800Y-50784377D01*
X35356800Y-49733200D01*
X35763200Y-49733200D01*
X35763200Y-50784377D01*
X35978780Y-50875126D01*
X36233154Y-50767580D01*
X36461659Y-50612474D01*
X36655514Y-50415770D01*
X36807269Y-50185026D01*
X36905118Y-49948779D01*
X36812727Y-49733200D01*
X35763200Y-49733200D01*
X35356800Y-49733200D01*
X34307273Y-49733200D01*
X34214882Y-49948779D01*
X33424175Y-49948779D01*
X33420837Y-49942534D01*
X33314517Y-49812983D01*
X33184965Y-49706663D01*
X33037161Y-49627661D01*
X32876785Y-49579011D01*
X32710000Y-49562584D01*
X32543214Y-49579011D01*
X32382838Y-49627661D01*
X32235034Y-49706663D01*
X32105483Y-49812983D01*
X31999163Y-49942535D01*
X31920161Y-50090339D01*
X31871511Y-50250715D01*
X31859200Y-50375711D01*
X31859200Y-51159290D01*
X31871511Y-51284286D01*
X31920162Y-51444662D01*
X31999164Y-51592466D01*
X32105484Y-51722017D01*
X32235035Y-51828337D01*
X32260223Y-51841800D01*
X26159777Y-51841800D01*
X26184965Y-51828337D01*
X26314517Y-51722017D01*
X26420837Y-51592466D01*
X26499839Y-51444662D01*
X26548489Y-51284286D01*
X26560800Y-51159290D01*
X26560800Y-50375710D01*
X26548489Y-50250714D01*
X26499839Y-50090338D01*
X26420837Y-49942534D01*
X26314517Y-49812983D01*
X26184966Y-49706663D01*
X26037162Y-49627661D01*
X25876786Y-49579011D01*
X25710000Y-49562584D01*
X25543215Y-49579011D01*
X25382839Y-49627661D01*
X25235035Y-49706663D01*
X25105484Y-49812983D01*
X24999164Y-49942534D01*
X24920162Y-50090338D01*
X24871511Y-50250714D01*
X24859200Y-50375710D01*
X24859200Y-51159289D01*
X24871511Y-51284285D01*
X24920161Y-51444661D01*
X24999163Y-51592465D01*
X25105483Y-51722017D01*
X25235034Y-51828337D01*
X25260222Y-51841800D01*
X21601152Y-51841800D01*
X21387858Y-51820886D01*
X21193420Y-51762182D01*
X21014084Y-51666827D01*
X20856686Y-51538458D01*
X20727216Y-51381957D01*
X20630611Y-51203289D01*
X20570550Y-51009265D01*
X20548200Y-50796611D01*
X20548200Y-49948779D01*
X21514882Y-49948779D01*
X21612731Y-50185026D01*
X21764486Y-50415770D01*
X21958341Y-50612474D01*
X22186846Y-50767580D01*
X22441220Y-50875126D01*
X22656800Y-50784377D01*
X22656800Y-49733200D01*
X23063200Y-49733200D01*
X23063200Y-50784377D01*
X23278780Y-50875126D01*
X23533154Y-50767580D01*
X23761659Y-50612474D01*
X23955514Y-50415770D01*
X24107269Y-50185026D01*
X24205118Y-49948779D01*
X24112727Y-49733200D01*
X23063200Y-49733200D01*
X22656800Y-49733200D01*
X21607273Y-49733200D01*
X21514882Y-49948779D01*
X20548200Y-49948779D01*
X20548200Y-49111221D01*
X21514882Y-49111221D01*
X21607273Y-49326800D01*
X22656800Y-49326800D01*
X22656800Y-48275623D01*
X23063200Y-48275623D01*
X23063200Y-49326800D01*
X24112727Y-49326800D01*
X24205118Y-49111221D01*
X34214882Y-49111221D01*
X34307273Y-49326800D01*
X35356800Y-49326800D01*
X35356800Y-48275623D01*
X35763200Y-48275623D01*
X35763200Y-49326800D01*
X36812727Y-49326800D01*
X36905118Y-49111221D01*
X36807269Y-48874974D01*
X36655514Y-48644230D01*
X36461659Y-48447526D01*
X36233154Y-48292420D01*
X35978780Y-48184874D01*
X35763200Y-48275623D01*
X35356800Y-48275623D01*
X35141220Y-48184874D01*
X34886846Y-48292420D01*
X34658341Y-48447526D01*
X34464486Y-48644230D01*
X34312731Y-48874974D01*
X34214882Y-49111221D01*
X24205118Y-49111221D01*
X24107269Y-48874974D01*
X23955514Y-48644230D01*
X23761659Y-48447526D01*
X23533154Y-48292420D01*
X23278780Y-48184874D01*
X23063200Y-48275623D01*
X22656800Y-48275623D01*
X22441220Y-48184874D01*
X22186846Y-48292420D01*
X21958341Y-48447526D01*
X21764486Y-48644230D01*
X21612731Y-48874974D01*
X21514882Y-49111221D01*
X20548200Y-49111221D01*
X20548200Y-39370000D01*
X21753874Y-39370000D01*
X21775128Y-39585794D01*
X21838073Y-39793296D01*
X21940290Y-39984531D01*
X22077851Y-40152149D01*
X22245469Y-40289710D01*
X22436704Y-40391927D01*
X22644206Y-40454872D01*
X22805925Y-40470800D01*
X22914075Y-40470800D01*
X23075794Y-40454872D01*
X23283296Y-40391927D01*
X23474531Y-40289710D01*
X23642149Y-40152149D01*
X23779710Y-39984531D01*
X23881927Y-39793296D01*
X23944872Y-39585794D01*
X23955301Y-39479909D01*
X24996801Y-38438410D01*
X24996801Y-39202988D01*
X23301817Y-40897972D01*
X23283296Y-40888073D01*
X23075794Y-40825128D01*
X22914075Y-40809200D01*
X22805925Y-40809200D01*
X22644206Y-40825128D01*
X22436704Y-40888073D01*
X22245469Y-40990290D01*
X22077851Y-41127851D01*
X21940290Y-41295469D01*
X21838073Y-41486704D01*
X21775128Y-41694206D01*
X21753874Y-41910000D01*
X21775128Y-42125794D01*
X21838073Y-42333296D01*
X21940290Y-42524531D01*
X22077851Y-42692149D01*
X22245469Y-42829710D01*
X22436704Y-42931927D01*
X22644206Y-42994872D01*
X22805925Y-43010800D01*
X22914075Y-43010800D01*
X23075794Y-42994872D01*
X23283296Y-42931927D01*
X23474531Y-42829710D01*
X23642149Y-42692149D01*
X23779710Y-42524531D01*
X23881927Y-42333296D01*
X23944872Y-42125794D01*
X23966126Y-41910000D01*
X23944872Y-41694206D01*
X23881927Y-41486704D01*
X23872028Y-41468183D01*
X24009108Y-41331103D01*
X24179134Y-41161076D01*
X24170053Y-41183000D01*
X24141200Y-41328053D01*
X24141200Y-41475947D01*
X24170053Y-41621000D01*
X24226649Y-41757637D01*
X24308815Y-41880607D01*
X24413393Y-41985185D01*
X24536363Y-42067351D01*
X24673000Y-42123947D01*
X24818053Y-42152800D01*
X24965947Y-42152800D01*
X25111000Y-42123947D01*
X25132923Y-42114866D01*
X24050989Y-43196801D01*
X23729786Y-43196801D01*
X23709998Y-43194852D01*
X23690210Y-43196801D01*
X23690201Y-43196801D01*
X23630958Y-43202636D01*
X23554955Y-43225691D01*
X23484910Y-43263131D01*
X23477665Y-43269077D01*
X23444660Y-43296164D01*
X23423515Y-43313517D01*
X23410897Y-43328892D01*
X23301817Y-43437972D01*
X23283296Y-43428073D01*
X23075794Y-43365128D01*
X22914075Y-43349200D01*
X22805925Y-43349200D01*
X22644206Y-43365128D01*
X22436704Y-43428073D01*
X22245469Y-43530290D01*
X22077851Y-43667851D01*
X21940290Y-43835469D01*
X21838073Y-44026704D01*
X21775128Y-44234206D01*
X21753874Y-44450000D01*
X21775128Y-44665794D01*
X21838073Y-44873296D01*
X21940290Y-45064531D01*
X22077851Y-45232149D01*
X22245469Y-45369710D01*
X22436704Y-45471927D01*
X22644206Y-45534872D01*
X22805925Y-45550800D01*
X22914075Y-45550800D01*
X23075794Y-45534872D01*
X23283296Y-45471927D01*
X23474531Y-45369710D01*
X23642149Y-45232149D01*
X23779710Y-45064531D01*
X23881927Y-44873296D01*
X23944872Y-44665794D01*
X23966126Y-44450000D01*
X23944872Y-44234206D01*
X23881927Y-44026704D01*
X23872028Y-44008183D01*
X23877010Y-44003201D01*
X24198208Y-44003201D01*
X24217999Y-44005150D01*
X24237790Y-44003201D01*
X24237797Y-44003201D01*
X24297040Y-43997366D01*
X24373043Y-43974311D01*
X24443088Y-43936871D01*
X24504483Y-43886485D01*
X24517106Y-43871104D01*
X26266801Y-42121410D01*
X26266801Y-43012989D01*
X23301817Y-45977973D01*
X23283296Y-45968073D01*
X23075794Y-45905128D01*
X22914075Y-45889200D01*
X22805925Y-45889200D01*
X22644206Y-45905128D01*
X22436704Y-45968073D01*
X22245469Y-46070290D01*
X22077851Y-46207851D01*
X21940290Y-46375469D01*
X21838073Y-46566704D01*
X21775128Y-46774206D01*
X21753874Y-46990000D01*
X21775128Y-47205794D01*
X21838073Y-47413296D01*
X21940290Y-47604531D01*
X22077851Y-47772149D01*
X22245469Y-47909710D01*
X22436704Y-48011927D01*
X22644206Y-48074872D01*
X22805925Y-48090800D01*
X22914075Y-48090800D01*
X23075794Y-48074872D01*
X23283296Y-48011927D01*
X23359131Y-47971392D01*
X25734200Y-47971392D01*
X25734200Y-48163608D01*
X25771700Y-48352130D01*
X25845258Y-48529714D01*
X25952047Y-48689536D01*
X26087964Y-48825453D01*
X26247786Y-48932242D01*
X26425370Y-49005800D01*
X26613892Y-49043300D01*
X26806108Y-49043300D01*
X26994630Y-49005800D01*
X27172214Y-48932242D01*
X27332036Y-48825453D01*
X27467953Y-48689536D01*
X27574742Y-48529714D01*
X27648300Y-48352130D01*
X27685800Y-48163608D01*
X27685800Y-47971392D01*
X30734200Y-47971392D01*
X30734200Y-48163608D01*
X30771700Y-48352130D01*
X30845258Y-48529714D01*
X30952047Y-48689536D01*
X31087964Y-48825453D01*
X31247786Y-48932242D01*
X31425370Y-49005800D01*
X31613892Y-49043300D01*
X31806108Y-49043300D01*
X31994630Y-49005800D01*
X32172214Y-48932242D01*
X32332036Y-48825453D01*
X32467953Y-48689536D01*
X32574742Y-48529714D01*
X32648300Y-48352130D01*
X32685800Y-48163608D01*
X32685800Y-47971392D01*
X32648300Y-47782870D01*
X32574742Y-47605286D01*
X32467953Y-47445464D01*
X32332036Y-47309547D01*
X32172214Y-47202758D01*
X31994630Y-47129200D01*
X31806108Y-47091700D01*
X31613892Y-47091700D01*
X31425370Y-47129200D01*
X31247786Y-47202758D01*
X31087964Y-47309547D01*
X30952047Y-47445464D01*
X30845258Y-47605286D01*
X30771700Y-47782870D01*
X30734200Y-47971392D01*
X27685800Y-47971392D01*
X27648300Y-47782870D01*
X27574742Y-47605286D01*
X27467953Y-47445464D01*
X27332036Y-47309547D01*
X27172214Y-47202758D01*
X26994630Y-47129200D01*
X26806108Y-47091700D01*
X26613892Y-47091700D01*
X26425370Y-47129200D01*
X26247786Y-47202758D01*
X26087964Y-47309547D01*
X25952047Y-47445464D01*
X25845258Y-47605286D01*
X25771700Y-47782870D01*
X25734200Y-47971392D01*
X23359131Y-47971392D01*
X23474531Y-47909710D01*
X23642149Y-47772149D01*
X23779710Y-47604531D01*
X23881927Y-47413296D01*
X23944872Y-47205794D01*
X23966126Y-46990000D01*
X23944872Y-46774206D01*
X23881927Y-46566704D01*
X23872027Y-46548183D01*
X26018545Y-44401665D01*
X26903663Y-44401665D01*
X26903663Y-44401667D01*
X26903677Y-44405239D01*
X26904888Y-44516909D01*
X26904910Y-44517111D01*
X26904893Y-44517311D01*
X26904962Y-44520882D01*
X26907699Y-44624615D01*
X26907815Y-44625543D01*
X26907755Y-44626475D01*
X26907900Y-44630044D01*
X26912159Y-44719417D01*
X26912576Y-44722264D01*
X26912496Y-44725146D01*
X26912771Y-44728708D01*
X26918547Y-44797293D01*
X26920316Y-44806918D01*
X26920929Y-44816683D01*
X26921524Y-44820205D01*
X26928812Y-44861576D01*
X26931768Y-44872168D01*
X26933548Y-44883026D01*
X26938463Y-44896163D01*
X26942230Y-44909662D01*
X26947186Y-44919477D01*
X26951042Y-44929783D01*
X26952637Y-44932980D01*
X26957009Y-44941593D01*
X26963475Y-44951738D01*
X26964732Y-44954227D01*
X26966053Y-44955918D01*
X26973146Y-44969013D01*
X26978953Y-44976022D01*
X26983842Y-44983692D01*
X26994837Y-44995193D01*
X27004998Y-45007456D01*
X27012058Y-45013205D01*
X27018341Y-45019777D01*
X27031359Y-45028922D01*
X27043709Y-45038979D01*
X27051748Y-45043245D01*
X27059192Y-45048475D01*
X27073744Y-45054920D01*
X27087807Y-45062383D01*
X27091120Y-45063718D01*
X27117251Y-45074041D01*
X27129769Y-45077620D01*
X27141908Y-45082359D01*
X27145353Y-45083303D01*
X27200724Y-45098062D01*
X27203805Y-45098568D01*
X27206760Y-45099593D01*
X27210239Y-45100404D01*
X27287525Y-45117864D01*
X27288833Y-45118028D01*
X27290091Y-45118430D01*
X27293588Y-45119157D01*
X27385466Y-45137585D01*
X27385491Y-45137588D01*
X27385519Y-45137596D01*
X27389027Y-45138273D01*
X27421098Y-45144234D01*
X27421135Y-45144237D01*
X27421753Y-45144355D01*
X27576134Y-45172634D01*
X27696722Y-45195152D01*
X27787726Y-45212832D01*
X27840313Y-45223839D01*
X27861224Y-45272516D01*
X27895208Y-45355913D01*
X27930672Y-45446462D01*
X27964748Y-45536739D01*
X27994576Y-45619220D01*
X28002509Y-45642598D01*
X27977221Y-45679784D01*
X27920349Y-45763006D01*
X27855823Y-45857084D01*
X27855820Y-45857088D01*
X27837351Y-45883960D01*
X27837323Y-45884010D01*
X27836235Y-45885596D01*
X27770379Y-45983017D01*
X27770213Y-45983324D01*
X27769990Y-45983594D01*
X27768019Y-45986573D01*
X27710068Y-46075461D01*
X27709679Y-46076207D01*
X27709158Y-46076867D01*
X27707247Y-46079885D01*
X27660359Y-46155134D01*
X27659272Y-46157331D01*
X27657817Y-46159302D01*
X27656008Y-46162382D01*
X27623339Y-46218890D01*
X27619509Y-46227321D01*
X27614668Y-46235223D01*
X27613131Y-46238448D01*
X27597838Y-46271109D01*
X27595878Y-46276648D01*
X27593111Y-46281837D01*
X27587561Y-46300146D01*
X27581181Y-46318171D01*
X27580682Y-46321596D01*
X27580303Y-46324088D01*
X27578628Y-46329613D01*
X27577954Y-46333121D01*
X27577213Y-46337134D01*
X27575810Y-46353624D01*
X27573321Y-46369984D01*
X27573698Y-46378442D01*
X27572980Y-46386877D01*
X27574807Y-46403328D01*
X27575543Y-46419859D01*
X27577555Y-46428079D01*
X27578489Y-46436496D01*
X27583476Y-46452280D01*
X27587409Y-46468351D01*
X27590979Y-46476025D01*
X27593531Y-46484100D01*
X27601491Y-46498617D01*
X27608469Y-46513615D01*
X27610306Y-46516679D01*
X27623155Y-46537770D01*
X27634158Y-46552398D01*
X27644389Y-46567590D01*
X27646683Y-46570328D01*
X27682187Y-46612108D01*
X27684750Y-46614587D01*
X27686863Y-46617458D01*
X27689269Y-46620098D01*
X27742864Y-46678079D01*
X27743494Y-46678639D01*
X27744006Y-46679306D01*
X27746466Y-46681897D01*
X27813589Y-46751587D01*
X27813597Y-46751594D01*
X27815977Y-46754034D01*
X27892061Y-46830944D01*
X27892101Y-46830977D01*
X27893992Y-46832875D01*
X27974475Y-46912513D01*
X27974519Y-46912548D01*
X27976328Y-46914328D01*
X28056645Y-46992206D01*
X28056674Y-46992229D01*
X28058768Y-46994241D01*
X28134356Y-47065866D01*
X28134524Y-47065996D01*
X28134660Y-47066153D01*
X28137274Y-47068588D01*
X28203568Y-47129472D01*
X28204862Y-47130446D01*
X28205953Y-47131634D01*
X28208630Y-47133999D01*
X28261067Y-47179650D01*
X28266397Y-47183444D01*
X28271128Y-47187968D01*
X28273954Y-47190153D01*
X28307968Y-47216082D01*
X28310059Y-47217375D01*
X28311895Y-47219017D01*
X28331292Y-47230497D01*
X28350435Y-47242329D01*
X28352738Y-47243191D01*
X28354857Y-47244445D01*
X28358105Y-47245933D01*
X28367514Y-47250166D01*
X28374080Y-47252378D01*
X28380275Y-47255497D01*
X28397707Y-47260339D01*
X28414825Y-47266106D01*
X28421693Y-47267001D01*
X28428377Y-47268857D01*
X28446407Y-47270219D01*
X28464330Y-47272554D01*
X28471250Y-47272097D01*
X28478159Y-47272619D01*
X28496099Y-47270455D01*
X28514145Y-47269263D01*
X28520842Y-47267471D01*
X28527723Y-47266641D01*
X28544918Y-47261028D01*
X28562371Y-47256358D01*
X28568586Y-47253303D01*
X28575181Y-47251150D01*
X28578443Y-47249692D01*
X28600345Y-47239721D01*
X28611312Y-47233370D01*
X28622839Y-47228104D01*
X28625915Y-47226288D01*
X28670758Y-47199397D01*
X28673017Y-47197722D01*
X28675531Y-47196463D01*
X28678540Y-47194538D01*
X28739019Y-47155254D01*
X28739702Y-47154708D01*
X28740479Y-47154299D01*
X28743447Y-47152312D01*
X28789979Y-47120693D01*
X28790028Y-47120652D01*
X28791219Y-47119845D01*
X28875262Y-47062013D01*
X28974359Y-46994213D01*
X29074084Y-46926298D01*
X29127688Y-46889958D01*
X29181437Y-46853603D01*
X29197956Y-46862535D01*
X29198222Y-46862647D01*
X29198459Y-46862806D01*
X29201616Y-46864476D01*
X29271315Y-46900715D01*
X29273921Y-46901761D01*
X29276303Y-46903239D01*
X29279519Y-46904795D01*
X29338787Y-46932962D01*
X29344657Y-46935078D01*
X29350156Y-46938030D01*
X29353463Y-46939382D01*
X29393566Y-46955447D01*
X29412167Y-46960862D01*
X29430495Y-46967083D01*
X29433979Y-46967872D01*
X29444187Y-46970107D01*
X29463918Y-46972442D01*
X29483557Y-46975566D01*
X29488681Y-46975372D01*
X29493764Y-46975974D01*
X29513576Y-46974432D01*
X29533445Y-46973682D01*
X29538427Y-46972499D01*
X29543537Y-46972101D01*
X29562682Y-46966737D01*
X29582016Y-46962145D01*
X29586676Y-46960015D01*
X29591610Y-46958633D01*
X29609340Y-46949657D01*
X29627423Y-46941393D01*
X29631582Y-46938397D01*
X29636150Y-46936085D01*
X29651798Y-46923837D01*
X29667933Y-46912217D01*
X29671428Y-46908474D01*
X29675464Y-46905315D01*
X29688448Y-46890247D01*
X29702004Y-46875728D01*
X29704156Y-46872877D01*
X29716430Y-46856373D01*
X29726090Y-46840320D01*
X29736526Y-46824754D01*
X29738194Y-46821595D01*
X29762410Y-46774955D01*
X29763476Y-46772294D01*
X29764985Y-46769857D01*
X29766538Y-46766640D01*
X29800887Y-46694168D01*
X29800995Y-46693866D01*
X29801159Y-46693592D01*
X29802659Y-46690350D01*
X29845334Y-46596347D01*
X29845353Y-46596290D01*
X29846354Y-46594070D01*
X29895548Y-46482838D01*
X29895568Y-46482778D01*
X29896247Y-46481244D01*
X29950150Y-46357085D01*
X29950167Y-46357031D01*
X29950692Y-46355828D01*
X30007498Y-46223045D01*
X30007515Y-46222990D01*
X30007963Y-46221950D01*
X30065865Y-46084846D01*
X30065882Y-46084792D01*
X30066308Y-46083790D01*
X30123497Y-45946665D01*
X30123513Y-45946614D01*
X30123959Y-45945550D01*
X30178628Y-45812706D01*
X30178644Y-45812653D01*
X30179160Y-45811405D01*
X30229500Y-45687145D01*
X30229518Y-45687083D01*
X30230174Y-45685464D01*
X30274378Y-45574091D01*
X30274393Y-45574040D01*
X30275340Y-45571630D01*
X30311601Y-45477445D01*
X30311734Y-45476965D01*
X30311953Y-45476524D01*
X30313200Y-45473177D01*
X30339710Y-45400482D01*
X30340578Y-45397110D01*
X30342000Y-45393928D01*
X30343108Y-45390532D01*
X30358059Y-45343630D01*
X30361976Y-45325327D01*
X30366788Y-45307228D01*
X30367340Y-45303699D01*
X30369744Y-45287591D01*
X30370389Y-45274797D01*
X30372250Y-45262126D01*
X30371644Y-45249928D01*
X30372259Y-45237732D01*
X30370408Y-45225059D01*
X30369772Y-45212265D01*
X30366809Y-45200419D01*
X30365043Y-45188332D01*
X30360764Y-45176256D01*
X30357656Y-45163833D01*
X30352447Y-45152787D01*
X30348368Y-45141275D01*
X30341827Y-45130264D01*
X30336364Y-45118679D01*
X30329106Y-45108851D01*
X30322871Y-45098355D01*
X30314321Y-45088829D01*
X30306707Y-45078519D01*
X30304296Y-45075883D01*
X30285239Y-45055336D01*
X30272359Y-45043919D01*
X30260182Y-45031726D01*
X30257407Y-45029477D01*
X30215682Y-44996124D01*
X30210681Y-44992872D01*
X30206220Y-44988915D01*
X30203315Y-44986837D01*
X30147645Y-44947606D01*
X30147544Y-44947549D01*
X30029966Y-44853431D01*
X29944739Y-44754724D01*
X29881406Y-44646246D01*
X29840185Y-44531172D01*
X29821375Y-44412713D01*
X29825261Y-44293890D01*
X29852278Y-44177155D01*
X29907592Y-44055263D01*
X29912843Y-44046657D01*
X29998924Y-43937141D01*
X30092784Y-43855971D01*
X30197733Y-43795178D01*
X30310791Y-43755054D01*
X30428486Y-43736137D01*
X30547115Y-43738826D01*
X30663150Y-43763303D01*
X30773626Y-43809782D01*
X30883428Y-43883880D01*
X30905657Y-43903563D01*
X30995151Y-44001029D01*
X31052461Y-44091198D01*
X31093014Y-44195457D01*
X31115837Y-44299793D01*
X31121357Y-44414717D01*
X31103249Y-44528342D01*
X31061874Y-44643035D01*
X30998666Y-44752388D01*
X30916296Y-44850215D01*
X30809455Y-44938385D01*
X30802932Y-44942703D01*
X30802792Y-44942816D01*
X30802637Y-44942899D01*
X30799674Y-44944895D01*
X30743408Y-44983392D01*
X30738663Y-44987371D01*
X30733380Y-44990614D01*
X30730548Y-44992791D01*
X30687775Y-45026146D01*
X30675776Y-45037552D01*
X30663055Y-45048137D01*
X30660563Y-45050696D01*
X30640114Y-45071993D01*
X30629036Y-45086052D01*
X30617190Y-45099483D01*
X30615463Y-45102449D01*
X30614310Y-45103803D01*
X30612504Y-45107034D01*
X30609216Y-45111206D01*
X30601076Y-45127156D01*
X30592069Y-45142625D01*
X30590604Y-45145883D01*
X30590306Y-45146556D01*
X30590164Y-45146986D01*
X30589946Y-45147377D01*
X30588522Y-45151757D01*
X30586523Y-45155674D01*
X30581622Y-45172950D01*
X30574704Y-45193979D01*
X30574649Y-45194423D01*
X30574509Y-45194855D01*
X30573854Y-45200335D01*
X30572899Y-45203703D01*
X30571731Y-45218116D01*
X30571582Y-45219364D01*
X30568609Y-45243529D01*
X30568642Y-45243976D01*
X30568588Y-45244425D01*
X30569079Y-45250823D01*
X30568865Y-45253462D01*
X30570116Y-45264341D01*
X30570468Y-45268923D01*
X30572254Y-45293319D01*
X30572374Y-45293753D01*
X30572408Y-45294202D01*
X30573052Y-45297715D01*
X30577443Y-45320754D01*
X30581739Y-45335361D01*
X30584908Y-45350258D01*
X30586012Y-45353655D01*
X30603415Y-45405941D01*
X30604433Y-45408227D01*
X30605034Y-45410650D01*
X30606251Y-45414009D01*
X30634859Y-45491242D01*
X30634953Y-45491435D01*
X30635006Y-45491636D01*
X30636275Y-45494975D01*
X30674278Y-45592854D01*
X30674305Y-45592907D01*
X30675160Y-45595094D01*
X30720751Y-45709316D01*
X30720781Y-45709373D01*
X30721385Y-45710889D01*
X30772756Y-45837156D01*
X30772783Y-45837207D01*
X30773264Y-45838396D01*
X30828605Y-45972405D01*
X30828631Y-45972454D01*
X30829057Y-45973492D01*
X30886561Y-46110943D01*
X30886586Y-46110989D01*
X30887001Y-46111989D01*
X30944858Y-46248578D01*
X30944884Y-46248625D01*
X30945331Y-46249688D01*
X31001734Y-46381117D01*
X31001763Y-46381169D01*
X31002293Y-46382410D01*
X31055433Y-46504378D01*
X31055467Y-46504440D01*
X31056171Y-46506054D01*
X31104239Y-46614258D01*
X31104261Y-46614297D01*
X31105349Y-46616722D01*
X31146538Y-46706862D01*
X31146833Y-46707370D01*
X31147026Y-46707923D01*
X31148548Y-46711154D01*
X31181048Y-46778929D01*
X31183069Y-46782264D01*
X31184513Y-46785881D01*
X31186176Y-46789042D01*
X31208180Y-46830149D01*
X31221102Y-46849481D01*
X31233729Y-46868941D01*
X31235975Y-46871718D01*
X31244470Y-46882067D01*
X31244472Y-46882070D01*
X31244475Y-46882073D01*
X31244837Y-46882514D01*
X31262117Y-46899807D01*
X31279681Y-46917464D01*
X31279920Y-46917625D01*
X31280124Y-46917829D01*
X31300567Y-46931526D01*
X31321093Y-46945345D01*
X31321360Y-46945457D01*
X31321599Y-46945617D01*
X31344295Y-46955074D01*
X31367132Y-46964651D01*
X31367415Y-46964709D01*
X31367682Y-46964820D01*
X31391700Y-46969672D01*
X31416045Y-46974648D01*
X31416338Y-46974650D01*
X31416616Y-46974706D01*
X31441354Y-46974803D01*
X31465967Y-46974953D01*
X31466244Y-46974900D01*
X31466539Y-46974901D01*
X31491134Y-46970130D01*
X31514998Y-46965556D01*
X31515512Y-46965400D01*
X31515550Y-46965393D01*
X31515589Y-46965377D01*
X31518417Y-46964521D01*
X31545493Y-46956114D01*
X31557721Y-46950961D01*
X31570373Y-46946950D01*
X31573646Y-46945520D01*
X31624310Y-46922973D01*
X31627630Y-46921088D01*
X31631218Y-46919775D01*
X31634426Y-46918203D01*
X31699940Y-46885544D01*
X31701130Y-46884798D01*
X31702440Y-46884281D01*
X31705608Y-46882630D01*
X31741632Y-46863537D01*
X31741687Y-46863501D01*
X31743503Y-46862535D01*
X31760023Y-46853603D01*
X31813774Y-46889959D01*
X31813777Y-46889961D01*
X31906104Y-46952633D01*
X32007556Y-47021853D01*
X32102592Y-47087005D01*
X32150089Y-47119739D01*
X32150111Y-47119751D01*
X32152646Y-47121479D01*
X32219891Y-47166635D01*
X32221734Y-47167627D01*
X32223375Y-47168934D01*
X32226386Y-47170855D01*
X32283327Y-47206640D01*
X32287705Y-47208827D01*
X32291677Y-47211667D01*
X32294784Y-47213430D01*
X32333993Y-47235311D01*
X32351183Y-47242808D01*
X32367978Y-47251130D01*
X32371327Y-47252373D01*
X32384062Y-47256998D01*
X32402013Y-47261593D01*
X32419716Y-47267091D01*
X32426156Y-47267774D01*
X32432426Y-47269379D01*
X32450926Y-47270400D01*
X32469360Y-47272355D01*
X32475809Y-47271774D01*
X32482273Y-47272131D01*
X32500623Y-47269539D01*
X32519083Y-47267876D01*
X32525296Y-47266053D01*
X32531706Y-47265148D01*
X32549207Y-47259040D01*
X32566988Y-47253824D01*
X32572726Y-47250831D01*
X32578840Y-47248697D01*
X32594820Y-47239306D01*
X32611251Y-47230736D01*
X32614228Y-47228762D01*
X32632765Y-47216284D01*
X32642390Y-47208336D01*
X32652743Y-47201370D01*
X32655482Y-47199077D01*
X32696506Y-47164244D01*
X32697829Y-47162877D01*
X32699379Y-47161768D01*
X32702051Y-47159397D01*
X32761584Y-47105823D01*
X32761675Y-47105724D01*
X32761788Y-47105640D01*
X32764424Y-47103229D01*
X32838490Y-47034535D01*
X32838521Y-47034500D01*
X32840505Y-47032646D01*
X32885501Y-46990000D01*
X34453874Y-46990000D01*
X34475128Y-47205794D01*
X34538073Y-47413296D01*
X34640290Y-47604531D01*
X34777851Y-47772149D01*
X34945469Y-47909710D01*
X35136704Y-48011927D01*
X35344206Y-48074872D01*
X35505925Y-48090800D01*
X35614075Y-48090800D01*
X35775794Y-48074872D01*
X35983296Y-48011927D01*
X36174531Y-47909710D01*
X36342149Y-47772149D01*
X36479710Y-47604531D01*
X36581927Y-47413296D01*
X36644872Y-47205794D01*
X36666126Y-46990000D01*
X36644872Y-46774206D01*
X36581927Y-46566704D01*
X36479710Y-46375469D01*
X36342149Y-46207851D01*
X36174531Y-46070290D01*
X35983296Y-45968073D01*
X35775794Y-45905128D01*
X35614075Y-45889200D01*
X35505925Y-45889200D01*
X35344206Y-45905128D01*
X35136704Y-45968073D01*
X34945469Y-46070290D01*
X34777851Y-46207851D01*
X34640290Y-46375469D01*
X34538073Y-46566704D01*
X34475128Y-46774206D01*
X34453874Y-46990000D01*
X32885501Y-46990000D01*
X32925128Y-46952444D01*
X32925170Y-46952396D01*
X32926522Y-46951113D01*
X32980042Y-46899617D01*
X32980071Y-46899583D01*
X32981964Y-46897749D01*
X33075598Y-46805749D01*
X33075863Y-46805433D01*
X33076181Y-46805174D01*
X33078703Y-46802645D01*
X33159625Y-46720358D01*
X33160302Y-46719519D01*
X33161125Y-46718820D01*
X33163590Y-46716235D01*
X33228526Y-46647181D01*
X33230312Y-46644865D01*
X33232468Y-46642892D01*
X33234836Y-46640219D01*
X33280518Y-46587917D01*
X33286328Y-46579782D01*
X33293050Y-46572385D01*
X33295163Y-46569505D01*
X33318316Y-46537477D01*
X33323945Y-46527830D01*
X33330584Y-46518846D01*
X33336496Y-46506320D01*
X33343476Y-46494357D01*
X33347007Y-46484140D01*
X33348757Y-46480925D01*
X33349299Y-46479193D01*
X33351892Y-46473698D01*
X33353070Y-46470326D01*
X33355291Y-46463826D01*
X33358005Y-46452313D01*
X33359782Y-46447171D01*
X33360153Y-46444482D01*
X33363657Y-46433278D01*
X33364643Y-46424157D01*
X33366746Y-46415234D01*
X33367317Y-46399407D01*
X33369020Y-46383643D01*
X33368215Y-46374502D01*
X33368545Y-46365343D01*
X33366030Y-46349704D01*
X33364639Y-46333912D01*
X33362075Y-46325105D01*
X33360619Y-46316053D01*
X33355112Y-46301193D01*
X33350682Y-46285980D01*
X33349331Y-46282673D01*
X33339023Y-46257951D01*
X33332430Y-46245674D01*
X33326921Y-46232866D01*
X33325174Y-46229750D01*
X33296689Y-46179761D01*
X33294989Y-46177358D01*
X33293729Y-46174703D01*
X33291869Y-46171653D01*
X33248367Y-46101460D01*
X33247842Y-46100774D01*
X33247459Y-46100007D01*
X33245536Y-46096997D01*
X33190176Y-46011660D01*
X33190034Y-46011482D01*
X33189928Y-46011278D01*
X33187958Y-46008298D01*
X33123901Y-45912880D01*
X33123865Y-45912836D01*
X33122576Y-45910926D01*
X33104359Y-45884323D01*
X33104344Y-45884305D01*
X33104191Y-45884079D01*
X33037815Y-45787392D01*
X32978765Y-45701070D01*
X32938920Y-45642569D01*
X32944122Y-45627100D01*
X32973346Y-45545854D01*
X33007147Y-45455950D01*
X33042563Y-45365175D01*
X33076839Y-45280679D01*
X33101063Y-45223916D01*
X33139595Y-45215687D01*
X33225229Y-45198870D01*
X33339910Y-45177334D01*
X33487387Y-45150249D01*
X33487438Y-45150240D01*
X33519513Y-45144390D01*
X33519557Y-45144377D01*
X33522141Y-45143897D01*
X33617209Y-45125530D01*
X33618283Y-45125211D01*
X33619391Y-45125098D01*
X33622887Y-45124366D01*
X33705766Y-45106397D01*
X33707898Y-45105711D01*
X33710115Y-45105414D01*
X33713586Y-45104572D01*
X33776951Y-45088736D01*
X33783924Y-45086249D01*
X33791178Y-45084741D01*
X33794580Y-45083652D01*
X33831108Y-45071683D01*
X33852952Y-45062075D01*
X33865019Y-45056886D01*
X33869816Y-45055071D01*
X33871095Y-45054274D01*
X33874951Y-45052616D01*
X33876753Y-45051606D01*
X33876806Y-45051583D01*
X33876852Y-45051551D01*
X33878067Y-45050870D01*
X33882965Y-45048079D01*
X33897282Y-45037954D01*
X33912185Y-45028667D01*
X33917635Y-45023561D01*
X33923726Y-45019254D01*
X33935810Y-45006535D01*
X33948620Y-44994535D01*
X33952971Y-44988473D01*
X33958113Y-44983061D01*
X33967502Y-44968228D01*
X33977730Y-44953978D01*
X33980821Y-44947187D01*
X33984814Y-44940878D01*
X33991141Y-44924508D01*
X33998409Y-44908539D01*
X33999540Y-44905151D01*
X34007611Y-44880413D01*
X34012656Y-44857597D01*
X34017999Y-44834759D01*
X34018385Y-44831689D01*
X34018390Y-44831668D01*
X34018390Y-44831649D01*
X34018445Y-44831215D01*
X34025005Y-44775933D01*
X34025111Y-44770717D01*
X34026021Y-44765577D01*
X34026272Y-44762014D01*
X34031318Y-44682613D01*
X34031260Y-44680919D01*
X34031510Y-44679241D01*
X34031664Y-44675672D01*
X34035190Y-44578579D01*
X34035160Y-44578084D01*
X34035224Y-44577592D01*
X34035315Y-44574021D01*
X34037317Y-44465664D01*
X34037314Y-44465626D01*
X34037319Y-44465583D01*
X34037359Y-44462011D01*
X34037409Y-44450000D01*
X34453874Y-44450000D01*
X34475128Y-44665794D01*
X34538073Y-44873296D01*
X34640290Y-45064531D01*
X34777851Y-45232149D01*
X34945469Y-45369710D01*
X35136704Y-45471927D01*
X35344206Y-45534872D01*
X35505925Y-45550800D01*
X35614075Y-45550800D01*
X35775794Y-45534872D01*
X35983296Y-45471927D01*
X36174531Y-45369710D01*
X36342149Y-45232149D01*
X36479710Y-45064531D01*
X36581927Y-44873296D01*
X36644872Y-44665794D01*
X36666126Y-44450000D01*
X36644872Y-44234206D01*
X36581927Y-44026704D01*
X36479710Y-43835469D01*
X36342149Y-43667851D01*
X36174531Y-43530290D01*
X35983296Y-43428073D01*
X35775794Y-43365128D01*
X35614075Y-43349200D01*
X35505925Y-43349200D01*
X35344206Y-43365128D01*
X35136704Y-43428073D01*
X34945469Y-43530290D01*
X34777851Y-43667851D01*
X34640290Y-43835469D01*
X34538073Y-44026704D01*
X34475128Y-44234206D01*
X34453874Y-44450000D01*
X34037409Y-44450000D01*
X34037834Y-44348813D01*
X34037833Y-44348800D01*
X34037824Y-44345313D01*
X34036765Y-44233701D01*
X34036743Y-44233499D01*
X34036761Y-44233294D01*
X34036697Y-44229722D01*
X34034102Y-44126124D01*
X34033986Y-44125187D01*
X34034048Y-44124245D01*
X34033907Y-44120676D01*
X34029771Y-44031515D01*
X34029352Y-44028630D01*
X34029436Y-44025718D01*
X34029165Y-44022156D01*
X34023482Y-43953860D01*
X34021695Y-43944083D01*
X34021071Y-43934166D01*
X34020475Y-43930644D01*
X34013243Y-43889638D01*
X34009968Y-43877910D01*
X34007883Y-43865905D01*
X34003268Y-43853918D01*
X33999816Y-43841554D01*
X33994324Y-43830682D01*
X33989948Y-43819315D01*
X33988324Y-43816134D01*
X33983964Y-43807742D01*
X33978471Y-43799300D01*
X33977305Y-43796993D01*
X33975295Y-43794421D01*
X33973115Y-43791071D01*
X33962937Y-43773978D01*
X33959520Y-43770180D01*
X33956734Y-43765898D01*
X33942848Y-43751645D01*
X33929549Y-43736861D01*
X33925463Y-43733801D01*
X33921896Y-43730140D01*
X33905502Y-43718854D01*
X33889589Y-43706937D01*
X33884984Y-43704728D01*
X33880775Y-43701830D01*
X33862514Y-43693948D01*
X33844577Y-43685343D01*
X33841213Y-43684143D01*
X33816940Y-43675677D01*
X33807298Y-43673340D01*
X33798008Y-43669886D01*
X33794548Y-43668998D01*
X33739276Y-43655225D01*
X33737713Y-43654994D01*
X33736215Y-43654482D01*
X33732733Y-43653686D01*
X33651968Y-43635800D01*
X33651919Y-43635794D01*
X33651879Y-43635781D01*
X33648386Y-43635034D01*
X33547636Y-43614232D01*
X33547590Y-43614227D01*
X33544987Y-43613700D01*
X33429758Y-43591175D01*
X33429697Y-43591169D01*
X33427954Y-43590829D01*
X33365173Y-43579024D01*
X33365155Y-43579022D01*
X33364906Y-43578974D01*
X33246374Y-43556816D01*
X33140740Y-43536755D01*
X33075777Y-43524178D01*
X33070365Y-43511866D01*
X33035494Y-43431166D01*
X32997803Y-43342892D01*
X32960217Y-43253929D01*
X32925683Y-43171227D01*
X32915168Y-43145624D01*
X32926383Y-43128376D01*
X32980836Y-43046688D01*
X33045095Y-42951990D01*
X33082543Y-42897461D01*
X33082564Y-42897423D01*
X33082963Y-42896847D01*
X33152009Y-42795678D01*
X33152035Y-42795630D01*
X33153466Y-42793519D01*
X33214791Y-42701668D01*
X33214801Y-42701650D01*
X33216540Y-42699013D01*
X33267153Y-42621127D01*
X33267471Y-42620514D01*
X33267900Y-42619971D01*
X33269809Y-42616952D01*
X33306717Y-42557677D01*
X33308515Y-42554041D01*
X33310880Y-42550749D01*
X33312650Y-42547647D01*
X33332861Y-42511629D01*
X33340595Y-42494010D01*
X33349105Y-42476772D01*
X33350343Y-42473421D01*
X33353262Y-42465348D01*
X33357667Y-42448035D01*
X33363032Y-42430989D01*
X33363813Y-42423885D01*
X33365573Y-42416966D01*
X33366532Y-42399136D01*
X33368484Y-42381365D01*
X33367870Y-42374245D01*
X33368253Y-42367115D01*
X33365728Y-42349427D01*
X33364192Y-42331625D01*
X33362207Y-42324763D01*
X33361198Y-42317692D01*
X33359623Y-42313200D01*
X34531977Y-42313200D01*
X34538073Y-42333296D01*
X34640290Y-42524531D01*
X34777851Y-42692149D01*
X34945469Y-42829710D01*
X35136704Y-42931927D01*
X35344206Y-42994872D01*
X35505925Y-43010800D01*
X35614075Y-43010800D01*
X35775794Y-42994872D01*
X35983296Y-42931927D01*
X36174531Y-42829710D01*
X36342149Y-42692149D01*
X36479710Y-42524531D01*
X36581927Y-42333296D01*
X36644872Y-42125794D01*
X36666126Y-41910000D01*
X36644872Y-41694206D01*
X36581927Y-41486704D01*
X36479710Y-41295469D01*
X36342149Y-41127851D01*
X36174531Y-40990290D01*
X35983296Y-40888073D01*
X35775794Y-40825128D01*
X35614075Y-40809200D01*
X35505925Y-40809200D01*
X35344206Y-40825128D01*
X35136704Y-40888073D01*
X34945469Y-40990290D01*
X34777851Y-41127851D01*
X34640290Y-41295469D01*
X34538073Y-41486704D01*
X34531977Y-41506800D01*
X33441011Y-41506800D01*
X32407200Y-40472990D01*
X32407200Y-40226192D01*
X32443268Y-40313269D01*
X32514491Y-40419861D01*
X32605139Y-40510509D01*
X32711731Y-40581732D01*
X32830169Y-40630790D01*
X32955902Y-40655800D01*
X33084098Y-40655800D01*
X33209831Y-40630790D01*
X33328269Y-40581732D01*
X33434861Y-40510509D01*
X33525509Y-40419861D01*
X33533301Y-40408200D01*
X34397209Y-40408200D01*
X34417000Y-40410149D01*
X34436791Y-40408200D01*
X34436798Y-40408200D01*
X34496041Y-40402365D01*
X34572044Y-40379310D01*
X34642089Y-40341870D01*
X34703484Y-40291484D01*
X34716107Y-40276103D01*
X34812020Y-40180191D01*
X34945469Y-40289710D01*
X35136704Y-40391927D01*
X35344206Y-40454872D01*
X35505925Y-40470800D01*
X35614075Y-40470800D01*
X35775794Y-40454872D01*
X35983296Y-40391927D01*
X36174531Y-40289710D01*
X36342149Y-40152149D01*
X36479710Y-39984531D01*
X36581927Y-39793296D01*
X36644872Y-39585794D01*
X36666126Y-39370000D01*
X36644872Y-39154206D01*
X36581927Y-38946704D01*
X36479710Y-38755469D01*
X36342149Y-38587851D01*
X36174531Y-38450290D01*
X35983296Y-38348073D01*
X35775794Y-38285128D01*
X35614075Y-38269200D01*
X35505925Y-38269200D01*
X35344206Y-38285128D01*
X35136704Y-38348073D01*
X34945469Y-38450290D01*
X34777851Y-38587851D01*
X34640290Y-38755469D01*
X34538073Y-38946704D01*
X34475128Y-39154206D01*
X34453874Y-39370000D01*
X34456377Y-39395413D01*
X34249990Y-39601800D01*
X33533301Y-39601800D01*
X33525509Y-39590139D01*
X33434861Y-39499491D01*
X33328269Y-39428268D01*
X33209831Y-39379210D01*
X33163529Y-39370000D01*
X33209831Y-39360790D01*
X33328269Y-39311732D01*
X33434861Y-39240509D01*
X33525509Y-39149861D01*
X33596732Y-39043269D01*
X33645790Y-38924831D01*
X33670800Y-38799098D01*
X33670800Y-38670902D01*
X33668064Y-38657147D01*
X34307109Y-38018102D01*
X34322484Y-38005484D01*
X34345207Y-37977797D01*
X34372869Y-37944090D01*
X34379973Y-37930800D01*
X34410310Y-37874044D01*
X34433365Y-37798041D01*
X34439200Y-37738798D01*
X34439200Y-37738791D01*
X34441149Y-37719000D01*
X34439200Y-37699209D01*
X34439200Y-36830000D01*
X34453874Y-36830000D01*
X34475128Y-37045794D01*
X34538073Y-37253296D01*
X34640290Y-37444531D01*
X34777851Y-37612149D01*
X34945469Y-37749710D01*
X35136704Y-37851927D01*
X35344206Y-37914872D01*
X35505925Y-37930800D01*
X35614075Y-37930800D01*
X35775794Y-37914872D01*
X35983296Y-37851927D01*
X36174531Y-37749710D01*
X36342149Y-37612149D01*
X36479710Y-37444531D01*
X36581927Y-37253296D01*
X36644872Y-37045794D01*
X36666126Y-36830000D01*
X36644872Y-36614206D01*
X36581927Y-36406704D01*
X36479710Y-36215469D01*
X36342149Y-36047851D01*
X36174531Y-35910290D01*
X35983296Y-35808073D01*
X35775794Y-35745128D01*
X35614075Y-35729200D01*
X35505925Y-35729200D01*
X35344206Y-35745128D01*
X35136704Y-35808073D01*
X34945469Y-35910290D01*
X34777851Y-36047851D01*
X34640290Y-36215469D01*
X34538073Y-36406704D01*
X34475128Y-36614206D01*
X34453874Y-36830000D01*
X34439200Y-36830000D01*
X34439200Y-35981010D01*
X35118183Y-35302027D01*
X35136704Y-35311927D01*
X35344206Y-35374872D01*
X35505925Y-35390800D01*
X35614075Y-35390800D01*
X35775794Y-35374872D01*
X35983296Y-35311927D01*
X36174531Y-35209710D01*
X36342149Y-35072149D01*
X36479710Y-34904531D01*
X36581927Y-34713296D01*
X36644872Y-34505794D01*
X36666126Y-34290000D01*
X36644872Y-34074206D01*
X36581927Y-33866704D01*
X36479710Y-33675469D01*
X36342149Y-33507851D01*
X36174531Y-33370290D01*
X35983296Y-33268073D01*
X35775794Y-33205128D01*
X35614075Y-33189200D01*
X35505925Y-33189200D01*
X35344206Y-33205128D01*
X35136704Y-33268073D01*
X34945469Y-33370290D01*
X34777851Y-33507851D01*
X34640290Y-33675469D01*
X34538073Y-33866704D01*
X34475128Y-34074206D01*
X34453874Y-34290000D01*
X34475128Y-34505794D01*
X34538073Y-34713296D01*
X34547973Y-34731817D01*
X33764897Y-35514893D01*
X33749516Y-35527516D01*
X33699130Y-35588912D01*
X33661690Y-35658957D01*
X33645629Y-35711904D01*
X33638636Y-35734958D01*
X33638635Y-35734960D01*
X33632800Y-35794203D01*
X33632800Y-35794209D01*
X33630851Y-35814000D01*
X33632800Y-35833791D01*
X33632801Y-37551988D01*
X33097853Y-38086936D01*
X33084098Y-38084200D01*
X32955902Y-38084200D01*
X32830169Y-38109210D01*
X32711731Y-38158268D01*
X32605139Y-38229491D01*
X32514491Y-38320139D01*
X32443268Y-38426731D01*
X32407200Y-38513808D01*
X32407200Y-33986191D01*
X32409149Y-33966400D01*
X32407200Y-33946609D01*
X32407200Y-33946602D01*
X32401365Y-33887359D01*
X32398076Y-33876516D01*
X32378310Y-33811355D01*
X32340870Y-33741311D01*
X32322640Y-33719098D01*
X32290484Y-33679916D01*
X32275104Y-33667294D01*
X31705664Y-33097854D01*
X31708400Y-33084098D01*
X31708400Y-32955902D01*
X31683390Y-32830169D01*
X31634332Y-32711731D01*
X31563109Y-32605139D01*
X31472461Y-32514491D01*
X31365869Y-32443268D01*
X31247431Y-32394210D01*
X31121698Y-32369200D01*
X31017233Y-32369200D01*
X31233233Y-32153200D01*
X34457987Y-32153200D01*
X34457987Y-32600000D01*
X34462829Y-32649165D01*
X34477170Y-32696441D01*
X34500459Y-32740011D01*
X34531800Y-32778200D01*
X34569989Y-32809541D01*
X34613559Y-32832830D01*
X34660835Y-32847171D01*
X34710000Y-32852013D01*
X36410000Y-32852013D01*
X36459165Y-32847171D01*
X36506441Y-32832830D01*
X36550011Y-32809541D01*
X36588200Y-32778200D01*
X36619541Y-32740011D01*
X36642830Y-32696441D01*
X36657171Y-32649165D01*
X36662013Y-32600000D01*
X36662013Y-30900000D01*
X36657171Y-30850835D01*
X36642830Y-30803559D01*
X36619541Y-30759989D01*
X36588200Y-30721800D01*
X36550011Y-30690459D01*
X36506441Y-30667170D01*
X36459165Y-30652829D01*
X36410000Y-30647987D01*
X34710000Y-30647987D01*
X34660835Y-30652829D01*
X34613559Y-30667170D01*
X34569989Y-30690459D01*
X34531800Y-30721800D01*
X34500459Y-30759989D01*
X34477170Y-30803559D01*
X34462829Y-30850835D01*
X34457987Y-30900000D01*
X34457987Y-31346800D01*
X31086014Y-31346800D01*
X31066223Y-31344851D01*
X31046432Y-31346800D01*
X31046425Y-31346800D01*
X30987182Y-31352635D01*
X30911179Y-31375690D01*
X30841134Y-31413130D01*
X30779739Y-31463516D01*
X30767116Y-31478897D01*
X29964491Y-32281522D01*
X29949116Y-32294140D01*
X29936498Y-32309515D01*
X29936495Y-32309518D01*
X29898730Y-32355535D01*
X29861290Y-32425580D01*
X29838234Y-32501583D01*
X29830450Y-32580624D01*
X29832400Y-32600425D01*
X29832400Y-33456984D01*
X29786732Y-33346731D01*
X29715509Y-33240139D01*
X29624861Y-33149491D01*
X29518269Y-33078268D01*
X29399831Y-33029210D01*
X29274098Y-33004200D01*
X29145902Y-33004200D01*
X29020169Y-33029210D01*
X28901731Y-33078268D01*
X28795139Y-33149491D01*
X28704491Y-33240139D01*
X28633268Y-33346731D01*
X28584210Y-33465169D01*
X28559200Y-33590902D01*
X28559200Y-33719098D01*
X28584210Y-33844831D01*
X28633268Y-33963269D01*
X28704491Y-34069861D01*
X28795139Y-34160509D01*
X28901731Y-34231732D01*
X29020169Y-34280790D01*
X29145902Y-34305800D01*
X29274098Y-34305800D01*
X29287853Y-34303064D01*
X29314801Y-34330012D01*
X29314800Y-37102437D01*
X29310835Y-37102828D01*
X29263558Y-37117169D01*
X29219989Y-37140458D01*
X29210000Y-37148656D01*
X29200011Y-37140458D01*
X29156442Y-37117169D01*
X29109165Y-37102828D01*
X29060000Y-37097986D01*
X28560000Y-37097986D01*
X28535550Y-37100394D01*
X28510991Y-37100394D01*
X28461826Y-37105236D01*
X28365693Y-37124358D01*
X28318418Y-37138699D01*
X28227862Y-37176208D01*
X28213887Y-37183677D01*
X28210790Y-37180580D01*
X28210790Y-36073301D01*
X28222451Y-36065509D01*
X28313099Y-35974861D01*
X28384322Y-35868269D01*
X28433380Y-35749831D01*
X28458390Y-35624098D01*
X28458390Y-35495902D01*
X28433380Y-35370169D01*
X28384322Y-35251731D01*
X28313099Y-35145139D01*
X28222451Y-35054491D01*
X28115859Y-34983268D01*
X27997421Y-34934210D01*
X27871688Y-34909200D01*
X27743492Y-34909200D01*
X27617759Y-34934210D01*
X27499321Y-34983268D01*
X27392729Y-35054491D01*
X27302081Y-35145139D01*
X27230858Y-35251731D01*
X27181800Y-35370169D01*
X27156790Y-35495902D01*
X27156790Y-35624098D01*
X27181800Y-35749831D01*
X27230858Y-35868269D01*
X27302081Y-35974861D01*
X27392729Y-36065509D01*
X27404390Y-36073301D01*
X27404390Y-36145482D01*
X27404391Y-36145492D01*
X27404390Y-37327799D01*
X27402441Y-37347590D01*
X27404390Y-37367381D01*
X27404390Y-37367387D01*
X27410225Y-37426630D01*
X27433280Y-37502633D01*
X27470720Y-37572678D01*
X27521106Y-37634074D01*
X27536487Y-37646697D01*
X27807986Y-37918196D01*
X27807986Y-38350000D01*
X27810394Y-38374450D01*
X27810394Y-38399009D01*
X27815236Y-38448174D01*
X27834358Y-38544307D01*
X27848699Y-38591582D01*
X27886208Y-38682138D01*
X27909497Y-38725710D01*
X27963953Y-38807209D01*
X27995294Y-38845398D01*
X28064602Y-38914706D01*
X28102791Y-38946047D01*
X28184290Y-39000503D01*
X28227862Y-39023792D01*
X28318418Y-39061301D01*
X28365693Y-39075642D01*
X28461826Y-39094764D01*
X28510991Y-39099606D01*
X28535550Y-39099606D01*
X28560000Y-39102014D01*
X29060000Y-39102014D01*
X29109165Y-39097172D01*
X29156442Y-39082831D01*
X29200011Y-39059542D01*
X29210000Y-39051344D01*
X29219989Y-39059542D01*
X29263558Y-39082831D01*
X29310835Y-39097172D01*
X29360000Y-39102014D01*
X29860000Y-39102014D01*
X29884450Y-39099606D01*
X29909009Y-39099606D01*
X29958174Y-39094764D01*
X30054307Y-39075642D01*
X30101582Y-39061301D01*
X30192138Y-39023792D01*
X30235710Y-39000503D01*
X30317209Y-38946047D01*
X30355398Y-38914706D01*
X30424706Y-38845398D01*
X30456047Y-38807209D01*
X30510503Y-38725710D01*
X30533792Y-38682138D01*
X30571301Y-38591582D01*
X30585642Y-38544307D01*
X30604764Y-38448174D01*
X30609606Y-38399009D01*
X30609606Y-38374450D01*
X30612014Y-38350000D01*
X30612014Y-37850000D01*
X30609606Y-37825550D01*
X30609606Y-37800991D01*
X30604764Y-37751826D01*
X30585642Y-37655693D01*
X30571301Y-37608418D01*
X30533792Y-37517862D01*
X30510503Y-37474290D01*
X30456047Y-37392791D01*
X30424706Y-37354602D01*
X30355398Y-37285294D01*
X30317209Y-37253953D01*
X30235710Y-37199497D01*
X30192138Y-37176208D01*
X30121200Y-37146825D01*
X30121200Y-37118968D01*
X30171731Y-37152732D01*
X30290169Y-37201790D01*
X30415902Y-37226800D01*
X30544098Y-37226800D01*
X30669831Y-37201790D01*
X30788269Y-37152732D01*
X30894861Y-37081509D01*
X30985509Y-36990861D01*
X31056732Y-36884269D01*
X31105790Y-36765831D01*
X31130800Y-36640098D01*
X31130800Y-36511902D01*
X31105790Y-36386169D01*
X31056732Y-36267731D01*
X30985509Y-36161139D01*
X30894861Y-36070491D01*
X30883200Y-36062699D01*
X30883200Y-35833787D01*
X30885149Y-35813999D01*
X30883200Y-35794211D01*
X30883200Y-35794202D01*
X30877365Y-35734959D01*
X30854310Y-35658956D01*
X30816870Y-35588911D01*
X30766484Y-35527516D01*
X30751103Y-35514893D01*
X30638799Y-35402589D01*
X30638799Y-33521569D01*
X30642739Y-33525509D01*
X30749331Y-33596732D01*
X30867769Y-33645790D01*
X30993502Y-33670800D01*
X31121698Y-33670800D01*
X31135454Y-33668064D01*
X31600800Y-34133410D01*
X31600801Y-40620199D01*
X31598851Y-40640000D01*
X31606635Y-40719041D01*
X31629691Y-40795044D01*
X31667131Y-40865089D01*
X31685994Y-40888073D01*
X31717517Y-40926484D01*
X31732892Y-40939102D01*
X32320692Y-41526902D01*
X32277107Y-41554129D01*
X32276774Y-41554385D01*
X32276397Y-41554574D01*
X32273387Y-41556498D01*
X32206543Y-41599874D01*
X32206495Y-41599913D01*
X32204646Y-41601117D01*
X32120358Y-41656881D01*
X32120311Y-41656919D01*
X32119026Y-41657768D01*
X32021671Y-41723056D01*
X32021631Y-41723089D01*
X32020694Y-41723714D01*
X31947257Y-41773454D01*
X31947232Y-41773475D01*
X31946869Y-41773718D01*
X31689770Y-41948544D01*
X31326779Y-41798907D01*
X31268647Y-41490543D01*
X31268647Y-41490542D01*
X31184826Y-41045918D01*
X31184748Y-41045651D01*
X31184723Y-41045375D01*
X31177718Y-41021574D01*
X31170834Y-40997996D01*
X31170707Y-40997752D01*
X31170628Y-40997483D01*
X31159201Y-40975625D01*
X31147801Y-40953703D01*
X31147625Y-40953484D01*
X31147498Y-40953240D01*
X31132105Y-40934095D01*
X31116602Y-40914728D01*
X31116390Y-40914549D01*
X31116216Y-40914333D01*
X31097200Y-40898376D01*
X31078428Y-40882556D01*
X31078188Y-40882423D01*
X31077973Y-40882243D01*
X31056398Y-40870382D01*
X31034733Y-40858410D01*
X31034464Y-40858324D01*
X31034224Y-40858192D01*
X31010905Y-40850795D01*
X30987178Y-40843212D01*
X30986901Y-40843180D01*
X30986638Y-40843097D01*
X30962056Y-40840340D01*
X30937579Y-40837541D01*
X30937306Y-40837563D01*
X30937026Y-40837532D01*
X30933454Y-40837507D01*
X30008006Y-40837507D01*
X30007727Y-40837534D01*
X30007453Y-40837508D01*
X29982761Y-40839982D01*
X29958321Y-40842379D01*
X29958060Y-40842458D01*
X29957779Y-40842486D01*
X29934063Y-40849703D01*
X29910528Y-40856808D01*
X29910281Y-40856939D01*
X29910016Y-40857020D01*
X29888214Y-40868673D01*
X29866448Y-40880246D01*
X29866234Y-40880420D01*
X29865988Y-40880552D01*
X29846719Y-40896337D01*
X29827761Y-40911799D01*
X29827586Y-40912010D01*
X29827368Y-40912189D01*
X29811633Y-40931293D01*
X29795938Y-40950265D01*
X29795804Y-40950512D01*
X29795629Y-40950725D01*
X29784042Y-40972267D01*
X29772193Y-40994181D01*
X29772110Y-40994450D01*
X29771980Y-40994691D01*
X29764757Y-41018203D01*
X29757431Y-41041871D01*
X29757402Y-41042146D01*
X29757320Y-41042413D01*
X29756634Y-41045918D01*
X29672819Y-41490516D01*
X29672814Y-41490542D01*
X29614681Y-41798907D01*
X29433589Y-41873559D01*
X29433586Y-41873561D01*
X29251691Y-41948543D01*
X28994592Y-41773718D01*
X28994563Y-41773702D01*
X28994021Y-41773330D01*
X28890110Y-41703081D01*
X28890059Y-41703053D01*
X28888899Y-41702267D01*
X28794968Y-41639542D01*
X28794913Y-41639513D01*
X28793484Y-41638558D01*
X28713919Y-41586224D01*
X28713872Y-41586200D01*
X28711633Y-41584738D01*
X28650815Y-41545657D01*
X28649677Y-41545074D01*
X28648671Y-41544295D01*
X28645634Y-41542415D01*
X28607947Y-41519451D01*
X28598276Y-41514785D01*
X28589185Y-41509071D01*
X28585979Y-41507497D01*
X28575714Y-41502545D01*
X28568344Y-41499841D01*
X28561410Y-41496178D01*
X28544970Y-41491263D01*
X28528847Y-41485347D01*
X28521094Y-41484126D01*
X28513578Y-41481879D01*
X28496494Y-41480251D01*
X28479531Y-41477579D01*
X28471688Y-41477887D01*
X28463881Y-41477143D01*
X28446806Y-41478864D01*
X28429646Y-41479538D01*
X28422015Y-41481363D01*
X28414208Y-41482150D01*
X28397781Y-41487159D01*
X28381092Y-41491150D01*
X28373964Y-41494421D01*
X28366456Y-41496710D01*
X28351323Y-41504810D01*
X28335718Y-41511970D01*
X28329355Y-41516568D01*
X28322441Y-41520268D01*
X28319485Y-41522273D01*
X28300995Y-41535007D01*
X28290162Y-41544148D01*
X28278597Y-41552337D01*
X28275914Y-41554695D01*
X28236404Y-41589901D01*
X28234936Y-41591492D01*
X28233211Y-41592795D01*
X28230602Y-41595234D01*
X28174499Y-41648414D01*
X28174426Y-41648499D01*
X28174343Y-41648563D01*
X28171770Y-41651040D01*
X28103505Y-41717696D01*
X28103468Y-41717740D01*
X28101768Y-41719408D01*
X28025770Y-41795044D01*
X28025731Y-41795091D01*
X28024417Y-41796400D01*
X27945111Y-41876518D01*
X27945070Y-41876568D01*
X27943851Y-41877800D01*
X27865668Y-41957902D01*
X27865631Y-41957948D01*
X27864274Y-41959341D01*
X27791642Y-42034931D01*
X27791610Y-42034971D01*
X27789802Y-42036866D01*
X27727150Y-42103447D01*
X27726893Y-42103780D01*
X27726578Y-42104057D01*
X27724157Y-42106684D01*
X27675913Y-42159756D01*
X27673920Y-42162433D01*
X27671504Y-42164735D01*
X27669190Y-42167456D01*
X27639782Y-42202526D01*
X27629383Y-42217724D01*
X27618213Y-42232373D01*
X27616356Y-42235425D01*
X27609325Y-42247161D01*
X27599421Y-42268089D01*
X27589218Y-42288881D01*
X27588748Y-42290641D01*
X27587970Y-42292286D01*
X27582322Y-42314730D01*
X27576349Y-42337117D01*
X27576230Y-42338935D01*
X27575786Y-42340700D01*
X27574605Y-42363807D01*
X27573094Y-42386935D01*
X27573331Y-42388743D01*
X27573238Y-42390559D01*
X27576567Y-42413451D01*
X27579578Y-42436435D01*
X27580161Y-42438162D01*
X27580423Y-42439962D01*
X27588145Y-42461803D01*
X27595552Y-42483733D01*
X27597043Y-42486979D01*
X27597061Y-42487017D01*
X27597065Y-42487029D01*
X27597072Y-42487040D01*
X27607161Y-42508617D01*
X27612896Y-42518291D01*
X27617560Y-42528527D01*
X27619373Y-42531605D01*
X27647737Y-42579007D01*
X27648786Y-42580425D01*
X27649563Y-42582012D01*
X27651460Y-42585038D01*
X27695090Y-42653569D01*
X27695153Y-42653649D01*
X27695201Y-42653744D01*
X27697143Y-42656742D01*
X27753054Y-42741763D01*
X27753079Y-42741794D01*
X27754579Y-42744056D01*
X27819791Y-42840934D01*
X27819832Y-42840983D01*
X27820844Y-42842486D01*
X27858511Y-42897568D01*
X27858512Y-42897569D01*
X27926911Y-42997768D01*
X27986938Y-43087070D01*
X28026111Y-43146471D01*
X28020584Y-43159938D01*
X27986690Y-43241113D01*
X27949524Y-43329088D01*
X27911545Y-43418076D01*
X27876026Y-43500381D01*
X27865585Y-43524204D01*
X27850440Y-43527178D01*
X27754238Y-43545625D01*
X27642515Y-43566684D01*
X27642505Y-43566686D01*
X27576706Y-43578945D01*
X27576655Y-43578960D01*
X27575715Y-43579132D01*
X27455207Y-43602076D01*
X27455151Y-43602092D01*
X27452743Y-43602558D01*
X27343896Y-43624391D01*
X27343863Y-43624401D01*
X27340914Y-43625007D01*
X27249236Y-43644534D01*
X27248698Y-43644705D01*
X27248142Y-43644770D01*
X27244657Y-43645553D01*
X27175651Y-43661579D01*
X27172174Y-43662754D01*
X27168553Y-43663335D01*
X27165104Y-43664267D01*
X27124282Y-43675598D01*
X27109003Y-43681497D01*
X27093342Y-43686362D01*
X27090060Y-43687772D01*
X27081853Y-43691367D01*
X27078329Y-43693341D01*
X27077710Y-43693580D01*
X27076807Y-43694151D01*
X27071867Y-43696000D01*
X27055292Y-43706246D01*
X27038298Y-43715765D01*
X27034099Y-43719346D01*
X27029402Y-43722249D01*
X27015136Y-43735515D01*
X27000310Y-43748158D01*
X26996884Y-43752489D01*
X26992843Y-43756247D01*
X26981430Y-43772027D01*
X26969338Y-43787313D01*
X26966818Y-43792228D01*
X26963585Y-43796698D01*
X26955448Y-43814405D01*
X26946562Y-43831738D01*
X26945047Y-43837041D01*
X26942740Y-43842061D01*
X26941596Y-43845445D01*
X26933559Y-43869777D01*
X26928305Y-43893134D01*
X26922858Y-43916483D01*
X26922616Y-43918423D01*
X26922602Y-43918483D01*
X26922600Y-43918544D01*
X26922415Y-43920027D01*
X26915930Y-43974980D01*
X26915826Y-43980266D01*
X26914911Y-43985470D01*
X26914663Y-43989034D01*
X26909726Y-44068183D01*
X26909787Y-44069897D01*
X26909537Y-44071587D01*
X26909387Y-44075156D01*
X26905993Y-44172074D01*
X26906025Y-44172577D01*
X26905960Y-44173075D01*
X26905874Y-44176646D01*
X26904020Y-44284907D01*
X26904023Y-44284947D01*
X26904018Y-44284992D01*
X26903983Y-44288564D01*
X26903663Y-44401665D01*
X26018545Y-44401665D01*
X26941103Y-43479107D01*
X26956484Y-43466484D01*
X27006870Y-43405089D01*
X27012561Y-43394442D01*
X27044310Y-43335045D01*
X27067365Y-43259041D01*
X27068655Y-43245939D01*
X27073200Y-43199798D01*
X27073200Y-43199791D01*
X27075149Y-43180000D01*
X27073200Y-43160209D01*
X27073200Y-34457010D01*
X32578183Y-28952028D01*
X32596704Y-28961927D01*
X32804206Y-29024872D01*
X32965925Y-29040800D01*
X33074075Y-29040800D01*
X33235794Y-29024872D01*
X33443296Y-28961927D01*
X33634531Y-28859710D01*
X33802149Y-28722149D01*
X33939710Y-28554531D01*
X34041927Y-28363296D01*
X34043296Y-28358780D01*
X34214874Y-28358780D01*
X34322420Y-28613154D01*
X34477526Y-28841659D01*
X34674230Y-29035514D01*
X34904974Y-29187269D01*
X35141221Y-29285118D01*
X35356800Y-29192727D01*
X35356800Y-28143200D01*
X35763200Y-28143200D01*
X35763200Y-29192727D01*
X35978779Y-29285118D01*
X36215026Y-29187269D01*
X36445770Y-29035514D01*
X36642474Y-28841659D01*
X36797580Y-28613154D01*
X36905126Y-28358780D01*
X36814377Y-28143200D01*
X35763200Y-28143200D01*
X35356800Y-28143200D01*
X34305623Y-28143200D01*
X34214874Y-28358780D01*
X34043296Y-28358780D01*
X34104872Y-28155794D01*
X34126126Y-27940000D01*
X34104872Y-27724206D01*
X34043297Y-27521220D01*
X34214874Y-27521220D01*
X34305623Y-27736800D01*
X35356800Y-27736800D01*
X35356800Y-26687273D01*
X35763200Y-26687273D01*
X35763200Y-27736800D01*
X36814377Y-27736800D01*
X36905126Y-27521220D01*
X36797580Y-27266846D01*
X36642474Y-27038341D01*
X36445770Y-26844486D01*
X36215026Y-26692731D01*
X35978779Y-26594882D01*
X35763200Y-26687273D01*
X35356800Y-26687273D01*
X35141221Y-26594882D01*
X34904974Y-26692731D01*
X34674230Y-26844486D01*
X34477526Y-27038341D01*
X34322420Y-27266846D01*
X34214874Y-27521220D01*
X34043297Y-27521220D01*
X34041927Y-27516704D01*
X33939710Y-27325469D01*
X33802149Y-27157851D01*
X33634531Y-27020290D01*
X33443296Y-26918073D01*
X33235794Y-26855128D01*
X33074075Y-26839200D01*
X32965925Y-26839200D01*
X32804206Y-26855128D01*
X32596704Y-26918073D01*
X32405469Y-27020290D01*
X32237851Y-27157851D01*
X32100290Y-27325469D01*
X31998073Y-27516704D01*
X31935128Y-27724206D01*
X31913874Y-27940000D01*
X31935128Y-28155794D01*
X31998073Y-28363296D01*
X32007972Y-28381817D01*
X26438200Y-33951590D01*
X26438200Y-32552010D01*
X30038183Y-28952028D01*
X30056704Y-28961927D01*
X30264206Y-29024872D01*
X30425925Y-29040800D01*
X30534075Y-29040800D01*
X30695794Y-29024872D01*
X30903296Y-28961927D01*
X31094531Y-28859710D01*
X31262149Y-28722149D01*
X31399710Y-28554531D01*
X31501927Y-28363296D01*
X31564872Y-28155794D01*
X31586126Y-27940000D01*
X31564872Y-27724206D01*
X31501927Y-27516704D01*
X31399710Y-27325469D01*
X31262149Y-27157851D01*
X31094531Y-27020290D01*
X30903296Y-26918073D01*
X30695794Y-26855128D01*
X30534075Y-26839200D01*
X30425925Y-26839200D01*
X30264206Y-26855128D01*
X30056704Y-26918073D01*
X29865469Y-27020290D01*
X29697851Y-27157851D01*
X29560290Y-27325469D01*
X29458073Y-27516704D01*
X29395128Y-27724206D01*
X29373874Y-27940000D01*
X29395128Y-28155794D01*
X29458073Y-28363296D01*
X29467972Y-28381817D01*
X25803200Y-32046590D01*
X25803200Y-30647010D01*
X27498183Y-28952027D01*
X27516704Y-28961927D01*
X27724206Y-29024872D01*
X27885925Y-29040800D01*
X27994075Y-29040800D01*
X28155794Y-29024872D01*
X28363296Y-28961927D01*
X28554531Y-28859710D01*
X28722149Y-28722149D01*
X28859710Y-28554531D01*
X28961927Y-28363296D01*
X29024872Y-28155794D01*
X29046126Y-27940000D01*
X29024872Y-27724206D01*
X28961927Y-27516704D01*
X28859710Y-27325469D01*
X28722149Y-27157851D01*
X28554531Y-27020290D01*
X28363296Y-26918073D01*
X28155794Y-26855128D01*
X27994075Y-26839200D01*
X27885925Y-26839200D01*
X27724206Y-26855128D01*
X27516704Y-26918073D01*
X27325469Y-27020290D01*
X27157851Y-27157851D01*
X27020290Y-27325469D01*
X26918073Y-27516704D01*
X26855128Y-27724206D01*
X26833874Y-27940000D01*
X26855128Y-28155794D01*
X26918073Y-28363296D01*
X26927973Y-28381817D01*
X25168200Y-30141590D01*
X25168200Y-29020017D01*
X25184206Y-29024872D01*
X25345925Y-29040800D01*
X25454075Y-29040800D01*
X25615794Y-29024872D01*
X25823296Y-28961927D01*
X26014531Y-28859710D01*
X26182149Y-28722149D01*
X26319710Y-28554531D01*
X26421927Y-28363296D01*
X26484872Y-28155794D01*
X26506126Y-27940000D01*
X26484872Y-27724206D01*
X26421927Y-27516704D01*
X26319710Y-27325469D01*
X26182149Y-27157851D01*
X26014531Y-27020290D01*
X25823296Y-26918073D01*
X25615794Y-26855128D01*
X25454075Y-26839200D01*
X25345925Y-26839200D01*
X25184206Y-26855128D01*
X24976704Y-26918073D01*
X24785469Y-27020290D01*
X24617851Y-27157851D01*
X24480290Y-27325469D01*
X24378073Y-27516704D01*
X24315128Y-27724206D01*
X24293874Y-27940000D01*
X24315128Y-28155794D01*
X24378073Y-28363296D01*
X24399524Y-28403429D01*
X24390690Y-28419957D01*
X24367635Y-28495960D01*
X24361800Y-28555203D01*
X24361800Y-28555209D01*
X24359851Y-28575000D01*
X24361800Y-28594791D01*
X24361801Y-37932988D01*
X23671353Y-38623436D01*
X23642149Y-38587851D01*
X23474531Y-38450290D01*
X23283296Y-38348073D01*
X23075794Y-38285128D01*
X22914075Y-38269200D01*
X22805925Y-38269200D01*
X22644206Y-38285128D01*
X22436704Y-38348073D01*
X22245469Y-38450290D01*
X22077851Y-38587851D01*
X21940290Y-38755469D01*
X21838073Y-38946704D01*
X21775128Y-39154206D01*
X21753874Y-39370000D01*
X20548200Y-39370000D01*
X20548200Y-30803315D01*
X20803851Y-30803315D01*
X20805800Y-30823106D01*
X20805801Y-35159199D01*
X20803851Y-35179000D01*
X20811635Y-35258041D01*
X20827982Y-35311927D01*
X20834691Y-35334044D01*
X20872131Y-35404089D01*
X20922517Y-35465484D01*
X20937892Y-35478102D01*
X21847973Y-36388183D01*
X21838073Y-36406704D01*
X21775128Y-36614206D01*
X21753874Y-36830000D01*
X21775128Y-37045794D01*
X21838073Y-37253296D01*
X21940290Y-37444531D01*
X22077851Y-37612149D01*
X22245469Y-37749710D01*
X22436704Y-37851927D01*
X22644206Y-37914872D01*
X22805925Y-37930800D01*
X22914075Y-37930800D01*
X23075794Y-37914872D01*
X23283296Y-37851927D01*
X23474531Y-37749710D01*
X23642149Y-37612149D01*
X23779710Y-37444531D01*
X23881927Y-37253296D01*
X23944872Y-37045794D01*
X23966126Y-36830000D01*
X23944872Y-36614206D01*
X23881927Y-36406704D01*
X23779710Y-36215469D01*
X23642149Y-36047851D01*
X23474531Y-35910290D01*
X23283296Y-35808073D01*
X23075794Y-35745128D01*
X22914075Y-35729200D01*
X22805925Y-35729200D01*
X22644206Y-35745128D01*
X22436704Y-35808073D01*
X22418183Y-35817973D01*
X21612200Y-35011990D01*
X21612200Y-34290000D01*
X21753874Y-34290000D01*
X21775128Y-34505794D01*
X21838073Y-34713296D01*
X21940290Y-34904531D01*
X22077851Y-35072149D01*
X22245469Y-35209710D01*
X22436704Y-35311927D01*
X22644206Y-35374872D01*
X22805925Y-35390800D01*
X22914075Y-35390800D01*
X23075794Y-35374872D01*
X23283296Y-35311927D01*
X23474531Y-35209710D01*
X23642149Y-35072149D01*
X23779710Y-34904531D01*
X23881927Y-34713296D01*
X23944872Y-34505794D01*
X23966126Y-34290000D01*
X23944872Y-34074206D01*
X23881927Y-33866704D01*
X23779710Y-33675469D01*
X23642149Y-33507851D01*
X23474531Y-33370290D01*
X23283296Y-33268073D01*
X23075794Y-33205128D01*
X22914075Y-33189200D01*
X22805925Y-33189200D01*
X22644206Y-33205128D01*
X22436704Y-33268073D01*
X22245469Y-33370290D01*
X22077851Y-33507851D01*
X21940290Y-33675469D01*
X21838073Y-33866704D01*
X21775128Y-34074206D01*
X21753874Y-34290000D01*
X21612200Y-34290000D01*
X21612200Y-30970325D01*
X21776388Y-30806137D01*
X21762829Y-30850835D01*
X21757987Y-30900000D01*
X21757987Y-32600000D01*
X21762829Y-32649165D01*
X21777170Y-32696441D01*
X21800459Y-32740011D01*
X21831800Y-32778200D01*
X21869989Y-32809541D01*
X21913559Y-32832830D01*
X21960835Y-32847171D01*
X22010000Y-32852013D01*
X23710000Y-32852013D01*
X23759165Y-32847171D01*
X23806441Y-32832830D01*
X23850011Y-32809541D01*
X23888200Y-32778200D01*
X23919541Y-32740011D01*
X23942830Y-32696441D01*
X23957171Y-32649165D01*
X23962013Y-32600000D01*
X23962013Y-30900000D01*
X23957171Y-30850835D01*
X23942830Y-30803559D01*
X23919541Y-30759989D01*
X23888200Y-30721800D01*
X23850011Y-30690459D01*
X23806441Y-30667170D01*
X23759165Y-30652829D01*
X23710000Y-30647987D01*
X22010000Y-30647987D01*
X21960835Y-30652829D01*
X21916138Y-30666388D01*
X22275078Y-30307448D01*
X22318139Y-30350509D01*
X22424731Y-30421732D01*
X22543169Y-30470790D01*
X22668902Y-30495800D01*
X22797098Y-30495800D01*
X22922831Y-30470790D01*
X23041269Y-30421732D01*
X23147861Y-30350509D01*
X23238509Y-30259861D01*
X23309732Y-30153269D01*
X23358790Y-30034831D01*
X23383800Y-29909098D01*
X23383800Y-29780902D01*
X23358790Y-29655169D01*
X23309732Y-29536731D01*
X23238509Y-29430139D01*
X23147861Y-29339491D01*
X23041269Y-29268268D01*
X22922831Y-29219210D01*
X22797098Y-29194200D01*
X22668902Y-29194200D01*
X22543169Y-29219210D01*
X22424731Y-29268268D01*
X22318139Y-29339491D01*
X22227491Y-29430139D01*
X22219699Y-29441800D01*
X22187102Y-29441800D01*
X22167314Y-29439851D01*
X22147526Y-29441800D01*
X22147517Y-29441800D01*
X22088274Y-29447635D01*
X22012271Y-29470690D01*
X21942226Y-29508130D01*
X21880831Y-29558516D01*
X21868213Y-29573891D01*
X20937897Y-30504208D01*
X20922516Y-30516831D01*
X20872130Y-30578227D01*
X20834690Y-30648272D01*
X20811635Y-30724275D01*
X20805800Y-30783518D01*
X20805800Y-30783524D01*
X20803851Y-30803315D01*
X20548200Y-30803315D01*
X20548200Y-27090000D01*
X21757987Y-27090000D01*
X21757987Y-28790000D01*
X21762829Y-28839165D01*
X21777170Y-28886441D01*
X21800459Y-28930011D01*
X21831800Y-28968200D01*
X21869989Y-28999541D01*
X21913559Y-29022830D01*
X21960835Y-29037171D01*
X22010000Y-29042013D01*
X23710000Y-29042013D01*
X23759165Y-29037171D01*
X23806441Y-29022830D01*
X23850011Y-28999541D01*
X23888200Y-28968200D01*
X23919541Y-28930011D01*
X23942830Y-28886441D01*
X23957171Y-28839165D01*
X23962013Y-28790000D01*
X23962013Y-27090000D01*
X23957171Y-27040835D01*
X23942830Y-26993559D01*
X23919541Y-26949989D01*
X23888200Y-26911800D01*
X23850011Y-26880459D01*
X23806441Y-26857170D01*
X23759165Y-26842829D01*
X23710000Y-26837987D01*
X22010000Y-26837987D01*
X21960835Y-26842829D01*
X21913559Y-26857170D01*
X21869989Y-26880459D01*
X21831800Y-26911800D01*
X21800459Y-26949989D01*
X21777170Y-26993559D01*
X21762829Y-27040835D01*
X21757987Y-27090000D01*
X20548200Y-27090000D01*
X20548200Y-26681162D01*
X20569115Y-26467859D01*
X20627820Y-26273419D01*
X20723175Y-26094080D01*
X20851545Y-25936684D01*
X21008044Y-25807216D01*
X21186712Y-25710611D01*
X21380735Y-25650550D01*
X21593379Y-25628201D01*
X36818837Y-25628201D01*
X37032142Y-25649116D01*
X37032142Y-25649116D01*
G37*
X37032142Y-25649116D02*
X37226578Y-25707819D01*
X37405915Y-25803174D01*
X37563319Y-25931548D01*
X37692782Y-26088043D01*
X37789387Y-26266707D01*
X37849449Y-26460739D01*
X37871801Y-26673400D01*
X37871799Y-50788837D01*
X37850884Y-51002142D01*
X37792181Y-51196579D01*
X37696826Y-51375915D01*
X37568454Y-51533316D01*
X37411957Y-51662782D01*
X37233289Y-51759388D01*
X37039262Y-51819449D01*
X36826610Y-51841800D01*
X33159778Y-51841800D01*
X33184966Y-51828337D01*
X33314517Y-51722017D01*
X33420837Y-51592466D01*
X33499839Y-51444662D01*
X33548489Y-51284286D01*
X33560800Y-51159290D01*
X33560800Y-50375710D01*
X33548489Y-50250714D01*
X33499839Y-50090338D01*
X33424175Y-49948779D01*
X34214882Y-49948779D01*
X34312731Y-50185026D01*
X34464486Y-50415770D01*
X34658341Y-50612474D01*
X34886846Y-50767580D01*
X35141220Y-50875126D01*
X35356800Y-50784377D01*
X35356800Y-49733200D01*
X35763200Y-49733200D01*
X35763200Y-50784377D01*
X35978780Y-50875126D01*
X36233154Y-50767580D01*
X36461659Y-50612474D01*
X36655514Y-50415770D01*
X36807269Y-50185026D01*
X36905118Y-49948779D01*
X36812727Y-49733200D01*
X35763200Y-49733200D01*
X35356800Y-49733200D01*
X34307273Y-49733200D01*
X34214882Y-49948779D01*
X33424175Y-49948779D01*
X33420837Y-49942534D01*
X33314517Y-49812983D01*
X33184965Y-49706663D01*
X33037161Y-49627661D01*
X32876785Y-49579011D01*
X32710000Y-49562584D01*
X32543214Y-49579011D01*
X32382838Y-49627661D01*
X32235034Y-49706663D01*
X32105483Y-49812983D01*
X31999163Y-49942535D01*
X31920161Y-50090339D01*
X31871511Y-50250715D01*
X31859200Y-50375711D01*
X31859200Y-51159290D01*
X31871511Y-51284286D01*
X31920162Y-51444662D01*
X31999164Y-51592466D01*
X32105484Y-51722017D01*
X32235035Y-51828337D01*
X32260223Y-51841800D01*
X26159777Y-51841800D01*
X26184965Y-51828337D01*
X26314517Y-51722017D01*
X26420837Y-51592466D01*
X26499839Y-51444662D01*
X26548489Y-51284286D01*
X26560800Y-51159290D01*
X26560800Y-50375710D01*
X26548489Y-50250714D01*
X26499839Y-50090338D01*
X26420837Y-49942534D01*
X26314517Y-49812983D01*
X26184966Y-49706663D01*
X26037162Y-49627661D01*
X25876786Y-49579011D01*
X25710000Y-49562584D01*
X25543215Y-49579011D01*
X25382839Y-49627661D01*
X25235035Y-49706663D01*
X25105484Y-49812983D01*
X24999164Y-49942534D01*
X24920162Y-50090338D01*
X24871511Y-50250714D01*
X24859200Y-50375710D01*
X24859200Y-51159289D01*
X24871511Y-51284285D01*
X24920161Y-51444661D01*
X24999163Y-51592465D01*
X25105483Y-51722017D01*
X25235034Y-51828337D01*
X25260222Y-51841800D01*
X21601152Y-51841800D01*
X21387858Y-51820886D01*
X21193420Y-51762182D01*
X21014084Y-51666827D01*
X20856686Y-51538458D01*
X20727216Y-51381957D01*
X20630611Y-51203289D01*
X20570550Y-51009265D01*
X20548200Y-50796611D01*
X20548200Y-49948779D01*
X21514882Y-49948779D01*
X21612731Y-50185026D01*
X21764486Y-50415770D01*
X21958341Y-50612474D01*
X22186846Y-50767580D01*
X22441220Y-50875126D01*
X22656800Y-50784377D01*
X22656800Y-49733200D01*
X23063200Y-49733200D01*
X23063200Y-50784377D01*
X23278780Y-50875126D01*
X23533154Y-50767580D01*
X23761659Y-50612474D01*
X23955514Y-50415770D01*
X24107269Y-50185026D01*
X24205118Y-49948779D01*
X24112727Y-49733200D01*
X23063200Y-49733200D01*
X22656800Y-49733200D01*
X21607273Y-49733200D01*
X21514882Y-49948779D01*
X20548200Y-49948779D01*
X20548200Y-49111221D01*
X21514882Y-49111221D01*
X21607273Y-49326800D01*
X22656800Y-49326800D01*
X22656800Y-48275623D01*
X23063200Y-48275623D01*
X23063200Y-49326800D01*
X24112727Y-49326800D01*
X24205118Y-49111221D01*
X34214882Y-49111221D01*
X34307273Y-49326800D01*
X35356800Y-49326800D01*
X35356800Y-48275623D01*
X35763200Y-48275623D01*
X35763200Y-49326800D01*
X36812727Y-49326800D01*
X36905118Y-49111221D01*
X36807269Y-48874974D01*
X36655514Y-48644230D01*
X36461659Y-48447526D01*
X36233154Y-48292420D01*
X35978780Y-48184874D01*
X35763200Y-48275623D01*
X35356800Y-48275623D01*
X35141220Y-48184874D01*
X34886846Y-48292420D01*
X34658341Y-48447526D01*
X34464486Y-48644230D01*
X34312731Y-48874974D01*
X34214882Y-49111221D01*
X24205118Y-49111221D01*
X24107269Y-48874974D01*
X23955514Y-48644230D01*
X23761659Y-48447526D01*
X23533154Y-48292420D01*
X23278780Y-48184874D01*
X23063200Y-48275623D01*
X22656800Y-48275623D01*
X22441220Y-48184874D01*
X22186846Y-48292420D01*
X21958341Y-48447526D01*
X21764486Y-48644230D01*
X21612731Y-48874974D01*
X21514882Y-49111221D01*
X20548200Y-49111221D01*
X20548200Y-39370000D01*
X21753874Y-39370000D01*
X21775128Y-39585794D01*
X21838073Y-39793296D01*
X21940290Y-39984531D01*
X22077851Y-40152149D01*
X22245469Y-40289710D01*
X22436704Y-40391927D01*
X22644206Y-40454872D01*
X22805925Y-40470800D01*
X22914075Y-40470800D01*
X23075794Y-40454872D01*
X23283296Y-40391927D01*
X23474531Y-40289710D01*
X23642149Y-40152149D01*
X23779710Y-39984531D01*
X23881927Y-39793296D01*
X23944872Y-39585794D01*
X23955301Y-39479909D01*
X24996801Y-38438410D01*
X24996801Y-39202988D01*
X23301817Y-40897972D01*
X23283296Y-40888073D01*
X23075794Y-40825128D01*
X22914075Y-40809200D01*
X22805925Y-40809200D01*
X22644206Y-40825128D01*
X22436704Y-40888073D01*
X22245469Y-40990290D01*
X22077851Y-41127851D01*
X21940290Y-41295469D01*
X21838073Y-41486704D01*
X21775128Y-41694206D01*
X21753874Y-41910000D01*
X21775128Y-42125794D01*
X21838073Y-42333296D01*
X21940290Y-42524531D01*
X22077851Y-42692149D01*
X22245469Y-42829710D01*
X22436704Y-42931927D01*
X22644206Y-42994872D01*
X22805925Y-43010800D01*
X22914075Y-43010800D01*
X23075794Y-42994872D01*
X23283296Y-42931927D01*
X23474531Y-42829710D01*
X23642149Y-42692149D01*
X23779710Y-42524531D01*
X23881927Y-42333296D01*
X23944872Y-42125794D01*
X23966126Y-41910000D01*
X23944872Y-41694206D01*
X23881927Y-41486704D01*
X23872028Y-41468183D01*
X24009108Y-41331103D01*
X24179134Y-41161076D01*
X24170053Y-41183000D01*
X24141200Y-41328053D01*
X24141200Y-41475947D01*
X24170053Y-41621000D01*
X24226649Y-41757637D01*
X24308815Y-41880607D01*
X24413393Y-41985185D01*
X24536363Y-42067351D01*
X24673000Y-42123947D01*
X24818053Y-42152800D01*
X24965947Y-42152800D01*
X25111000Y-42123947D01*
X25132923Y-42114866D01*
X24050989Y-43196801D01*
X23729786Y-43196801D01*
X23709998Y-43194852D01*
X23690210Y-43196801D01*
X23690201Y-43196801D01*
X23630958Y-43202636D01*
X23554955Y-43225691D01*
X23484910Y-43263131D01*
X23477665Y-43269077D01*
X23444660Y-43296164D01*
X23423515Y-43313517D01*
X23410897Y-43328892D01*
X23301817Y-43437972D01*
X23283296Y-43428073D01*
X23075794Y-43365128D01*
X22914075Y-43349200D01*
X22805925Y-43349200D01*
X22644206Y-43365128D01*
X22436704Y-43428073D01*
X22245469Y-43530290D01*
X22077851Y-43667851D01*
X21940290Y-43835469D01*
X21838073Y-44026704D01*
X21775128Y-44234206D01*
X21753874Y-44450000D01*
X21775128Y-44665794D01*
X21838073Y-44873296D01*
X21940290Y-45064531D01*
X22077851Y-45232149D01*
X22245469Y-45369710D01*
X22436704Y-45471927D01*
X22644206Y-45534872D01*
X22805925Y-45550800D01*
X22914075Y-45550800D01*
X23075794Y-45534872D01*
X23283296Y-45471927D01*
X23474531Y-45369710D01*
X23642149Y-45232149D01*
X23779710Y-45064531D01*
X23881927Y-44873296D01*
X23944872Y-44665794D01*
X23966126Y-44450000D01*
X23944872Y-44234206D01*
X23881927Y-44026704D01*
X23872028Y-44008183D01*
X23877010Y-44003201D01*
X24198208Y-44003201D01*
X24217999Y-44005150D01*
X24237790Y-44003201D01*
X24237797Y-44003201D01*
X24297040Y-43997366D01*
X24373043Y-43974311D01*
X24443088Y-43936871D01*
X24504483Y-43886485D01*
X24517106Y-43871104D01*
X26266801Y-42121410D01*
X26266801Y-43012989D01*
X23301817Y-45977973D01*
X23283296Y-45968073D01*
X23075794Y-45905128D01*
X22914075Y-45889200D01*
X22805925Y-45889200D01*
X22644206Y-45905128D01*
X22436704Y-45968073D01*
X22245469Y-46070290D01*
X22077851Y-46207851D01*
X21940290Y-46375469D01*
X21838073Y-46566704D01*
X21775128Y-46774206D01*
X21753874Y-46990000D01*
X21775128Y-47205794D01*
X21838073Y-47413296D01*
X21940290Y-47604531D01*
X22077851Y-47772149D01*
X22245469Y-47909710D01*
X22436704Y-48011927D01*
X22644206Y-48074872D01*
X22805925Y-48090800D01*
X22914075Y-48090800D01*
X23075794Y-48074872D01*
X23283296Y-48011927D01*
X23359131Y-47971392D01*
X25734200Y-47971392D01*
X25734200Y-48163608D01*
X25771700Y-48352130D01*
X25845258Y-48529714D01*
X25952047Y-48689536D01*
X26087964Y-48825453D01*
X26247786Y-48932242D01*
X26425370Y-49005800D01*
X26613892Y-49043300D01*
X26806108Y-49043300D01*
X26994630Y-49005800D01*
X27172214Y-48932242D01*
X27332036Y-48825453D01*
X27467953Y-48689536D01*
X27574742Y-48529714D01*
X27648300Y-48352130D01*
X27685800Y-48163608D01*
X27685800Y-47971392D01*
X30734200Y-47971392D01*
X30734200Y-48163608D01*
X30771700Y-48352130D01*
X30845258Y-48529714D01*
X30952047Y-48689536D01*
X31087964Y-48825453D01*
X31247786Y-48932242D01*
X31425370Y-49005800D01*
X31613892Y-49043300D01*
X31806108Y-49043300D01*
X31994630Y-49005800D01*
X32172214Y-48932242D01*
X32332036Y-48825453D01*
X32467953Y-48689536D01*
X32574742Y-48529714D01*
X32648300Y-48352130D01*
X32685800Y-48163608D01*
X32685800Y-47971392D01*
X32648300Y-47782870D01*
X32574742Y-47605286D01*
X32467953Y-47445464D01*
X32332036Y-47309547D01*
X32172214Y-47202758D01*
X31994630Y-47129200D01*
X31806108Y-47091700D01*
X31613892Y-47091700D01*
X31425370Y-47129200D01*
X31247786Y-47202758D01*
X31087964Y-47309547D01*
X30952047Y-47445464D01*
X30845258Y-47605286D01*
X30771700Y-47782870D01*
X30734200Y-47971392D01*
X27685800Y-47971392D01*
X27648300Y-47782870D01*
X27574742Y-47605286D01*
X27467953Y-47445464D01*
X27332036Y-47309547D01*
X27172214Y-47202758D01*
X26994630Y-47129200D01*
X26806108Y-47091700D01*
X26613892Y-47091700D01*
X26425370Y-47129200D01*
X26247786Y-47202758D01*
X26087964Y-47309547D01*
X25952047Y-47445464D01*
X25845258Y-47605286D01*
X25771700Y-47782870D01*
X25734200Y-47971392D01*
X23359131Y-47971392D01*
X23474531Y-47909710D01*
X23642149Y-47772149D01*
X23779710Y-47604531D01*
X23881927Y-47413296D01*
X23944872Y-47205794D01*
X23966126Y-46990000D01*
X23944872Y-46774206D01*
X23881927Y-46566704D01*
X23872027Y-46548183D01*
X26018545Y-44401665D01*
X26903663Y-44401665D01*
X26903663Y-44401667D01*
X26903677Y-44405239D01*
X26904888Y-44516909D01*
X26904910Y-44517111D01*
X26904893Y-44517311D01*
X26904962Y-44520882D01*
X26907699Y-44624615D01*
X26907815Y-44625543D01*
X26907755Y-44626475D01*
X26907900Y-44630044D01*
X26912159Y-44719417D01*
X26912576Y-44722264D01*
X26912496Y-44725146D01*
X26912771Y-44728708D01*
X26918547Y-44797293D01*
X26920316Y-44806918D01*
X26920929Y-44816683D01*
X26921524Y-44820205D01*
X26928812Y-44861576D01*
X26931768Y-44872168D01*
X26933548Y-44883026D01*
X26938463Y-44896163D01*
X26942230Y-44909662D01*
X26947186Y-44919477D01*
X26951042Y-44929783D01*
X26952637Y-44932980D01*
X26957009Y-44941593D01*
X26963475Y-44951738D01*
X26964732Y-44954227D01*
X26966053Y-44955918D01*
X26973146Y-44969013D01*
X26978953Y-44976022D01*
X26983842Y-44983692D01*
X26994837Y-44995193D01*
X27004998Y-45007456D01*
X27012058Y-45013205D01*
X27018341Y-45019777D01*
X27031359Y-45028922D01*
X27043709Y-45038979D01*
X27051748Y-45043245D01*
X27059192Y-45048475D01*
X27073744Y-45054920D01*
X27087807Y-45062383D01*
X27091120Y-45063718D01*
X27117251Y-45074041D01*
X27129769Y-45077620D01*
X27141908Y-45082359D01*
X27145353Y-45083303D01*
X27200724Y-45098062D01*
X27203805Y-45098568D01*
X27206760Y-45099593D01*
X27210239Y-45100404D01*
X27287525Y-45117864D01*
X27288833Y-45118028D01*
X27290091Y-45118430D01*
X27293588Y-45119157D01*
X27385466Y-45137585D01*
X27385491Y-45137588D01*
X27385519Y-45137596D01*
X27389027Y-45138273D01*
X27421098Y-45144234D01*
X27421135Y-45144237D01*
X27421753Y-45144355D01*
X27576134Y-45172634D01*
X27696722Y-45195152D01*
X27787726Y-45212832D01*
X27840313Y-45223839D01*
X27861224Y-45272516D01*
X27895208Y-45355913D01*
X27930672Y-45446462D01*
X27964748Y-45536739D01*
X27994576Y-45619220D01*
X28002509Y-45642598D01*
X27977221Y-45679784D01*
X27920349Y-45763006D01*
X27855823Y-45857084D01*
X27855820Y-45857088D01*
X27837351Y-45883960D01*
X27837323Y-45884010D01*
X27836235Y-45885596D01*
X27770379Y-45983017D01*
X27770213Y-45983324D01*
X27769990Y-45983594D01*
X27768019Y-45986573D01*
X27710068Y-46075461D01*
X27709679Y-46076207D01*
X27709158Y-46076867D01*
X27707247Y-46079885D01*
X27660359Y-46155134D01*
X27659272Y-46157331D01*
X27657817Y-46159302D01*
X27656008Y-46162382D01*
X27623339Y-46218890D01*
X27619509Y-46227321D01*
X27614668Y-46235223D01*
X27613131Y-46238448D01*
X27597838Y-46271109D01*
X27595878Y-46276648D01*
X27593111Y-46281837D01*
X27587561Y-46300146D01*
X27581181Y-46318171D01*
X27580682Y-46321596D01*
X27580303Y-46324088D01*
X27578628Y-46329613D01*
X27577954Y-46333121D01*
X27577213Y-46337134D01*
X27575810Y-46353624D01*
X27573321Y-46369984D01*
X27573698Y-46378442D01*
X27572980Y-46386877D01*
X27574807Y-46403328D01*
X27575543Y-46419859D01*
X27577555Y-46428079D01*
X27578489Y-46436496D01*
X27583476Y-46452280D01*
X27587409Y-46468351D01*
X27590979Y-46476025D01*
X27593531Y-46484100D01*
X27601491Y-46498617D01*
X27608469Y-46513615D01*
X27610306Y-46516679D01*
X27623155Y-46537770D01*
X27634158Y-46552398D01*
X27644389Y-46567590D01*
X27646683Y-46570328D01*
X27682187Y-46612108D01*
X27684750Y-46614587D01*
X27686863Y-46617458D01*
X27689269Y-46620098D01*
X27742864Y-46678079D01*
X27743494Y-46678639D01*
X27744006Y-46679306D01*
X27746466Y-46681897D01*
X27813589Y-46751587D01*
X27813597Y-46751594D01*
X27815977Y-46754034D01*
X27892061Y-46830944D01*
X27892101Y-46830977D01*
X27893992Y-46832875D01*
X27974475Y-46912513D01*
X27974519Y-46912548D01*
X27976328Y-46914328D01*
X28056645Y-46992206D01*
X28056674Y-46992229D01*
X28058768Y-46994241D01*
X28134356Y-47065866D01*
X28134524Y-47065996D01*
X28134660Y-47066153D01*
X28137274Y-47068588D01*
X28203568Y-47129472D01*
X28204862Y-47130446D01*
X28205953Y-47131634D01*
X28208630Y-47133999D01*
X28261067Y-47179650D01*
X28266397Y-47183444D01*
X28271128Y-47187968D01*
X28273954Y-47190153D01*
X28307968Y-47216082D01*
X28310059Y-47217375D01*
X28311895Y-47219017D01*
X28331292Y-47230497D01*
X28350435Y-47242329D01*
X28352738Y-47243191D01*
X28354857Y-47244445D01*
X28358105Y-47245933D01*
X28367514Y-47250166D01*
X28374080Y-47252378D01*
X28380275Y-47255497D01*
X28397707Y-47260339D01*
X28414825Y-47266106D01*
X28421693Y-47267001D01*
X28428377Y-47268857D01*
X28446407Y-47270219D01*
X28464330Y-47272554D01*
X28471250Y-47272097D01*
X28478159Y-47272619D01*
X28496099Y-47270455D01*
X28514145Y-47269263D01*
X28520842Y-47267471D01*
X28527723Y-47266641D01*
X28544918Y-47261028D01*
X28562371Y-47256358D01*
X28568586Y-47253303D01*
X28575181Y-47251150D01*
X28578443Y-47249692D01*
X28600345Y-47239721D01*
X28611312Y-47233370D01*
X28622839Y-47228104D01*
X28625915Y-47226288D01*
X28670758Y-47199397D01*
X28673017Y-47197722D01*
X28675531Y-47196463D01*
X28678540Y-47194538D01*
X28739019Y-47155254D01*
X28739702Y-47154708D01*
X28740479Y-47154299D01*
X28743447Y-47152312D01*
X28789979Y-47120693D01*
X28790028Y-47120652D01*
X28791219Y-47119845D01*
X28875262Y-47062013D01*
X28974359Y-46994213D01*
X29074084Y-46926298D01*
X29127688Y-46889958D01*
X29181437Y-46853603D01*
X29197956Y-46862535D01*
X29198222Y-46862647D01*
X29198459Y-46862806D01*
X29201616Y-46864476D01*
X29271315Y-46900715D01*
X29273921Y-46901761D01*
X29276303Y-46903239D01*
X29279519Y-46904795D01*
X29338787Y-46932962D01*
X29344657Y-46935078D01*
X29350156Y-46938030D01*
X29353463Y-46939382D01*
X29393566Y-46955447D01*
X29412167Y-46960862D01*
X29430495Y-46967083D01*
X29433979Y-46967872D01*
X29444187Y-46970107D01*
X29463918Y-46972442D01*
X29483557Y-46975566D01*
X29488681Y-46975372D01*
X29493764Y-46975974D01*
X29513576Y-46974432D01*
X29533445Y-46973682D01*
X29538427Y-46972499D01*
X29543537Y-46972101D01*
X29562682Y-46966737D01*
X29582016Y-46962145D01*
X29586676Y-46960015D01*
X29591610Y-46958633D01*
X29609340Y-46949657D01*
X29627423Y-46941393D01*
X29631582Y-46938397D01*
X29636150Y-46936085D01*
X29651798Y-46923837D01*
X29667933Y-46912217D01*
X29671428Y-46908474D01*
X29675464Y-46905315D01*
X29688448Y-46890247D01*
X29702004Y-46875728D01*
X29704156Y-46872877D01*
X29716430Y-46856373D01*
X29726090Y-46840320D01*
X29736526Y-46824754D01*
X29738194Y-46821595D01*
X29762410Y-46774955D01*
X29763476Y-46772294D01*
X29764985Y-46769857D01*
X29766538Y-46766640D01*
X29800887Y-46694168D01*
X29800995Y-46693866D01*
X29801159Y-46693592D01*
X29802659Y-46690350D01*
X29845334Y-46596347D01*
X29845353Y-46596290D01*
X29846354Y-46594070D01*
X29895548Y-46482838D01*
X29895568Y-46482778D01*
X29896247Y-46481244D01*
X29950150Y-46357085D01*
X29950167Y-46357031D01*
X29950692Y-46355828D01*
X30007498Y-46223045D01*
X30007515Y-46222990D01*
X30007963Y-46221950D01*
X30065865Y-46084846D01*
X30065882Y-46084792D01*
X30066308Y-46083790D01*
X30123497Y-45946665D01*
X30123513Y-45946614D01*
X30123959Y-45945550D01*
X30178628Y-45812706D01*
X30178644Y-45812653D01*
X30179160Y-45811405D01*
X30229500Y-45687145D01*
X30229518Y-45687083D01*
X30230174Y-45685464D01*
X30274378Y-45574091D01*
X30274393Y-45574040D01*
X30275340Y-45571630D01*
X30311601Y-45477445D01*
X30311734Y-45476965D01*
X30311953Y-45476524D01*
X30313200Y-45473177D01*
X30339710Y-45400482D01*
X30340578Y-45397110D01*
X30342000Y-45393928D01*
X30343108Y-45390532D01*
X30358059Y-45343630D01*
X30361976Y-45325327D01*
X30366788Y-45307228D01*
X30367340Y-45303699D01*
X30369744Y-45287591D01*
X30370389Y-45274797D01*
X30372250Y-45262126D01*
X30371644Y-45249928D01*
X30372259Y-45237732D01*
X30370408Y-45225059D01*
X30369772Y-45212265D01*
X30366809Y-45200419D01*
X30365043Y-45188332D01*
X30360764Y-45176256D01*
X30357656Y-45163833D01*
X30352447Y-45152787D01*
X30348368Y-45141275D01*
X30341827Y-45130264D01*
X30336364Y-45118679D01*
X30329106Y-45108851D01*
X30322871Y-45098355D01*
X30314321Y-45088829D01*
X30306707Y-45078519D01*
X30304296Y-45075883D01*
X30285239Y-45055336D01*
X30272359Y-45043919D01*
X30260182Y-45031726D01*
X30257407Y-45029477D01*
X30215682Y-44996124D01*
X30210681Y-44992872D01*
X30206220Y-44988915D01*
X30203315Y-44986837D01*
X30147645Y-44947606D01*
X30147544Y-44947549D01*
X30029966Y-44853431D01*
X29944739Y-44754724D01*
X29881406Y-44646246D01*
X29840185Y-44531172D01*
X29821375Y-44412713D01*
X29825261Y-44293890D01*
X29852278Y-44177155D01*
X29907592Y-44055263D01*
X29912843Y-44046657D01*
X29998924Y-43937141D01*
X30092784Y-43855971D01*
X30197733Y-43795178D01*
X30310791Y-43755054D01*
X30428486Y-43736137D01*
X30547115Y-43738826D01*
X30663150Y-43763303D01*
X30773626Y-43809782D01*
X30883428Y-43883880D01*
X30905657Y-43903563D01*
X30995151Y-44001029D01*
X31052461Y-44091198D01*
X31093014Y-44195457D01*
X31115837Y-44299793D01*
X31121357Y-44414717D01*
X31103249Y-44528342D01*
X31061874Y-44643035D01*
X30998666Y-44752388D01*
X30916296Y-44850215D01*
X30809455Y-44938385D01*
X30802932Y-44942703D01*
X30802792Y-44942816D01*
X30802637Y-44942899D01*
X30799674Y-44944895D01*
X30743408Y-44983392D01*
X30738663Y-44987371D01*
X30733380Y-44990614D01*
X30730548Y-44992791D01*
X30687775Y-45026146D01*
X30675776Y-45037552D01*
X30663055Y-45048137D01*
X30660563Y-45050696D01*
X30640114Y-45071993D01*
X30629036Y-45086052D01*
X30617190Y-45099483D01*
X30615463Y-45102449D01*
X30614310Y-45103803D01*
X30612504Y-45107034D01*
X30609216Y-45111206D01*
X30601076Y-45127156D01*
X30592069Y-45142625D01*
X30590604Y-45145883D01*
X30590306Y-45146556D01*
X30590164Y-45146986D01*
X30589946Y-45147377D01*
X30588522Y-45151757D01*
X30586523Y-45155674D01*
X30581622Y-45172950D01*
X30574704Y-45193979D01*
X30574649Y-45194423D01*
X30574509Y-45194855D01*
X30573854Y-45200335D01*
X30572899Y-45203703D01*
X30571731Y-45218116D01*
X30571582Y-45219364D01*
X30568609Y-45243529D01*
X30568642Y-45243976D01*
X30568588Y-45244425D01*
X30569079Y-45250823D01*
X30568865Y-45253462D01*
X30570116Y-45264341D01*
X30570468Y-45268923D01*
X30572254Y-45293319D01*
X30572374Y-45293753D01*
X30572408Y-45294202D01*
X30573052Y-45297715D01*
X30577443Y-45320754D01*
X30581739Y-45335361D01*
X30584908Y-45350258D01*
X30586012Y-45353655D01*
X30603415Y-45405941D01*
X30604433Y-45408227D01*
X30605034Y-45410650D01*
X30606251Y-45414009D01*
X30634859Y-45491242D01*
X30634953Y-45491435D01*
X30635006Y-45491636D01*
X30636275Y-45494975D01*
X30674278Y-45592854D01*
X30674305Y-45592907D01*
X30675160Y-45595094D01*
X30720751Y-45709316D01*
X30720781Y-45709373D01*
X30721385Y-45710889D01*
X30772756Y-45837156D01*
X30772783Y-45837207D01*
X30773264Y-45838396D01*
X30828605Y-45972405D01*
X30828631Y-45972454D01*
X30829057Y-45973492D01*
X30886561Y-46110943D01*
X30886586Y-46110989D01*
X30887001Y-46111989D01*
X30944858Y-46248578D01*
X30944884Y-46248625D01*
X30945331Y-46249688D01*
X31001734Y-46381117D01*
X31001763Y-46381169D01*
X31002293Y-46382410D01*
X31055433Y-46504378D01*
X31055467Y-46504440D01*
X31056171Y-46506054D01*
X31104239Y-46614258D01*
X31104261Y-46614297D01*
X31105349Y-46616722D01*
X31146538Y-46706862D01*
X31146833Y-46707370D01*
X31147026Y-46707923D01*
X31148548Y-46711154D01*
X31181048Y-46778929D01*
X31183069Y-46782264D01*
X31184513Y-46785881D01*
X31186176Y-46789042D01*
X31208180Y-46830149D01*
X31221102Y-46849481D01*
X31233729Y-46868941D01*
X31235975Y-46871718D01*
X31244470Y-46882067D01*
X31244472Y-46882070D01*
X31244475Y-46882073D01*
X31244837Y-46882514D01*
X31262117Y-46899807D01*
X31279681Y-46917464D01*
X31279920Y-46917625D01*
X31280124Y-46917829D01*
X31300567Y-46931526D01*
X31321093Y-46945345D01*
X31321360Y-46945457D01*
X31321599Y-46945617D01*
X31344295Y-46955074D01*
X31367132Y-46964651D01*
X31367415Y-46964709D01*
X31367682Y-46964820D01*
X31391700Y-46969672D01*
X31416045Y-46974648D01*
X31416338Y-46974650D01*
X31416616Y-46974706D01*
X31441354Y-46974803D01*
X31465967Y-46974953D01*
X31466244Y-46974900D01*
X31466539Y-46974901D01*
X31491134Y-46970130D01*
X31514998Y-46965556D01*
X31515512Y-46965400D01*
X31515550Y-46965393D01*
X31515589Y-46965377D01*
X31518417Y-46964521D01*
X31545493Y-46956114D01*
X31557721Y-46950961D01*
X31570373Y-46946950D01*
X31573646Y-46945520D01*
X31624310Y-46922973D01*
X31627630Y-46921088D01*
X31631218Y-46919775D01*
X31634426Y-46918203D01*
X31699940Y-46885544D01*
X31701130Y-46884798D01*
X31702440Y-46884281D01*
X31705608Y-46882630D01*
X31741632Y-46863537D01*
X31741687Y-46863501D01*
X31743503Y-46862535D01*
X31760023Y-46853603D01*
X31813774Y-46889959D01*
X31813777Y-46889961D01*
X31906104Y-46952633D01*
X32007556Y-47021853D01*
X32102592Y-47087005D01*
X32150089Y-47119739D01*
X32150111Y-47119751D01*
X32152646Y-47121479D01*
X32219891Y-47166635D01*
X32221734Y-47167627D01*
X32223375Y-47168934D01*
X32226386Y-47170855D01*
X32283327Y-47206640D01*
X32287705Y-47208827D01*
X32291677Y-47211667D01*
X32294784Y-47213430D01*
X32333993Y-47235311D01*
X32351183Y-47242808D01*
X32367978Y-47251130D01*
X32371327Y-47252373D01*
X32384062Y-47256998D01*
X32402013Y-47261593D01*
X32419716Y-47267091D01*
X32426156Y-47267774D01*
X32432426Y-47269379D01*
X32450926Y-47270400D01*
X32469360Y-47272355D01*
X32475809Y-47271774D01*
X32482273Y-47272131D01*
X32500623Y-47269539D01*
X32519083Y-47267876D01*
X32525296Y-47266053D01*
X32531706Y-47265148D01*
X32549207Y-47259040D01*
X32566988Y-47253824D01*
X32572726Y-47250831D01*
X32578840Y-47248697D01*
X32594820Y-47239306D01*
X32611251Y-47230736D01*
X32614228Y-47228762D01*
X32632765Y-47216284D01*
X32642390Y-47208336D01*
X32652743Y-47201370D01*
X32655482Y-47199077D01*
X32696506Y-47164244D01*
X32697829Y-47162877D01*
X32699379Y-47161768D01*
X32702051Y-47159397D01*
X32761584Y-47105823D01*
X32761675Y-47105724D01*
X32761788Y-47105640D01*
X32764424Y-47103229D01*
X32838490Y-47034535D01*
X32838521Y-47034500D01*
X32840505Y-47032646D01*
X32885501Y-46990000D01*
X34453874Y-46990000D01*
X34475128Y-47205794D01*
X34538073Y-47413296D01*
X34640290Y-47604531D01*
X34777851Y-47772149D01*
X34945469Y-47909710D01*
X35136704Y-48011927D01*
X35344206Y-48074872D01*
X35505925Y-48090800D01*
X35614075Y-48090800D01*
X35775794Y-48074872D01*
X35983296Y-48011927D01*
X36174531Y-47909710D01*
X36342149Y-47772149D01*
X36479710Y-47604531D01*
X36581927Y-47413296D01*
X36644872Y-47205794D01*
X36666126Y-46990000D01*
X36644872Y-46774206D01*
X36581927Y-46566704D01*
X36479710Y-46375469D01*
X36342149Y-46207851D01*
X36174531Y-46070290D01*
X35983296Y-45968073D01*
X35775794Y-45905128D01*
X35614075Y-45889200D01*
X35505925Y-45889200D01*
X35344206Y-45905128D01*
X35136704Y-45968073D01*
X34945469Y-46070290D01*
X34777851Y-46207851D01*
X34640290Y-46375469D01*
X34538073Y-46566704D01*
X34475128Y-46774206D01*
X34453874Y-46990000D01*
X32885501Y-46990000D01*
X32925128Y-46952444D01*
X32925170Y-46952396D01*
X32926522Y-46951113D01*
X32980042Y-46899617D01*
X32980071Y-46899583D01*
X32981964Y-46897749D01*
X33075598Y-46805749D01*
X33075863Y-46805433D01*
X33076181Y-46805174D01*
X33078703Y-46802645D01*
X33159625Y-46720358D01*
X33160302Y-46719519D01*
X33161125Y-46718820D01*
X33163590Y-46716235D01*
X33228526Y-46647181D01*
X33230312Y-46644865D01*
X33232468Y-46642892D01*
X33234836Y-46640219D01*
X33280518Y-46587917D01*
X33286328Y-46579782D01*
X33293050Y-46572385D01*
X33295163Y-46569505D01*
X33318316Y-46537477D01*
X33323945Y-46527830D01*
X33330584Y-46518846D01*
X33336496Y-46506320D01*
X33343476Y-46494357D01*
X33347007Y-46484140D01*
X33348757Y-46480925D01*
X33349299Y-46479193D01*
X33351892Y-46473698D01*
X33353070Y-46470326D01*
X33355291Y-46463826D01*
X33358005Y-46452313D01*
X33359782Y-46447171D01*
X33360153Y-46444482D01*
X33363657Y-46433278D01*
X33364643Y-46424157D01*
X33366746Y-46415234D01*
X33367317Y-46399407D01*
X33369020Y-46383643D01*
X33368215Y-46374502D01*
X33368545Y-46365343D01*
X33366030Y-46349704D01*
X33364639Y-46333912D01*
X33362075Y-46325105D01*
X33360619Y-46316053D01*
X33355112Y-46301193D01*
X33350682Y-46285980D01*
X33349331Y-46282673D01*
X33339023Y-46257951D01*
X33332430Y-46245674D01*
X33326921Y-46232866D01*
X33325174Y-46229750D01*
X33296689Y-46179761D01*
X33294989Y-46177358D01*
X33293729Y-46174703D01*
X33291869Y-46171653D01*
X33248367Y-46101460D01*
X33247842Y-46100774D01*
X33247459Y-46100007D01*
X33245536Y-46096997D01*
X33190176Y-46011660D01*
X33190034Y-46011482D01*
X33189928Y-46011278D01*
X33187958Y-46008298D01*
X33123901Y-45912880D01*
X33123865Y-45912836D01*
X33122576Y-45910926D01*
X33104359Y-45884323D01*
X33104344Y-45884305D01*
X33104191Y-45884079D01*
X33037815Y-45787392D01*
X32978765Y-45701070D01*
X32938920Y-45642569D01*
X32944122Y-45627100D01*
X32973346Y-45545854D01*
X33007147Y-45455950D01*
X33042563Y-45365175D01*
X33076839Y-45280679D01*
X33101063Y-45223916D01*
X33139595Y-45215687D01*
X33225229Y-45198870D01*
X33339910Y-45177334D01*
X33487387Y-45150249D01*
X33487438Y-45150240D01*
X33519513Y-45144390D01*
X33519557Y-45144377D01*
X33522141Y-45143897D01*
X33617209Y-45125530D01*
X33618283Y-45125211D01*
X33619391Y-45125098D01*
X33622887Y-45124366D01*
X33705766Y-45106397D01*
X33707898Y-45105711D01*
X33710115Y-45105414D01*
X33713586Y-45104572D01*
X33776951Y-45088736D01*
X33783924Y-45086249D01*
X33791178Y-45084741D01*
X33794580Y-45083652D01*
X33831108Y-45071683D01*
X33852952Y-45062075D01*
X33865019Y-45056886D01*
X33869816Y-45055071D01*
X33871095Y-45054274D01*
X33874951Y-45052616D01*
X33876753Y-45051606D01*
X33876806Y-45051583D01*
X33876852Y-45051551D01*
X33878067Y-45050870D01*
X33882965Y-45048079D01*
X33897282Y-45037954D01*
X33912185Y-45028667D01*
X33917635Y-45023561D01*
X33923726Y-45019254D01*
X33935810Y-45006535D01*
X33948620Y-44994535D01*
X33952971Y-44988473D01*
X33958113Y-44983061D01*
X33967502Y-44968228D01*
X33977730Y-44953978D01*
X33980821Y-44947187D01*
X33984814Y-44940878D01*
X33991141Y-44924508D01*
X33998409Y-44908539D01*
X33999540Y-44905151D01*
X34007611Y-44880413D01*
X34012656Y-44857597D01*
X34017999Y-44834759D01*
X34018385Y-44831689D01*
X34018390Y-44831668D01*
X34018390Y-44831649D01*
X34018445Y-44831215D01*
X34025005Y-44775933D01*
X34025111Y-44770717D01*
X34026021Y-44765577D01*
X34026272Y-44762014D01*
X34031318Y-44682613D01*
X34031260Y-44680919D01*
X34031510Y-44679241D01*
X34031664Y-44675672D01*
X34035190Y-44578579D01*
X34035160Y-44578084D01*
X34035224Y-44577592D01*
X34035315Y-44574021D01*
X34037317Y-44465664D01*
X34037314Y-44465626D01*
X34037319Y-44465583D01*
X34037359Y-44462011D01*
X34037409Y-44450000D01*
X34453874Y-44450000D01*
X34475128Y-44665794D01*
X34538073Y-44873296D01*
X34640290Y-45064531D01*
X34777851Y-45232149D01*
X34945469Y-45369710D01*
X35136704Y-45471927D01*
X35344206Y-45534872D01*
X35505925Y-45550800D01*
X35614075Y-45550800D01*
X35775794Y-45534872D01*
X35983296Y-45471927D01*
X36174531Y-45369710D01*
X36342149Y-45232149D01*
X36479710Y-45064531D01*
X36581927Y-44873296D01*
X36644872Y-44665794D01*
X36666126Y-44450000D01*
X36644872Y-44234206D01*
X36581927Y-44026704D01*
X36479710Y-43835469D01*
X36342149Y-43667851D01*
X36174531Y-43530290D01*
X35983296Y-43428073D01*
X35775794Y-43365128D01*
X35614075Y-43349200D01*
X35505925Y-43349200D01*
X35344206Y-43365128D01*
X35136704Y-43428073D01*
X34945469Y-43530290D01*
X34777851Y-43667851D01*
X34640290Y-43835469D01*
X34538073Y-44026704D01*
X34475128Y-44234206D01*
X34453874Y-44450000D01*
X34037409Y-44450000D01*
X34037834Y-44348813D01*
X34037833Y-44348800D01*
X34037824Y-44345313D01*
X34036765Y-44233701D01*
X34036743Y-44233499D01*
X34036761Y-44233294D01*
X34036697Y-44229722D01*
X34034102Y-44126124D01*
X34033986Y-44125187D01*
X34034048Y-44124245D01*
X34033907Y-44120676D01*
X34029771Y-44031515D01*
X34029352Y-44028630D01*
X34029436Y-44025718D01*
X34029165Y-44022156D01*
X34023482Y-43953860D01*
X34021695Y-43944083D01*
X34021071Y-43934166D01*
X34020475Y-43930644D01*
X34013243Y-43889638D01*
X34009968Y-43877910D01*
X34007883Y-43865905D01*
X34003268Y-43853918D01*
X33999816Y-43841554D01*
X33994324Y-43830682D01*
X33989948Y-43819315D01*
X33988324Y-43816134D01*
X33983964Y-43807742D01*
X33978471Y-43799300D01*
X33977305Y-43796993D01*
X33975295Y-43794421D01*
X33973115Y-43791071D01*
X33962937Y-43773978D01*
X33959520Y-43770180D01*
X33956734Y-43765898D01*
X33942848Y-43751645D01*
X33929549Y-43736861D01*
X33925463Y-43733801D01*
X33921896Y-43730140D01*
X33905502Y-43718854D01*
X33889589Y-43706937D01*
X33884984Y-43704728D01*
X33880775Y-43701830D01*
X33862514Y-43693948D01*
X33844577Y-43685343D01*
X33841213Y-43684143D01*
X33816940Y-43675677D01*
X33807298Y-43673340D01*
X33798008Y-43669886D01*
X33794548Y-43668998D01*
X33739276Y-43655225D01*
X33737713Y-43654994D01*
X33736215Y-43654482D01*
X33732733Y-43653686D01*
X33651968Y-43635800D01*
X33651919Y-43635794D01*
X33651879Y-43635781D01*
X33648386Y-43635034D01*
X33547636Y-43614232D01*
X33547590Y-43614227D01*
X33544987Y-43613700D01*
X33429758Y-43591175D01*
X33429697Y-43591169D01*
X33427954Y-43590829D01*
X33365173Y-43579024D01*
X33365155Y-43579022D01*
X33364906Y-43578974D01*
X33246374Y-43556816D01*
X33140740Y-43536755D01*
X33075777Y-43524178D01*
X33070365Y-43511866D01*
X33035494Y-43431166D01*
X32997803Y-43342892D01*
X32960217Y-43253929D01*
X32925683Y-43171227D01*
X32915168Y-43145624D01*
X32926383Y-43128376D01*
X32980836Y-43046688D01*
X33045095Y-42951990D01*
X33082543Y-42897461D01*
X33082564Y-42897423D01*
X33082963Y-42896847D01*
X33152009Y-42795678D01*
X33152035Y-42795630D01*
X33153466Y-42793519D01*
X33214791Y-42701668D01*
X33214801Y-42701650D01*
X33216540Y-42699013D01*
X33267153Y-42621127D01*
X33267471Y-42620514D01*
X33267900Y-42619971D01*
X33269809Y-42616952D01*
X33306717Y-42557677D01*
X33308515Y-42554041D01*
X33310880Y-42550749D01*
X33312650Y-42547647D01*
X33332861Y-42511629D01*
X33340595Y-42494010D01*
X33349105Y-42476772D01*
X33350343Y-42473421D01*
X33353262Y-42465348D01*
X33357667Y-42448035D01*
X33363032Y-42430989D01*
X33363813Y-42423885D01*
X33365573Y-42416966D01*
X33366532Y-42399136D01*
X33368484Y-42381365D01*
X33367870Y-42374245D01*
X33368253Y-42367115D01*
X33365728Y-42349427D01*
X33364192Y-42331625D01*
X33362207Y-42324763D01*
X33361198Y-42317692D01*
X33359623Y-42313200D01*
X34531977Y-42313200D01*
X34538073Y-42333296D01*
X34640290Y-42524531D01*
X34777851Y-42692149D01*
X34945469Y-42829710D01*
X35136704Y-42931927D01*
X35344206Y-42994872D01*
X35505925Y-43010800D01*
X35614075Y-43010800D01*
X35775794Y-42994872D01*
X35983296Y-42931927D01*
X36174531Y-42829710D01*
X36342149Y-42692149D01*
X36479710Y-42524531D01*
X36581927Y-42333296D01*
X36644872Y-42125794D01*
X36666126Y-41910000D01*
X36644872Y-41694206D01*
X36581927Y-41486704D01*
X36479710Y-41295469D01*
X36342149Y-41127851D01*
X36174531Y-40990290D01*
X35983296Y-40888073D01*
X35775794Y-40825128D01*
X35614075Y-40809200D01*
X35505925Y-40809200D01*
X35344206Y-40825128D01*
X35136704Y-40888073D01*
X34945469Y-40990290D01*
X34777851Y-41127851D01*
X34640290Y-41295469D01*
X34538073Y-41486704D01*
X34531977Y-41506800D01*
X33441011Y-41506800D01*
X32407200Y-40472990D01*
X32407200Y-40226192D01*
X32443268Y-40313269D01*
X32514491Y-40419861D01*
X32605139Y-40510509D01*
X32711731Y-40581732D01*
X32830169Y-40630790D01*
X32955902Y-40655800D01*
X33084098Y-40655800D01*
X33209831Y-40630790D01*
X33328269Y-40581732D01*
X33434861Y-40510509D01*
X33525509Y-40419861D01*
X33533301Y-40408200D01*
X34397209Y-40408200D01*
X34417000Y-40410149D01*
X34436791Y-40408200D01*
X34436798Y-40408200D01*
X34496041Y-40402365D01*
X34572044Y-40379310D01*
X34642089Y-40341870D01*
X34703484Y-40291484D01*
X34716107Y-40276103D01*
X34812020Y-40180191D01*
X34945469Y-40289710D01*
X35136704Y-40391927D01*
X35344206Y-40454872D01*
X35505925Y-40470800D01*
X35614075Y-40470800D01*
X35775794Y-40454872D01*
X35983296Y-40391927D01*
X36174531Y-40289710D01*
X36342149Y-40152149D01*
X36479710Y-39984531D01*
X36581927Y-39793296D01*
X36644872Y-39585794D01*
X36666126Y-39370000D01*
X36644872Y-39154206D01*
X36581927Y-38946704D01*
X36479710Y-38755469D01*
X36342149Y-38587851D01*
X36174531Y-38450290D01*
X35983296Y-38348073D01*
X35775794Y-38285128D01*
X35614075Y-38269200D01*
X35505925Y-38269200D01*
X35344206Y-38285128D01*
X35136704Y-38348073D01*
X34945469Y-38450290D01*
X34777851Y-38587851D01*
X34640290Y-38755469D01*
X34538073Y-38946704D01*
X34475128Y-39154206D01*
X34453874Y-39370000D01*
X34456377Y-39395413D01*
X34249990Y-39601800D01*
X33533301Y-39601800D01*
X33525509Y-39590139D01*
X33434861Y-39499491D01*
X33328269Y-39428268D01*
X33209831Y-39379210D01*
X33163529Y-39370000D01*
X33209831Y-39360790D01*
X33328269Y-39311732D01*
X33434861Y-39240509D01*
X33525509Y-39149861D01*
X33596732Y-39043269D01*
X33645790Y-38924831D01*
X33670800Y-38799098D01*
X33670800Y-38670902D01*
X33668064Y-38657147D01*
X34307109Y-38018102D01*
X34322484Y-38005484D01*
X34345207Y-37977797D01*
X34372869Y-37944090D01*
X34379973Y-37930800D01*
X34410310Y-37874044D01*
X34433365Y-37798041D01*
X34439200Y-37738798D01*
X34439200Y-37738791D01*
X34441149Y-37719000D01*
X34439200Y-37699209D01*
X34439200Y-36830000D01*
X34453874Y-36830000D01*
X34475128Y-37045794D01*
X34538073Y-37253296D01*
X34640290Y-37444531D01*
X34777851Y-37612149D01*
X34945469Y-37749710D01*
X35136704Y-37851927D01*
X35344206Y-37914872D01*
X35505925Y-37930800D01*
X35614075Y-37930800D01*
X35775794Y-37914872D01*
X35983296Y-37851927D01*
X36174531Y-37749710D01*
X36342149Y-37612149D01*
X36479710Y-37444531D01*
X36581927Y-37253296D01*
X36644872Y-37045794D01*
X36666126Y-36830000D01*
X36644872Y-36614206D01*
X36581927Y-36406704D01*
X36479710Y-36215469D01*
X36342149Y-36047851D01*
X36174531Y-35910290D01*
X35983296Y-35808073D01*
X35775794Y-35745128D01*
X35614075Y-35729200D01*
X35505925Y-35729200D01*
X35344206Y-35745128D01*
X35136704Y-35808073D01*
X34945469Y-35910290D01*
X34777851Y-36047851D01*
X34640290Y-36215469D01*
X34538073Y-36406704D01*
X34475128Y-36614206D01*
X34453874Y-36830000D01*
X34439200Y-36830000D01*
X34439200Y-35981010D01*
X35118183Y-35302027D01*
X35136704Y-35311927D01*
X35344206Y-35374872D01*
X35505925Y-35390800D01*
X35614075Y-35390800D01*
X35775794Y-35374872D01*
X35983296Y-35311927D01*
X36174531Y-35209710D01*
X36342149Y-35072149D01*
X36479710Y-34904531D01*
X36581927Y-34713296D01*
X36644872Y-34505794D01*
X36666126Y-34290000D01*
X36644872Y-34074206D01*
X36581927Y-33866704D01*
X36479710Y-33675469D01*
X36342149Y-33507851D01*
X36174531Y-33370290D01*
X35983296Y-33268073D01*
X35775794Y-33205128D01*
X35614075Y-33189200D01*
X35505925Y-33189200D01*
X35344206Y-33205128D01*
X35136704Y-33268073D01*
X34945469Y-33370290D01*
X34777851Y-33507851D01*
X34640290Y-33675469D01*
X34538073Y-33866704D01*
X34475128Y-34074206D01*
X34453874Y-34290000D01*
X34475128Y-34505794D01*
X34538073Y-34713296D01*
X34547973Y-34731817D01*
X33764897Y-35514893D01*
X33749516Y-35527516D01*
X33699130Y-35588912D01*
X33661690Y-35658957D01*
X33645629Y-35711904D01*
X33638636Y-35734958D01*
X33638635Y-35734960D01*
X33632800Y-35794203D01*
X33632800Y-35794209D01*
X33630851Y-35814000D01*
X33632800Y-35833791D01*
X33632801Y-37551988D01*
X33097853Y-38086936D01*
X33084098Y-38084200D01*
X32955902Y-38084200D01*
X32830169Y-38109210D01*
X32711731Y-38158268D01*
X32605139Y-38229491D01*
X32514491Y-38320139D01*
X32443268Y-38426731D01*
X32407200Y-38513808D01*
X32407200Y-33986191D01*
X32409149Y-33966400D01*
X32407200Y-33946609D01*
X32407200Y-33946602D01*
X32401365Y-33887359D01*
X32398076Y-33876516D01*
X32378310Y-33811355D01*
X32340870Y-33741311D01*
X32322640Y-33719098D01*
X32290484Y-33679916D01*
X32275104Y-33667294D01*
X31705664Y-33097854D01*
X31708400Y-33084098D01*
X31708400Y-32955902D01*
X31683390Y-32830169D01*
X31634332Y-32711731D01*
X31563109Y-32605139D01*
X31472461Y-32514491D01*
X31365869Y-32443268D01*
X31247431Y-32394210D01*
X31121698Y-32369200D01*
X31017233Y-32369200D01*
X31233233Y-32153200D01*
X34457987Y-32153200D01*
X34457987Y-32600000D01*
X34462829Y-32649165D01*
X34477170Y-32696441D01*
X34500459Y-32740011D01*
X34531800Y-32778200D01*
X34569989Y-32809541D01*
X34613559Y-32832830D01*
X34660835Y-32847171D01*
X34710000Y-32852013D01*
X36410000Y-32852013D01*
X36459165Y-32847171D01*
X36506441Y-32832830D01*
X36550011Y-32809541D01*
X36588200Y-32778200D01*
X36619541Y-32740011D01*
X36642830Y-32696441D01*
X36657171Y-32649165D01*
X36662013Y-32600000D01*
X36662013Y-30900000D01*
X36657171Y-30850835D01*
X36642830Y-30803559D01*
X36619541Y-30759989D01*
X36588200Y-30721800D01*
X36550011Y-30690459D01*
X36506441Y-30667170D01*
X36459165Y-30652829D01*
X36410000Y-30647987D01*
X34710000Y-30647987D01*
X34660835Y-30652829D01*
X34613559Y-30667170D01*
X34569989Y-30690459D01*
X34531800Y-30721800D01*
X34500459Y-30759989D01*
X34477170Y-30803559D01*
X34462829Y-30850835D01*
X34457987Y-30900000D01*
X34457987Y-31346800D01*
X31086014Y-31346800D01*
X31066223Y-31344851D01*
X31046432Y-31346800D01*
X31046425Y-31346800D01*
X30987182Y-31352635D01*
X30911179Y-31375690D01*
X30841134Y-31413130D01*
X30779739Y-31463516D01*
X30767116Y-31478897D01*
X29964491Y-32281522D01*
X29949116Y-32294140D01*
X29936498Y-32309515D01*
X29936495Y-32309518D01*
X29898730Y-32355535D01*
X29861290Y-32425580D01*
X29838234Y-32501583D01*
X29830450Y-32580624D01*
X29832400Y-32600425D01*
X29832400Y-33456984D01*
X29786732Y-33346731D01*
X29715509Y-33240139D01*
X29624861Y-33149491D01*
X29518269Y-33078268D01*
X29399831Y-33029210D01*
X29274098Y-33004200D01*
X29145902Y-33004200D01*
X29020169Y-33029210D01*
X28901731Y-33078268D01*
X28795139Y-33149491D01*
X28704491Y-33240139D01*
X28633268Y-33346731D01*
X28584210Y-33465169D01*
X28559200Y-33590902D01*
X28559200Y-33719098D01*
X28584210Y-33844831D01*
X28633268Y-33963269D01*
X28704491Y-34069861D01*
X28795139Y-34160509D01*
X28901731Y-34231732D01*
X29020169Y-34280790D01*
X29145902Y-34305800D01*
X29274098Y-34305800D01*
X29287853Y-34303064D01*
X29314801Y-34330012D01*
X29314800Y-37102437D01*
X29310835Y-37102828D01*
X29263558Y-37117169D01*
X29219989Y-37140458D01*
X29210000Y-37148656D01*
X29200011Y-37140458D01*
X29156442Y-37117169D01*
X29109165Y-37102828D01*
X29060000Y-37097986D01*
X28560000Y-37097986D01*
X28535550Y-37100394D01*
X28510991Y-37100394D01*
X28461826Y-37105236D01*
X28365693Y-37124358D01*
X28318418Y-37138699D01*
X28227862Y-37176208D01*
X28213887Y-37183677D01*
X28210790Y-37180580D01*
X28210790Y-36073301D01*
X28222451Y-36065509D01*
X28313099Y-35974861D01*
X28384322Y-35868269D01*
X28433380Y-35749831D01*
X28458390Y-35624098D01*
X28458390Y-35495902D01*
X28433380Y-35370169D01*
X28384322Y-35251731D01*
X28313099Y-35145139D01*
X28222451Y-35054491D01*
X28115859Y-34983268D01*
X27997421Y-34934210D01*
X27871688Y-34909200D01*
X27743492Y-34909200D01*
X27617759Y-34934210D01*
X27499321Y-34983268D01*
X27392729Y-35054491D01*
X27302081Y-35145139D01*
X27230858Y-35251731D01*
X27181800Y-35370169D01*
X27156790Y-35495902D01*
X27156790Y-35624098D01*
X27181800Y-35749831D01*
X27230858Y-35868269D01*
X27302081Y-35974861D01*
X27392729Y-36065509D01*
X27404390Y-36073301D01*
X27404390Y-36145482D01*
X27404391Y-36145492D01*
X27404390Y-37327799D01*
X27402441Y-37347590D01*
X27404390Y-37367381D01*
X27404390Y-37367387D01*
X27410225Y-37426630D01*
X27433280Y-37502633D01*
X27470720Y-37572678D01*
X27521106Y-37634074D01*
X27536487Y-37646697D01*
X27807986Y-37918196D01*
X27807986Y-38350000D01*
X27810394Y-38374450D01*
X27810394Y-38399009D01*
X27815236Y-38448174D01*
X27834358Y-38544307D01*
X27848699Y-38591582D01*
X27886208Y-38682138D01*
X27909497Y-38725710D01*
X27963953Y-38807209D01*
X27995294Y-38845398D01*
X28064602Y-38914706D01*
X28102791Y-38946047D01*
X28184290Y-39000503D01*
X28227862Y-39023792D01*
X28318418Y-39061301D01*
X28365693Y-39075642D01*
X28461826Y-39094764D01*
X28510991Y-39099606D01*
X28535550Y-39099606D01*
X28560000Y-39102014D01*
X29060000Y-39102014D01*
X29109165Y-39097172D01*
X29156442Y-39082831D01*
X29200011Y-39059542D01*
X29210000Y-39051344D01*
X29219989Y-39059542D01*
X29263558Y-39082831D01*
X29310835Y-39097172D01*
X29360000Y-39102014D01*
X29860000Y-39102014D01*
X29884450Y-39099606D01*
X29909009Y-39099606D01*
X29958174Y-39094764D01*
X30054307Y-39075642D01*
X30101582Y-39061301D01*
X30192138Y-39023792D01*
X30235710Y-39000503D01*
X30317209Y-38946047D01*
X30355398Y-38914706D01*
X30424706Y-38845398D01*
X30456047Y-38807209D01*
X30510503Y-38725710D01*
X30533792Y-38682138D01*
X30571301Y-38591582D01*
X30585642Y-38544307D01*
X30604764Y-38448174D01*
X30609606Y-38399009D01*
X30609606Y-38374450D01*
X30612014Y-38350000D01*
X30612014Y-37850000D01*
X30609606Y-37825550D01*
X30609606Y-37800991D01*
X30604764Y-37751826D01*
X30585642Y-37655693D01*
X30571301Y-37608418D01*
X30533792Y-37517862D01*
X30510503Y-37474290D01*
X30456047Y-37392791D01*
X30424706Y-37354602D01*
X30355398Y-37285294D01*
X30317209Y-37253953D01*
X30235710Y-37199497D01*
X30192138Y-37176208D01*
X30121200Y-37146825D01*
X30121200Y-37118968D01*
X30171731Y-37152732D01*
X30290169Y-37201790D01*
X30415902Y-37226800D01*
X30544098Y-37226800D01*
X30669831Y-37201790D01*
X30788269Y-37152732D01*
X30894861Y-37081509D01*
X30985509Y-36990861D01*
X31056732Y-36884269D01*
X31105790Y-36765831D01*
X31130800Y-36640098D01*
X31130800Y-36511902D01*
X31105790Y-36386169D01*
X31056732Y-36267731D01*
X30985509Y-36161139D01*
X30894861Y-36070491D01*
X30883200Y-36062699D01*
X30883200Y-35833787D01*
X30885149Y-35813999D01*
X30883200Y-35794211D01*
X30883200Y-35794202D01*
X30877365Y-35734959D01*
X30854310Y-35658956D01*
X30816870Y-35588911D01*
X30766484Y-35527516D01*
X30751103Y-35514893D01*
X30638799Y-35402589D01*
X30638799Y-33521569D01*
X30642739Y-33525509D01*
X30749331Y-33596732D01*
X30867769Y-33645790D01*
X30993502Y-33670800D01*
X31121698Y-33670800D01*
X31135454Y-33668064D01*
X31600800Y-34133410D01*
X31600801Y-40620199D01*
X31598851Y-40640000D01*
X31606635Y-40719041D01*
X31629691Y-40795044D01*
X31667131Y-40865089D01*
X31685994Y-40888073D01*
X31717517Y-40926484D01*
X31732892Y-40939102D01*
X32320692Y-41526902D01*
X32277107Y-41554129D01*
X32276774Y-41554385D01*
X32276397Y-41554574D01*
X32273387Y-41556498D01*
X32206543Y-41599874D01*
X32206495Y-41599913D01*
X32204646Y-41601117D01*
X32120358Y-41656881D01*
X32120311Y-41656919D01*
X32119026Y-41657768D01*
X32021671Y-41723056D01*
X32021631Y-41723089D01*
X32020694Y-41723714D01*
X31947257Y-41773454D01*
X31947232Y-41773475D01*
X31946869Y-41773718D01*
X31689770Y-41948544D01*
X31326779Y-41798907D01*
X31268647Y-41490543D01*
X31268647Y-41490542D01*
X31184826Y-41045918D01*
X31184748Y-41045651D01*
X31184723Y-41045375D01*
X31177718Y-41021574D01*
X31170834Y-40997996D01*
X31170707Y-40997752D01*
X31170628Y-40997483D01*
X31159201Y-40975625D01*
X31147801Y-40953703D01*
X31147625Y-40953484D01*
X31147498Y-40953240D01*
X31132105Y-40934095D01*
X31116602Y-40914728D01*
X31116390Y-40914549D01*
X31116216Y-40914333D01*
X31097200Y-40898376D01*
X31078428Y-40882556D01*
X31078188Y-40882423D01*
X31077973Y-40882243D01*
X31056398Y-40870382D01*
X31034733Y-40858410D01*
X31034464Y-40858324D01*
X31034224Y-40858192D01*
X31010905Y-40850795D01*
X30987178Y-40843212D01*
X30986901Y-40843180D01*
X30986638Y-40843097D01*
X30962056Y-40840340D01*
X30937579Y-40837541D01*
X30937306Y-40837563D01*
X30937026Y-40837532D01*
X30933454Y-40837507D01*
X30008006Y-40837507D01*
X30007727Y-40837534D01*
X30007453Y-40837508D01*
X29982761Y-40839982D01*
X29958321Y-40842379D01*
X29958060Y-40842458D01*
X29957779Y-40842486D01*
X29934063Y-40849703D01*
X29910528Y-40856808D01*
X29910281Y-40856939D01*
X29910016Y-40857020D01*
X29888214Y-40868673D01*
X29866448Y-40880246D01*
X29866234Y-40880420D01*
X29865988Y-40880552D01*
X29846719Y-40896337D01*
X29827761Y-40911799D01*
X29827586Y-40912010D01*
X29827368Y-40912189D01*
X29811633Y-40931293D01*
X29795938Y-40950265D01*
X29795804Y-40950512D01*
X29795629Y-40950725D01*
X29784042Y-40972267D01*
X29772193Y-40994181D01*
X29772110Y-40994450D01*
X29771980Y-40994691D01*
X29764757Y-41018203D01*
X29757431Y-41041871D01*
X29757402Y-41042146D01*
X29757320Y-41042413D01*
X29756634Y-41045918D01*
X29672819Y-41490516D01*
X29672814Y-41490542D01*
X29614681Y-41798907D01*
X29433589Y-41873559D01*
X29433586Y-41873561D01*
X29251691Y-41948543D01*
X28994592Y-41773718D01*
X28994563Y-41773702D01*
X28994021Y-41773330D01*
X28890110Y-41703081D01*
X28890059Y-41703053D01*
X28888899Y-41702267D01*
X28794968Y-41639542D01*
X28794913Y-41639513D01*
X28793484Y-41638558D01*
X28713919Y-41586224D01*
X28713872Y-41586200D01*
X28711633Y-41584738D01*
X28650815Y-41545657D01*
X28649677Y-41545074D01*
X28648671Y-41544295D01*
X28645634Y-41542415D01*
X28607947Y-41519451D01*
X28598276Y-41514785D01*
X28589185Y-41509071D01*
X28585979Y-41507497D01*
X28575714Y-41502545D01*
X28568344Y-41499841D01*
X28561410Y-41496178D01*
X28544970Y-41491263D01*
X28528847Y-41485347D01*
X28521094Y-41484126D01*
X28513578Y-41481879D01*
X28496494Y-41480251D01*
X28479531Y-41477579D01*
X28471688Y-41477887D01*
X28463881Y-41477143D01*
X28446806Y-41478864D01*
X28429646Y-41479538D01*
X28422015Y-41481363D01*
X28414208Y-41482150D01*
X28397781Y-41487159D01*
X28381092Y-41491150D01*
X28373964Y-41494421D01*
X28366456Y-41496710D01*
X28351323Y-41504810D01*
X28335718Y-41511970D01*
X28329355Y-41516568D01*
X28322441Y-41520268D01*
X28319485Y-41522273D01*
X28300995Y-41535007D01*
X28290162Y-41544148D01*
X28278597Y-41552337D01*
X28275914Y-41554695D01*
X28236404Y-41589901D01*
X28234936Y-41591492D01*
X28233211Y-41592795D01*
X28230602Y-41595234D01*
X28174499Y-41648414D01*
X28174426Y-41648499D01*
X28174343Y-41648563D01*
X28171770Y-41651040D01*
X28103505Y-41717696D01*
X28103468Y-41717740D01*
X28101768Y-41719408D01*
X28025770Y-41795044D01*
X28025731Y-41795091D01*
X28024417Y-41796400D01*
X27945111Y-41876518D01*
X27945070Y-41876568D01*
X27943851Y-41877800D01*
X27865668Y-41957902D01*
X27865631Y-41957948D01*
X27864274Y-41959341D01*
X27791642Y-42034931D01*
X27791610Y-42034971D01*
X27789802Y-42036866D01*
X27727150Y-42103447D01*
X27726893Y-42103780D01*
X27726578Y-42104057D01*
X27724157Y-42106684D01*
X27675913Y-42159756D01*
X27673920Y-42162433D01*
X27671504Y-42164735D01*
X27669190Y-42167456D01*
X27639782Y-42202526D01*
X27629383Y-42217724D01*
X27618213Y-42232373D01*
X27616356Y-42235425D01*
X27609325Y-42247161D01*
X27599421Y-42268089D01*
X27589218Y-42288881D01*
X27588748Y-42290641D01*
X27587970Y-42292286D01*
X27582322Y-42314730D01*
X27576349Y-42337117D01*
X27576230Y-42338935D01*
X27575786Y-42340700D01*
X27574605Y-42363807D01*
X27573094Y-42386935D01*
X27573331Y-42388743D01*
X27573238Y-42390559D01*
X27576567Y-42413451D01*
X27579578Y-42436435D01*
X27580161Y-42438162D01*
X27580423Y-42439962D01*
X27588145Y-42461803D01*
X27595552Y-42483733D01*
X27597043Y-42486979D01*
X27597061Y-42487017D01*
X27597065Y-42487029D01*
X27597072Y-42487040D01*
X27607161Y-42508617D01*
X27612896Y-42518291D01*
X27617560Y-42528527D01*
X27619373Y-42531605D01*
X27647737Y-42579007D01*
X27648786Y-42580425D01*
X27649563Y-42582012D01*
X27651460Y-42585038D01*
X27695090Y-42653569D01*
X27695153Y-42653649D01*
X27695201Y-42653744D01*
X27697143Y-42656742D01*
X27753054Y-42741763D01*
X27753079Y-42741794D01*
X27754579Y-42744056D01*
X27819791Y-42840934D01*
X27819832Y-42840983D01*
X27820844Y-42842486D01*
X27858511Y-42897568D01*
X27858512Y-42897569D01*
X27926911Y-42997768D01*
X27986938Y-43087070D01*
X28026111Y-43146471D01*
X28020584Y-43159938D01*
X27986690Y-43241113D01*
X27949524Y-43329088D01*
X27911545Y-43418076D01*
X27876026Y-43500381D01*
X27865585Y-43524204D01*
X27850440Y-43527178D01*
X27754238Y-43545625D01*
X27642515Y-43566684D01*
X27642505Y-43566686D01*
X27576706Y-43578945D01*
X27576655Y-43578960D01*
X27575715Y-43579132D01*
X27455207Y-43602076D01*
X27455151Y-43602092D01*
X27452743Y-43602558D01*
X27343896Y-43624391D01*
X27343863Y-43624401D01*
X27340914Y-43625007D01*
X27249236Y-43644534D01*
X27248698Y-43644705D01*
X27248142Y-43644770D01*
X27244657Y-43645553D01*
X27175651Y-43661579D01*
X27172174Y-43662754D01*
X27168553Y-43663335D01*
X27165104Y-43664267D01*
X27124282Y-43675598D01*
X27109003Y-43681497D01*
X27093342Y-43686362D01*
X27090060Y-43687772D01*
X27081853Y-43691367D01*
X27078329Y-43693341D01*
X27077710Y-43693580D01*
X27076807Y-43694151D01*
X27071867Y-43696000D01*
X27055292Y-43706246D01*
X27038298Y-43715765D01*
X27034099Y-43719346D01*
X27029402Y-43722249D01*
X27015136Y-43735515D01*
X27000310Y-43748158D01*
X26996884Y-43752489D01*
X26992843Y-43756247D01*
X26981430Y-43772027D01*
X26969338Y-43787313D01*
X26966818Y-43792228D01*
X26963585Y-43796698D01*
X26955448Y-43814405D01*
X26946562Y-43831738D01*
X26945047Y-43837041D01*
X26942740Y-43842061D01*
X26941596Y-43845445D01*
X26933559Y-43869777D01*
X26928305Y-43893134D01*
X26922858Y-43916483D01*
X26922616Y-43918423D01*
X26922602Y-43918483D01*
X26922600Y-43918544D01*
X26922415Y-43920027D01*
X26915930Y-43974980D01*
X26915826Y-43980266D01*
X26914911Y-43985470D01*
X26914663Y-43989034D01*
X26909726Y-44068183D01*
X26909787Y-44069897D01*
X26909537Y-44071587D01*
X26909387Y-44075156D01*
X26905993Y-44172074D01*
X26906025Y-44172577D01*
X26905960Y-44173075D01*
X26905874Y-44176646D01*
X26904020Y-44284907D01*
X26904023Y-44284947D01*
X26904018Y-44284992D01*
X26903983Y-44288564D01*
X26903663Y-44401665D01*
X26018545Y-44401665D01*
X26941103Y-43479107D01*
X26956484Y-43466484D01*
X27006870Y-43405089D01*
X27012561Y-43394442D01*
X27044310Y-43335045D01*
X27067365Y-43259041D01*
X27068655Y-43245939D01*
X27073200Y-43199798D01*
X27073200Y-43199791D01*
X27075149Y-43180000D01*
X27073200Y-43160209D01*
X27073200Y-34457010D01*
X32578183Y-28952028D01*
X32596704Y-28961927D01*
X32804206Y-29024872D01*
X32965925Y-29040800D01*
X33074075Y-29040800D01*
X33235794Y-29024872D01*
X33443296Y-28961927D01*
X33634531Y-28859710D01*
X33802149Y-28722149D01*
X33939710Y-28554531D01*
X34041927Y-28363296D01*
X34043296Y-28358780D01*
X34214874Y-28358780D01*
X34322420Y-28613154D01*
X34477526Y-28841659D01*
X34674230Y-29035514D01*
X34904974Y-29187269D01*
X35141221Y-29285118D01*
X35356800Y-29192727D01*
X35356800Y-28143200D01*
X35763200Y-28143200D01*
X35763200Y-29192727D01*
X35978779Y-29285118D01*
X36215026Y-29187269D01*
X36445770Y-29035514D01*
X36642474Y-28841659D01*
X36797580Y-28613154D01*
X36905126Y-28358780D01*
X36814377Y-28143200D01*
X35763200Y-28143200D01*
X35356800Y-28143200D01*
X34305623Y-28143200D01*
X34214874Y-28358780D01*
X34043296Y-28358780D01*
X34104872Y-28155794D01*
X34126126Y-27940000D01*
X34104872Y-27724206D01*
X34043297Y-27521220D01*
X34214874Y-27521220D01*
X34305623Y-27736800D01*
X35356800Y-27736800D01*
X35356800Y-26687273D01*
X35763200Y-26687273D01*
X35763200Y-27736800D01*
X36814377Y-27736800D01*
X36905126Y-27521220D01*
X36797580Y-27266846D01*
X36642474Y-27038341D01*
X36445770Y-26844486D01*
X36215026Y-26692731D01*
X35978779Y-26594882D01*
X35763200Y-26687273D01*
X35356800Y-26687273D01*
X35141221Y-26594882D01*
X34904974Y-26692731D01*
X34674230Y-26844486D01*
X34477526Y-27038341D01*
X34322420Y-27266846D01*
X34214874Y-27521220D01*
X34043297Y-27521220D01*
X34041927Y-27516704D01*
X33939710Y-27325469D01*
X33802149Y-27157851D01*
X33634531Y-27020290D01*
X33443296Y-26918073D01*
X33235794Y-26855128D01*
X33074075Y-26839200D01*
X32965925Y-26839200D01*
X32804206Y-26855128D01*
X32596704Y-26918073D01*
X32405469Y-27020290D01*
X32237851Y-27157851D01*
X32100290Y-27325469D01*
X31998073Y-27516704D01*
X31935128Y-27724206D01*
X31913874Y-27940000D01*
X31935128Y-28155794D01*
X31998073Y-28363296D01*
X32007972Y-28381817D01*
X26438200Y-33951590D01*
X26438200Y-32552010D01*
X30038183Y-28952028D01*
X30056704Y-28961927D01*
X30264206Y-29024872D01*
X30425925Y-29040800D01*
X30534075Y-29040800D01*
X30695794Y-29024872D01*
X30903296Y-28961927D01*
X31094531Y-28859710D01*
X31262149Y-28722149D01*
X31399710Y-28554531D01*
X31501927Y-28363296D01*
X31564872Y-28155794D01*
X31586126Y-27940000D01*
X31564872Y-27724206D01*
X31501927Y-27516704D01*
X31399710Y-27325469D01*
X31262149Y-27157851D01*
X31094531Y-27020290D01*
X30903296Y-26918073D01*
X30695794Y-26855128D01*
X30534075Y-26839200D01*
X30425925Y-26839200D01*
X30264206Y-26855128D01*
X30056704Y-26918073D01*
X29865469Y-27020290D01*
X29697851Y-27157851D01*
X29560290Y-27325469D01*
X29458073Y-27516704D01*
X29395128Y-27724206D01*
X29373874Y-27940000D01*
X29395128Y-28155794D01*
X29458073Y-28363296D01*
X29467972Y-28381817D01*
X25803200Y-32046590D01*
X25803200Y-30647010D01*
X27498183Y-28952027D01*
X27516704Y-28961927D01*
X27724206Y-29024872D01*
X27885925Y-29040800D01*
X27994075Y-29040800D01*
X28155794Y-29024872D01*
X28363296Y-28961927D01*
X28554531Y-28859710D01*
X28722149Y-28722149D01*
X28859710Y-28554531D01*
X28961927Y-28363296D01*
X29024872Y-28155794D01*
X29046126Y-27940000D01*
X29024872Y-27724206D01*
X28961927Y-27516704D01*
X28859710Y-27325469D01*
X28722149Y-27157851D01*
X28554531Y-27020290D01*
X28363296Y-26918073D01*
X28155794Y-26855128D01*
X27994075Y-26839200D01*
X27885925Y-26839200D01*
X27724206Y-26855128D01*
X27516704Y-26918073D01*
X27325469Y-27020290D01*
X27157851Y-27157851D01*
X27020290Y-27325469D01*
X26918073Y-27516704D01*
X26855128Y-27724206D01*
X26833874Y-27940000D01*
X26855128Y-28155794D01*
X26918073Y-28363296D01*
X26927973Y-28381817D01*
X25168200Y-30141590D01*
X25168200Y-29020017D01*
X25184206Y-29024872D01*
X25345925Y-29040800D01*
X25454075Y-29040800D01*
X25615794Y-29024872D01*
X25823296Y-28961927D01*
X26014531Y-28859710D01*
X26182149Y-28722149D01*
X26319710Y-28554531D01*
X26421927Y-28363296D01*
X26484872Y-28155794D01*
X26506126Y-27940000D01*
X26484872Y-27724206D01*
X26421927Y-27516704D01*
X26319710Y-27325469D01*
X26182149Y-27157851D01*
X26014531Y-27020290D01*
X25823296Y-26918073D01*
X25615794Y-26855128D01*
X25454075Y-26839200D01*
X25345925Y-26839200D01*
X25184206Y-26855128D01*
X24976704Y-26918073D01*
X24785469Y-27020290D01*
X24617851Y-27157851D01*
X24480290Y-27325469D01*
X24378073Y-27516704D01*
X24315128Y-27724206D01*
X24293874Y-27940000D01*
X24315128Y-28155794D01*
X24378073Y-28363296D01*
X24399524Y-28403429D01*
X24390690Y-28419957D01*
X24367635Y-28495960D01*
X24361800Y-28555203D01*
X24361800Y-28555209D01*
X24359851Y-28575000D01*
X24361800Y-28594791D01*
X24361801Y-37932988D01*
X23671353Y-38623436D01*
X23642149Y-38587851D01*
X23474531Y-38450290D01*
X23283296Y-38348073D01*
X23075794Y-38285128D01*
X22914075Y-38269200D01*
X22805925Y-38269200D01*
X22644206Y-38285128D01*
X22436704Y-38348073D01*
X22245469Y-38450290D01*
X22077851Y-38587851D01*
X21940290Y-38755469D01*
X21838073Y-38946704D01*
X21775128Y-39154206D01*
X21753874Y-39370000D01*
X20548200Y-39370000D01*
X20548200Y-30803315D01*
X20803851Y-30803315D01*
X20805800Y-30823106D01*
X20805801Y-35159199D01*
X20803851Y-35179000D01*
X20811635Y-35258041D01*
X20827982Y-35311927D01*
X20834691Y-35334044D01*
X20872131Y-35404089D01*
X20922517Y-35465484D01*
X20937892Y-35478102D01*
X21847973Y-36388183D01*
X21838073Y-36406704D01*
X21775128Y-36614206D01*
X21753874Y-36830000D01*
X21775128Y-37045794D01*
X21838073Y-37253296D01*
X21940290Y-37444531D01*
X22077851Y-37612149D01*
X22245469Y-37749710D01*
X22436704Y-37851927D01*
X22644206Y-37914872D01*
X22805925Y-37930800D01*
X22914075Y-37930800D01*
X23075794Y-37914872D01*
X23283296Y-37851927D01*
X23474531Y-37749710D01*
X23642149Y-37612149D01*
X23779710Y-37444531D01*
X23881927Y-37253296D01*
X23944872Y-37045794D01*
X23966126Y-36830000D01*
X23944872Y-36614206D01*
X23881927Y-36406704D01*
X23779710Y-36215469D01*
X23642149Y-36047851D01*
X23474531Y-35910290D01*
X23283296Y-35808073D01*
X23075794Y-35745128D01*
X22914075Y-35729200D01*
X22805925Y-35729200D01*
X22644206Y-35745128D01*
X22436704Y-35808073D01*
X22418183Y-35817973D01*
X21612200Y-35011990D01*
X21612200Y-34290000D01*
X21753874Y-34290000D01*
X21775128Y-34505794D01*
X21838073Y-34713296D01*
X21940290Y-34904531D01*
X22077851Y-35072149D01*
X22245469Y-35209710D01*
X22436704Y-35311927D01*
X22644206Y-35374872D01*
X22805925Y-35390800D01*
X22914075Y-35390800D01*
X23075794Y-35374872D01*
X23283296Y-35311927D01*
X23474531Y-35209710D01*
X23642149Y-35072149D01*
X23779710Y-34904531D01*
X23881927Y-34713296D01*
X23944872Y-34505794D01*
X23966126Y-34290000D01*
X23944872Y-34074206D01*
X23881927Y-33866704D01*
X23779710Y-33675469D01*
X23642149Y-33507851D01*
X23474531Y-33370290D01*
X23283296Y-33268073D01*
X23075794Y-33205128D01*
X22914075Y-33189200D01*
X22805925Y-33189200D01*
X22644206Y-33205128D01*
X22436704Y-33268073D01*
X22245469Y-33370290D01*
X22077851Y-33507851D01*
X21940290Y-33675469D01*
X21838073Y-33866704D01*
X21775128Y-34074206D01*
X21753874Y-34290000D01*
X21612200Y-34290000D01*
X21612200Y-30970325D01*
X21776388Y-30806137D01*
X21762829Y-30850835D01*
X21757987Y-30900000D01*
X21757987Y-32600000D01*
X21762829Y-32649165D01*
X21777170Y-32696441D01*
X21800459Y-32740011D01*
X21831800Y-32778200D01*
X21869989Y-32809541D01*
X21913559Y-32832830D01*
X21960835Y-32847171D01*
X22010000Y-32852013D01*
X23710000Y-32852013D01*
X23759165Y-32847171D01*
X23806441Y-32832830D01*
X23850011Y-32809541D01*
X23888200Y-32778200D01*
X23919541Y-32740011D01*
X23942830Y-32696441D01*
X23957171Y-32649165D01*
X23962013Y-32600000D01*
X23962013Y-30900000D01*
X23957171Y-30850835D01*
X23942830Y-30803559D01*
X23919541Y-30759989D01*
X23888200Y-30721800D01*
X23850011Y-30690459D01*
X23806441Y-30667170D01*
X23759165Y-30652829D01*
X23710000Y-30647987D01*
X22010000Y-30647987D01*
X21960835Y-30652829D01*
X21916138Y-30666388D01*
X22275078Y-30307448D01*
X22318139Y-30350509D01*
X22424731Y-30421732D01*
X22543169Y-30470790D01*
X22668902Y-30495800D01*
X22797098Y-30495800D01*
X22922831Y-30470790D01*
X23041269Y-30421732D01*
X23147861Y-30350509D01*
X23238509Y-30259861D01*
X23309732Y-30153269D01*
X23358790Y-30034831D01*
X23383800Y-29909098D01*
X23383800Y-29780902D01*
X23358790Y-29655169D01*
X23309732Y-29536731D01*
X23238509Y-29430139D01*
X23147861Y-29339491D01*
X23041269Y-29268268D01*
X22922831Y-29219210D01*
X22797098Y-29194200D01*
X22668902Y-29194200D01*
X22543169Y-29219210D01*
X22424731Y-29268268D01*
X22318139Y-29339491D01*
X22227491Y-29430139D01*
X22219699Y-29441800D01*
X22187102Y-29441800D01*
X22167314Y-29439851D01*
X22147526Y-29441800D01*
X22147517Y-29441800D01*
X22088274Y-29447635D01*
X22012271Y-29470690D01*
X21942226Y-29508130D01*
X21880831Y-29558516D01*
X21868213Y-29573891D01*
X20937897Y-30504208D01*
X20922516Y-30516831D01*
X20872130Y-30578227D01*
X20834690Y-30648272D01*
X20811635Y-30724275D01*
X20805800Y-30783518D01*
X20805800Y-30783524D01*
X20803851Y-30803315D01*
X20548200Y-30803315D01*
X20548200Y-27090000D01*
X21757987Y-27090000D01*
X21757987Y-28790000D01*
X21762829Y-28839165D01*
X21777170Y-28886441D01*
X21800459Y-28930011D01*
X21831800Y-28968200D01*
X21869989Y-28999541D01*
X21913559Y-29022830D01*
X21960835Y-29037171D01*
X22010000Y-29042013D01*
X23710000Y-29042013D01*
X23759165Y-29037171D01*
X23806441Y-29022830D01*
X23850011Y-28999541D01*
X23888200Y-28968200D01*
X23919541Y-28930011D01*
X23942830Y-28886441D01*
X23957171Y-28839165D01*
X23962013Y-28790000D01*
X23962013Y-27090000D01*
X23957171Y-27040835D01*
X23942830Y-26993559D01*
X23919541Y-26949989D01*
X23888200Y-26911800D01*
X23850011Y-26880459D01*
X23806441Y-26857170D01*
X23759165Y-26842829D01*
X23710000Y-26837987D01*
X22010000Y-26837987D01*
X21960835Y-26842829D01*
X21913559Y-26857170D01*
X21869989Y-26880459D01*
X21831800Y-26911800D01*
X21800459Y-26949989D01*
X21777170Y-26993559D01*
X21762829Y-27040835D01*
X21757987Y-27090000D01*
X20548200Y-27090000D01*
X20548200Y-26681162D01*
X20569115Y-26467859D01*
X20627820Y-26273419D01*
X20723175Y-26094080D01*
X20851545Y-25936684D01*
X21008044Y-25807216D01*
X21186712Y-25710611D01*
X21380735Y-25650550D01*
X21593379Y-25628201D01*
X36818837Y-25628201D01*
X37032142Y-25649116D01*
M02*
