M48
; DRILL file {KiCad (5.1.4)-1} date 11/9/2020 9:53:26 PM
; FORMAT={-:-/ absolute / inch / decimal}
; #@! TF.CreationDate,2020-11-09T21:53:26-05:00
; #@! TF.GenerationSoftware,Kicad,Pcbnew,(5.1.4)-1
; #@! TF.FileFunction,Plated,1,2,PTH
FMAT,2
INCH
T1C0.0157
T2C0.0197
T3C0.0236
T4C0.0335
T5C0.0394
%
G90
G05
T1
X0.895Y-1.175
X1.04Y-1.21
X1.05Y-1.82
X1.0948Y-1.4
X1.15Y-1.325
X1.2Y-1.44
X1.2Y-1.82
X1.2227Y-1.3
X1.3Y-1.525
X1.3Y-1.575
X1.31Y-1.44
T2
X0.98Y-1.63
T4
X1.0516Y-1.8924
X1.2484Y-1.8924
T5
X0.9Y-1.1
X1.0Y-1.1
X1.1Y-1.1
X1.2Y-1.1
X1.3Y-1.1
X1.4Y-1.1
X0.9Y-1.25
X0.9Y-1.35
X0.9Y-1.45
X0.9Y-1.55
X0.9Y-1.65
X0.9Y-1.75
X0.9Y-1.85
X0.9Y-1.95
X1.4Y-1.25
X1.4Y-1.35
X1.4Y-1.45
X1.4Y-1.55
X1.4Y-1.65
X1.4Y-1.75
X1.4Y-1.85
X1.4Y-1.95
T3
G00X1.0122Y-2.0125
M15
G01X1.0122Y-1.9849
M16
G05
G00X1.2878Y-1.9849
M15
G01X1.2878Y-2.0125
M16
G05
T0
M30
